<svg width="416" height="299" viewBox="0 0 416 299" fill="none" xmlns="http://www.w3.org/2000/svg">
<path opacity="0.5" d="M326.474 270C369.843 270 405 265.359 405 259.634C405 253.909 369.843 249.268 326.474 249.268C283.106 249.268 247.949 253.909 247.949 259.634C247.949 265.359 283.106 270 326.474 270Z" fill="url(#paint0_linear)"/>
<path d="M345.91 123.695L341.728 43.3008C341.728 43.3008 320.987 42.1309 314.965 42.1309C311.62 42.1309 305.932 43.8023 301.416 45.1394C297.234 46.4765 293.722 46.3094 291.547 50.3207L257.592 115.338L278.5 117.344L285.526 109.488L282.013 104.14L294.725 74.2217L294.558 124.865L345.91 123.695Z" fill="#EAD18C"/>
<path opacity="0.5" d="M294.057 62.1877L271.643 102.803L278.668 110.993C278.668 110.993 281.511 111.494 284.188 110.658L285.359 109.321L281.846 103.973L294.558 74.0547L294.057 62.1877Z" fill="url(#paint1_linear)"/>
<path d="M311.954 107.315C311.117 106.981 304.092 102.97 298.907 102.97C293.722 102.97 287.365 108.485 287.365 108.485C287.365 108.485 286.529 111.327 290.042 110.825C293.554 110.324 295.896 109.99 295.896 109.99C295.896 109.99 289.874 113.165 293.889 113.834C297.903 114.335 315.132 113.834 315.132 113.834L311.954 107.315Z" fill="#EAC5B0"/>
<path d="M310.616 119.182H243.708V114.335H310.616C311.954 114.335 313.125 115.505 313.125 116.842C313.125 118.012 311.954 119.182 310.616 119.182Z" fill="#5B61D3"/>
<path d="M292.217 119.182H227.651C224.807 119.182 222.298 117.344 221.629 114.502L210.255 71.5475C209.251 67.5361 212.262 63.6919 216.277 63.6919H272.646C275.49 63.6919 277.999 65.5304 278.668 68.3718L292.217 119.182Z" fill="#3F60B2"/>
<path d="M216.277 63.6919C212.095 63.6919 209.084 67.5361 210.255 71.5475L221.629 114.502C221.964 115.839 222.8 117.009 223.804 117.845L263.112 63.6919H216.277Z" fill="#4B6DC2"/>
<path d="M254.247 95.2813C254.916 98.1227 253.243 100.295 250.232 100.295C247.389 100.295 244.378 97.9555 243.709 95.2813C243.04 92.4399 244.713 90.2671 247.723 90.2671C250.734 90.2671 253.578 92.4399 254.247 95.2813Z" fill="white"/>
<path d="M312.79 32.1026C313.292 33.2726 317.474 49.1508 317.474 49.1508C317.474 49.1508 318.979 51.8251 322.324 51.4908C325.837 51.1565 327.175 46.3095 327.175 46.3095L321.153 26.2527L312.79 32.1026Z" fill="#EAC5B0"/>
<path d="M334.201 22.241C334.201 33.2722 322.492 45.3063 311.619 45.3063C300.58 45.3063 294.558 33.105 294.558 22.241C294.558 11.3769 303.423 2.35132 314.463 2.35132C325.336 2.35132 334.201 11.2097 334.201 22.241Z" fill="#EAC5B0"/>
<path d="M315.968 44.1365L313.626 50.1536L315.132 56.5049L319.815 49.8193L324.499 57.3406L329.684 48.1479L326.172 42.1309C326.172 42.1309 324.499 46.1422 320.652 46.9779C316.805 47.9808 315.968 44.1365 315.968 44.1365Z" fill="white"/>
<path d="M319.816 49.9861L316.303 54.3317L317.976 57.006L315.467 62.5216L315.969 98.6238L319.481 105.978L324.499 97.7881L323.328 63.3573L320.652 56.6717L322.659 53.8303L319.816 49.9861Z" fill="#3F60B2"/>
<path d="M344.237 60.0146L345.408 123.528L315.467 123.194L344.237 60.0146Z" fill="url(#paint2_linear)"/>
<path d="M341.728 43.3008L344.404 103.137L316.638 108.82L320.485 116.007L360.128 118.347L354.775 59.1791C354.273 52.9949 350.593 47.6464 345.073 44.9722L341.728 43.3008Z" fill="#EAD18C"/>
<path d="M311.954 107.315L317.474 107.984L322.325 116.007L313.125 116.675L311.954 107.315Z" fill="white"/>
<path d="M284.355 134.559L235.345 147.095L260.268 245.038L268.799 240.693L261.439 156.454L305.264 142.749L279.839 157.29L280.34 237.183H288.035C288.035 237.183 309.613 158.961 311.62 158.961C313.794 158.961 349.924 134.893 349.924 134.893L284.355 134.559Z" fill="#524F63"/>
<path d="M233.84 252.56L267.962 250.22L268.966 239.523L232.501 247.713L233.84 252.56Z" fill="#524F63"/>
<path d="M261.606 258.576L268.464 259.412L287.7 252.225L288.202 237.183H280.508L276.995 246.542L266.625 252.894L261.606 258.576Z" fill="#524F63"/>
<path d="M293.889 15.2213C293.053 16.7256 292.384 18.3969 292.886 19.9012C293.555 21.7397 295.897 22.4083 297.904 22.5755C301.249 22.9097 304.762 23.0769 308.107 23.0769C310.449 23.0769 312.623 22.9097 314.965 22.4083C318.645 21.5726 321.823 19.7341 325.169 17.8955C327.51 16.5584 330.019 14.887 330.521 12.3799C330.856 9.70568 329.016 7.36572 327.343 5.52718C326.339 4.3572 325.336 3.35436 324.165 2.35152C321.154 0.178703 317.307 -0.322709 313.627 0.17871C304.427 1.51583 298.071 7.53286 293.889 15.2213Z" fill="#4A4549"/>
<path d="M326.34 21.5727C326.674 20.5699 328.012 19.9013 329.016 20.4027C330.02 20.737 330.689 21.7398 330.856 22.9098C331.023 23.9127 330.689 25.0826 330.187 26.0855C330.02 26.5869 329.685 27.0883 329.518 27.5897C329.351 28.0912 329.351 28.4254 329.351 28.9269C329.351 30.9325 329.351 32.7711 329.518 34.7768C331.191 34.1082 332.027 32.6039 332.863 31.0997C334.703 27.7569 336.543 24.2469 336.209 20.4027C336.041 17.2271 334.536 14.3857 332.863 11.7115C332.529 11.21 332.194 10.5415 331.692 10.2072C330.856 9.70578 329.852 9.70577 329.016 9.87291C328.18 10.2072 327.343 10.7086 326.507 11.21C325.671 11.7115 325.002 12.2129 324.165 12.7143C323.496 13.2157 322.66 13.7171 322.158 14.5528C321.489 16.0571 322.493 16.7257 323.329 17.5614C323.998 17.8956 323.162 27.5897 326.34 21.5727Z" fill="#4A4549"/>
<path d="M297.067 38.2868C294.391 38.2868 291.547 36.114 290.544 33.2726C290.042 31.7684 290.209 30.4313 290.878 29.4284C291.547 28.5927 292.551 28.0913 293.722 28.0913C296.398 28.0913 299.242 30.2641 300.245 33.1055C300.747 34.6098 300.58 35.9469 299.911 36.9497C299.409 37.7854 298.405 38.2868 297.067 38.2868ZM293.722 28.7599C292.718 28.7599 291.882 29.0941 291.547 29.7627C291.046 30.5984 290.878 31.7684 291.38 32.9384C292.216 35.4455 294.893 37.4511 297.234 37.4511C298.238 37.4511 299.074 37.1168 299.409 36.4483C299.911 35.6126 300.078 34.4426 299.576 33.2726C298.74 30.7655 296.064 28.7599 293.722 28.7599Z" fill="#EFF2F7"/>
<path d="M310.282 38.2868C307.605 38.2868 304.762 36.114 303.758 33.2726C303.256 31.7684 303.424 30.4313 304.093 29.4284C304.762 28.5927 305.765 28.0913 306.936 28.0913C309.612 28.0913 312.456 30.2641 313.46 33.1055C313.961 34.6098 313.794 35.9469 313.125 36.9497C312.623 37.7854 311.62 38.2868 310.282 38.2868ZM306.936 28.7599C305.933 28.7599 305.096 29.0941 304.762 29.7627C304.26 30.5984 304.093 31.7684 304.594 32.9384C305.431 35.4455 308.107 37.4511 310.449 37.4511C311.452 37.4511 312.289 37.1168 312.623 36.4483C313.125 35.6126 313.292 34.4426 312.791 33.2726C311.954 30.7655 309.278 28.7599 306.936 28.7599Z" fill="#EFF2F7"/>
<path d="M294.558 257.908C297.607 257.908 300.078 255.439 300.078 252.393C300.078 249.346 297.607 246.877 294.558 246.877C291.51 246.877 289.039 249.346 289.039 252.393C289.039 255.439 291.51 257.908 294.558 257.908Z" fill="#524F63"/>
<path d="M361.466 257.908C364.515 257.908 366.986 255.439 366.986 252.393C366.986 249.346 364.515 246.877 361.466 246.877C358.418 246.877 355.946 249.346 355.946 252.393C355.946 255.439 358.418 257.908 361.466 257.908Z" fill="#524F63"/>
<path d="M332.194 252.393C332.194 255.401 329.685 257.908 326.674 257.908C323.663 257.908 321.154 255.401 321.154 252.393C321.154 249.384 323.663 246.877 326.674 246.877C329.685 246.877 332.194 249.384 332.194 252.393Z" fill="#524F63"/>
<path d="M294.558 252.393V249.552C294.558 243.2 299.743 237.852 306.267 237.852H328.012V181.191" stroke="#524F63" stroke-miterlimit="10"/>
<path d="M360.797 252.393V249.552C360.797 243.2 355.611 237.852 349.088 237.852H327.176V181.191" stroke="#524F63" stroke-miterlimit="10"/>
<path d="M326.674 252.393V237.852" stroke="#524F63" stroke-miterlimit="10"/>
<path d="M333.03 209.271H320.652V237.35H333.03V209.271Z" fill="#524F63"/>
<path d="M330.521 181.694H322.66V213.618H330.521V181.694Z" fill="#524F63"/>
<path d="M397.403 124.833H14.9111V185.167H397.403V124.833Z" fill="#BCBACE"/>
<path d="M21.7806 125.333H15.4141V279H21.7806V125.333Z" fill="#524F63"/>
<path d="M401.592 125.333H395.225V279H401.592V125.333Z" fill="#524F63"/>
<path d="M401.759 160.5L14.4082 125.333H401.759V160.5Z" fill="url(#paint3_linear)"/>
<path d="M416 119H0V129.167H416V119Z" fill="#E0E4ED"/>
<path opacity="0.08" d="M280 292.928C280 296.278 262.201 299 240 299C217.799 299 200 296.278 200 292.928C200 289.578 217.799 286.856 240 286.856C262.201 286.856 280 289.578 280 292.928Z" fill="#9DAFBD"/>
<path d="M208.996 103.656C208.996 103.656 196.555 163.536 216.268 204.364C235.981 245.191 235.79 244.982 235.79 244.982C235.79 244.982 240.957 143.227 208.996 103.656Z" fill="#5BB59B"/>
<path d="M209.761 260.266C210.909 267.594 212.44 275.132 215.885 281.622C219.139 288.113 224.498 293.766 231.196 295.441C234.259 296.278 237.321 296.278 240.383 296.069C243.828 296.069 247.273 295.65 250.335 293.766C254.163 291.253 256.077 286.647 257.608 282.041C260.287 274.294 262.201 266.338 263.541 258.382C264.307 253.776 264.881 248.751 262.775 244.564C260.096 238.911 253.78 236.607 248.039 235.561C238.469 233.886 225.263 233.048 216.077 237.236C208.039 241.004 208.421 252.101 209.761 260.266Z" fill="#D8E4F2"/>
<path d="M231.579 245.192C239.235 245.61 247.464 244.354 252.249 241.632C253.206 241.004 253.972 240.376 253.589 239.748C253.015 238.91 251.101 238.492 249.187 238.492C240 237.445 229.857 237.026 220.862 238.701C207.847 241.004 224.498 244.773 231.579 245.192Z" fill="#524F63"/>
<path d="M227.56 89C227.56 89 221.436 203.108 235.79 244.982C235.79 244.982 245.168 143.227 227.56 89Z" fill="#63A590"/>
<path d="M234.067 244.144H237.512C242.488 221.532 257.225 148.252 249.378 114.125C249.378 114.125 224.498 210.226 230.814 231.791C232.153 237.445 233.302 241.423 234.067 244.144Z" fill="#5BB59B"/>
<defs>
<linearGradient id="paint0_linear" x1="414.238" y1="199.961" x2="154.805" y2="369.647" gradientUnits="userSpaceOnUse">
<stop stop-color="#4A50C2" stop-opacity="0.02"/>
<stop offset="1" stop-color="#444BCC" stop-opacity="0.64"/>
</linearGradient>
<linearGradient id="paint1_linear" x1="271.555" y1="86.6826" x2="294.48" y2="86.6826" gradientUnits="userSpaceOnUse">
<stop stop-color="#EAD18C" stop-opacity="0"/>
<stop offset="1" stop-color="#524F63" stop-opacity="0.7"/>
</linearGradient>
<linearGradient id="paint2_linear" x1="283.818" y1="115.908" x2="396.788" y2="71.1888" gradientUnits="userSpaceOnUse">
<stop stop-color="#EAD18C" stop-opacity="0"/>
<stop offset="1" stop-color="#524F63" stop-opacity="0.7"/>
</linearGradient>
<linearGradient id="paint3_linear" x1="206.006" y1="152.207" x2="232.809" y2="27.8536" gradientUnits="userSpaceOnUse">
<stop stop-color="#676475" stop-opacity="0"/>
<stop offset="1" stop-color="#524F63" stop-opacity="0.7"/>
</linearGradient>
</defs>
</svg>
