<svg width="198" height="358" viewBox="0 0 198 358" fill="none" xmlns="http://www.w3.org/2000/svg">
<path opacity="0.08" d="M84 338C130.392 338 168 333.075 168 327C168 320.925 130.392 316 84 316C37.6081 316 0 320.925 0 327C0 333.075 37.6081 338 84 338Z" fill="#9DAFBD"/>
<path d="M69.0146 173.636C69.0146 177.959 64.5572 181.562 59.03 181.562C53.5028 181.562 49.0454 177.959 49.0454 173.636C49.0454 169.312 53.5028 165.709 59.03 165.709C64.5572 165.709 69.0146 169.312 69.0146 173.636Z" stroke="#212940" stroke-miterlimit="10"/>
<path d="M64.5569 165.89C65.0918 162.287 60.8127 156.702 60.8127 156.702L62.7739 143.372H54.7506L53.3242 156.702L54.0374 166.07C54.2157 167.331 54.7506 168.232 55.4638 168.952C56.8901 170.213 59.0297 170.393 60.8127 169.493L64.022 167.871L62.5956 167.151L60.991 166.61C61.3476 165.529 62.239 165.169 63.4871 165.529L64.5569 165.89Z" fill="#EAC5B0"/>
<path d="M83.2782 13.8484C83.2782 13.8484 82.5651 5.02134 90.945 1.41848C101.999 -3.44538 115.728 4.48091 121.255 20.8739C126.783 37.4471 145.147 43.3918 151.387 49.3366C159.946 57.2628 162.977 72.575 143.542 77.619C131.418 80.8616 132.845 73.836 119.294 75.6374C105.744 77.4389 80.2472 75.6374 76.3247 63.5679C72.4022 51.4983 82.7434 46.094 78.286 36.006C73.6503 25.7378 74.5417 14.9292 83.2782 13.8484Z" fill="#212940"/>
<path opacity="0.12" d="M135.341 54.9215C128.209 53.1201 128.922 47.1754 126.248 42.8519C123.752 38.5285 118.403 36.3668 112.519 35.4661C112.519 35.4661 88.6273 36.5469 88.449 40.1498C88.2707 43.9328 87.5575 48.6165 84.3482 51.1385C80.9606 53.6605 76.5032 62.4875 78.4644 67.1712C85.7746 75.9983 107.348 77.2593 119.473 75.638C133.023 73.8365 131.597 80.682 143.721 77.6195C149.783 75.9983 153.705 73.4762 155.845 70.4138C155.845 70.4138 155.845 70.2337 156.023 70.2337C156.023 70.0535 156.202 70.0535 156.202 69.8734C161.729 61.0464 142.473 56.7229 135.341 54.9215Z" fill="black"/>
<path d="M130.705 103.74C130.705 103.74 124.465 101.218 126.604 92.9316L134.271 95.2735L130.705 103.74Z" fill="#212940"/>
<path d="M126.604 57.8037C131.953 59.7853 146.395 78.1599 150.853 84.645C155.31 91.1302 160.124 95.8139 158.876 100.498C157.628 105.181 130.705 103.74 130.705 103.74C130.705 103.74 131.775 96.3544 126.604 92.9316H141.581L124.643 74.9173L126.604 57.8037Z" fill="#314F8F"/>
<path opacity="0.08" d="M124.643 74.7373L131.24 81.7629L126.248 60.1458L124.643 74.7373Z" fill="black"/>
<path d="M69.5494 60.6863C69.5494 60.6863 63.1307 90.4099 60.6346 101.939C58.1384 113.468 54.9291 119.233 54.0376 145.534C54.0376 145.534 56.712 147.695 63.6656 146.074L79.534 78.7006L69.5494 60.6863Z" fill="#314F8F"/>
<path opacity="0.08" d="M79.5339 78.7006L69.5493 60.6863L75.968 93.6525L79.5339 78.7006Z" fill="black"/>
<path d="M124.821 263.887V299.376L127.674 307.662C129.813 313.427 133.201 318.831 137.658 322.974L140.868 326.037L122.86 321.533C121.433 321.173 120.185 320.272 119.294 319.191L113.41 312.166L113.232 322.794H109.844L108.596 304.6C108.239 301.357 109.131 298.115 110.914 295.413L114.836 289.468L111.27 263.887H124.821Z" fill="#EAC5B0"/>
<path d="M52.433 251.998L41.3787 290.008C41.3787 290.008 28.5413 314.328 32.2856 330C32.2856 330 45.6578 320.993 51.3633 306.942L51.7198 291.089L69.0146 251.998H52.433Z" fill="#EAC5B0"/>
<path d="M129.1 133.644C129.1 133.644 129.279 228.94 126.248 268.571H108.418C108.418 268.571 104.139 225.877 108.418 217.05L103.247 160.125L69.0145 262.086L48.1538 260.104C48.1538 260.104 62.9524 221.013 66.8749 203.9C70.7974 186.786 75.0765 149.497 84.3479 133.824H129.1V133.644Z" fill="#314F8F"/>
<path opacity="0.08" d="M129.1 133.644H84.348C82.7433 136.346 81.3169 139.589 80.0688 143.192C86.1309 146.074 100.573 150.758 111.984 140.129C111.984 140.129 118.937 144.273 129.279 142.831C129.1 137.247 129.1 133.644 129.1 133.644Z" fill="black"/>
<path d="M90.4101 23.2163C90.4101 23.2163 97.1854 34.3852 112.519 35.466C112.519 35.466 111.092 46.2746 105.922 51.6789L106.457 55.6421L115.55 57.9839L113.41 68.2521H85.9527L84.348 58.1641L91.6582 56.5428L92.0148 48.7966C92.0148 48.7966 88.9837 44.8335 88.2706 40.3299C88.2706 40.3299 83.2783 38.1682 84.348 33.8447C85.4178 29.5213 88.6271 32.7639 88.6271 32.7639L90.4101 23.2163Z" fill="#EAC5B0"/>
<path opacity="0.1" d="M114.836 57.8037L106.635 55.642L106.1 51.6788C94.5107 56.7228 88.627 40.3298 88.627 40.3298C89.3401 44.8334 92.3712 48.7966 92.3712 48.7966L92.1929 52.3994C95.4022 57.2633 100.395 60.8661 104.317 61.947C111.092 63.7484 113.945 59.6051 113.945 59.6051L114.836 57.8037Z" fill="black"/>
<path d="M87.3789 63.9285H114.123L107.17 121.754L87.3789 63.9285Z" fill="white"/>
<path d="M111.805 54.9214L106.457 111.126L108.418 135.806C108.418 135.806 119.294 139.048 131.775 137.247C131.775 137.247 124.999 109.865 125.891 99.4167C126.782 88.9684 128.209 93.472 128.03 81.7627C127.852 70.2336 126.604 57.8037 126.604 57.8037L111.805 54.9214Z" fill="#314F8F"/>
<path d="M113.41 77.2591C112.697 74.3768 116.798 73.296 117.511 66.4505C118.224 59.6051 111.627 54.9214 111.627 54.9214L106.278 111.126C106.278 111.126 116.62 92.9316 116.62 87.8876C116.798 82.6634 114.123 80.3216 113.41 77.2591Z" fill="#587BC9"/>
<path d="M87.3789 54.9214L106.457 111.126L109.666 135.445C109.666 135.445 92.5495 144.813 80.782 137.427L83.813 123.015C85.2394 116.17 84.8828 109.144 82.7432 102.479L69.5493 60.686L87.3789 54.9214Z" fill="#314F8F"/>
<path d="M78.2861 68.252C78.9993 74.0166 86.4878 74.557 86.6661 79.7811C86.8444 85.0053 84.5265 90.4096 88.8056 96.1741C93.0847 101.939 106.457 111.306 106.457 111.306L87.3792 54.9214C87.3792 54.9214 77.7512 62.4874 78.2861 68.252Z" fill="#587BC9"/>
<path opacity="0.08" d="M108.418 268.571H126.248C126.604 262.987 127.139 256.141 127.318 248.575L103.248 160.125L108.418 217.05C104.139 225.877 108.418 268.571 108.418 268.571Z" fill="black"/>
<path d="M127.317 93.2919L113.41 92.9316C112.162 92.9316 110.736 93.2919 109.666 94.1926L96.6504 104.101C96.6504 104.101 101.108 111.306 102.891 112.928C104.674 114.549 105.565 108.784 105.565 108.784C105.565 108.784 111.984 105.722 114.123 100.318L130.883 101.398C130.705 98.8764 129.992 95.4536 127.317 93.2919Z" fill="#EAC5B0"/>
<path d="M109.487 322.695H112.936L113.117 312.17L119.107 319.127C120.015 320.197 121.285 321.089 122.737 321.446L141.07 325.905L137.803 322.873C133.628 319.127 130.361 314.489 128.183 309.316C126.186 310.387 122.919 311.1 119.289 308.068C113.48 303.073 114.751 289.873 114.751 289.873L110.758 295.76C108.943 298.435 108.217 301.646 108.398 304.857L109.487 322.695Z" fill="#212940"/>
<path d="M40.3088 307.662C38.1692 307.662 36.208 306.041 35.8514 302.798C32.8203 311.085 30.3242 321.713 32.2854 330C32.2854 330 45.6577 320.993 51.3631 306.942L51.7197 291.089C51.5414 290.909 47.084 307.662 40.3088 307.662Z" fill="#212940"/>
<path d="M114.48 95.6338C114.48 95.6338 115.193 97.2551 114.48 100.137L116.441 100.318C116.441 100.318 116.976 98.5161 116.441 95.6338H114.48Z" fill="#314F8F"/>
<path d="M116.263 92.9319C117.155 93.8326 117.333 95.2737 116.62 95.9943C115.906 96.895 114.48 96.7149 113.589 95.8142C112.697 94.9134 112.519 93.4723 113.232 92.7517C113.945 92.0312 115.372 92.0312 116.263 92.9319Z" fill="#212940"/>
<path d="M115.906 93.4725C116.441 94.0129 116.619 94.9136 116.085 95.454C115.55 95.9945 114.658 95.9945 114.123 95.454C113.588 94.9136 113.41 94.0129 113.945 93.4725C114.302 92.932 115.193 92.932 115.906 93.4725Z" fill="white"/>
<path d="M88.8054 172.555H29.0762V213.628H88.8054V172.555Z" fill="#D8E4F2"/>
<path d="M29.0762 172.555L58.8516 193.091L88.8054 172.555H29.0762Z" fill="#A1BDEB"/>
<path opacity="0.08" d="M198 351.928C198 355.278 180.201 358 158 358C135.799 358 118 355.278 118 351.928C118 348.578 135.799 345.856 158 345.856C180.201 345.856 198 348.578 198 351.928Z" fill="#9DAFBD"/>
<path d="M126.996 162.656C126.996 162.656 114.555 222.536 134.268 263.364C153.981 304.191 153.79 303.982 153.79 303.982C153.79 303.982 158.957 202.227 126.996 162.656Z" fill="#5BB59B"/>
<path d="M127.761 319.266C128.909 326.594 130.44 334.132 133.885 340.622C137.139 347.113 142.498 352.766 149.196 354.441C152.259 355.278 155.321 355.278 158.383 355.069C161.828 355.069 165.273 354.65 168.335 352.766C172.163 350.253 174.077 345.647 175.608 341.041C178.287 333.294 180.201 325.338 181.541 317.382C182.307 312.776 182.881 307.751 180.775 303.564C178.096 297.911 171.78 295.607 166.039 294.561C156.469 292.886 143.263 292.048 134.077 296.236C126.039 300.004 126.421 311.101 127.761 319.266Z" fill="#D8E4F2"/>
<path d="M149.579 304.192C157.235 304.61 165.464 303.354 170.249 300.632C171.206 300.004 171.972 299.376 171.589 298.748C171.015 297.91 169.101 297.492 167.187 297.492C158 296.445 147.857 296.026 138.862 297.701C125.847 300.004 142.498 303.773 149.579 304.192Z" fill="#524F63"/>
<path d="M145.56 148C145.56 148 139.436 262.108 153.79 303.982C153.79 303.982 163.168 202.227 145.56 148Z" fill="#63A590"/>
<path d="M152.067 303.144H155.512C160.488 280.532 175.225 207.252 167.378 173.125C167.378 173.125 142.498 269.226 148.814 290.791C150.153 296.445 151.302 300.423 152.067 303.144Z" fill="#5BB59B"/>
</svg>
