<svg width="196" height="476" viewBox="0 0 196 476" fill="none" xmlns="http://www.w3.org/2000/svg">
<path opacity="0.14" d="M11.1089 464.137L79.5001 475.17C79.5584 475.179 79.6167 475.179 79.675 475.179L153.125 461.786C165.217 457.335 171.76 455.38 178.748 453.051L191.5 450.612C199.129 448.392 196.217 439.075 189.031 439.075L11.1941 445.135C10.934 445.144 10.6739 445.303 10.4272 445.621C-1.19167 446.645 -5.85027 456.545 11.1089 464.137Z" fill="#DDDDDD"/>
<path d="M99.8618 50.9478C97.7891 55.4836 94.3926 59.2619 91.6319 63.406C88.9408 67.4369 87.9741 71.0934 87.2513 75.7685C86.7375 79.1464 85.5269 81.7843 81.4598 82.3676C73.7785 83.4558 75.9732 77.1179 74.2314 72.5037C72.237 67.2279 67.9871 63.0665 65.0173 58.3565C56.4303 44.7578 58.8862 17.8651 76.7308 12.1279C96.2302 5.85957 106.158 37.1923 99.8618 50.9478Z" fill="#EAC5B0"/>
<path d="M68.7537 37.7839C66.5417 37.871 64.1032 38.0451 62.4572 39.5338C60.8112 41.0225 60.9941 44.2611 63.1626 44.6181C65.1308 44.9315 67.6738 42.8856 68.8757 44.383C69.5811 45.2536 68.9628 46.5421 68.4315 47.5607C66.3849 51.4871 65.7753 56.0403 66.7333 60.2192C65.9233 60.9679 64.6606 60.1931 63.9551 59.4095C60.428 55.5354 57.6673 51.0083 55.8645 46.1329C55.1591 47.3169 54.114 48.3181 52.8947 49.0146C53.6263 47.1776 53.1647 45.1753 52.7119 43.2948C51.0485 36.4171 49.9076 28.3553 54.7149 22.7313C57.2841 19.719 61.1944 17.9952 65.1308 17.2639C69.0673 16.5326 73.0734 16.7155 77.036 16.8896C78.7342 16.9679 80.8244 17.3336 81.225 18.9007C77.5062 20.3894 73.6569 23.2972 71.7932 26.8144C71.2184 27.9026 68.9802 37.7752 68.7537 37.7839Z" fill="#212940"/>
<path d="M76.6178 21.2602C76.4784 21.3559 76.3478 21.4604 76.2172 21.5562C74.5276 22.8359 72.9513 24.403 70.9134 24.9689C67.9698 25.7873 64.8171 24.3682 61.9171 25.3694C58.6773 26.4924 56.5523 30.3579 54.1922 32.6475C50.3167 36.3998 45.5181 39.1596 40.3624 40.7354C37.7323 41.5363 34.9977 42.0326 32.2544 42.1806C31.009 42.2502 29.3456 42.4853 28.1263 42.1632C26.4977 41.7279 26.55 40.9792 28.2918 40.4307C33.7436 38.6895 35.4505 31.0369 35.0325 25.9701C34.7103 21.9653 33.3256 17.7865 34.8496 14.069C36.0166 11.2309 38.5248 9.76828 40.9459 8.14027C43.6196 6.34684 46.5109 6.83438 49.5416 5.97249C52.703 5.07577 55.2809 2.58587 58.5119 1.95033C61.9171 1.27997 65.3223 2.7861 68.7362 3.44776C71.5492 3.99623 74.4841 3.96141 77.2884 3.34328C79.7966 2.79481 82.2525 1.77621 84.8216 1.80233C88.61 1.83715 92.1023 4.20517 94.3144 7.27837C97.4409 11.6314 99.4701 19.0837 98.3641 24.8122C98.5382 23.9242 95.5424 20.703 94.924 20.0065C93.6264 18.5439 92.0501 17.1684 90.0644 16.9333C85.5532 16.4022 80.232 18.631 76.6178 21.2602Z" fill="#212940"/>
<path d="M124.238 441.184C126.92 441.271 129.507 440.67 132.146 440.426C133.504 414.274 131.039 386.867 129.96 360.593C123.236 360.95 116.522 361.307 109.798 361.672C114.475 375.715 117.819 390.202 119.77 404.871C120.084 407.196 123.855 441.166 124.238 441.184Z" fill="#EAC5B0"/>
<path d="M132.955 435.351C134.61 435.055 135.594 435.795 136.7 436.805C137.345 437.388 137.78 438.224 138.555 438.642C139.33 439.06 140.088 439.147 141.011 439.234C145.862 439.721 157.027 439.521 151.079 447.627C145.679 454.983 131.327 452.058 123.036 450.055C122.487 449.925 121.912 449.838 121.512 449.42C121.111 449.002 120.841 448.401 120.676 447.774C119.727 444.31 118.438 439.983 122.696 438.537C124.516 437.919 126.189 439.121 128.113 438.45C129.69 437.911 131.301 435.647 132.955 435.351Z" fill="#212940"/>
<path d="M145.035 376.368C131.327 376.098 117.628 375.837 103.92 375.567C92.8334 322.809 83.0707 269.781 74.6404 216.535C73.9872 212.409 73.3515 208.117 74.5446 204.103C76.7915 196.529 84.917 192.202 92.6854 190.748C104.765 188.493 126.955 191.636 133.156 204.19C139.705 217.458 138.608 241.156 140.193 255.817C144.521 295.838 146.15 336.138 145.035 376.368Z" fill="#314F8F"/>
<path d="M45.8662 441.184C43.1838 441.271 40.5973 440.67 37.9585 440.427C36.5999 414.274 39.0645 386.868 40.1444 360.593C46.8677 360.95 53.5824 361.307 60.3057 361.672C55.629 375.715 52.2847 390.202 50.3339 404.871C50.0204 407.196 46.2494 441.167 45.8662 441.184Z" fill="#EAC5B0"/>
<path d="M37.1485 435.351C35.4938 435.055 34.5097 435.795 33.4036 436.805C32.7592 437.388 32.3237 438.224 31.5486 438.642C30.7735 439.06 30.0159 439.147 29.0927 439.234C24.2418 439.721 13.0769 439.521 19.0251 447.626C24.4247 454.983 38.7771 452.058 47.068 450.055C47.6167 449.925 48.1914 449.838 48.5921 449.42C48.9927 449.002 49.2626 448.401 49.4281 447.774C50.3774 444.309 51.6663 439.983 47.4077 438.537C45.5875 437.919 43.9154 439.121 41.9907 438.45C40.4231 437.911 38.8032 435.647 37.1485 435.351Z" fill="#212940"/>
<path d="M25.0778 376.368C38.7857 376.098 52.4848 375.837 66.1927 375.567C77.2792 322.809 87.042 269.781 95.4722 216.535C96.1254 212.409 96.7612 208.117 95.5681 204.103C93.3211 196.529 85.1957 192.202 77.4273 190.748C65.348 188.493 43.1576 191.636 36.9568 204.19C30.4077 217.458 31.505 241.156 29.92 255.817C25.5829 295.838 23.963 336.138 25.0778 376.368Z" fill="#314F8F"/>
<path d="M152.107 3.00376C151.924 3.204 151.732 3.40424 151.619 3.6393C150.548 5.81579 151.288 7.59181 150.853 9.96854C150.661 11.0307 148.092 12.0928 149.738 13.6337C150.339 14.1996 152.028 15.3924 153.326 16.5938C155.225 18.3524 156.566 21.7216 157.141 24.5945C159.396 35.8862 158.517 47.4738 157.289 58.9135C157.219 59.5664 157.132 60.2455 156.775 60.7939C156.122 61.769 154.824 62.0128 153.657 62.1956C148.275 63.0488 142.971 64.3982 137.842 66.2265C133.261 67.8545 128.715 69.9439 125.283 73.3915C121.852 76.839 119.718 81.8798 120.789 86.6158C121.591 90.1679 124.221 93.2498 127.591 94.6166C135.96 98.0032 145.262 88.6618 151.654 84.3088C157.707 80.1908 163.463 75.6463 168.872 70.7188C169.542 70.1093 170.221 69.4738 170.596 68.6554C170.996 67.7761 171.014 66.7837 171.014 65.8173C171.066 53.42 170.021 41.0837 168.723 28.7125C168.366 25.3084 166.268 22.5312 165.963 19.3797C165.771 17.3686 167.069 15.6535 167.304 13.7208C167.539 11.8055 167.356 9.22853 166.877 7.36545C165.919 3.69153 162.261 2.23764 159.205 0.653152C158.438 0.261384 157.924 -0.00850132 157.123 0.000204648C155.817 0.0176166 154.815 0.792449 153.788 1.53246C153.178 1.96775 152.612 2.45528 152.107 3.00376Z" fill="#EAC5B0"/>
<path d="M153.108 91.1429C158.473 87.3645 163.481 83.1247 168.706 78.9023C169.647 78.1362 170.622 77.3352 171.153 76.247C171.624 75.2806 171.693 74.1749 171.745 73.0954C172.503 58.4781 172.19 43.8086 170.822 29.2348C166.154 29.5917 161.495 29.9574 156.827 30.3143C156.679 37.2356 156.54 44.1568 156.392 51.0693C156.348 53.1501 156.27 55.3353 155.181 57.1026C153.97 59.0701 151.75 60.1322 149.642 61.0899C143.154 64.0499 137.693 64.2763 130.779 64.3459C118.899 64.4591 107.029 66.2699 95.664 69.7175C93.4955 70.3791 91.1179 71.2759 90.1425 73.3218C89.6026 74.4535 89.5851 75.7507 89.5851 77.0044C89.5677 82.8113 89.5503 88.6791 90.7957 94.3467C91.7885 98.8389 94.497 107.075 98.9908 109.408C103.328 111.663 110.948 109.312 115.52 108.302C125.144 108.302 136.021 101.05 144.164 96.6973C147.291 95.0344 150.252 93.1539 153.108 91.1429Z" fill="#A1BDEB"/>
<path d="M60.2097 87.0772C57.2138 90.8295 53.4777 94.0681 50.534 97.9509C44.3594 106.1 39.4737 115.241 36.0423 124.878C27.2637 149.508 27.0982 175.808 27.0111 201.578C26.985 210.153 26.9589 218.729 26.9328 227.313C26.9066 235.749 27.6556 237.569 36.8261 236.454C53.826 234.391 71.4965 230.891 86.9026 223.334C94.2356 219.739 101.081 215.203 108.771 212.373C119.953 208.256 131.414 210.119 142.475 207.446C137.676 192.933 134.236 180.579 131.771 165.631C129.237 150.239 126.929 133.445 123.21 118.262C120.981 109.147 116.827 100.632 112.612 92.2572C111.026 89.1144 109.424 85.9715 107.438 83.055C106.402 81.5315 105.27 80.0602 103.998 78.7282C103.084 77.7705 102.187 76.0816 100.915 75.7072C97.4318 74.6799 93.8785 73.8615 90.2992 73.2521C89.6721 72.573 90.1163 71.154 89.2628 70.7709C89.0364 70.6664 88.7751 70.6839 88.5312 70.7013C83.4975 71.0756 78.4724 71.4413 73.4386 71.8156C73.2557 72.7385 73.5518 73.6787 73.6912 74.6103C73.8392 75.5418 73.7783 76.6126 73.0902 77.2482C72.6722 77.6312 72.0974 77.7792 71.5575 77.9446C71.3833 77.9969 71.2004 78.0578 71.0262 78.11C66.184 79.7294 63.4756 82.9157 60.471 86.7638C60.3752 86.8595 60.2968 86.9727 60.2097 87.0772Z" fill="#A1BDEB"/>
<path d="M72.5855 197.982C72.6203 197.712 72.6638 197.443 72.6203 197.181C72.2632 194.778 70.6434 193.742 69.6505 191.54C69.2064 190.556 70.713 188.223 68.4835 187.892C67.6649 187.77 65.6009 187.744 63.8504 187.5C61.2899 187.135 58.2679 185.132 56.1604 183.095C53.33 180.361 50.395 177.393 48.0175 174.293C43.036 167.773 38.2025 159.963 34.5447 152.607C46.4325 146.025 54.0441 132.4 53.4083 118.828C53.3387 117.409 53.1732 115.946 52.4504 114.727C51.832 113.7 50.8566 112.934 49.829 112.307C38.9863 105.699 33.1862 116.251 28.1611 124.556C25.0259 129.745 22.1693 135.204 19.8266 140.802C16.552 148.637 19.1386 155.48 23.676 162.401C28.4833 169.74 33.491 177.079 39.7701 183.26C42.827 186.264 46.2235 188.467 49.6113 191.018C52.9555 193.542 51.6491 194.892 54.0093 197.843C55.3243 199.497 56.3607 201.43 57.9718 202.805C60.8545 205.287 64.6864 204.399 68.1004 203.955C68.9538 203.841 69.5286 203.772 70.1818 203.31C71.253 202.553 71.6275 201.343 72.0455 200.159C72.2807 199.445 72.4722 198.722 72.5855 197.982Z" fill="#EAC5B0"/>
<path d="M56.7786 78.4584C42.8355 87.8347 31.8623 101.912 25.3828 117.348C22.4653 124.304 17.5796 129.806 16.2384 137.502C14.8972 145.207 16.099 153.364 19.2169 160.503C24.6338 172.892 34.8843 182.477 45.5789 190.757C47.9826 187.126 50.3775 183.505 52.7812 179.874C53.2079 179.221 53.6521 178.533 53.6956 177.759C53.7392 176.94 53.3298 176.183 52.9379 175.469C49.5153 169.296 46.084 163.124 42.6614 156.951C41.9559 155.68 41.2418 154.366 41.1112 152.92C40.7541 148.898 44.9518 145.782 45.5528 141.838C45.9447 142.151 46.3366 142.465 46.7285 142.787C46.3627 142.491 69.0669 118.253 70.3646 116.765C75.3374 111.08 80.4408 105.16 82.5832 97.9162C87.1554 82.4544 70.6171 69.1517 56.7786 78.4584Z" fill="#A1BDEB"/>
</svg>
