<svg width="687" height="380" viewBox="0 0 687 380" fill="none" xmlns="http://www.w3.org/2000/svg">
<path opacity="0.08" d="M687 350.5C687 357.262 643.546 363 590 363C536.454 363 493 357.467 493 350.5C493 343.738 536.454 338 590 338C643.546 338.205 687 343.738 687 350.5Z" fill="#9DAFBD"/>
<path opacity="0.08" d="M520 334.5C520 341.262 476.546 347 423 347C369.454 347 326 341.467 326 334.5C326 327.738 369.454 322 423 322C476.546 322 520 327.533 520 334.5Z" fill="#9DAFBD"/>
<path d="M293.263 94.2671L291 96.3224L298.817 105.366L293.263 94.2671Z" fill="#524F63"/>
<path d="M460.5 170.108L455.357 71.2476C455.357 71.2476 429.85 65.9038 422.444 65.9038C418.33 65.9038 411.336 67.9591 405.782 69.6034C400.64 71.2476 396.32 74.9472 393.646 79.8799L351.888 159.832L377.601 162.298L386.241 152.638L381.921 146.061L397.554 109.271L397.349 171.547L460.5 170.108Z" fill="#D98E9D"/>
<path d="M457.002 42.679C457.002 56.244 446.1 67.1372 432.523 67.1372C425.118 67.1372 419.77 59.327 415.45 54.1887C411.747 49.8726 409.073 48.6394 409.073 42.679C409.073 29.1139 419.153 18.4263 432.729 18.4263C446.305 18.4263 457.002 29.1139 457.002 42.679Z" fill="#EAC5B0"/>
<path d="M394.674 164.559H309.102L291 96.3223H376.367L394.674 164.559Z" fill="#524F63"/>
<path d="M394.674 164.559H311.776L293.263 94.2671L376.984 96.3224L394.674 164.559Z" fill="white"/>
<path d="M368.55 159.626H309.925V164.559H368.55V159.626Z" fill="#524F63"/>
<path d="M426.147 153.05L458.854 137.429L456.18 84.8135L450.42 85.2245L408.045 129.619C408.045 129.619 401.669 146.062 397.143 159.216V171.342L441.164 170.52L426.147 153.05Z" fill="url(#paint0_linear)"/>
<path d="M371.842 148.733H326.176L316.096 110.093L362.174 111.121L371.842 148.733Z" fill="#A1BDEB"/>
<path d="M384.8 183.468L324.529 198.883L355.179 319.324L365.67 313.981L356.619 210.393L410.513 193.539L379.246 211.42L379.863 309.664H389.326C389.326 309.664 415.862 213.476 418.33 213.476C421.004 213.476 465.436 183.879 465.436 183.879L384.8 183.468Z" fill="#314F8F"/>
<path d="M322.678 328.573L364.642 325.695L365.876 312.542L321.033 322.613L322.678 328.573Z" fill="#524F63"/>
<path d="M417.302 76.1804C417.713 80.9076 418.536 85.6348 419.976 90.1565C420.182 91.1842 420.593 92.2118 421.416 92.8284C423.061 94.0616 425.53 93.0339 427.381 91.8007C430.467 89.7454 433.347 87.2791 435.609 84.1961C437.049 82.3463 438.489 80.291 438.901 77.8246C439.312 75.5638 438.901 72.6863 437.049 71.2476C434.169 68.7812 428.204 68.9868 424.707 68.7812C419.564 68.7813 416.685 70.8366 417.302 76.1804Z" fill="#EFF2F7"/>
<path d="M356.825 335.972L365.259 337L389.121 328.162L389.532 309.664H380.07L375.75 321.174L362.996 328.984L356.825 335.972Z" fill="#524F63"/>
<path d="M423.473 55.0113L421.622 75.5645C421.622 75.5645 423.062 84.1968 428.204 82.7581C433.347 81.3193 433.964 77.4142 433.964 77.4142L436.227 52.7505L423.473 55.0113Z" fill="#EAC5B0"/>
<path d="M441.78 34.6633C445.689 34.4578 449.597 34.2522 453.094 32.608C456.591 30.9637 459.471 27.4697 459.471 23.7701C459.471 19.865 455.357 16.371 451.86 17.3987C451.037 17.6042 450.214 18.2208 449.391 18.4263C448.157 18.8374 446.717 18.4263 445.277 18.0153C435.403 15.1378 424.295 13.0825 415.039 17.8097C413.393 18.6319 411.748 19.8651 410.719 21.5093C410.102 22.7425 409.896 24.3867 409.69 25.8255C409.279 29.7305 409.073 33.8412 408.868 37.7463C411.542 36.3076 414.216 34.6633 416.89 33.4301C419.564 32.1969 421.416 33.4301 424.295 34.0467C430.055 34.8688 436.02 34.8688 441.78 34.6633Z" fill="#4A4549"/>
<path opacity="0.7" d="M418.742 28.0862C416.273 27.6751 413.599 28.4973 411.542 30.1415C409.691 33.2245 408.457 36.7185 408.251 40.4181C408.457 41.6513 408.868 43.09 408.662 44.3232C408.662 45.1453 409.074 46.3785 409.485 47.8172C410.925 49.8725 413.188 51.3112 415.451 53.9831C415.451 54.1887 415.656 54.1887 415.656 54.3942C418.125 50.2836 421.827 41.0347 422.65 40.007C423.679 38.5683 427.381 34.2521 426.764 32.4024C426.147 30.5526 420.387 28.4973 418.742 28.0862Z" fill="#4A4549"/>
<path d="M418.741 38.1575C418.535 37.952 418.33 37.5409 418.124 37.3354C417.713 37.1299 417.301 37.1299 416.89 37.1299C415.244 37.1299 413.393 37.3354 412.364 38.5686C411.953 39.1852 411.747 39.8018 411.542 40.4184C411.13 42.0626 411.13 43.7069 411.336 45.3511C411.541 47.8175 412.776 50.695 415.244 51.106C416.684 51.5171 418.33 50.9005 419.358 49.8729C423.267 46.3788 421.21 41.8571 418.741 38.1575Z" fill="#EAC5B0"/>
<path d="M449.598 50.9C450.832 50.6945 452.066 50.2834 453.506 50.6945C454.74 50.9 455.974 51.9277 455.974 53.3664C455.974 53.983 455.769 54.5996 455.769 55.2162C455.357 57.066 456.18 59.1213 456.797 60.9711C458.237 64.8762 459.266 69.8089 456.797 73.3029C454.534 76.5914 450.009 77.4136 446.101 77.4136C434.17 76.797 423.062 68.3702 419.359 57.066C418.125 53.1609 417.714 48.8447 418.948 44.9396C419.359 43.7064 420.388 42.2677 421.622 42.8843C422.239 47.406 425.325 51.7222 429.439 53.7775C436.844 56.8604 442.604 52.5443 449.598 50.9Z" fill="#4A4549"/>
<path d="M295.937 96.3224L375.338 98.1722L391.795 162.298H313.216L295.937 96.3224ZM293.263 94.2671L311.776 164.559H394.469L376.984 96.3224L293.263 94.2671Z" fill="#524F63"/>
<path d="M427.381 164.559H309.925V159.626H427.381C428.821 159.626 429.85 160.654 429.85 162.093C429.85 163.326 428.616 164.559 427.381 164.559Z" fill="white"/>
<path d="M367.933 164.559H309.925V159.626H367.933C369.373 159.626 370.401 160.654 370.401 162.093C370.401 163.326 369.167 164.559 367.933 164.559Z" fill="#314F8F"/>
<path d="M455.357 71.248L433.963 127.769L379.452 134.963L381.509 145.856L451.243 143.595L470.167 94.062C471.196 91.5957 471.196 88.9237 470.579 86.4574C468.933 80.908 464.819 76.1808 459.471 73.5089L455.357 71.248Z" fill="#D98E9D"/>
<path d="M379.452 134.963L350.037 119.342C350.037 119.342 348.391 121.603 350.86 123.658C353.122 125.508 360.528 131.058 360.528 131.058V135.374C362.996 143.389 370.607 147.089 378.835 146.267L381.509 146.061L379.452 134.963Z" fill="#EAC5B0"/>
<path d="M498.14 164.614H463.221C463.221 164.614 462.194 162.147 467.74 161.119C473.286 160.09 489.102 159.679 489.102 159.679L493.21 155.155L498.756 156.595L498.14 164.614Z" fill="#75454F"/>
<path d="M526.897 57.481L489.513 158.24L498.756 160.502L556.064 62.2105C556.064 62.2105 554.421 55.8359 544.767 49.667C535.113 43.7037 526.897 57.481 526.897 57.481Z" fill="#3F60B2"/>
<path d="M527.924 11.2134C520.735 -0.0963384 505.535 -3.38643 494.238 3.81065C487.87 7.92326 483.762 15.1203 483.146 22.7287C482.735 26.43 482.735 27.8694 484.378 31.3652C486.021 34.8609 490.13 39.796 487.665 46.7875C487.048 48.4325 487.665 50.9001 489.513 51.7226C491.362 52.5451 493.211 50.4888 495.059 50.2832C498.551 50.0776 505.535 55.424 508 57.6859C509.027 58.5084 510.259 59.5366 511.697 59.7422C512.93 59.9478 514.162 59.5366 515.189 58.9197C520.53 56.0409 523.816 50.4888 526.487 45.1424C528.951 40.0017 531.211 34.6553 531.622 29.1032C532.649 23.1399 531.622 16.7654 527.924 11.2134Z" fill="#EAC5B0"/>
<path d="M527.103 58.5083C528.13 59.5365 529.362 60.7702 530.8 60.5646C531.416 60.5646 532.032 60.1533 532.649 59.7421C534.086 58.7139 535.524 57.4802 536.757 56.2464C537.578 55.4238 538.195 54.6013 538.4 53.3675C538.4 52.7506 538.195 52.1337 537.989 51.5168C535.524 45.9648 530.389 41.6466 528.746 35.8889C527.924 33.2157 527.924 30.3369 526.897 27.8693C525.87 25.4017 523.816 22.7285 521.146 22.7285C519.503 22.7285 518.065 23.551 516.627 24.3736C512.313 27.458 509.848 33.0101 510.259 38.3565C510.67 43.086 513.34 47.6099 517.448 50.2831C521.146 52.545 523.816 55.2182 527.103 58.5083Z" fill="#EAC5B0"/>
<path d="M494.237 3.81065C489.718 6.68948 486.432 11.2134 484.583 16.3541C489.307 18.6161 501.221 13.4753 504.508 11.6246C504.097 19.8498 508.616 28.0751 515.599 32.1877C519.913 34.6553 525.048 35.889 529.156 38.3566C530.183 35.2721 531.21 32.1877 531.416 29.1032C532.648 23.1399 531.621 16.7654 527.924 11.2134C520.735 -0.0963384 505.535 -3.38643 494.237 3.81065Z" fill="#4A4549"/>
<path d="M507.384 28.692C505.946 26.2244 507.384 22.7287 510.054 21.2893C512.725 20.0555 516.011 20.878 518.065 22.7287C520.119 24.785 520.941 27.8695 520.735 30.7483C520.53 34.4497 517.86 38.3567 514.162 38.151C512.108 37.9454 510.465 36.7116 509.233 35.0666C508.206 33.4215 507.589 31.3652 506.973 29.5145" fill="#EAC5B0"/>
<path d="M540.454 45.965L533.47 37.7397L522.583 58.0972L526.486 70.8463L541.07 54.3958L540.454 45.965Z" fill="white"/>
<path d="M548.465 46.9936L613.784 119.787L573.73 154.95L524.843 79.6889C519.913 72.4918 527.513 56.4526 532.443 49.2556C536.141 43.9092 543.535 42.881 548.465 46.9936Z" fill="#314F8F"/>
<path d="M611.524 343.307L594.065 243.987L573.729 154.949L613.784 119.786L611.524 242.959L621.384 338.372L611.524 343.307Z" fill="#37354C"/>
<path d="M613.784 119.786L580.919 346.391L570.854 344.746L573.73 154.949L613.784 119.786Z" fill="#524F63"/>
<path d="M552.573 353.589L578.865 352.561L580.508 344.335L572.908 343.307L547.438 350.504L548.054 354L552.573 353.589Z" fill="#524F63"/>
<path d="M621.384 338.372L622 345.98L591.6 347.831L591.189 345.363L618.303 336.727L621.384 338.372Z" fill="#37354C"/>
<path d="M485.2 164.614H450.075C450.075 164.614 449.048 162.146 454.594 161.118C460.14 160.09 477.189 159.679 477.189 159.679L480.064 154.949L487.664 157.828L485.2 164.614Z" fill="#EAC5B0"/>
<path d="M535.113 53.5735L508.41 103.747L476.572 159.473L486.843 159.885L515.189 120.609L552.778 72.4915C557.708 68.5845 559.146 61.7987 556.27 56.2467C552.367 48.0214 541.275 46.582 535.113 53.5735Z" fill="#314F8F"/>
<path d="M550.313 118.758C549.492 108.477 546 76.8096 546 76.8096L535.113 95.3164L550.313 118.758Z" fill="url(#paint1_linear)"/>
<path d="M390.799 335C394.553 335 397.597 331.975 397.597 328.242C397.597 324.51 394.553 321.484 390.799 321.484C387.044 321.484 384 324.51 384 328.242C384 331.975 387.044 335 390.799 335Z" fill="#524F63"/>
<path d="M473.206 335C476.961 335 480.005 331.975 480.005 328.242C480.005 324.51 476.961 321.484 473.206 321.484C469.451 321.484 466.407 324.51 466.407 328.242C466.407 331.975 469.451 335 473.206 335Z" fill="#524F63"/>
<path d="M430.148 335C433.903 335 436.947 331.975 436.947 328.242C436.947 324.51 433.903 321.484 430.148 321.484C426.393 321.484 423.35 324.51 423.35 328.242C423.35 331.975 426.393 335 430.148 335Z" fill="#524F63"/>
<path d="M390.798 328.242V324.76C390.798 316.978 397.185 310.425 405.22 310.425H432.208V241" stroke="#524F63" stroke-miterlimit="10"/>
<path d="M472.382 328.242V324.76C472.382 316.978 465.995 310.425 457.961 310.425H430.972V241" stroke="#524F63" stroke-miterlimit="10"/>
<path d="M430.148 328.242V310.425" stroke="#524F63" stroke-miterlimit="10"/>
<path d="M438.183 275.405H422.938V309.811H438.183V275.405Z" fill="#524F63"/>
<path d="M435.093 241.614H425.41V280.73H435.093V241.614Z" fill="#524F63"/>
<path d="M488.156 172.182H18.3159V246.468H488.156V172.182Z" fill="#BCBACE"/>
<path d="M26.754 172.798H18.9336V362H26.754V172.798Z" fill="#524F63"/>
<path d="M493.301 172.798H485.481V362H493.301V172.798Z" fill="#524F63"/>
<path d="M493.507 216.097L17.6987 172.798H493.507V216.097Z" fill="url(#paint2_linear)"/>
<path d="M511 165H0V177.518H511V165Z" fill="#E0E4ED"/>
<path opacity="0.08" d="M410 373.928C410 377.278 392.201 380 370 380C347.799 380 330 377.278 330 373.928C330 370.578 347.799 367.856 370 367.856C392.201 367.856 410 370.578 410 373.928Z" fill="#9DAFBD"/>
<path d="M338.996 184.656C338.996 184.656 326.555 244.537 346.268 285.364C365.981 326.192 365.79 325.982 365.79 325.982C365.79 325.982 370.957 224.228 338.996 184.656Z" fill="#5BB59B"/>
<path d="M339.761 341.266C340.909 348.594 342.44 356.132 345.885 362.622C349.139 369.113 354.498 374.766 361.196 376.441C364.259 377.278 367.321 377.278 370.383 377.069C373.828 377.069 377.273 376.65 380.335 374.766C384.163 372.253 386.077 367.647 387.608 363.041C390.287 355.294 392.201 347.338 393.541 339.382C394.307 334.776 394.881 329.751 392.775 325.563C390.096 319.91 383.78 317.607 378.039 316.56C368.469 314.885 355.263 314.048 346.077 318.235C338.039 322.004 338.421 333.101 339.761 341.266Z" fill="#D8E4F2"/>
<path d="M361.579 326.192C369.235 326.61 377.464 325.354 382.249 322.632C383.206 322.004 383.972 321.376 383.589 320.748C383.015 319.91 381.101 319.492 379.187 319.492C370 318.445 359.857 318.026 350.862 319.701C337.847 322.004 354.498 325.773 361.579 326.192Z" fill="#524F63"/>
<path d="M357.56 170C357.56 170 351.436 284.108 365.79 325.982C365.79 325.982 375.168 224.227 357.56 170Z" fill="#63A590"/>
<path d="M364.067 325.144H367.512C372.488 302.532 387.225 229.252 379.378 195.125C379.378 195.125 354.498 291.226 360.814 312.791C362.153 318.445 363.302 322.423 364.067 325.144Z" fill="#5BB59B"/>
<defs>
<linearGradient id="paint0_linear" x1="397.021" y1="127.978" x2="458.789" y2="127.978" gradientUnits="userSpaceOnUse">
<stop stop-color="#B6567A" stop-opacity="0"/>
<stop offset="1" stop-color="#C45771"/>
</linearGradient>
<linearGradient id="paint1_linear" x1="539.692" y1="124.792" x2="548.441" y2="70.9895" gradientUnits="userSpaceOnUse">
<stop stop-color="#484EC2" stop-opacity="0"/>
<stop offset="1" stop-color="#444BCC" stop-opacity="0.5018"/>
</linearGradient>
<linearGradient id="paint2_linear" x1="253.051" y1="205.887" x2="286.123" y2="52.8074" gradientUnits="userSpaceOnUse">
<stop stop-color="#676475" stop-opacity="0"/>
<stop offset="1" stop-color="#524F63" stop-opacity="0.7"/>
</linearGradient>
</defs>
</svg>
