<svg width="246" height="439" viewBox="0 0 246 439" fill="none" xmlns="http://www.w3.org/2000/svg">
<path opacity="0.08" d="M142 409C188.392 409 226 403.851 226 397.5C226 391.149 188.392 386 142 386C95.6081 386 58 391.149 58 397.5C58 403.851 95.6081 409 142 409Z" fill="#9DAFBD"/>
<path d="M149.482 59.1068L185.782 65.0514L168.448 49.2674L176.605 40.043L208.01 68.1262C212.293 72.6359 209.234 80.2205 202.912 80.4255L159.067 81.8604L149.482 59.1068Z" fill="#D8E4F2"/>
<path d="M164.573 152.376L163.962 390.161L151.522 390.981L142.753 189.274L131.332 190.299L119.504 389.136L107.064 388.316L108.696 148.071L164.573 152.376Z" fill="#524F63"/>
<path d="M149.482 59.1064L107.676 57.2615C103.393 57.0566 99.1106 58.9014 96.4595 62.1812L108.695 158.525L165.796 159.755L160.494 71.4057C160.494 71.6107 151.113 59.1064 149.482 59.1064Z" fill="#D8E4F2"/>
<path d="M168.244 40.658C166 42.5028 162.941 44.1427 162.533 47.0126C162.126 49.4724 163.961 52.1372 166.408 52.9572C168.855 53.7771 171.506 53.3672 173.75 52.3422C177.421 50.7023 180.48 47.2176 181.295 43.1178C181.703 40.248 180.48 34.5083 177.013 33.4834C173.138 32.4585 171.099 38.4031 168.244 40.658Z" fill="white"/>
<path d="M107.064 388.315L82.7964 395.695L83.6121 397.745L118.892 393.85L119.504 389.135L107.064 388.315Z" fill="#424051"/>
<path d="M28.7544 59.9262L24.8797 53.3666L29.1623 44.5522C29.1623 44.5522 31.4055 38.4026 31.4055 36.3527C31.4055 34.5078 29.5702 31.638 27.5308 35.1228C25.6954 38.6075 23.6561 41.2724 23.6561 41.2724L12.2359 24.2584C11.8281 23.8485 11.4202 23.4385 10.8084 23.4385C9.58481 23.4385 8.56515 24.8734 9.17694 26.1033L11.8281 31.023C12.6438 32.6629 10.8084 34.3028 9.38088 33.2779L8.76908 32.8679C5.91403 30.818 2.03932 31.638 0 34.5078L0 34.7128L0.203932 40.4524C0.407864 44.3472 2.03932 47.627 4.89437 50.0868C11.6241 55.6215 23.4522 65.2559 23.8601 64.4359C24.2679 63.411 28.7544 59.9262 28.7544 59.9262Z" fill="#EAC5B0"/>
<path d="M158.659 22.004C157.027 21.1841 154.988 22.004 153.968 23.4389C152.949 24.8739 152.949 26.9237 153.561 28.5636C154.58 31.6384 158.047 33.8933 161.31 33.2783C164.573 32.8684 167.224 29.3836 166.612 26.3088C166.204 24.0539 164.573 22.004 162.33 21.1841C160.086 20.3641 157.639 20.5691 155.396 21.3891" fill="#EAC5B0"/>
<path d="M157.843 25.6934L176.605 40.6574C176.605 40.6574 177.013 48.8569 172.526 49.6769C171.099 50.4968 153.765 32.048 153.765 32.048L157.843 25.6934Z" fill="#EAC5B0"/>
<path d="M151.521 390.98L152.133 394.875L182.519 400C182.519 400 183.947 397.54 183.131 397.335C182.315 397.13 163.961 390.16 163.961 390.16L151.521 390.98Z" fill="#424051"/>
<path d="M121.748 38.8125L122.767 65.0509C122.767 68.1257 125.01 70.5855 127.866 71.2005C131.332 71.8155 134.391 69.3556 135.003 65.8708L136.227 43.1172L121.748 38.8125Z" fill="#EAC5B0"/>
<path d="M160.332 16.9044L147.098 14.4414L141.889 42.4486L155.123 44.9116L160.332 16.9044Z" fill="#524F63"/>
<path d="M158.89 16.7755L147.06 14.5737L141.851 42.5809L153.681 44.7827L158.89 16.7755Z" fill="#524F63"/>
<path d="M120.116 61.1561C120.116 61.1561 118.281 62.796 118.077 63.411C117.873 64.026 125.418 75.7102 125.418 75.7102L130.517 67.7157L136.839 75.7102L139.49 61.1561L135.207 60.1312L130.517 65.4609L122.155 58.6963L120.116 61.1561Z" fill="white"/>
<path d="M130.516 67.5107L127.458 72.8404L129.701 76.7352L128.477 79.81L129.701 118.348L133.983 123.267L137.858 118.553L133.779 79.605L131.536 76.5302L134.391 72.4304L130.516 67.5107Z" fill="#314F8F"/>
<path d="M110.939 10.7295C108.288 16.8792 108.492 23.8487 109.919 30.4083C111.347 37.5829 114.406 44.5525 119.912 49.2672C125.418 53.7769 134.187 55.2118 139.897 50.7021C143.364 48.0372 145.2 43.9375 146.627 39.8377C149.278 31.6382 149.686 22.4138 146.423 14.6243C140.305 0.275192 118.281 -6.48939 110.939 10.7295Z" fill="#EAC5B0"/>
<path d="M101.558 90.0598L56.4895 104.614L23.8604 68.7411L32.0176 61.9766L62.1996 86.78L96.4602 62.3865L102.17 72.6359L101.558 90.0598Z" fill="#D8E4F2"/>
<path d="M18.7622 66.4864L22.2291 71.8161L37.524 63.0017L31.406 56.8521L18.7622 66.4864Z" fill="white"/>
<path d="M103.19 22.4141C101.15 23.234 100.335 25.6939 100.539 27.7437C100.743 29.7936 101.966 31.8435 103.19 33.4834C104.006 34.5083 104.617 35.3283 105.637 35.9432C106.657 36.5582 107.676 36.7632 108.9 36.9682C110.327 37.1732 111.959 36.9682 112.775 35.9432C113.182 35.3283 113.386 34.5083 113.386 33.8934C113.794 30.4086 112.979 28.9737 110.939 26.5138C109.104 24.054 106.657 20.7742 103.19 22.4141Z" fill="#EAC5B0"/>
<path d="M116.037 22.6187C115.833 26.3085 113.998 29.9983 110.939 31.8432C108.491 28.7683 107.268 24.8736 106.86 21.1838C106.248 16.4691 107.064 11.3444 109.919 7.44967C113.182 2.93994 118.484 0.480092 123.99 0.0701176C129.496 -0.339857 134.799 1.09505 139.897 3.14493C142.14 3.96488 144.791 4.98982 146.627 3.34992C147.442 4.98982 148.054 6.8347 148.054 8.67959C148.054 10.1145 147.85 11.5494 147.035 12.7793C145.607 14.8292 143.568 17.0841 141.121 17.494C123.378 21.3888 115.221 11.7544 115.017 12.1644C114.813 13.1893 115.221 14.2142 115.425 15.2392C115.833 17.699 116.241 20.1589 116.037 22.6187Z" fill="#524F63"/>
<path opacity="0.08" d="M246 432.928C246 436.278 228.201 439 206 439C183.799 439 166 436.278 166 432.928C166 429.578 183.799 426.856 206 426.856C228.201 426.856 246 429.578 246 432.928Z" fill="#9DAFBD"/>
<path d="M174.996 243.656C174.996 243.656 162.555 303.537 182.268 344.364C201.981 385.192 201.79 384.982 201.79 384.982C201.79 384.982 206.957 283.228 174.996 243.656Z" fill="#5BB59B"/>
<path d="M175.761 400.266C176.909 407.594 178.44 415.132 181.885 421.622C185.139 428.113 190.498 433.766 197.196 435.441C200.259 436.278 203.321 436.278 206.383 436.069C209.828 436.069 213.273 435.65 216.335 433.766C220.163 431.253 222.077 426.647 223.608 422.041C226.287 414.294 228.201 406.338 229.541 398.382C230.307 393.776 230.881 388.751 228.775 384.563C226.096 378.91 219.78 376.607 214.039 375.56C204.469 373.885 191.263 373.048 182.077 377.235C174.039 381.004 174.421 392.101 175.761 400.266Z" fill="#D8E4F2"/>
<path d="M197.579 385.192C205.235 385.61 213.464 384.354 218.249 381.632C219.206 381.004 219.972 380.376 219.589 379.748C219.015 378.91 217.101 378.492 215.187 378.492C206 377.445 195.857 377.026 186.862 378.701C173.847 381.004 190.498 384.773 197.579 385.192Z" fill="#524F63"/>
<path d="M193.56 229C193.56 229 187.436 343.108 201.79 384.982C201.79 384.982 211.168 283.227 193.56 229Z" fill="#63A590"/>
<path d="M200.067 384.144H203.512C208.488 361.532 223.225 288.252 215.378 254.125C215.378 254.125 190.498 350.226 196.814 371.791C198.153 377.445 199.302 381.423 200.067 384.144Z" fill="#5BB59B"/>
</svg>
