<svg width="320" height="386" viewBox="0 0 320 386" fill="none" xmlns="http://www.w3.org/2000/svg">
<g clip-path="url(#clip0)">
<path d="M-103.108 103.69C-105.555 106.147 -105.629 110.08 -103.305 112.639L-42.4699 179.769C-41.2703 181.095 -39.5691 181.867 -37.7799 181.901H-37.6443C-35.9025 181.901 -34.2556 181.21 -33.0085 179.999C2.01757 144.765 44.8988 120.254 91.6838 107.988C114.307 102.052 137.839 98.9515 161.858 98.9515C184.569 98.9515 206.908 101.727 228.46 107.081C274.988 118.657 317.883 142.322 353.119 176.485C355.681 178.977 359.747 178.943 362.255 176.438L423.103 115.658C424.337 114.439 425.008 112.767 425.001 111.014C425.001 109.295 424.31 107.63 423.056 106.411C352.773 37.7787 260.023 0 161.858 0C57.593 0 -36.5125 36.8242 -103.108 103.69Z" fill="#D8E4F2" fill-opacity="0.3"/>
<path d="M160.217 139.336C143.849 139.336 127.346 141.55 111.039 145.679C70.171 156.022 30.6176 178.78 -2.09061 211.624C-4.58473 214.129 -4.59828 218.19 -2.14483 220.735L49.215 273.528C50.435 274.78 52.0954 275.484 53.844 275.505C55.3961 275.471 57.2734 274.814 58.5137 273.582C88.1449 243.757 115.458 225.278 159.912 225.278C202.712 225.278 231.909 245.098 262.618 274.889C263.865 276.073 265.485 276.723 267.166 276.723L267.396 276.71C269.165 276.656 270.859 275.864 272.025 274.557L322.314 218.278C324.632 215.665 324.503 211.733 322.009 209.302C289.958 177.975 249.897 155.752 209.022 145.591C192.728 141.53 176.307 139.336 160.217 139.336Z" fill="#D8E4F2" fill-opacity="0.3"/>
<path d="M97.9048 323.104C97.9048 357.397 125.842 385.293 160.17 385.293C194.498 385.293 222.421 357.39 222.421 323.104C222.421 288.819 194.504 260.923 160.17 260.923C125.842 260.916 97.9048 288.819 97.9048 323.104Z" fill="#D8E4F2" fill-opacity="0.3"/>
</g>
<defs>
<clipPath id="clip0">
<rect width="530" height="385.199" fill="white" transform="translate(-105)"/>
</clipPath>
</defs>
</svg>
