<svg width="12" height="12" viewBox="0 0 12 12" fill="none" xmlns="http://www.w3.org/2000/svg">
<path fill-rule="evenodd" clip-rule="evenodd" d="M12 10.7138C12 9.90354 10.7781 9.45338 10.1608 9.209C9.78778 9.05466 9.40193 8.90032 9.02894 8.73312C8.52733 8.50161 8.01286 8.23151 7.63987 7.80707C7.51125 7.65273 7.43408 7.54984 7.43408 7.34405C7.43408 7.04823 7.51125 6.75241 7.57556 6.46945C7.67846 6.03215 7.89711 5.67203 8.07717 5.26045C8.28296 4.74598 8.36013 4.20579 8.46302 3.67846C8.50161 3.44695 8.56592 3.2283 8.56592 2.99678C8.56592 1.40193 7.7299 0 5.99357 0C4.25723 0 3.42122 1.40193 3.42122 2.99678C3.42122 3.2283 3.49839 3.44695 3.53698 3.67846C3.65273 4.20579 3.71704 4.74598 3.93569 5.26045C4.11576 5.67203 4.34727 6.03215 4.4373 6.46945C4.51447 6.75241 4.57878 7.04823 4.57878 7.34405C4.57878 7.54984 4.50161 7.65273 4.37299 7.80707C4 8.23151 3.48553 8.50161 2.98392 8.73312C2.61093 8.91318 2.22508 9.05466 1.85209 9.209C1.23473 9.46624 0 9.90354 0 10.7138V12H12V11.254V10.7138Z" fill="#587BC9"/>
</svg>
