<svg width="16" height="15" viewBox="0 0 16 15" fill="none" xmlns="http://www.w3.org/2000/svg">
<path d="M15.6 9.3999H14.1142C13.8942 9.3999 13.8 9.4941 13.8 9.7141V12.7999H2.2V9.7141C2.2 9.4941 2.1058 9.3999 1.8858 9.3999H0.4C0.18 9.3999 0 9.4941 0 9.7141V12.3427C0 12.5627 0 12.9227 0 13.1427V14.6285C0 14.8485 0.18 14.9999 0.4 14.9999H1.8858C2.1058 14.9999 2.4658 14.9999 2.6858 14.9999H13.3144C13.5344 14.9999 13.8944 14.9999 14.1144 14.9999H15.6C15.82 14.9999 16 14.8485 16 14.6285V13.1427C16 12.9227 16 12.5627 16 12.3427V9.7141C16 9.4941 15.82 9.3999 15.6 9.3999Z" fill="#587BC9"/>
<path d="M9.19999 0.4286C9.19999 0.2086 8.96279 0 8.74279 0H7.25699C7.03719 0 6.79999 0.2086 6.79999 0.4286V4.6H3.42859L7.99999 10.3142L12.5714 4.6H9.19999V0.4286Z" fill="#587BC9"/>
</svg>
