<svg width="17" height="15" viewBox="0 0 17 15" fill="none" xmlns="http://www.w3.org/2000/svg">
<path fill-rule="evenodd" clip-rule="evenodd" d="M6.86999 3.846C6.67999 2.376 5.60999 1.196 4.48999 1.166C3.36999 1.126 2.61999 2.256 2.80999 3.726C2.99999 5.196 4.06999 6.416 5.18999 6.446C6.30999 6.476 7.06999 5.316 6.86999 3.846ZM5.03999 9.296C3.36999 9.286 1.86999 10.316 1.86999 11.556C1.86999 12.826 3.07999 13.886 4.74999 13.886C7.09999 13.886 7.91999 12.886 7.91999 11.626C7.91999 11.466 7.89999 11.316 7.86999 11.176C7.67999 10.456 7.02999 10.106 6.12999 9.476C5.79999 9.366 5.42999 9.306 5.03999 9.296ZM7.02999 1.126C7.94999 1.846 8.43999 2.606 8.43999 3.696C8.43999 4.616 7.92999 5.466 7.20999 6.026C6.50999 6.576 6.36999 6.806 6.36999 7.276C6.36999 7.666 7.11999 8.346 7.51999 8.626C8.66999 9.436 9.03999 10.186 9.03999 11.446C9.03999 13.016 7.51999 14.576 4.75999 14.576C2.33999 14.576 0.299988 13.596 0.299988 12.026C0.299988 10.426 2.15999 8.896 4.57999 8.896L5.33999 8.886C5.00999 8.566 4.73999 8.166 4.73999 7.676C4.73999 7.396 4.83999 7.106 4.96999 6.856C4.82999 6.866 4.69999 6.856 4.55999 6.856C2.57999 6.856 1.24999 5.406 1.24999 3.656C1.24999 1.946 3.07999 0.395996 5.02999 0.395996H9.38999L8.40999 1.126H7.02999ZM13.87 4.006V6.896H13.15V4.006H10.25V3.286H13.15V0.395996H13.87V3.286H16.76V4.006H13.87Z" fill="#B2B2B2"/>
</svg>
