<svg width="246" height="40" viewBox="0 0 246 40" fill="none" xmlns="http://www.w3.org/2000/svg">
<g clip-path="url(#clip0)">
<path d="M23.9208 16.033H16.2469V23.6549H23.9208V16.033Z" fill="#587BC9"/>
<path d="M34.5018 34.2856H5.77942V5.75757H34.5018V34.2856V34.2856ZM7.23736 32.8376H33.0352V7.21432H7.23736V32.8376Z" fill="#587BC9"/>
<path d="M20.8652 18.8164H19.4072V36.1934H20.8652V18.8164Z" fill="#587BC9"/>
<path d="M13.1913 3.56372H11.7334V23.6548H13.1913V3.56372Z" fill="#587BC9"/>
<path d="M28.5478 3.56372H27.0898V23.6548H28.5478V3.56372Z" fill="#587BC9"/>
<path d="M14.3874 0H10.5461V3.8153H14.3874V0Z" fill="#587BC9"/>
<path d="M22.0613 0H18.22V3.8153H22.0613V0Z" fill="#587BC9"/>
<path d="M29.7351 0H25.8938V3.8153H29.7351V0Z" fill="#587BC9"/>
<path d="M14.3874 36.1934H10.5461V40.0087H14.3874V36.1934Z" fill="#587BC9"/>
<path d="M22.0613 36.1934H18.22V40.0087H22.0613V36.1934Z" fill="#587BC9"/>
<path d="M29.7351 36.1934H25.8938V40.0087H29.7351V36.1934Z" fill="#587BC9"/>
<path d="M40.2812 10.4749H36.4399V14.2902H40.2812V10.4749Z" fill="#587BC9"/>
<path d="M40.2812 18.0967H36.4399V21.912H40.2812V18.0967Z" fill="#587BC9"/>
<path d="M40.2812 25.7185H36.4399V29.5338H40.2812V25.7185Z" fill="#587BC9"/>
<path d="M3.84129 10.4749H0V14.2902H3.84129V10.4749Z" fill="#587BC9"/>
<path d="M3.84129 18.0967H0V21.912H3.84129V18.0967Z" fill="#587BC9"/>
<path d="M3.84129 25.7185H0V29.5338H3.84129V25.7185Z" fill="#587BC9"/>
<path d="M59.4702 4.89917H62.4385V8.14218H59.4702V4.89917ZM59.4702 10.4487H62.4385V29.5599H59.4702V10.4487Z" fill="#333333"/>
<path d="M79.2528 16.1543V29.5599H76.2322V10.5181H78.6068L89.5632 24.2532V10.5441H92.6188V29.5599H90.1045L79.2528 16.1543Z" fill="#333333"/>
<path d="M103.016 19.909C103.016 18.7644 103.226 17.6285 103.636 16.4925C104.047 15.3566 104.658 14.3334 105.461 13.4316C106.264 12.5298 107.242 11.8014 108.394 11.2465C109.547 10.6915 110.847 10.4141 112.305 10.4141C114.051 10.4141 115.544 10.7956 116.784 11.5673C118.024 12.3391 118.967 13.3362 119.595 14.5675L117.221 16.1457C116.95 15.5734 116.627 15.0878 116.251 14.6976C115.876 14.3074 115.457 13.9952 115.012 13.7611C114.567 13.527 114.095 13.3623 113.606 13.2669C113.117 13.1715 112.655 13.1195 112.201 13.1195C111.188 13.1195 110.306 13.3189 109.555 13.7264C108.796 14.1253 108.167 14.6629 107.652 15.3219C107.137 15.9809 106.753 16.7267 106.491 17.5504C106.229 18.3742 106.098 19.1979 106.098 20.013C106.098 20.9408 106.255 21.8253 106.561 22.6664C106.867 23.5075 107.294 24.2445 107.844 24.8949C108.394 25.5365 109.049 26.0481 109.8 26.4383C110.559 26.8199 111.389 27.0106 112.288 27.0106C112.759 27.0106 113.24 26.9499 113.737 26.8372C114.235 26.7245 114.706 26.5337 115.169 26.2736C115.632 26.0135 116.051 25.684 116.435 25.2938C116.819 24.9035 117.142 24.4266 117.395 23.8717L119.909 25.2938C119.604 26.0048 119.167 26.6378 118.617 27.1841C118.059 27.7303 117.43 28.1899 116.723 28.5628C116.025 28.9356 115.282 29.2218 114.497 29.4212C113.711 29.6207 112.943 29.716 112.192 29.716C110.839 29.716 109.608 29.4299 108.49 28.8576C107.373 28.2853 106.413 27.5396 105.601 26.6204C104.789 25.7013 104.16 24.6521 103.715 23.4815C103.235 22.3109 103.016 21.1229 103.016 19.909Z" fill="#333333"/>
<path d="M138.007 10.5181H135.353L127.74 29.5599H130.953L132.952 24.3832H138.575L137.745 22.1547H133.494L136.68 13.9779L142.381 29.5599H145.568L138.007 10.5181Z" fill="#333333"/>
<path d="M165.752 22.3107C166.311 22.1373 166.826 21.8685 167.288 21.4956C167.76 21.1228 168.161 20.6979 168.476 20.1949C168.807 19.6834 169.052 19.1544 169.226 18.5561C169.41 17.9665 169.497 17.3508 169.497 16.7091C169.497 15.9287 169.357 15.183 169.061 14.4373C168.755 13.7003 168.345 13.0413 167.83 12.4516C167.306 11.8793 166.677 11.4111 165.944 11.0556C165.211 10.7 164.425 10.5093 163.552 10.5093H155.214V29.5511H158.235V13.1626H163.369C163.761 13.1626 164.137 13.2667 164.503 13.4401C164.879 13.6309 165.193 13.8824 165.472 14.2205C165.752 14.5414 165.988 14.9055 166.153 15.3391C166.319 15.7727 166.407 16.2322 166.407 16.7091C166.407 17.1947 166.328 17.637 166.188 18.0705C166.049 18.5041 165.839 18.8856 165.603 19.2151C165.35 19.5446 165.036 19.7961 164.695 19.9868C164.346 20.1776 163.953 20.2643 163.517 20.2643H160.968L166.817 29.5424H170.239L165.752 22.3107Z" fill="#333333"/>
<path d="M183.387 16.1543V29.5599H180.366V10.5181H182.741L193.697 24.2532V10.5441H196.753V29.5599H194.239L183.387 16.1543Z" fill="#333333"/>
<path d="M246 13.1714H239.627V29.5599H236.571V13.1714H230.172V10.5181H246V13.1714Z" fill="#333333"/>
<path d="M221.267 10.5181H208.364V13.1107H221.267V10.5181Z" fill="#333333"/>
<path d="M221.267 26.9673H208.364V29.56H221.267V26.9673Z" fill="#333333"/>
<path d="M219.949 18.5908H208.364V21.0534H219.949V18.5908Z" fill="#333333"/>
</g>
<defs>
<clipPath id="clip0">
<rect width="246" height="40" fill="white"/>
</clipPath>
</defs>
</svg>
