<svg width="41" height="40" viewBox="0 0 41 40" fill="none" xmlns="http://www.w3.org/2000/svg">
<path d="M23.9154 16.0293H16.2432V23.6496H23.9154V16.0293Z" fill="#587BC9"/>
<path d="M34.4945 34.2782H5.77832V5.75635H34.4945V34.2782ZM7.23595 32.8305H33.0281V7.21278H7.23595V32.8305Z" fill="#587BC9"/>
<path d="M20.8605 18.8125H19.4028V36.1857H20.8605V18.8125Z" fill="#587BC9"/>
<path d="M13.1886 3.56299H11.731V23.6497H13.1886V3.56299Z" fill="#587BC9"/>
<path d="M28.5416 3.56299H27.084V23.6497H28.5416V3.56299Z" fill="#587BC9"/>
<path d="M14.3844 0H10.5439V3.81448H14.3844V0Z" fill="#587BC9"/>
<path d="M22.0563 0H18.2158V3.81448H22.0563V0Z" fill="#587BC9"/>
<path d="M29.7286 0H25.8882V3.81448H29.7286V0Z" fill="#587BC9"/>
<path d="M14.3844 36.1855H10.5439V40H14.3844V36.1855Z" fill="#587BC9"/>
<path d="M22.0563 36.1855H18.2158V40H22.0563V36.1855Z" fill="#587BC9"/>
<path d="M29.7286 36.1855H25.8882V40H29.7286V36.1855Z" fill="#587BC9"/>
<path d="M40.2726 10.4727H36.4321V14.2871H40.2726V10.4727Z" fill="#587BC9"/>
<path d="M40.2726 18.0928H36.4321V21.9072H40.2726V18.0928Z" fill="#587BC9"/>
<path d="M40.2726 25.7129H36.4321V29.5274H40.2726V25.7129Z" fill="#587BC9"/>
<path d="M3.84046 10.4727H0V14.2871H3.84046V10.4727Z" fill="#587BC9"/>
<path d="M3.84046 18.0928H0V21.9072H3.84046V18.0928Z" fill="#587BC9"/>
<path d="M3.84046 25.7129H0V29.5274H3.84046V25.7129Z" fill="#587BC9"/>
</svg>
