<svg width="180" height="440" viewBox="0 0 180 440" fill="none" xmlns="http://www.w3.org/2000/svg">
<path d="M179.826 56.9217C179.972 54.8969 180.044 52.797 179.971 50.6971C179.899 48.6722 179.753 46.6473 179.461 44.6225L169.248 42.8975L165.746 32.9231L172.603 24.8986C170.561 21.3738 168.08 18.074 165.308 15.1491L156.043 19.9489L147.508 14.0242L148.457 3.37481C144.955 1.87489 141.161 0.674961 137.295 0L132.48 9.44946L122.194 9.74944L116.942 0.52497C113.002 1.42492 109.209 2.84984 105.634 4.64973L107.166 15.2241L98.9955 21.6738L89.4389 17.474C86.8127 20.5488 84.5512 23.9236 82.6544 27.5984L89.8766 35.248L86.9585 45.3724L76.8183 47.6973C76.6724 49.7972 76.5265 51.972 76.5995 54.1469C76.6724 56.1718 76.8183 58.1217 77.1101 59.9966L87.3233 61.7965L90.752 71.7709L83.8946 79.7954C85.9373 83.3202 88.4176 86.62 91.1897 89.5449L100.455 84.8202L108.917 90.8198L107.969 101.469C111.616 103.044 115.483 104.244 119.422 104.919L124.237 95.3945L134.523 95.0946L139.848 104.319C143.788 103.344 147.581 101.994 151.156 100.194L149.624 89.6199L157.794 83.1702L167.351 87.37C169.977 84.2952 172.239 80.8454 174.135 77.2456L166.84 69.671L169.758 59.4716L179.826 56.9217ZM128.322 78.6705C114.242 78.6705 102.789 66.8962 102.789 52.422C102.789 37.9478 114.242 26.1735 128.322 26.1735C142.402 26.1735 153.855 37.9478 153.855 52.422C153.855 66.8962 142.402 78.6705 128.322 78.6705Z" fill="#587BC9"/>
<path d="M92.065 169.565L49.3884 201.589L12.1833 185.09L6.71191 195.364L34.9441 215.088L50.7016 221.162L92.065 200.689V169.565Z" fill="#3B455A"/>
<path d="M149.112 103.719L150.06 90.295L139.482 81.8955L135.032 87.8952L139.774 96.6697L138.096 101.169L142.765 108.444L149.112 103.719Z" fill="#EACFC1"/>
<path d="M65.9467 255.66L65.0713 331.631L72.9501 429.425H83.6739L96.4404 339.205L111.104 248.835L65.9467 255.66Z" fill="#3B455A"/>
<path d="M83.6017 434.075L72.0024 440L66.2393 434.075L72.0024 428.151H83.6017V434.075Z" fill="#1D2B56"/>
<path d="M139.337 255.66L139.555 299.608L132.333 429.425H121.609L103.736 343.33L94.1797 248.835L139.337 255.66Z" fill="#3B455A"/>
<path d="M121.682 434.075L133.281 440L139.044 434.075L133.281 428.151H121.682V434.075Z" fill="#1D2B56"/>
<path d="M150.499 282.134C150.717 289.108 150.571 298.408 147.726 298.783C147.216 298.858 146.705 298.633 146.194 298.333C141.234 295.858 137.659 292.333 132.771 289.933C127.665 287.458 121.829 286.108 116.138 285.208C107.603 283.783 98.9949 282.958 90.4596 282.883C83.0915 282.808 75.4316 286.258 68.5012 288.133C65.802 288.883 63.6864 290.833 61.4249 292.408C58.1421 294.733 56.6831 295.633 57.1208 290.908C57.8503 283.183 58.5798 275.459 59.5282 267.734C61.352 252.36 63.9052 236.986 68.1364 222.062C69.7414 216.362 71.6381 210.738 73.5348 205.113C75.7963 198.288 78.1307 191.464 80.3922 184.639C83.2373 176.165 88.0521 170.165 96.3686 167.165C103.591 164.615 112.637 163.865 119.64 167.465C127.446 171.44 131.166 185.089 135.033 192.364C138.389 198.738 142.547 216.137 143.787 222.962C145.319 231.211 146.705 239.461 147.799 247.71C149.039 256.785 149.842 265.859 150.134 274.859C150.134 276.059 150.353 278.834 150.499 282.134Z" fill="#3B455A"/>
<path d="M111.761 168.815L97.3164 168.965C97.3164 168.965 81.7778 224.762 81.1942 234.362C80.6106 243.811 76.7441 282.059 76.7441 282.059C76.7441 282.059 92.7935 282.434 111.25 284.759C129.269 288.734 130.801 286.409 130.801 286.409C130.801 286.409 121.026 246.211 120.734 234.662C120.369 222.812 118.91 183.815 118.91 183.815L111.761 168.815Z" fill="white"/>
<path d="M109.646 169.791H102.497C100.819 169.791 99.8703 171.74 100.892 173.09L103.81 177.065L96.0039 250.861L105.561 260.535L112.126 249.061L110.302 177.065L111.47 172.415C111.907 170.99 110.959 169.791 109.646 169.791Z" fill="#96BFEE"/>
<path d="M103.008 169.115C103.154 169.265 103.373 169.415 103.591 169.49C104.029 169.64 104.54 169.565 104.978 169.565C106.874 169.34 108.771 169.115 110.741 168.89C110.084 162.891 113.513 161.466 116.869 157.641C120.224 153.741 119.203 148.416 119.057 143.617C118.984 142.267 118.911 140.917 118.401 139.717C117.452 137.617 115.191 136.417 113.002 135.742C107.458 133.942 101.038 134.392 96.1504 137.617C94.8373 138.517 93.5971 139.567 92.9406 140.992C91.8463 143.167 92.1381 145.792 92.4299 148.266C92.8676 152.016 93.9619 155.691 96.0775 158.841C97.9742 161.766 101.695 163.191 102.059 166.715C102.059 167.54 102.351 168.59 103.008 169.115Z" fill="#EACFC1"/>
<path d="M92.5027 143.767C92.7945 145.267 93.524 146.842 93.1592 148.342C90.8248 147.517 89.2928 145.042 88.4904 142.567C88.1256 141.442 87.8338 140.242 87.9068 139.042C87.9797 137.842 88.4904 136.642 89.4387 135.967C90.7518 134.992 93.0134 135.367 93.3781 137.092C93.7429 138.817 91.992 141.442 92.5027 143.767Z" fill="#305399"/>
<path d="M80.1011 130.417C80.174 128.617 80.8306 126.967 82.4355 125.917C83.8216 124.943 85.3536 124.193 86.156 122.693C86.8126 121.493 86.8856 120.068 87.5421 118.943C88.7093 116.843 91.1897 116.168 93.3782 115.493C98.7766 113.693 101.768 111.593 107.458 113.918C111.543 115.568 116.869 115.793 120.662 118.118C122.267 119.093 123.58 120.743 124.674 122.468C128.541 128.617 129.416 137.317 126.936 143.766C126.352 145.191 125.696 146.541 124.893 147.816C123.361 150.366 121.756 153.441 119.057 154.716C118.911 153.516 118.036 152.841 117.744 151.716C117.525 150.891 117.598 149.991 117.671 149.091C117.817 145.716 118.838 140.392 115.555 138.667C111.397 136.567 103.591 138.442 99.5791 140.242C96.0045 141.817 90.0954 143.916 86.3019 142.192C82.8003 140.617 79.9552 134.317 80.1011 130.417Z" fill="#1D2B56"/>
<path d="M116.431 166.866L153.125 155.766L139.556 108.519L150.718 100.27L177.783 154.941L170.342 173.84L135.252 192.439L116.431 166.866Z" fill="#3B455A"/>
<path d="M0 192.364L3.79348 185.015H13.2042L18.1649 192.439L7.514 197.314L0 192.364Z" fill="#EACFC1"/>
</svg>
