<svg width="290" height="340" viewBox="0 0 290 340" fill="none" xmlns="http://www.w3.org/2000/svg">
<path d="M113.858 24.2466L109.965 20.9744L104.961 22.5706L102.102 26.8005L103.452 30.392L107.503 32.7863L105.914 33.1853L106.232 34.4623L112.666 37.4153C114.175 35.8191 119.418 34.5421 120.212 33.6642L115.923 29.9929L113.858 24.2466Z" fill="#EAC5B0"/>
<path d="M236.898 317.949L237.057 319.385L237.534 324.014L228.32 329.601L223.077 325.451L227.446 320.343L227.843 320.104L228.002 320.662L236.898 317.949Z" fill="#484F5B"/>
<path d="M198.771 218.505C209.177 219.223 218.788 219.463 226.334 219.543L226.096 255.218L237.375 317.789L236.898 317.949L228.002 320.582L227.764 320.024L198.056 246.199L197.023 231.115L198.771 218.505Z" fill="#305399"/>
<path d="M196.547 223.533L197.103 231.275L194.482 250.828L191.463 321.46H191.384V320.423L182.328 320.662L168.031 245.72L167.236 215.073C177.007 216.669 187.333 217.707 197.023 218.345L196.547 223.533Z" fill="#305399"/>
<path d="M197.023 218.425C197.659 218.505 198.215 218.505 198.85 218.585L197.103 231.354L196.547 223.613L197.023 218.425Z" fill="#F5F5F5"/>
<path d="M181.614 320.742L182.25 320.662L191.305 320.423V321.46L191.464 325.052L181.932 330L176.928 325.531L181.614 320.742Z" fill="#484F5B"/>
<path d="M215.213 52.4198C215.531 51.6217 215.849 50.8236 216.166 50.0255C216.166 50.0255 216.087 50.0255 216.087 49.9457C211.877 46.7533 209.891 41.0867 210.13 35.7394C210.288 32.3076 211.242 28.8758 212.592 25.6833C213.625 23.8477 214.975 22.1717 216.484 20.7351C219.185 18.1014 222.918 16.1061 226.493 16.1859C227.922 16.2657 227.366 17.3831 229.114 16.5052C229.352 16.3455 229.67 16.1061 229.908 15.7869C230.146 16.1061 230.385 16.2657 230.385 16.3455C232.053 18.1014 233.959 18.9793 236.024 20.2562C239.122 22.2515 240.79 26.4016 240.075 30.3123C239.758 31.9085 239.122 33.5846 239.44 35.1808C239.758 36.5375 240.87 37.4953 241.585 38.6924C241.982 39.4107 242.22 40.129 242.379 41.0069C238.963 47.2321 232.529 52.1804 225.937 52.8188V52.8987C225.857 53.2977 225.778 53.6968 225.619 54.0958C225.142 55.7718 223.951 57.6075 222.203 57.7671C221.409 57.8469 220.615 57.5277 219.82 57.2084C218.311 56.5699 216.802 56.0113 215.293 55.3728C214.975 55.2132 214.657 55.0535 214.498 54.7343C214.419 54.4949 214.498 54.1756 214.578 53.8564C214.895 53.2977 215.054 52.8987 215.213 52.4198Z" fill="#EAC5B0"/>
<path d="M182.567 9.24236C186.142 9.00293 189.319 11.1578 192.258 13.1531C192.814 9.64142 196.15 7.16731 199.407 6.20958C202.663 5.25186 206.079 5.25186 209.256 3.97489C213.069 2.4585 216.882 -0.893535 220.695 0.223809C224.11 1.18153 226.255 5.41147 228.4 9.08275C228.479 9.00294 228.479 8.92313 228.558 8.92313C230.226 7.24711 231.974 5.57109 234.119 4.69318C240.95 1.82001 240.156 10.4395 245.398 9.96066C246.669 9.88085 247.702 8.84332 248.893 8.28464C251.117 7.24711 253.659 8.04521 255.645 9.32218C257.631 10.5193 259.458 12.1954 261.602 13.1531C263.509 13.9512 265.733 14.1906 267.48 15.2281C270.181 16.8243 269.625 19.7773 270.102 22.4909C270.658 25.4439 271.452 29.4344 273.041 31.9085C274.232 33.6643 275.98 34.8615 277.489 36.2981C278.998 37.7347 280.269 39.8097 279.951 41.9646C279.633 44.0397 277.965 45.7955 277.489 47.8706C276.853 50.9832 277.171 52.6592 275.821 55.7718C275.106 57.368 274.311 59.044 272.961 60.0017C271.134 61.2787 268.831 60.9594 266.765 60.321C264.78 59.6825 262.714 58.8844 260.57 59.2834C255.963 60.1614 256.28 64.7105 254.612 68.302C253.5 70.6963 251.594 72.4521 249.29 73.5695C246.431 74.9263 243.015 75.0061 240.314 73.5695C236.263 71.3348 234.436 66.0673 235.231 61.1989C235.548 59.4431 236.263 57.8469 236.819 56.1708C237.058 55.5324 237.217 54.8939 237.296 54.2554C237.693 51.9409 236.74 48.509 239.123 46.9128C239.679 46.5138 240.394 46.3542 240.95 45.8753C241.347 45.4763 241.665 44.9974 241.903 44.4387C242.3 43.3214 242.459 42.1242 242.3 41.0069C242.221 40.2088 241.903 39.4107 241.506 38.6924C240.791 37.4952 239.758 36.5375 239.361 35.1807C238.964 33.5845 239.679 31.9883 239.997 30.3123C240.712 26.4016 239.044 22.2514 235.946 20.2562C233.88 18.9792 232.053 18.1013 230.306 16.3455C230.226 16.2657 230.068 16.1061 229.829 15.7868C229.512 16.1061 229.273 16.3455 229.035 16.5051C227.288 17.383 227.844 16.2657 226.414 16.1859C222.839 16.0263 219.106 18.1013 216.405 20.7351C214.896 22.1716 213.625 23.8477 212.513 25.6833C210.607 28.9555 209.495 32.7066 209.415 36.3779C209.256 41.7252 212.036 44.0397 209.495 49.387C208.939 50.5841 208.224 51.7015 207.429 52.739C205.285 55.6122 202.346 57.8469 199.089 58.8844C198.692 58.8844 198.374 58.8844 197.977 58.8046C196.15 58.645 194.323 58.1661 192.734 57.2882C191.066 56.4901 189.637 55.2929 188.366 53.9361C186.459 51.8611 185.109 49.3071 184.473 46.434C184.156 44.8378 183.997 43.1618 182.964 42.0444C182.17 41.1665 180.899 40.7674 180.025 39.8895C176.53 36.2183 183.203 29.5142 181.693 24.4063C180.74 21.2139 176.848 19.9369 175.974 16.6647C175.18 13.2329 178.993 9.40199 182.567 9.24236Z" fill="#1D2B56"/>
<path d="M106.867 35.42C107.105 35.3402 119.259 54.8937 127.678 64.471C135.383 73.1703 159.054 86.339 167.871 93.921C165.091 103.817 162.232 114.911 160.166 124.808C146.981 187.858 156.115 212.998 156.115 212.998C159.69 213.796 163.423 214.434 167.156 215.073C176.927 216.669 187.253 217.707 196.943 218.345C197.579 218.425 198.135 218.425 198.77 218.505C209.176 219.223 218.787 219.463 226.333 219.542C236.104 219.702 242.458 219.463 242.458 219.463L264.382 94.6392L249.369 73.4895C246.509 74.8463 243.094 74.9261 240.393 73.4895C236.342 71.2548 234.515 65.9873 235.309 61.1189C235.627 59.3631 236.342 57.7669 236.898 56.0909L234.833 53.1379L225.857 52.7388C225.777 53.1379 225.698 53.5369 225.539 53.936C225.063 55.612 223.871 57.4477 222.124 57.6073C221.329 57.6871 220.535 57.3678 219.741 57.0486C218.231 56.4101 216.722 55.8514 215.213 55.213C214.895 55.0533 214.577 54.8937 214.419 54.5745C214.339 54.335 214.419 54.0158 214.498 53.6966C214.657 53.2177 214.895 52.7388 215.054 52.3398L210.288 52.1802C209.653 52.3398 208.62 52.5792 207.349 52.8187C205.204 55.6918 202.265 57.9265 199.009 58.9641C198.612 58.9641 198.294 58.9641 197.897 58.8842C196.07 58.7246 194.243 58.2458 192.654 57.3678C190.986 56.5697 189.556 55.3726 188.285 54.0158C178.039 54.4947 161.437 60.9593 152.7 55.612C149.84 53.8562 119.735 31.6689 120.45 31.5891C120.45 31.5891 108.218 35.1008 107.105 35.2604C107.026 35.42 106.867 35.42 106.867 35.42Z" fill="#F0F0FA"/>
<path d="M152.461 139.732L149.84 135.742C148.251 136.141 146.662 136.619 145.153 137.098C143.564 137.657 142.055 138.216 140.625 138.934L141.023 143.723C141.499 149.15 135.859 152.981 131.014 150.506L126.725 148.352C124.342 150.586 122.197 153.06 120.291 155.774L122.991 159.685C126.089 164.154 123.15 170.299 117.669 170.619L112.903 170.858C111.95 174.051 111.315 177.243 110.997 180.515L115.366 182.51C120.291 184.825 120.767 191.609 116.24 194.642L112.268 197.275C112.665 198.872 113.142 200.468 113.618 201.984C114.174 203.58 114.73 205.097 115.445 206.533L120.211 206.134C125.613 205.655 129.425 211.322 126.963 216.19L124.818 220.5C127.042 222.894 129.505 225.049 132.206 226.965L136.098 224.251C140.546 221.139 146.662 224.092 146.98 229.598L147.218 234.387C150.396 235.345 153.573 235.983 156.83 236.303L158.815 231.913C161.119 226.965 167.871 226.486 170.889 231.035L173.51 235.026C175.099 234.627 176.688 234.148 178.197 233.669C179.786 233.11 181.295 232.551 182.725 231.833L182.327 227.045C181.851 221.617 187.49 217.787 192.336 220.261L196.625 222.416C199.008 220.181 201.153 217.707 203.059 214.993L200.358 211.082C197.261 206.613 200.2 200.468 205.68 200.148L210.446 199.909C211.4 196.717 212.035 193.524 212.353 190.252L207.984 188.257C203.059 185.942 202.583 179.158 207.11 176.126L211.082 173.492C210.685 171.896 210.208 170.299 209.732 168.783C209.175 167.187 208.619 165.67 207.905 164.234L203.139 164.633C197.737 165.112 193.924 159.445 196.387 154.577L198.532 150.267C196.307 147.873 193.845 145.718 191.144 143.802L187.252 146.516C182.804 149.629 176.688 146.676 176.37 141.169L176.132 136.38C172.954 135.422 169.777 134.784 166.52 134.465L164.534 138.854C162.152 143.882 155.4 144.361 152.461 139.732ZM181.295 178.52C185.028 189.454 179.309 201.266 168.427 205.097C157.544 208.848 145.788 203.101 141.976 192.167C138.242 181.233 143.962 169.422 154.844 165.591C165.726 161.84 177.561 167.666 181.295 178.52Z" fill="#96BFEE"/>
<path d="M206.317 149.07L206.476 154.657L196.706 158.248L191.066 153.938V147.474L196.547 147.155L196.706 145.718L198.454 144.601L206.317 149.07Z" fill="#EAC5B0"/>
<path d="M147.855 100.147C148.252 97.2734 148.57 94.3204 148.649 91.3674C148.729 88.4943 148.649 85.6211 148.49 82.8277L133.954 79.3959L129.903 65.1098L140.468 54.4951C137.846 49.3074 134.59 44.5188 130.856 40.1292L117.114 45.9554L105.438 36.7772L107.741 21.9325C102.817 19.4584 97.5741 17.4631 92.0932 16.1063L84.3089 28.876L69.5345 28.2375L62.7827 14.8293C56.9842 15.7073 51.4239 17.3035 46.1814 19.4583L47.3728 34.4627L35.0608 42.6033L21.7956 35.7397C17.7446 39.81 14.1701 44.3592 11.1517 49.3074L20.8424 60.7203L15.6793 74.6871L0.904905 77.0016C0.428311 79.9546 0.110601 82.9076 0.0311686 86.0202C-0.0482638 88.8135 0.0311298 91.6069 0.189994 94.3204L14.7262 97.8321L18.6978 112.118L8.05382 122.573C10.6751 127.761 13.9318 132.629 17.5857 137.019L31.4069 131.273L43.0041 140.451L40.6211 155.296C45.7048 157.849 51.1061 159.924 56.7458 161.281L64.5302 148.432L79.3047 149.07L86.0564 162.478C91.855 161.521 97.3358 159.924 102.658 157.77L101.466 142.765L113.778 134.465L127.043 141.329C131.095 137.258 134.669 132.709 137.687 127.761L127.997 116.428L133.08 102.461L147.855 100.147ZM71.838 125.526C51.5827 124.169 36.3317 106.531 37.6821 86.1798C39.0324 65.8281 56.587 50.5046 76.8422 51.8613C97.0975 53.2181 112.348 70.8562 110.998 91.2078C109.648 111.559 92.0932 126.883 71.838 125.526Z" fill="#305399"/>
<path opacity="0.08" d="M290 330C290 335.41 254.161 340 210 340C165.839 340 130 335.574 130 330C130 324.59 165.839 320 210 320C254.161 320.164 290 324.59 290 330Z" fill="#9DAFBD"/>
</svg>
