<svg width="160" height="360" viewBox="0 0 160 360" fill="none" xmlns="http://www.w3.org/2000/svg">
<path d="M100 60C116.569 60 130 46.5685 130 30C130 13.4315 116.569 0 100 0C83.4315 0 70 13.4315 70 30C70 46.5685 83.4315 60 100 60Z" fill="#F3F7FB"/>
<path opacity="0.3" d="M115.69 4.39404C118.679 9.05935 120.403 14.5945 120.403 20.5566C120.403 37.1144 106.977 50.5568 90.4029 50.5568C84.6464 50.5568 79.2694 48.9279 74.7148 46.1288C80.0444 54.4472 89.375 59.9665 99.9866 59.9665C116.544 59.9665 129.987 46.5399 129.987 29.9662C130.003 19.1491 124.278 9.67612 115.69 4.39404Z" fill="#D8E4F2"/>
<path d="M74.0825 33.1609C74.0825 17.7891 86.5444 5.31139 101.932 5.31139C110.915 5.31139 118.917 9.56551 124.009 16.176C119.201 7.84172 110.187 2.22754 99.8602 2.22754C84.4885 2.22754 72.0107 14.6894 72.0107 30.077C72.0107 36.4661 74.1615 42.3492 77.7831 47.0461C75.4267 42.9659 74.0825 38.2216 74.0825 33.1609Z" fill="white"/>
<path d="M87.7147 43.3297C86.9398 44.073 85.7062 43.2506 86.1016 42.2543C88.3157 36.7192 93.7242 32.813 100.066 32.813C106.297 32.813 111.626 36.5927 113.904 41.9855C114.315 42.966 113.066 43.8199 112.306 43.0767C107.91 38.8067 98.5951 32.7497 87.7147 43.3297Z" fill="#587BC9"/>
<path d="M88.9484 26.235C90.1712 26.235 91.1625 24.564 91.1625 22.5028C91.1625 20.4415 90.1712 18.7705 88.9484 18.7705C87.7256 18.7705 86.7344 20.4415 86.7344 22.5028C86.7344 24.564 87.7256 26.235 88.9484 26.235Z" fill="#3F60B2"/>
<path d="M113.271 22.5018C113.271 24.5577 112.275 26.234 111.057 26.234C109.839 26.234 108.843 24.5735 108.843 22.5018C108.843 20.4459 109.839 18.7695 111.057 18.7695C112.275 18.7853 113.271 20.4459 113.271 22.5018Z" fill="#3F60B2"/>
<path opacity="0.08" d="M160 350C160 355.41 124.161 360 80 360C35.8386 360 0 355.574 0 350C0 344.59 35.8386 340 80 340C124.161 340.164 160 344.59 160 350Z" fill="#9DAFBD"/>
<path d="M108.521 336.932L117.724 344.85L115.939 349.718L98.2031 343.501L100.49 336.404L108.521 336.932Z" fill="#2B2B2B"/>
<path d="M70.8184 206.023L74.834 224.968L98.7609 280.686L99.4302 335.877L110.306 336.698L118.393 260.862L115.103 239.278L101.996 196.17L70.8184 206.023Z" fill="#292949"/>
<path d="M86.379 202.622L83.925 345.026L76.1724 346.023L63.233 279.806L44.5488 214.293L86.379 202.622Z" fill="#292949"/>
<path d="M84.5937 343.56L95.358 348.78L94.8002 354L76.1719 352.651L76.6739 345.202L84.5937 343.56Z" fill="#2B2B2B"/>
<path d="M119.341 120.041L106.904 103.795C106.904 103.795 78.738 105.672 58.4922 138.751C38.4137 171.596 40.0311 232.71 40.0311 232.71C40.0311 232.71 102.609 226.552 114.154 229.425L111.477 218.868C104.059 189.601 107.406 158.458 120.847 131.713L122.186 129.074C122.297 125.789 121.349 122.563 119.341 120.041Z" fill="#5575BC"/>
<path d="M144.327 104.44C138.137 101.155 135.459 92.5335 128.878 90.1288C124.584 88.5452 119.564 90.2461 116.162 93.5306C114.544 95.0555 113.206 96.991 112.704 99.1611C112.034 102.035 114.265 105.437 113.763 107.665C113.317 109.718 113.652 108.252 112.202 109.601C111.309 110.481 109.636 109.953 108.577 111.185C107.071 112.944 107.238 117.519 107.461 119.63C108.298 128.193 118.002 117.812 120.791 115.466C121.628 115.935 122.52 116.346 123.468 116.639C129.101 118.34 135.682 116.404 139.754 111.83C141.65 109.66 142.989 107.02 144.327 104.44Z" fill="#EAC5B0"/>
<path d="M141.762 105.378L124.639 91.5367L112.704 104.088L109.971 96.522L126.368 74L152.637 89.7185L160 103.677L155.538 110.305L141.483 111.126L141.762 105.378Z" fill="#292949"/>
<path d="M76.0605 203.971L78.7935 213.824L82.8649 212.768L82.3629 205.554L84.5381 206.024L81.1917 197.871L76.8414 198.399L76.0605 203.971Z" fill="#EAC5B0"/>
<path d="M102.051 136.815L81.917 154.176L83.2556 200.276L74.5549 200.804L61.5039 146.786L80.5785 121.097C86.1 113.648 96.5855 113.003 102.888 119.689C107.461 124.499 107.071 132.475 102.051 136.815Z" fill="#587BC9"/>
</svg>
