<svg width="180" height="380" viewBox="0 0 180 380" fill="none" xmlns="http://www.w3.org/2000/svg">
<path opacity="0.12" d="M127.508 360.109C135.072 360.282 142.636 360.369 150.183 360.239C150.993 360.239 151.835 360.239 152.581 361.279C154.654 364.18 153.973 370.2 152.03 372.149C147.948 376.177 142.344 375.787 138.02 376.74C132.74 377.909 127.444 378.559 122.147 378.948C111.701 379.641 101.254 379.208 90.807 379.511C78.7082 379.815 66.5932 380.031 54.4945 379.815C42.7034 379.555 30.1835 381.633 18.5544 376.263C15.639 374.921 12.7561 373.015 9.82449 372.062C7.05489 371.153 4.25289 371.586 1.46709 370.59C-0.0553808 370.07 -0.557473 366.346 0.754444 363.834C2.24452 360.975 4.83596 362.578 6.55279 362.535C9.48436 362.448 12.4321 361.842 15.3637 361.495C28.3695 359.979 41.2781 356.385 54.2839 356.991C67.7594 357.597 81.2511 358.247 94.7266 358.853C105.627 359.373 116.576 359.849 127.508 360.109Z" fill="#9DAFBD"/>
<path d="M129.596 352.669L137.63 357.818L140.417 361.917C140.417 361.917 137.564 363.36 135.958 363.754C134.351 364.147 121.596 362.803 121.596 362.803L121.235 355.325L129.596 352.669Z" fill="#2B2B2B"/>
<path d="M89.3972 358.31L93.3646 362.77C93.3646 362.77 96.6107 368.804 94.9713 368.706C93.3646 368.607 84.5445 369.099 83.9543 368.082C83.3641 367.066 78.6753 363.557 78.0523 362.868C77.4293 362.179 78.0523 356.506 78.0523 356.506L89.3972 358.31Z" fill="#2B2B2B"/>
<path d="M112.12 239.691L102.119 300.46L89.397 358.31L78.0521 357.654L80.249 296.59C80.249 296.59 72.0518 240.445 72.0518 223.851L112.12 239.691Z" fill="#305399"/>
<path d="M137.203 242.675L132.613 354.833L120.94 355.358L114.71 298.393L105.66 248.118L129.825 216.996L137.203 242.675Z" fill="#305399"/>
<path d="M131.072 183.644C124.941 153.833 132.712 139.436 119.301 131.139C119.301 131.139 97.4636 125.138 83.5284 135.14C83.3316 135.271 83.1349 135.435 82.9382 135.566L77.9215 146.061L74.0852 193.22C74.0852 193.22 63.3632 255.137 69.0357 255.661C75.4951 256.219 105.136 242.412 110.776 242.74C116.416 243.068 133.63 246.151 149.86 240.609C163.795 235.886 137.204 213.454 131.072 183.644Z" fill="#5575BC"/>
<path d="M103.89 130.221L99.6602 130.385L99.2012 134.681L114.841 178.331L118.317 159.409L114.514 131.927L103.89 130.221Z" fill="white"/>
<path d="M117.694 162.885C117.661 161.147 117.596 159.605 117.432 158.359C116.448 149.701 110.251 138.387 110.251 138.387C110.251 138.387 109.825 135.927 109.759 133.763L104.611 132.943L104.939 138.321L107.169 140.65C107.169 140.65 112.546 161.278 112.677 169.542C112.677 170.395 112.677 171.313 112.645 172.198L114.841 178.364L117.694 162.885Z" fill="#2B2B2B"/>
<path d="M116.743 195.122L110.71 242.675L123.399 244.446L132.187 243.79L121.071 202.534L116.743 195.122Z" fill="white"/>
<path d="M109.66 132.123C106.742 132.254 103.824 132.353 100.938 132.484C100.578 130.188 100.414 127.86 100.446 125.531C97.9216 125.04 95.0034 124.154 94.2165 121.694C93.987 120.94 93.9869 120.088 94.0197 119.3C94.1181 115.955 93.2 112.577 94.3476 109.298C94.7411 108.216 94.4132 106.97 94.905 105.92C95.7575 104.084 97.7249 103.034 99.6594 102.411C104.578 100.837 110.217 101.132 114.611 103.887C115.791 104.608 116.874 105.559 117.497 106.773C118.48 108.642 118.251 110.905 118.021 113.004C117.792 114.939 117.562 116.906 117.333 118.841C117.07 121.071 116.611 123.629 114.644 124.744C113.595 125.335 112.283 125.4 111.365 126.155C109.693 127.532 110.316 130.123 109.66 132.123Z" fill="#EAC5B0"/>
<path d="M122.186 88.7684C121.53 88.7028 120.874 88.6372 120.186 88.4076C118.022 87.6862 116.382 85.948 114.087 85.2921C109.431 83.9475 103.791 84.669 99.4959 86.8991C95.3973 89.0307 89.6593 90.2114 86.0853 92.9333C84.577 94.0812 83.495 95.6553 82.6753 97.3934C79.921 103.297 80.9702 110.807 85.2 115.726C86.1509 116.841 87.2329 117.825 88.3805 118.743C90.7085 120.678 93.5283 123.039 96.4466 123.465C96.1515 120.94 92.7742 113.397 94.4136 111.069C96.5777 107.986 101.299 107.658 104.742 107.691C108.808 107.724 112.021 106.15 116.054 106.019C118.12 105.953 120.481 106.15 121.923 104.707C123.596 103.034 127.038 97.8526 127.76 95.6553C128.416 93.7204 127.661 91.4904 126.153 90.113C124.842 88.9324 123.53 88.8996 122.186 88.7684Z" fill="#292949"/>
<path d="M149.565 154.456L123.104 130.483L116.743 135.862L138.646 172.461L148.548 173.412C148.548 173.412 151.401 163.213 151.991 162.13L149.565 154.456Z" fill="#587BC9"/>
<path d="M24.5736 332.336C19.5897 330.762 14.737 331.189 10.1793 333.55C5.62167 335.944 2.50673 339.65 0.93287 344.667C-0.640992 349.652 -0.214739 354.506 2.14605 359.064C4.53964 363.623 8.24477 366.738 13.2615 368.312C15.2288 368.935 17.1961 369.231 19.1307 369.231C22.0489 369.231 24.9015 368.509 27.6557 367.066C32.2134 364.672 35.3283 360.966 36.9022 355.949C38.476 350.964 38.0498 346.11 35.689 341.552C33.2626 336.993 29.5575 333.878 24.5736 332.336Z" fill="#FF640C"/>
<path d="M35.6563 341.552C33.2627 336.993 29.5248 333.878 24.5409 332.303C22.9342 331.812 21.3276 331.484 19.7537 331.418C22.9014 333.156 25.3606 335.714 27.0984 339.026C29.492 343.585 29.8854 348.439 28.3116 353.423C26.7377 358.408 23.6228 362.147 19.0651 364.541C16.3109 365.984 13.4582 366.705 10.54 366.705C10.1794 366.705 9.81868 366.705 9.45801 366.673C10.6384 367.328 11.8844 367.853 13.2287 368.279C15.196 368.903 17.1634 369.198 19.0979 369.198C22.0161 369.198 24.8687 368.476 27.623 367.033C32.1807 364.639 35.2956 360.933 36.8694 355.916C38.4433 350.964 38.0498 346.143 35.6563 341.552Z" fill="#231F20" fill-opacity="0.14"/>
<path d="M129.4 209.388C121.629 195.778 108.546 186.005 90.5122 180.332C72.5111 174.658 56.0839 175.15 41.7552 181.775C29.2955 187.547 20.1474 197.32 14.6061 210.831C13.6552 213.094 13.7208 215.685 14.77 217.915C15.8193 220.145 17.7538 221.85 20.1146 222.572L30.8365 225.95C35.1319 227.294 39.7223 225.195 41.5585 221.096C44.7718 213.783 49.3622 208.831 55.5593 205.945C63.0679 202.436 72.0849 202.337 82.4133 205.584C92.709 208.831 99.9553 214.209 103.923 221.555C107.89 228.901 108.284 237.723 105.103 247.857C100.709 261.795 93.791 269.928 84.479 272.027C74.6752 274.224 60.9039 272.486 43.5258 266.845L38.8698 265.369C34.2466 263.926 29.2627 266.484 27.82 271.141L15.0979 311.577C14.3766 313.807 14.6061 316.201 15.6881 318.3C16.7701 320.399 18.6063 321.94 20.8687 322.629L31.7546 326.04C32.6399 326.302 33.5252 326.433 34.4105 326.433C38.1484 326.433 41.6241 324.006 42.8372 320.268L51.0672 294.065C51.1656 293.737 51.5263 293.54 51.8542 293.638C72.3144 299.476 89.299 299.869 102.382 294.819C116.284 289.441 126.35 277.143 132.285 258.253C138.187 239.527 137.236 223.064 129.4 209.388Z" fill="#FF640C"/>
<path d="M129.4 209.388C121.629 195.778 108.546 186.006 90.512 180.332C79.3638 176.823 68.8058 175.675 59.002 176.889C64.1498 177.479 69.4616 178.627 74.9045 180.332C92.9384 186.006 106.021 195.778 113.792 209.388C121.596 223.064 122.579 239.527 116.645 258.318C110.71 277.208 100.644 289.506 86.7413 294.885C82.741 296.426 78.3473 297.476 73.593 298C84.61 299.05 94.2171 298.033 102.316 294.885C116.218 289.506 126.285 277.208 132.219 258.318C138.187 239.527 137.236 223.064 129.4 209.388Z" fill="#231F20" fill-opacity="0.14"/>
<path d="M88.1839 132.484L75.6258 136.354L45.624 187.514L47.6897 197.385L86.5444 216.832L92.0202 206.272L67.4614 187.514L82.4458 167.05L88.2495 134.288L88.1839 132.484Z" fill="#587BC9"/>
<path d="M122.579 130.91L116.218 124.056L110.087 125.761L108.382 131.926L113.825 132.943L118.94 133.96L122.579 130.91Z" fill="#D9B29C"/>
<path d="M91.463 207.322L97.5945 208.568L96.6108 212.175L101.923 218.374L94.6435 221.03L87.5283 214.963L91.463 207.322Z" fill="#EAC5B0"/>
<path d="M107.184 39.0239C105.807 40.7175 104.958 42.9191 104.98 45.3384C105.003 50.6609 109.111 54.9673 114.16 54.9431C115.72 54.9431 117.189 54.5076 118.474 53.7818C120.173 59.4673 125.221 63.5801 131.165 63.5559C135.938 63.5317 140.115 60.8463 142.433 56.8544C145.393 60.6527 149.891 63.0963 154.94 63.0721C163.821 63.0479 171.004 55.427 170.958 46.0642C170.958 44.8303 170.82 43.6449 170.591 42.5078C176.053 40.7659 180.023 35.3949 180 29.0805C179.977 21.3628 174.01 15.1209 166.69 15.1451C165.726 15.1451 164.808 15.2661 163.913 15.4596C163.913 15.3629 163.913 15.2419 163.913 15.1451C163.89 9.82261 159.782 5.5162 154.733 5.54039C152.14 5.54039 149.799 6.70167 148.124 8.56456C145.347 3.43558 140.092 -0.0240672 134.102 0.000126083C126.139 0.0243194 119.53 6.16942 118.291 14.2016C117.212 13.9113 116.065 13.7419 114.894 13.7419C107.574 13.7661 101.653 20.0564 101.676 27.774C101.722 32.395 103.879 36.4836 107.184 39.0239ZM121.687 39.7497C121.664 39.7739 121.641 39.7981 121.641 39.8223C121.641 39.8223 121.641 39.7981 121.618 39.7981C121.641 39.7739 121.664 39.7739 121.687 39.7497Z" fill="#F0F0FA"/>
<path d="M136.392 35.612C136.392 34.436 136.584 33.38 136.968 32.444C137.352 31.508 138.144 30.692 139.344 29.996C139.704 29.78 140.148 29.54 140.676 29.276C141.204 28.988 141.72 28.652 142.224 28.268C142.728 27.884 143.148 27.44 143.484 26.936C143.844 26.408 144.024 25.808 144.024 25.136C144.024 24.632 143.928 24.188 143.736 23.804C143.544 23.42 143.292 23.096 142.98 22.832C142.668 22.568 142.296 22.376 141.864 22.256C141.456 22.112 141.036 22.04 140.604 22.04C140.076 22.04 139.596 22.136 139.164 22.328C138.732 22.496 138.336 22.724 137.976 23.012C137.64 23.276 137.328 23.588 137.04 23.948C136.776 24.284 136.548 24.608 136.356 24.92L133.224 22.76C133.536 22.016 133.944 21.356 134.448 20.78C134.976 20.204 135.564 19.724 136.212 19.34C136.884 18.932 137.604 18.632 138.372 18.44C139.14 18.224 139.932 18.116 140.748 18.116C141.66 18.116 142.56 18.248 143.448 18.512C144.336 18.776 145.128 19.196 145.824 19.772C146.544 20.348 147.12 21.092 147.552 22.004C148.008 22.892 148.236 23.96 148.236 25.208C148.236 25.976 148.14 26.66 147.948 27.26C147.78 27.836 147.528 28.364 147.192 28.844C146.856 29.324 146.46 29.756 146.004 30.14C145.548 30.524 145.032 30.896 144.456 31.256C143.976 31.544 143.496 31.82 143.016 32.084C142.536 32.348 142.092 32.648 141.684 32.984C141.3 33.296 140.976 33.668 140.712 34.1C140.472 34.508 140.352 35.012 140.352 35.612H136.392ZM136.464 44V39.032H140.46V44H136.464Z" fill="#A1BDEB"/>
<path d="M116.547 67.4024C117.029 70.6202 114.964 73.6443 111.911 74.1766C110.649 74.3943 109.433 74.1524 108.4 73.5717C107.941 75.2411 106.61 76.5717 104.866 76.862C102.479 77.2733 100.208 75.5556 99.8403 73.0153C99.7944 72.6524 99.7715 72.2653 99.7944 71.9266C97.6831 72.1443 95.7784 70.596 95.4342 68.3702C95.0899 66.0476 96.5816 63.8702 98.7617 63.5073C99.2207 63.4347 99.6567 63.4347 100.093 63.5073C100.529 61.1364 102.319 59.2009 104.705 58.8138C107.345 58.3783 109.846 59.9267 110.787 62.4428C113.564 62.2977 116.088 64.4025 116.547 67.4024Z" fill="#F0F0FA"/>
</svg>
