<svg width="196" height="451" viewBox="0 0 196 451" fill="none" xmlns="http://www.w3.org/2000/svg">
<path opacity="0.14" d="M9.40858 442.114L67.3317 450.977C67.3811 450.984 67.4305 450.984 67.4799 450.984L129.688 440.225C139.929 436.65 145.47 435.08 151.388 433.209L162.189 431.251C168.65 429.467 166.184 421.983 160.098 421.984L9.48075 426.851C9.26043 426.858 9.04011 426.986 8.83119 427.242C-1.00927 428.064 -4.95482 436.016 9.40858 442.114Z" fill="#DDDDDD"/>
<path d="M123.142 196.672C122.95 196.473 122.751 196.274 122.515 196.141C120.346 194.924 118.495 195.588 116.083 195.02C115.006 194.762 114.061 192.085 112.394 193.678C111.782 194.268 110.476 195.92 109.171 197.188C107.275 199.031 103.756 200.226 100.784 200.661C89.1214 202.357 77.319 200.831 65.6936 198.958C65.0297 198.854 64.3437 198.729 63.7978 198.331C62.8315 197.616 62.6545 196.266 62.5291 195.072C61.9537 189.526 60.8546 184.04 59.2613 178.701C57.8376 173.938 55.9566 169.174 52.6151 165.487C49.2809 161.8 44.2353 159.345 39.3373 160.185C35.6638 160.819 32.3739 163.327 30.7953 166.704C26.8784 175.066 35.9294 185.08 40.0381 191.842C43.9255 198.242 48.2629 204.37 53.006 210.166C53.5887 210.881 54.2084 211.611 55.0272 212.039C55.8976 212.496 56.9155 212.563 57.904 212.622C70.5768 213.344 83.2423 212.939 95.9668 212.282C99.4633 212.098 102.421 210.107 105.652 209.967C107.718 209.878 109.399 211.294 111.369 211.641C113.316 211.987 115.957 211.943 117.89 211.545C121.703 210.763 123.378 207.113 125.163 204.06C125.606 203.301 125.908 202.792 125.945 201.966C126.004 200.632 125.259 199.562 124.558 198.478C124.138 197.829 123.673 197.217 123.142 196.672Z" fill="#EAC5B0"/>
<path d="M33.9159 192.601C36.7706 196.908 39.64 201.222 42.1333 205.86C43.7856 208.942 45.4085 212.238 48.2853 214.215C50.1147 215.468 52.2981 216.073 54.4447 216.596C67.7814 219.826 81.7157 220.571 95.3179 218.786C96.5867 218.617 97.9218 218.403 98.9324 217.607C100.673 216.228 100.821 213.691 100.821 211.471C100.821 208.861 100.821 206.258 100.821 203.648C100.821 202.873 100.799 202.033 100.319 201.428C99.8692 200.86 99.1242 200.639 98.4234 200.447C90.0142 198.161 81.4648 196.414 72.8269 195.227C70.0755 194.85 67.1397 194.452 65.0447 192.631C60.5524 188.737 60.4492 174.203 59.4165 168.201C58.2436 161.35 57.2921 154.441 55.9495 147.62C54.4521 140.04 52.8514 132.201 48.3222 125.941C38.659 112.572 17.54 117.623 16.4188 134.649C15.5705 147.502 17.9826 160.569 22.6446 172.537C25.514 179.889 29.6965 186.238 33.9159 192.601Z" fill="#3F60B2"/>
<path d="M69.8916 340.619L70.4301 373.345C70.2088 382.422 71.0276 391.477 71.5808 400.525C72.0972 408.931 70.4006 417.596 74.3913 425.383C75.6453 427.824 78.3008 429.527 80.3294 426.703C81.8932 424.527 81.1703 420.767 81.5539 418.237C84.4528 399.264 89.8451 380.763 92.5375 361.76C95.3553 341.865 87.6469 342.389 69.8916 340.619Z" fill="#EAC5B0"/>
<path d="M71.7513 419.793L69.6416 425.25L79.9982 434.364L89.4918 434.755L92.553 429.756L79.7991 418.658L71.7513 419.793Z" fill="#212940"/>
<path d="M46.7003 340.944L40.7327 373.124C38.6599 387.518 33.9611 401.536 31.8883 415.937C31.4162 419.248 31.6522 422.869 30.2655 425.988C28.9156 429.041 26.26 429.166 23.9217 427.094C20.7866 424.314 22.2324 419.358 22.2914 415.561C22.675 390.298 20.6834 365.388 20.2113 340.088C20.2039 339.756 20.2187 339.373 20.4768 339.167C20.6834 338.997 20.9858 338.997 21.2514 339.019C23.7077 339.174 46.5675 341.637 46.7003 340.944Z" fill="#EAC5B0"/>
<path d="M22.2181 421.136L18.9355 425.98L26.9686 437.196L36.1228 439.718L40.2389 435.537L30.3175 421.851L22.2181 421.136Z" fill="#212940"/>
<path d="M87.1682 418.872L94.5448 354.718L97.0085 284.26L89.7648 259.432L50.6619 253.37L2.32362 261.651L0 271.038L20.042 369.466V421.084L33.3197 421.821L46.5974 370.941L56.1869 287.615L67.9893 355.456L69.4646 418.134L87.1682 418.872Z" fill="#3F60B2"/>
<path d="M98.8085 183.79C98.7864 183.576 98.7717 183.355 98.7274 183.141C94.7441 161.535 102.991 145.054 87.2938 125.756C78.8477 115.367 74.5029 116.613 63.239 113.855C60.635 113.221 55.2871 111.311 55.5895 115.315C52.0119 115.212 48.4269 115.551 44.9452 116.34L44.8272 114.828C38.5645 116.296 30.3102 116.738 24.5418 119.348C18.3529 122.151 12.7467 131.25 9.56009 136.928C-1.37191 156.44 3.06874 180.309 3.09087 201.819C3.09825 207.799 -0.94408 271.901 2.12455 272.056C21.2887 273.022 40.0324 266.378 59.0048 268.17C70.2393 269.232 81.3409 272.019 92.3541 273.56C93.0991 273.664 93.94 273.678 94.5302 273.206C95.1867 272.676 95.2973 271.732 95.3637 270.891C96.5218 255.251 96.5439 239.131 97.4144 223.329C98.1225 210.41 99.9298 196.746 98.8085 183.79Z" fill="#3F60B2"/>
<path d="M62.4648 23.8109L75.2262 79.6614C78.7596 95.1394 93.4167 105.448 109.018 104.143C108.125 104.453 107.255 104.792 106.407 105.175C93.2544 111.06 85.6714 125.395 88.9908 139.936L101.752 195.787L182.112 178.908L169.351 123.057C165.817 107.579 151.16 97.2705 135.559 98.5757C136.451 98.2659 137.322 97.9267 138.17 97.5433C151.322 91.6589 158.905 77.3239 155.586 62.7824L142.825 6.93188L62.4648 23.8109Z" fill="#587BC9"/>
<path d="M152.76 9.84467L54.5347 30.4771C51.8128 31.0522 49.1056 29.3341 48.4933 26.65C47.8811 23.9658 49.5924 21.326 52.3143 20.7508L150.54 0.111024C153.262 -0.464147 155.969 1.25399 156.581 3.93812C157.194 6.62962 155.482 9.2695 152.76 9.84467Z" fill="#212940"/>
<path d="M192.055 181.821L93.8296 202.453C91.1077 203.028 88.4005 201.31 87.7882 198.626C87.176 195.942 88.8873 193.302 91.6093 192.727L189.835 172.094C192.557 171.519 195.264 173.237 195.876 175.921C196.488 178.606 194.777 181.245 192.055 181.821Z" fill="#212940"/>
<path d="M167.551 127.917C160.078 107.174 144.226 106.488 142.131 106.282C141.069 106.252 140.118 105.522 139.874 104.453C139.587 103.207 140.383 101.975 141.652 101.71C141.799 101.68 141.947 101.666 142.095 101.658V101.651C142.124 101.651 142.154 101.658 142.19 101.658C142.331 101.658 142.463 101.673 142.596 101.703C162.83 104.674 167.551 127.917 167.551 127.917Z" fill="#F7F7F8"/>
<path d="M136.968 105.331C135.986 105.537 135.005 104.918 134.784 103.944C134.563 102.971 135.182 102.02 136.164 101.813C137.145 101.607 138.126 102.226 138.347 103.199C138.568 104.165 137.949 105.124 136.968 105.331Z" fill="#F7F7F8"/>
<path d="M77.8516 69.8174L79.8801 78.681C81.4513 85.5683 85.6559 91.4748 91.7047 95.3093C97.7534 99.1437 104.931 100.449 111.909 98.9815L113.266 98.6939C116.954 99.0774 120.281 101.946 121.13 105.64L128.513 137.946C129.546 142.458 126.677 146.89 122.103 147.849L123.033 147.657C116.055 149.125 110.102 153.188 106.281 159.094C102.46 165.001 101.22 172.05 102.792 178.938L104.82 187.801L175.878 172.876L173.85 164.013C172.278 157.125 168.074 151.219 162.025 147.384C155.976 143.55 148.799 142.245 141.821 143.712L142.389 143.594C137.815 144.553 133.271 141.677 132.246 137.164L124.862 104.859C124.021 101.164 125.666 97.256 128.801 95.4346L130.704 95.0364C137.682 93.569 143.635 89.506 147.464 83.5994C151.285 77.6929 152.524 70.6433 150.953 63.756L148.924 54.8925L77.8516 69.8174Z" fill="white"/>
<path d="M41.545 142.363C40.1582 150.445 40.7115 158.718 41.2647 166.896C41.5007 170.347 41.7442 173.857 42.9392 177.101C44.4292 181.135 47.2692 184.49 49.8362 187.941C55.6194 195.713 61.8451 242.339 65.0318 251.483C67.6652 241.498 68.6684 193.545 71.3018 183.561C73.0795 176.807 74.872 169.978 75.0048 163.002C75.263 149.346 69.1921 136.456 63.2614 124.156C62.3763 122.328 61.4763 120.469 60.1117 118.958C56.2906 114.732 47.6675 114.172 44.6062 119.496C43.1826 121.974 43.8686 125.248 43.7211 127.924C43.4555 132.836 42.3786 137.525 41.545 142.363Z" fill="white"/>
<path d="M60.1699 145.135C61.3281 152.421 61.3207 159.905 62.3607 167.235C62.9287 171.254 63.8213 175.221 64.5368 179.218C66.5801 190.551 67.2661 202.07 67.9595 213.566C68.0923 215.829 68.2324 218.101 68.3652 220.372C68.4537 221.81 69.0439 224.177 68.3357 225.556C67.6202 226.957 65.8498 227.097 64.522 227.642C62.6042 228.424 60.8117 229.515 59.2405 230.865C56.3194 230.002 54.3573 227.119 53.6786 224.147C53 221.175 53.3762 218.078 53.7081 215.048C56.6218 188.487 56.1055 161.542 52.1738 135.114C50.9936 135.645 49.5626 134.775 49.0167 133.602C48.4708 132.43 48.5667 131.073 48.6774 129.782C48.6552 130.004 54.8146 129.76 55.2793 129.738C58.9381 129.554 60.0298 130.409 60.0372 134.472C58.2521 135.328 58.584 137.916 59.0782 139.833C59.5356 141.581 59.8896 143.351 60.1699 145.135Z" fill="#212940"/>
<path d="M136.421 173.731C136.17 173.613 135.919 173.488 135.654 173.444C133.205 173.038 131.685 174.299 129.221 174.579C128.122 174.705 126.323 172.515 125.297 174.579C124.921 175.339 124.257 177.345 123.468 178.974C122.317 181.356 119.411 183.679 116.77 185.095C106.384 190.662 94.7658 193.25 83.1995 195.455C82.5429 195.58 81.8496 195.698 81.2078 195.507C80.0571 195.16 79.4301 193.958 78.9063 192.874C76.4721 187.86 73.5731 183.074 70.2537 178.598C67.2957 174.601 63.8951 170.767 59.4987 168.437C55.1023 166.107 49.5257 165.517 45.2031 167.98C41.9648 169.823 39.7224 173.311 39.3904 177.02C38.5643 186.215 50.4847 192.542 56.6514 197.505C62.4862 202.195 68.653 206.487 75.0927 210.314C75.8893 210.786 76.7155 211.265 77.6302 211.383C78.6039 211.516 79.585 211.228 80.5292 210.948C92.693 207.305 104.459 202.615 116.195 197.66C119.418 196.296 121.52 193.412 124.515 192.181C126.426 191.392 128.491 192.152 130.453 191.805C132.401 191.466 134.865 190.522 136.546 189.489C139.866 187.454 140.198 183.45 140.832 179.977C140.987 179.114 141.098 178.532 140.854 177.743C140.449 176.467 139.386 175.715 138.361 174.941C137.749 174.476 137.1 174.063 136.421 173.731Z" fill="#EAC5B0"/>
<path d="M51.1487 200.307C55.3017 203.382 59.4694 206.465 63.3937 209.975C65.9976 212.305 68.6458 214.856 72.0316 215.734C74.1781 216.287 76.4353 216.117 78.6335 215.874C92.2727 214.369 105.624 210.321 117.803 204.002C118.939 203.412 120.119 202.755 120.798 201.664C121.963 199.776 121.24 197.336 120.48 195.249C119.588 192.801 118.703 190.345 117.81 187.897C117.545 187.167 117.242 186.385 116.578 185.98C115.959 185.604 115.184 185.64 114.461 185.699C105.779 186.415 97.1412 187.69 88.6213 189.512C85.9068 190.094 83.0078 190.721 80.4187 189.726C74.8642 187.595 69.8112 173.967 66.8016 168.673C63.3642 162.634 60.1111 156.462 56.5261 150.511C52.5354 143.896 48.353 137.068 41.9649 132.725C28.3257 123.448 10.1869 135.402 14.9374 151.787C18.5224 164.153 25.2424 175.627 33.7106 185.287C38.911 191.223 45.0114 195.758 51.1487 200.307Z" fill="#3F60B2"/>
<path d="M63.9401 73.8878C65.8875 77.302 66.8243 81.2323 67.0014 85.1626C67.0456 86.2097 67.1194 87.4117 67.9603 88.0311C68.8676 88.6874 68.071 90.14 68.757 89.2552C69.443 88.3703 71.7813 85.3101 71.8846 84.1892C72.128 81.5789 72.128 78.9463 71.8698 76.336C71.6485 74.0648 71.1838 71.6977 69.7011 69.9648C68.8233 68.9399 67.6431 68.2172 66.485 67.5167C64.8105 66.5065 63.0771 65.4815 61.1518 65.1201C57.8324 64.5007 55.7891 65.6953 58.7249 68.0107C60.8346 69.6773 62.605 71.5503 63.9401 73.8878Z" fill="#212940"/>
<path d="M43.1086 118.426C43.1086 119.798 43.1381 121.088 43.3299 122.172C46.6936 124.783 49.8729 127.629 52.8383 130.675C54.7267 128.145 56.6667 125.498 57.2716 122.394C57.5297 121.074 57.4855 107.867 58.2157 107.742C62.1991 107.056 66.8758 105.773 68.2404 101.606C68.6683 100.294 68.683 98.8633 68.6978 97.4697C68.742 91.6958 68.7789 85.922 68.8232 80.1408C68.8379 78.1425 68.8453 76.0851 68.1593 74.2343C66.9569 70.9823 63.9104 69.043 60.9156 67.8263C53.2809 64.7144 44.3848 64.8398 37.3328 69.2642C35.4592 70.444 33.6888 71.9557 32.6045 74.013C30.9374 77.1838 31.1513 81.0994 31.4095 84.7643C31.6455 88.1416 31.8889 91.5189 32.125 94.9035C32.3979 98.7896 32.9807 103.266 36.005 105.316C37.6057 106.407 39.6785 106.606 41.0579 108.014C43.3447 110.345 43.116 114.673 43.1086 118.426Z" fill="#EAC5B0"/>
<path d="M70.1069 95.1764C70.0406 94.1072 69.5759 90.9659 67.9604 92.9421C67.5399 93.4583 67.4367 94.1883 67.4072 94.8741C67.3777 95.5598 67.4146 96.2677 67.1933 96.9167C66.699 98.3988 65.0541 99.0772 63.5935 99.0477C63.0108 99.0404 62.4206 98.9445 61.9043 98.6495C61.4027 98.362 61.0117 97.9121 60.6208 97.4697C59.6839 96.3931 58.7397 95.3165 57.8029 94.2399C56.1875 92.389 52.9861 93.1854 50.81 93.473C48.302 93.7975 45.794 94.557 43.7433 96.2087C43.5367 96.3783 43.3376 96.548 43.131 96.7249C42.6368 97.1526 42.1426 97.5729 41.5672 97.8532C39.6272 98.797 37.2298 97.8089 35.8726 96.0465C35.2529 95.2354 34.6702 94.1957 33.7039 94.0629C32.9515 93.9597 32.2138 94.498 31.8229 95.2059C31.4319 95.9138 31.3286 96.7544 31.277 97.5729C31.0852 100.559 31.4983 103.634 32.7892 106.282C35.5923 112.019 41.014 112.726 46.4652 112.594C48.6192 112.542 50.7731 112.49 52.9271 112.439C56.8661 112.343 61.0265 112.181 64.3459 109.895C67.2744 107.874 69.0153 104.445 69.7234 100.847C70.107 98.9814 70.2176 97.0641 70.1069 95.1764ZM55.6932 103.31C53.6204 104.704 51.3337 104.777 49.0249 104.084C48.0438 103.789 48.4569 102.137 49.4454 102.432C51.3633 103.008 53.1705 102.993 54.8966 101.835C55.7596 101.253 56.5637 102.727 55.6932 103.31Z" fill="#212940"/>
<path d="M70.9256 63.8813C71.3092 62.4803 71.5894 61.0571 71.7665 59.6192C70.4313 60.0837 68.9856 60.2091 67.5914 59.9805C67.5914 59.1473 67.584 58.3214 67.584 57.4881C67.5766 56.795 58.2306 56.3156 57.4708 56.2493C50.3599 55.6667 43.8612 55.1137 37.4289 58.926C31.9334 62.1853 28.4148 67.0522 27.5738 73.3864C26.7698 79.4404 28.7467 87.338 32.2505 92.3596C32.2284 90.7521 31.3064 86.9471 31.6826 85.4207C31.9186 83.8869 32.4423 82.4048 33.18 81.0406C34.6405 78.3122 36.9051 76.0189 39.5164 74.3819C43.6841 71.7715 48.5305 70.3926 53.3695 69.7142C57.8028 69.0947 63.2097 68.5269 67.584 69.6994C69.6863 70.2672 70.0404 70.7908 71.3165 68.6671C71.5378 68.291 73.3229 63.9182 73.1459 63.9182C72.4082 63.9035 71.6706 63.8887 70.9256 63.8813Z" fill="#212940"/>
</svg>
