<svg width="1100" height="380" viewBox="0 0 1100 380" fill="none" xmlns="http://www.w3.org/2000/svg">
<path d="M350.664 217.311H381.016V270.631H350.664V334H281.553V270.631H166.094L161.992 228.385L281.553 36.0215V35.4062H350.664V217.311ZM227.822 217.311H281.553V125.436L277.246 132.408L227.822 217.311ZM788.301 155.787H820.908C846.748 155.787 859.668 143.141 859.668 117.848C859.668 108.004 856.592 100.006 850.439 93.8535C844.287 87.5645 835.605 84.4199 824.395 84.4199C815.234 84.4199 807.236 87.0859 800.4 92.418C793.701 97.75 790.352 104.381 790.352 112.311H721.24C721.24 96.5879 725.615 82.5742 734.365 70.2695C743.115 57.9648 755.215 48.3945 770.664 41.5586C786.25 34.5859 803.34 31.0996 821.934 31.0996C855.156 31.0996 881.27 38.6875 900.273 53.8633C919.277 69.0391 928.779 89.8887 928.779 116.412C928.779 129.264 924.814 141.432 916.885 152.916C909.092 164.264 897.676 173.492 882.637 180.602C898.496 186.344 910.938 195.094 919.961 206.852C928.984 218.473 933.496 232.896 933.496 250.123C933.496 276.783 923.242 298.111 902.734 314.107C882.227 330.104 855.293 338.102 821.934 338.102C802.383 338.102 784.199 334.41 767.383 327.027C750.703 319.508 738.057 309.186 729.443 296.061C720.83 282.799 716.523 267.76 716.523 250.943H786.045C786.045 260.104 789.736 268.033 797.119 274.732C804.502 281.432 813.594 284.781 824.395 284.781C836.562 284.781 846.27 281.432 853.516 274.732C860.762 267.896 864.385 259.215 864.385 248.688C864.385 233.648 860.625 222.984 853.105 216.695C845.586 210.406 835.195 207.262 821.934 207.262H788.301V155.787Z" fill="#3F60B2"/>
<path d="M518.786 83.6127C518.786 66.1806 532.92 52.047 550.356 52.047C567.788 52.047 581.922 66.1806 581.922 83.6127V125.236H624.969V83.6127C624.969 42.4727 591.5 9 550.356 9C509.212 9 475.739 42.4687 475.739 83.6127V125.236H518.786V83.6127Z" fill="#3F60B2"/>
<path d="M631.665 130.973H624.973H581.922H518.786H475.739H469.047C445.272 130.973 426 150.245 426 174.02V300.287C426 324.055 445.272 343.33 469.047 343.33H631.665C655.436 343.33 674.708 324.055 674.708 300.287V174.02C674.708 150.249 655.436 130.973 631.665 130.973ZM564.168 232.688V277.987C564.168 285.618 557.984 291.803 550.356 291.803C542.728 291.803 536.543 285.614 536.543 277.987V232.688C528.654 227.978 523.349 219.375 523.349 209.515C523.349 199.655 528.65 191.052 536.543 186.338C540.591 183.92 545.301 182.505 550.356 182.505C555.411 182.505 560.125 183.916 564.168 186.338C572.058 191.048 577.358 199.651 577.358 209.515C577.362 219.371 572.062 227.974 564.168 232.688Z" fill="#3F60B2"/>
<path opacity="0.12" d="M717.508 360.11C725.072 360.283 732.636 360.369 740.183 360.239C740.993 360.239 741.835 360.239 742.581 361.279C744.654 364.18 743.973 370.2 742.03 372.149C737.948 376.177 732.344 375.787 728.02 376.74C722.74 377.909 717.444 378.559 712.147 378.949C701.701 379.642 691.254 379.208 680.807 379.512C668.708 379.815 656.593 380.031 644.494 379.815C632.703 379.555 620.183 381.634 608.554 376.263C605.639 374.921 602.756 373.015 599.824 372.063C597.055 371.153 594.253 371.586 591.467 370.59C589.945 370.07 589.443 366.346 590.754 363.834C592.245 360.976 594.836 362.578 596.553 362.535C599.484 362.448 602.432 361.842 605.364 361.495C618.369 359.98 631.278 356.385 644.284 356.991C657.759 357.598 671.251 358.247 684.727 358.854C695.627 359.373 706.576 359.85 717.508 360.11Z" fill="#9DAFBD"/>
<path d="M719.596 352.669L727.629 357.818L730.416 361.917C730.416 361.917 727.564 363.36 725.957 363.754C724.35 364.147 711.596 362.803 711.596 362.803L711.235 355.325L719.596 352.669Z" fill="#2B2B2B"/>
<path d="M679.398 358.31L683.365 362.77C683.365 362.77 686.611 368.804 684.972 368.706C683.365 368.607 674.545 369.099 673.955 368.083C673.365 367.066 668.676 363.557 668.053 362.868C667.43 362.18 668.053 356.506 668.053 356.506L679.398 358.31Z" fill="#2B2B2B"/>
<path d="M702.12 239.691L692.119 300.46L679.397 358.31L668.052 357.654L670.249 296.59C670.249 296.59 662.052 240.445 662.052 223.851L702.12 239.691Z" fill="#305399"/>
<path d="M727.203 242.675L722.613 354.833L710.94 355.358L704.71 298.393L695.66 248.119L719.825 216.996L727.203 242.675Z" fill="#305399"/>
<path d="M721.072 183.644C714.94 153.833 722.711 139.436 709.3 131.139C709.3 131.139 687.463 125.138 673.528 135.14C673.331 135.272 673.134 135.436 672.938 135.567L667.921 146.061L664.085 193.22C664.085 193.22 653.363 255.137 659.035 255.662C665.495 256.219 695.136 242.413 700.775 242.741C706.415 243.068 723.629 246.151 739.86 240.609C753.795 235.886 727.203 213.455 721.072 183.644Z" fill="#5575BC"/>
<path d="M693.89 130.221L689.66 130.385L689.201 134.681L704.841 178.331L708.317 159.409L704.514 131.926L693.89 130.221Z" fill="white"/>
<path d="M707.694 162.885C707.661 161.147 707.595 159.605 707.431 158.359C706.448 149.701 700.251 138.387 700.251 138.387C700.251 138.387 699.824 135.927 699.759 133.763L694.611 132.943L694.939 138.321L697.168 140.65C697.168 140.65 702.546 161.278 702.677 169.542C702.677 170.395 702.677 171.313 702.644 172.199L704.841 178.364L707.694 162.885Z" fill="#2B2B2B"/>
<path d="M706.744 195.122L700.71 242.675L713.4 244.446L722.187 243.79L711.072 202.534L706.744 195.122Z" fill="white"/>
<path d="M699.66 132.123C696.742 132.254 693.824 132.353 690.939 132.484C690.578 130.188 690.414 127.86 690.447 125.532C687.922 125.04 685.004 124.154 684.217 121.695C683.987 120.94 683.987 120.088 684.02 119.3C684.119 115.955 683.201 112.578 684.348 109.298C684.742 108.216 684.414 106.97 684.906 105.92C685.758 104.084 687.725 103.034 689.66 102.411C694.578 100.837 700.218 101.132 704.612 103.887C705.792 104.608 706.874 105.559 707.497 106.773C708.481 108.642 708.251 110.905 708.022 113.004C707.792 114.939 707.563 116.906 707.333 118.841C707.071 121.071 706.612 123.629 704.644 124.744C703.595 125.335 702.284 125.4 701.366 126.155C699.693 127.532 700.316 130.123 699.66 132.123Z" fill="#EAC5B0"/>
<path d="M712.186 88.7684C711.53 88.7028 710.874 88.6372 710.186 88.4076C708.022 87.6862 706.382 85.948 704.087 85.2921C699.431 83.9475 693.791 84.669 689.496 86.8991C685.397 89.0307 679.659 90.2114 676.085 92.9333C674.577 94.0812 673.495 95.6553 672.675 97.3934C669.921 103.297 670.97 110.807 675.2 115.726C676.151 116.841 677.233 117.825 678.381 118.743C680.709 120.678 683.528 123.039 686.447 123.465C686.151 120.94 682.774 113.397 684.414 111.069C686.578 107.986 691.299 107.658 694.742 107.691C698.808 107.724 702.021 106.15 706.054 106.019C708.12 105.953 710.481 106.15 711.923 104.707C713.596 103.034 717.038 97.8526 717.76 95.6553C718.416 93.7204 717.661 91.4904 716.153 90.113C714.842 88.9324 713.53 88.8996 712.186 88.7684Z" fill="#292949"/>
<path d="M739.565 154.457L713.104 130.483L706.743 135.862L728.646 172.461L738.548 173.412C738.548 173.412 741.401 163.213 741.991 162.131L739.565 154.457Z" fill="#587BC9"/>
<path d="M614.574 332.336C609.59 330.762 604.737 331.189 600.179 333.55C595.622 335.944 592.507 339.65 590.933 344.667C589.359 349.652 589.785 354.506 592.146 359.064C594.54 363.623 598.245 366.738 603.261 368.313C605.229 368.936 607.196 369.231 609.131 369.231C612.049 369.231 614.901 368.509 617.656 367.066C622.213 364.672 625.328 360.966 626.902 355.949C628.476 350.964 628.05 346.11 625.689 341.552C623.263 336.993 619.557 333.878 614.574 332.336Z" fill="#FF640C"/>
<path d="M625.656 341.552C623.263 336.993 619.525 333.878 614.541 332.304C612.934 331.812 611.328 331.484 609.754 331.418C612.901 333.156 615.361 335.714 617.098 339.027C619.492 343.585 619.885 348.439 618.312 353.424C616.738 358.409 613.623 362.147 609.065 364.541C606.311 365.984 603.458 366.706 600.54 366.706C600.179 366.706 599.819 366.706 599.458 366.673C600.638 367.329 601.884 367.853 603.229 368.28C605.196 368.903 607.163 369.198 609.098 369.198C612.016 369.198 614.869 368.477 617.623 367.034C622.181 364.64 625.296 360.934 626.869 355.916C628.443 350.964 628.05 346.143 625.656 341.552Z" fill="#231F20" fill-opacity="0.14"/>
<path d="M719.4 209.388C711.629 195.778 698.546 186.006 680.512 180.332C662.511 174.659 646.084 175.15 631.755 181.775C619.295 187.547 610.147 197.32 604.606 210.831C603.655 213.094 603.721 215.685 604.77 217.915C605.819 220.145 607.754 221.85 610.115 222.572L620.837 225.95C625.132 227.294 629.722 225.195 631.558 221.096C634.772 213.783 639.362 208.831 645.559 205.945C653.068 202.436 662.085 202.337 672.413 205.584C682.709 208.831 689.955 214.209 693.923 221.555C697.89 228.901 698.284 237.723 695.103 247.857C690.709 261.795 683.791 269.928 674.479 272.027C664.675 274.224 650.904 272.486 633.526 266.845L628.87 265.369C624.247 263.926 619.263 266.484 617.82 271.141L605.098 311.577C604.377 313.807 604.606 316.201 605.688 318.3C606.77 320.399 608.606 321.941 610.869 322.629L621.755 326.04C622.64 326.302 623.525 326.433 624.411 326.433C628.148 326.433 631.624 324.007 632.837 320.268L641.067 294.065C641.166 293.737 641.526 293.54 641.854 293.639C662.314 299.476 679.299 299.87 692.382 294.819C706.284 289.441 716.35 277.143 722.285 258.253C728.187 239.527 727.236 223.064 719.4 209.388Z" fill="#FF640C"/>
<path d="M719.399 209.388C711.628 195.778 698.545 186.006 680.512 180.332C669.363 176.823 658.805 175.675 649.001 176.889C654.149 177.479 659.461 178.627 664.904 180.332C682.938 186.006 696.021 195.778 703.792 209.388C711.595 223.064 712.579 239.527 706.644 258.318C700.709 277.208 690.643 289.506 676.741 294.885C672.741 296.426 668.347 297.476 663.592 298C674.61 299.05 684.217 298.033 692.315 294.885C706.218 289.506 716.284 277.208 722.219 258.318C728.186 239.527 727.236 223.064 719.399 209.388Z" fill="#231F20" fill-opacity="0.14"/>
<path d="M678.184 132.484L665.626 136.354L635.624 187.514L637.69 197.385L676.544 216.833L682.02 206.273L657.461 187.514L672.446 167.05L678.249 134.288L678.184 132.484Z" fill="#587BC9"/>
<path d="M712.579 130.91L706.218 124.056L700.087 125.761L698.382 131.927L703.825 132.943L708.94 133.96L712.579 130.91Z" fill="#D9B29C"/>
<path d="M681.463 207.322L687.594 208.568L686.611 212.176L691.923 218.374L684.643 221.03L677.528 214.963L681.463 207.322Z" fill="#EAC5B0"/>
<path d="M697.183 39.0239C695.806 40.7175 694.957 42.9191 694.98 45.3384C695.003 50.6609 699.111 54.9673 704.159 54.9431C705.72 54.9431 707.189 54.5076 708.474 53.7818C710.172 59.4673 715.221 63.5801 721.165 63.5559C725.938 63.5317 730.115 60.8463 732.432 56.8544C735.393 60.6527 739.891 63.0963 744.939 63.0721C753.821 63.0479 761.004 55.427 760.958 46.0642C760.958 44.8303 760.82 43.6449 760.59 42.5078C766.052 40.7659 770.022 35.3949 769.999 29.0805C769.976 21.3628 764.01 15.1209 756.689 15.1451C755.725 15.1451 754.807 15.2661 753.912 15.4596C753.912 15.3629 753.912 15.2419 753.912 15.1451C753.889 9.82261 749.782 5.5162 744.733 5.54039C742.14 5.54039 739.799 6.70167 738.124 8.56456C735.347 3.43558 730.092 -0.0240672 724.102 0.000126083C716.139 0.0243194 709.529 6.16942 708.29 14.2016C707.212 13.9113 706.064 13.7419 704.894 13.7419C697.573 13.7661 691.652 20.0564 691.675 27.774C691.721 32.395 693.878 36.4836 697.183 39.0239ZM711.687 39.7497C711.664 39.7739 711.641 39.7981 711.641 39.8223C711.641 39.8223 711.641 39.7981 711.618 39.7981C711.641 39.7739 711.664 39.7739 711.687 39.7497Z" fill="#F0F0FA"/>
<path d="M726.392 35.612C726.392 34.436 726.584 33.38 726.968 32.444C727.352 31.508 728.144 30.692 729.344 29.996C729.704 29.78 730.148 29.54 730.676 29.276C731.204 28.988 731.72 28.652 732.224 28.268C732.728 27.884 733.148 27.44 733.484 26.936C733.844 26.408 734.024 25.808 734.024 25.136C734.024 24.632 733.928 24.188 733.736 23.804C733.544 23.42 733.292 23.096 732.98 22.832C732.668 22.568 732.296 22.376 731.864 22.256C731.456 22.112 731.036 22.04 730.604 22.04C730.076 22.04 729.596 22.136 729.164 22.328C728.732 22.496 728.336 22.724 727.976 23.012C727.64 23.276 727.328 23.588 727.04 23.948C726.776 24.284 726.548 24.608 726.356 24.92L723.224 22.76C723.536 22.016 723.944 21.356 724.448 20.78C724.976 20.204 725.564 19.724 726.212 19.34C726.884 18.932 727.604 18.632 728.372 18.44C729.14 18.224 729.932 18.116 730.748 18.116C731.66 18.116 732.56 18.248 733.448 18.512C734.336 18.776 735.128 19.196 735.824 19.772C736.544 20.348 737.12 21.092 737.552 22.004C738.008 22.892 738.236 23.96 738.236 25.208C738.236 25.976 738.14 26.66 737.948 27.26C737.78 27.836 737.528 28.364 737.192 28.844C736.856 29.324 736.46 29.756 736.004 30.14C735.548 30.524 735.032 30.896 734.456 31.256C733.976 31.544 733.496 31.82 733.016 32.084C732.536 32.348 732.092 32.648 731.684 32.984C731.3 33.296 730.976 33.668 730.712 34.1C730.472 34.508 730.352 35.012 730.352 35.612H726.392ZM726.464 44V39.032H730.46V44H726.464Z" fill="#A1BDEB"/>
<path d="M706.547 67.4026C707.028 70.6203 704.963 73.6444 701.911 74.1767C700.649 74.3944 699.432 74.1525 698.4 73.5719C697.941 75.2412 696.61 76.5718 694.866 76.8621C692.479 77.2734 690.207 75.5557 689.84 73.0154C689.794 72.6525 689.771 72.2654 689.794 71.9267C687.683 72.1445 685.778 70.5961 685.434 68.3703C685.089 66.0477 686.581 63.8703 688.761 63.5074C689.22 63.4349 689.656 63.4349 690.092 63.5074C690.528 61.1365 692.318 59.201 694.705 58.8139C697.344 58.3785 699.845 59.9268 700.786 62.4429C703.563 62.2978 706.088 64.4026 706.547 67.4026Z" fill="#F0F0FA"/>
</svg>
