<svg width="1100" height="351" viewBox="0 0 1100 351" fill="none" xmlns="http://www.w3.org/2000/svg">
<path d="M298.959 197.311H329.311V250.631H298.959V314H229.848V250.631H114.389L110.287 208.385L229.848 16.0215V15.4062H298.959V197.311ZM176.117 197.311H229.848V105.436L225.541 112.408L176.117 197.311ZM907.361 197.311H937.713V250.631H907.361V314H838.25V250.631H722.791L718.689 208.385L838.25 16.0215V15.4062H907.361V197.311ZM784.52 197.311H838.25V105.436L833.943 112.408L784.52 197.311Z" fill="#587BC9"/>
<path d="M665.32 155.106L679 148.917C678.566 143.815 677.914 138.712 676.937 133.609C675.96 128.506 674.874 123.512 673.463 118.626L658.48 117.649C641.435 116.564 632.315 97.1297 642.303 83.3414L651.098 71.0731C645.235 62.7132 638.612 54.7876 631.229 47.6221L617.767 54.2448C602.459 61.7361 584.87 49.5763 586.607 32.6395L588.127 17.7655C578.79 13.3141 569.128 9.83987 559.248 7.34277L550.888 19.8283C541.442 33.9423 520.054 32.2052 513.106 16.6798L506.917 2.99999C501.815 3.43427 496.712 4.08568 491.609 5.06281C486.506 6.03993 481.512 7.12564 476.626 8.53704L475.649 23.5196C474.564 40.565 455.13 49.6849 441.341 39.6965L429.073 30.9024C420.713 36.7651 412.788 43.3878 405.622 50.7706L412.245 64.2332C419.736 79.5415 407.576 97.1297 390.639 95.3926L375.765 93.8727C371.314 103.21 367.84 112.872 365.343 122.752L377.828 131.112C391.942 140.558 390.205 161.946 374.68 168.894L361 175.083C361.434 180.185 362.086 185.288 363.063 190.391C364.04 195.494 365.126 200.488 366.537 205.373L381.52 206.351C398.565 207.436 407.685 226.87 397.696 240.659L388.902 252.927C394.765 261.287 401.388 269.212 408.771 276.378L422.233 269.755C437.541 262.264 455.13 274.424 453.393 291.361L451.873 306.235C461.21 310.686 470.872 314.16 480.752 316.657L489.112 304.172C498.558 290.058 519.946 291.795 526.894 307.32L533.083 321C538.185 320.566 543.288 319.914 548.391 318.937C553.494 317.96 558.488 316.874 563.373 315.463L564.351 300.48C565.436 283.435 584.87 274.315 598.659 284.304L610.927 293.098C619.287 287.235 627.212 280.612 634.378 273.229L627.755 259.767C620.264 244.459 632.424 226.87 649.361 228.607L664.235 230.127C668.686 220.79 672.16 211.128 674.657 201.248L662.172 192.888C648.058 183.442 649.795 162.054 665.32 155.106ZM531.563 226.436C496.06 232.842 462.078 209.391 455.564 173.888C449.158 138.386 472.609 104.404 508.112 97.8897C543.614 91.4841 577.596 114.935 584.11 150.437C590.624 185.94 567.065 219.922 531.563 226.436Z" fill="#587BC9"/>
<path d="M604.756 35.2467L600.864 31.9745L595.86 33.5707L593 37.8006L594.35 41.3921L598.401 43.7864L596.813 44.1855L597.13 45.4624L603.564 48.4154C605.074 46.8192 610.316 45.5422 611.111 44.6643L606.821 40.993L604.756 35.2467Z" fill="#EAC5B0"/>
<path d="M727.797 328.949L727.956 330.385L728.432 335.014L719.218 340.601L713.976 336.451L718.344 331.343L718.742 331.104L718.9 331.662L727.797 328.949Z" fill="#484F5B"/>
<path d="M689.669 229.505C700.075 230.223 709.686 230.463 717.232 230.543L716.994 266.218L728.273 328.789L727.796 328.949L718.9 331.582L718.662 331.024L688.954 257.199L687.921 242.115L689.669 229.505Z" fill="#305399"/>
<path d="M687.446 234.533L688.002 242.275L685.381 261.828L682.362 332.46H682.283V331.423L673.227 331.662L658.93 256.72L658.135 226.073C667.905 227.669 678.232 228.707 687.922 229.345L687.446 234.533Z" fill="#305399"/>
<path d="M687.921 229.425C688.557 229.505 689.113 229.505 689.748 229.585L688.001 242.354L687.445 234.613L687.921 229.425Z" fill="#F5F5F5"/>
<path d="M672.512 331.742L673.148 331.662L682.203 331.423V332.46L682.362 336.052L672.83 341L667.826 336.531L672.512 331.742Z" fill="#484F5B"/>
<path d="M706.112 63.4197C706.429 62.6216 706.747 61.8235 707.065 61.0254C707.065 61.0254 706.985 61.0254 706.985 60.9455C702.775 57.7531 700.79 52.0866 701.028 46.7393C701.187 43.3075 702.14 39.8756 703.49 36.6832C704.523 34.8476 705.873 33.1716 707.383 31.735C710.083 29.1012 713.817 27.106 717.391 27.1858C718.821 27.2656 718.265 28.3829 720.012 27.505C720.251 27.3454 720.568 27.106 720.807 26.7867C721.045 27.106 721.283 27.2656 721.283 27.3454C722.951 29.1012 724.858 29.9791 726.923 31.2561C730.021 33.2514 731.689 37.4015 730.974 41.3122C730.656 42.9084 730.021 44.5844 730.338 46.1806C730.656 47.5374 731.768 48.4951 732.483 49.6923C732.88 50.4106 733.119 51.1289 733.277 52.0068C729.862 58.232 723.428 63.1802 716.835 63.8187V63.8985C716.756 64.2976 716.676 64.6966 716.517 65.0957C716.041 66.7717 714.849 68.6074 713.102 68.767C712.307 68.8468 711.513 68.5275 710.719 68.2083C709.209 67.5698 707.7 67.0111 706.191 66.3727C705.873 66.213 705.556 66.0534 705.397 65.7342C705.317 65.4947 705.397 65.1755 705.476 64.8563C705.794 64.2976 705.953 63.8985 706.112 63.4197Z" fill="#EAC5B0"/>
<path d="M673.465 20.2424C677.04 20.0029 680.217 22.1578 683.156 24.1531C683.712 20.6414 687.048 18.1673 690.305 17.2096C693.562 16.2519 696.977 16.2519 700.155 14.9749C703.967 13.4585 707.78 10.1065 711.593 11.2238C715.008 12.1815 717.153 16.4115 719.298 20.0827C719.377 20.0029 719.377 19.9231 719.457 19.9231C721.125 18.2471 722.872 16.5711 725.017 15.6932C731.848 12.82 731.054 21.4395 736.296 20.9607C737.567 20.8809 738.6 19.8433 739.791 19.2846C742.015 18.2471 744.557 19.0452 746.543 20.3222C748.529 21.5193 750.356 23.1954 752.5 24.1531C754.407 24.9512 756.631 25.1906 758.378 26.2281C761.079 27.8243 760.523 30.7773 761 33.4909C761.556 36.4439 762.35 40.4344 763.939 42.9085C765.13 44.6643 766.878 45.8615 768.387 47.2981C769.896 48.7347 771.167 50.8097 770.849 52.9646C770.532 55.0397 768.864 56.7955 768.387 58.8706C767.752 61.9832 768.069 63.6592 766.719 66.7718C766.004 68.368 765.21 70.044 763.859 71.0017C762.032 72.2787 759.729 71.9594 757.664 71.321C755.678 70.6825 753.613 69.8844 751.468 70.2834C746.861 71.1614 747.179 75.7105 745.51 79.302C744.398 81.6963 742.492 83.4521 740.188 84.5695C737.329 85.9263 733.913 86.0061 731.213 84.5695C727.162 82.3348 725.335 77.0673 726.129 72.1989C726.447 70.4431 727.162 68.8469 727.718 67.1708C727.956 66.5324 728.115 65.8939 728.194 65.2554C728.591 62.9409 727.638 59.509 730.021 57.9128C730.577 57.5138 731.292 57.3542 731.848 56.8753C732.245 56.4763 732.563 55.9974 732.801 55.4387C733.198 54.3214 733.357 53.1242 733.198 52.0069C733.119 51.2088 732.801 50.4107 732.404 49.6924C731.689 48.4952 730.657 47.5375 730.259 46.1807C729.862 44.5845 730.577 42.9883 730.895 41.3123C731.61 37.4016 729.942 33.2514 726.844 31.2562C724.779 29.9792 722.952 29.1013 721.204 27.3455C721.125 27.2657 720.966 27.1061 720.728 26.7868C720.41 27.1061 720.172 27.3455 719.933 27.5051C718.186 28.383 718.742 27.2657 717.312 27.1859C713.738 27.0263 710.004 29.1013 707.303 31.7351C705.794 33.1716 704.523 34.8477 703.411 36.6833C701.505 39.9555 700.393 43.7066 700.313 47.3779C700.155 52.7252 702.935 55.0397 700.393 60.387C699.837 61.5841 699.122 62.7015 698.328 63.739C696.183 66.6122 693.244 68.8469 689.987 69.8844C689.59 69.8844 689.272 69.8844 688.875 69.8046C687.048 69.645 685.221 69.1661 683.633 68.2882C681.965 67.4901 680.535 66.2929 679.264 64.9361C677.357 62.8611 676.007 60.3071 675.372 57.434C675.054 55.8378 674.895 54.1618 673.862 53.0444C673.068 52.1665 671.797 51.7674 670.923 50.8895C667.428 47.2183 674.101 40.5142 672.592 35.4063C671.638 32.2139 667.746 30.9369 666.872 27.6647C666.078 24.2329 669.891 20.402 673.465 20.2424Z" fill="#1D2B56"/>
<path d="M597.766 46.4201C598.004 46.3403 610.157 65.8938 618.577 75.4711C626.282 84.1704 649.953 97.3391 658.77 104.921C655.99 114.818 653.13 125.911 651.065 135.808C637.879 198.858 647.014 223.998 647.014 223.998C650.588 224.796 654.321 225.435 658.055 226.073C667.825 227.669 678.151 228.707 687.842 229.345C688.477 229.425 689.033 229.425 689.669 229.505C700.074 230.223 709.686 230.463 717.232 230.542C727.002 230.702 733.357 230.463 733.357 230.463L755.28 105.639L740.267 84.4896C737.408 85.8464 733.992 85.9262 731.291 84.4896C727.24 82.2549 725.413 76.9875 726.208 72.119C726.525 70.3632 727.24 68.767 727.796 67.091L725.731 64.138L716.755 63.739C716.676 64.138 716.596 64.5371 716.438 64.9361C715.961 66.6121 714.769 68.4478 713.022 68.6074C712.228 68.6872 711.433 68.368 710.639 68.0487C709.13 67.4102 707.621 66.8516 706.111 66.2131C705.794 66.0535 705.476 65.8938 705.317 65.5746C705.238 65.3352 705.317 65.0159 705.396 64.6967C705.555 64.2178 705.794 63.739 705.952 63.3399L701.187 63.1803C700.551 63.3399 699.518 63.5793 698.248 63.8188C696.103 66.6919 693.164 68.9266 689.907 69.9642C689.51 69.9642 689.192 69.9642 688.795 69.8844C686.968 69.7247 685.141 69.2459 683.553 68.368C681.885 67.5699 680.455 66.3727 679.184 65.0159C668.937 65.4948 652.336 71.9594 643.598 66.6121C640.738 64.8563 610.634 42.669 611.349 42.5892C611.349 42.5892 599.116 46.1009 598.004 46.2605C597.924 46.4201 597.766 46.4201 597.766 46.4201Z" fill="#F0F0FA"/>
<path d="M643.359 150.732L640.738 146.742C639.149 147.141 637.561 147.619 636.051 148.098C634.463 148.657 632.954 149.216 631.524 149.934L631.921 154.723C632.398 160.15 626.758 163.981 621.912 161.506L617.623 159.352C615.24 161.586 613.095 164.06 611.189 166.774L613.89 170.685C616.988 175.154 614.049 181.299 608.568 181.619L603.802 181.858C602.849 185.051 602.213 188.243 601.896 191.515L606.264 193.51C611.189 195.825 611.666 202.609 607.138 205.642L603.166 208.275C603.564 209.872 604.04 211.468 604.517 212.984C605.073 214.58 605.629 216.097 606.344 217.533L611.11 217.134C616.511 216.655 620.324 222.322 617.861 227.19L615.717 231.5C617.941 233.894 620.403 236.049 623.104 237.965L626.996 235.251C631.444 232.139 637.561 235.092 637.878 240.598L638.117 245.387C641.294 246.345 644.471 246.983 647.728 247.303L649.714 242.913C652.017 237.965 658.769 237.486 661.788 242.035L664.409 246.026C665.997 245.627 667.586 245.148 669.095 244.669C670.684 244.11 672.193 243.551 673.623 242.833L673.226 238.045C672.749 232.617 678.389 228.787 683.234 231.261L687.524 233.416C689.907 231.181 692.051 228.707 693.958 225.993L691.257 222.082C688.159 217.613 691.098 211.468 696.579 211.148L701.345 210.909C702.298 207.717 702.933 204.524 703.251 201.252L698.882 199.257C693.958 196.942 693.481 190.158 698.009 187.126L701.98 184.492C701.583 182.896 701.107 181.299 700.63 179.783C700.074 178.187 699.518 176.67 698.803 175.234L694.037 175.633C688.636 176.112 684.823 170.445 687.285 165.577L689.43 161.267C687.206 158.873 684.743 156.718 682.043 154.802L678.151 157.516C673.702 160.629 667.586 157.676 667.268 152.169L667.03 147.38C663.853 146.422 660.675 145.784 657.419 145.465L655.433 149.854C653.05 154.882 646.298 155.361 643.359 150.732ZM672.193 189.52C675.926 200.454 670.207 212.266 659.325 216.097C648.443 219.848 636.687 214.101 632.874 203.167C629.141 192.233 634.86 180.422 645.742 176.591C656.624 172.84 668.46 178.666 672.193 189.52Z" fill="#96BFEE"/>
<path d="M697.215 160.07L697.374 165.657L687.604 169.248L681.964 164.939V158.474L687.445 158.155L687.604 156.718L689.352 155.601L697.215 160.07Z" fill="#EAC5B0"/>
<path opacity="0.08" d="M780.898 341C780.898 346.41 745.06 351 700.898 351C656.737 351 620.898 346.574 620.898 341C620.898 335.59 656.737 331 700.898 331C745.06 331.164 780.898 335.59 780.898 341Z" fill="#9DAFBD"/>
</svg>
