<svg width="1077" height="832" viewBox="0 0 1077 832" fill="none" xmlns="http://www.w3.org/2000/svg">
<g clip-path="url(#clip0)">
<path d="M79.0062 470.263C77.6948 475.211 80.5046 480.298 85.365 481.857L212.684 522.86C215.197 523.673 217.941 523.405 220.252 522.128L220.426 522.028C222.651 520.743 224.246 518.645 224.944 516.175C243.675 445.258 280.364 382.264 331.086 332.057C355.608 307.772 383.387 286.446 414.079 268.726C443.099 251.971 473.694 239.041 505.188 229.992C573.191 210.476 645.482 209.107 715.741 226.82C720.855 228.117 726.026 225.074 727.38 220.019L760.237 97.3691C760.913 94.9002 760.535 92.2661 759.232 90.0281C757.962 87.8284 755.848 86.208 753.346 85.5742C612.844 49.6178 466.424 69.71 340.989 142.13C207.759 219.05 114.712 335.587 79.0062 470.263Z" fill="#D8E4F2" fill-opacity="0.3"/>
<path d="M441.813 321.603C420.898 333.678 401.446 348.685 383.659 365.997C339.078 409.38 305.347 467.676 287.812 533.825C286.475 538.87 289.458 544.076 294.473 545.522L399.095 575.173C401.579 575.876 404.221 575.551 406.47 574.287C408.428 573.099 410.342 570.874 411.017 568.383C426.85 508.366 448.101 464.573 504.903 431.778C559.593 400.203 611.541 404.02 672.786 419.479C675.254 420.075 677.804 419.711 679.952 418.471L680.236 418.284C682.457 416.91 684.037 414.646 684.561 412.115L707.25 303.014C708.282 297.961 705.213 293.024 700.231 291.755C636.136 275.32 568.53 276.444 508.795 293.6C484.976 300.424 462.372 309.733 441.813 321.603Z" fill="#D8E4F2" fill-opacity="0.3"/>
<path d="M497.653 602.68C522.983 646.553 579.285 661.632 623.15 636.307C667.014 610.982 682.084 554.684 656.759 510.82C631.434 466.956 575.157 451.862 531.285 477.192C487.415 502.508 472.328 558.816 497.653 602.68Z" fill="#D8E4F2" fill-opacity="0.3"/>
</g>
<path opacity="0.36" d="M143.159 722.519L489.508 731.992C489.804 732 490.099 732 490.394 732L1042.95 722.322C1048.78 722.223 1053.75 719.576 1055 715.912L1056.7 710.906C1058.44 705.786 1052.34 700.955 1044.2 701L143.591 706.204C142.273 706.211 140.956 706.348 139.707 706.621C126.317 709.48 129.077 722.132 143.159 722.519Z" fill="#DDDDDD"/>
<path d="M297.918 476.634C297.761 476.455 297.589 476.268 297.395 476.148C295.548 474.997 293.903 475.505 291.816 474.907C290.889 474.638 290.171 472.261 288.646 473.584C288.085 474.07 286.874 475.468 285.685 476.514C283.95 478.047 280.832 478.951 278.215 479.205C267.955 480.215 257.703 478.406 247.616 476.29C247.04 476.171 246.442 476.036 245.986 475.662C245.17 474.997 245.066 473.816 245.006 472.762C244.729 467.896 243.989 463.052 242.815 458.32C241.768 454.096 240.31 449.858 237.543 446.502C234.776 443.145 230.469 440.791 226.155 441.329C222.924 441.733 219.941 443.796 218.423 446.674C214.661 453.827 222.162 462.94 225.482 469.017C228.622 474.773 232.159 480.304 236.07 485.559C236.556 486.21 237.057 486.867 237.76 487.279C238.508 487.712 239.39 487.809 240.25 487.899C251.295 489.043 262.384 489.207 273.526 489.147C276.592 489.132 279.254 487.51 282.088 487.518C283.898 487.525 285.311 488.826 287.016 489.215C288.698 489.596 291.009 489.663 292.714 489.394C296.079 488.863 297.694 485.739 299.376 483.152C299.795 482.509 300.079 482.076 300.147 481.358C300.251 480.192 299.646 479.228 299.077 478.256C298.741 477.681 298.359 477.127 297.918 476.634Z" fill="#EAC5B0"/>
<path d="M221.361 470.557C224.614 473.816 228.181 476.709 230.731 480.783C232.503 483.616 233.984 486.845 236.78 488.677C238.956 490.104 241.641 490.486 244.228 490.762C246.27 490.979 248.319 491.158 250.367 491.293C251.407 486.486 252.446 481.68 253.486 476.873C251.549 476.096 249.463 475.692 247.369 475.677C244.998 460.824 243.421 445.911 241.207 431.043C240.213 424.36 239.128 417.438 235.427 411.787C227.531 399.707 208.859 403.266 207.191 418.104C205.883 429.69 207.61 441.628 211.476 452.594C213.166 457.393 215.237 463.351 218.438 467.335C219.35 468.471 220.337 469.533 221.361 470.557Z" fill="#3F60B2"/>
<path d="M155.729 697.249C153.396 697.405 151.258 696.583 148.992 696.329C149.097 688.331 149.964 680.669 151.691 672.775C155.213 676.684 158.175 674.412 158.055 681.753C158.018 684.13 155.273 693.631 155.729 697.249Z" fill="#E5D1BD"/>
<path d="M148.483 692.352C145.829 691.403 145.231 697.742 145.208 699.237C145.193 700.134 145.305 701.046 145.074 701.913C144.819 702.87 144.191 703.67 143.578 704.44C142.292 706.054 141.006 707.669 139.72 709.291C139.144 710.016 138.553 710.764 138.246 711.638C137.476 713.806 138.748 716.377 140.804 717.416C147.938 721.019 154.451 712.296 155.991 706.54C156.23 705.658 156.402 704.761 156.574 703.864C156.933 702.01 158.339 697.959 157.599 696.15C156.739 694.034 154.137 695.567 152.432 694.767C150.839 694.027 149.553 692.733 148.483 692.352Z" fill="#212940"/>
<path d="M199.138 565.514C192.49 583.604 184.818 601.297 180.443 620.239C175.037 643.636 166.325 666.451 161.854 689.893C158.967 689.99 156.066 689.863 153.195 689.526C149.904 689.138 144.677 688.248 143.488 684.66C142.883 682.821 143.526 679.839 143.616 677.932C143.915 671.825 144.348 665.718 144.797 659.618C146.068 642.358 146.943 624.889 150.114 607.875C153.456 589.98 156.657 572.017 159.595 554.122C161.113 544.875 162.983 535.68 165.286 526.591C165.877 524.251 172.053 500.114 173.265 500.308C187.652 502.595 201.112 507.357 213.644 514.787C214.863 515.512 216.037 516.372 216.463 517.658C216.89 518.944 216.501 520.05 216.112 521.216C212.366 532.339 207.378 542.774 203.385 553.853C202.002 557.702 200.588 561.552 199.138 565.514Z" fill="#D8E4F2"/>
<path d="M200.386 695.948C202.57 696.792 204.858 696.643 207.094 697.069C209.367 689.407 210.825 681.827 211.528 673.776C207.004 676.46 204.85 673.41 202.779 680.452C202.106 682.739 201.904 692.629 200.386 695.948Z" fill="#E5D1BD"/>
<path d="M209.382 694.767C209.389 699.102 212.799 703.767 214.691 707.669C214.915 708.125 215.14 708.603 215.147 709.112C215.162 709.867 214.699 710.539 214.257 711.152C213.644 712.004 212.971 712.901 211.992 713.283C211.027 713.656 209.95 713.47 208.941 713.245C207.251 712.872 205.583 712.431 203.931 711.907C203.519 711.78 203.101 711.638 202.764 711.369C202.368 711.048 202.129 710.577 201.904 710.121C200.738 707.773 199.751 706.114 199.81 703.505C199.878 700.807 200.214 698.011 199.721 695.342C199.474 694.049 199.152 692.39 200.267 691.68C201.127 691.126 202.697 691.889 203.632 692.038C205.284 692.307 206.81 692.203 208.328 693.07C208.634 693.249 208.941 693.459 209.128 693.758C209.33 694.057 209.382 694.408 209.382 694.767Z" fill="#212940"/>
<path d="M198.143 557.269C199.108 576.517 201.164 595.691 199.706 615.074C197.904 639.017 199.437 663.386 196.73 687.104C199.459 688.054 202.263 688.794 205.105 689.325C208.365 689.93 213.614 690.64 215.82 687.56C216.949 685.991 217.219 682.948 217.697 681.094C219.23 675.174 220.628 669.216 222.019 663.259C225.938 646.402 230.305 629.464 232.339 612.278C234.477 594.196 236.765 576.098 239.278 558.136C240.579 548.852 241.529 539.523 242.037 530.164C242.164 527.749 243.45 502.872 242.239 502.7C227.822 500.607 213.555 501.153 199.384 504.516C198.008 504.845 196.625 505.316 195.84 506.415C195.055 507.514 195.092 508.688 195.115 509.921C195.384 521.657 197.044 533.101 197.56 544.867C197.732 548.956 197.926 553.06 198.143 557.269Z" fill="#D8E4F2"/>
<path d="M190.045 402.802C189.813 402.884 189.574 402.967 189.342 403.056C185.468 404.522 182.178 407.168 178.955 409.769C174.117 413.679 171.732 415.39 169.87 421.176C168.127 426.573 167.036 432.269 165.966 437.831C160.485 466.371 159.431 494.799 155.498 523.556C154.428 531.382 153.598 540.584 159.393 545.959C169.668 537.968 182.582 537.504 195.047 537.489C203.796 537.482 212.358 534.649 221.129 535.628C229.512 536.563 236.833 534.469 245.342 535.023C247.391 535.157 250.008 535.135 250.816 533.244C247.87 524.423 247.922 514.929 247.257 505.653C245.529 481.658 237.58 458.627 234.373 434.796C233.281 426.693 232.698 413.245 226.424 407.115C219.604 400.455 204.043 400.313 195.279 401.621C193.507 401.875 191.742 402.227 190.045 402.802Z" fill="#3F60B2"/>
<path d="M212.455 429.548C211.319 428.778 210.182 428.008 209.046 427.238C211.341 424.944 213.637 422.649 215.933 420.346C216.89 419.389 217.869 418.395 218.4 417.154C218.976 415.801 218.976 414.284 218.946 412.811C218.909 410.786 218.834 408.707 218.034 406.854C216.568 403.452 211.423 401.546 207.916 401.711C204.08 401.89 200.327 403.49 196.902 405.104C195.803 405.62 194.688 406.181 193.821 407.033C191.929 408.894 191.555 411.907 192.273 414.463C192.991 417.02 194.629 419.21 196.341 421.243C198.053 423.277 199.893 425.235 201.142 427.582C198.061 429.346 194.98 431.111 191.899 432.875C191.48 433.114 191.024 433.405 190.927 433.876C190.83 434.317 191.092 434.751 191.331 435.132C194.554 440.2 198.285 447.048 198.323 453.147C198.36 460.585 199.033 468.075 199.332 475.528C199.96 491.039 200.147 506.565 199.908 522.083C199.855 525.656 199.773 529.222 199.669 532.787C203.654 533.042 207.662 532.997 211.64 532.653C212.5 532.578 213.428 532.466 214.056 531.875C214.818 531.165 214.901 530.007 214.931 528.96C214.998 526.366 215.013 523.765 214.99 521.164C214.856 505.847 213.36 490.59 212.605 475.304C211.962 462.304 210.19 446.95 218.722 435.984C218.983 435.655 219.26 435.297 219.268 434.871C219.283 434.235 218.692 433.764 218.168 433.405C216.262 432.12 214.355 430.834 212.455 429.548Z" fill="white"/>
<path d="M199.541 403.146C199.684 403.43 199.878 403.692 200.14 403.946C201.157 404.947 202.57 405.523 203.968 405.717C205.815 405.979 207.692 405.672 209.524 405.329C211.999 404.858 211.91 403.407 212.269 401.165C212.463 399.939 212.59 398.698 212.68 397.465C212.732 396.785 212.47 394.355 212.904 393.877C213.196 393.555 214.392 393.66 214.916 393.391C215.746 392.957 216.441 392.157 216.942 391.38C217.75 390.132 218.191 388.681 218.625 387.261C219.38 384.787 220.135 382.313 220.89 379.831C221.661 377.304 222.438 374.748 222.685 372.117C223.059 368.147 222.416 362.548 219.417 359.641C216.68 356.994 212.695 356.067 209.038 355.596C204.193 354.976 199.175 355.866 194.995 358.437C193.305 359.476 191.705 360.822 190.71 362.668C189.17 365.523 189.289 369.082 189.454 372.408C189.604 375.48 189.761 378.553 189.91 381.625C190.082 385.161 190.523 389.235 193.178 391.148C194.584 392.165 196.423 392.382 197.627 393.69C199.138 395.327 199.04 397.779 199.1 399.849C199.13 401.053 199.04 402.174 199.541 403.146Z" fill="#EAC5B0"/>
<path d="M214.871 363.423C215.035 363.715 215.177 364.014 215.282 364.32C215.843 365.95 215.461 367.789 216.015 369.426C216.89 372.02 219.911 373.574 220.367 376.265C220.741 378.471 219.23 380.564 219.103 382.799C218.961 385.236 220.524 387.545 220.285 389.952C220.075 392.045 218.744 394.983 217.495 396.658C217.884 396.142 221.384 396.321 222.289 395.768C223.679 394.916 223.837 394.385 224.255 392.935C224.667 391.492 224.345 390.08 224.988 388.599C225.773 386.79 227.388 385.46 227.957 383.531C228.727 380.9 227.329 378.119 227.433 375.383C227.598 371.235 231.187 367.325 229.886 363.386C229.123 361.076 226.872 359.596 225.609 357.51C224.652 355.926 224.293 354.064 223.627 352.338C222.962 350.611 221.818 348.884 220.045 348.361C219.058 348.069 217.996 348.189 216.987 348.002C215.237 347.68 213.786 346.47 212.104 345.901C209.696 345.087 205.449 347.524 204.043 349.564C202.645 351.59 203.355 353.309 204.776 355.103C207.169 358.086 212.912 360.037 214.871 363.423Z" fill="#212940"/>
<path d="M182.447 351.171C181.004 352.233 179.224 352.995 177.908 354.229C175.336 356.643 174.85 360.493 174.76 364.014C174.678 367.146 173.302 369.934 173.646 373.201C173.878 375.398 174.805 377.611 176.592 378.912C178.821 380.526 182.313 380.788 183.3 383.352C184.377 386.133 181.49 389.638 183.247 392.06C184.212 393.391 186.104 393.593 187.487 394.482C189.028 395.484 189.82 397.271 190.763 398.848C191.705 400.425 193.118 402.002 194.958 402.047C195.032 399.251 195.115 397.039 193.918 394.482C193.223 392.995 191.174 390.251 192.752 388.637C193.746 387.299 196.087 386.865 196.146 385.198C196.176 384.413 195.631 383.748 195.197 383.098C193.529 380.571 193.357 377.2 194.494 374.389C195.623 371.578 197.956 369.336 200.678 368.013C203.871 366.465 203.362 365.688 204.29 362.623C205.142 359.805 206.742 359.147 209.277 358.123C211.551 357.204 212.283 356.628 213.128 354.498C213.742 352.943 214.497 351.074 213.607 349.332C212.897 347.949 211.625 346.963 210.384 346.021C207.804 344.055 204.903 341.984 201.665 342.216C199.87 342.343 198.173 343.188 196.378 343.292C195.174 343.36 193.985 343.098 192.782 343.053C190.733 342.986 188.572 343.606 186.912 344.825C185.237 346.058 185.289 347.344 184.354 349.086C183.898 349.953 183.225 350.603 182.447 351.171Z" fill="#212940"/>
<path d="M189.693 339.682C190.007 337.739 189.805 335.197 187.943 334.539C186.926 334.18 185.782 334.577 184.721 334.36C182.462 333.904 181.692 331.168 180.511 329.194C180.331 328.895 180.122 328.596 179.808 328.462C179.359 328.26 178.843 328.439 178.35 328.499C176.106 328.776 174.394 326.556 172.285 325.756C169.668 324.762 166.37 326.399 165.585 329.082C165.264 330.189 165.316 331.37 165.017 332.483C163.783 336.976 157.203 338.89 157.031 343.547C156.918 346.694 159.999 349.706 158.803 352.622C158.04 354.483 155.64 355.754 155.916 357.749C156.096 359.035 157.457 359.91 158.758 359.887C160.052 359.872 161.248 359.155 162.22 358.31C163.768 356.957 164.934 355.223 166.415 353.788C167.888 352.352 169.862 351.194 171.904 351.448C173.878 351.695 175.672 353.234 177.632 352.906C179.202 352.644 180.369 351.239 181.916 350.842C183.36 350.476 184.863 351.037 186.351 351.126C187.839 351.216 189.663 350.439 189.708 348.951C189.716 348.592 189.618 348.219 189.731 347.875C190.045 346.911 191.69 346.97 192.004 346.006C191.226 344.81 190.134 345.236 189.574 343.674C189.14 342.47 189.499 340.908 189.693 339.682Z" fill="#212940"/>
<path d="M124.562 471.349L269.705 454.186C279.366 453.043 288.122 459.89 289.259 469.488L300.939 568.205C302.076 577.795 295.159 586.496 285.498 587.64L140.355 604.803C130.694 605.947 121.938 599.099 120.801 589.501L109.121 490.785C107.992 481.194 114.901 472.493 124.562 471.349Z" fill="#314F8F"/>
<path d="M241.701 529.82L276.293 525.731C278.895 525.425 280.764 523.077 280.458 520.491L276.397 486.158C276.091 483.571 273.728 481.725 271.126 482.031L236.534 486.12C233.931 486.427 232.062 488.774 232.369 491.36L236.429 525.694C236.736 528.28 239.091 530.134 241.701 529.82Z" fill="white"/>
<path d="M248.132 581.728L282.724 577.639C285.326 577.332 287.195 574.985 286.889 572.399L282.828 538.065C282.522 535.479 280.159 533.633 277.556 533.939L242.964 538.028C240.362 538.334 238.493 540.682 238.799 543.268L242.86 577.601C243.166 580.188 245.529 582.034 248.132 581.728Z" fill="white"/>
<path d="M187.697 536.204L222.289 532.115C224.891 531.808 226.76 529.461 226.454 526.875L222.393 492.541C222.087 489.955 219.724 488.109 217.121 488.415L182.53 492.504C179.927 492.81 178.058 495.158 178.364 497.744L182.425 532.077C182.731 534.671 185.087 536.518 187.697 536.204Z" fill="white"/>
<path d="M194.128 588.111L228.719 584.022C231.322 583.716 233.191 581.369 232.885 578.782L228.824 544.449C228.518 541.863 226.155 540.016 223.552 540.323L188.96 544.412C186.358 544.718 184.489 547.065 184.795 549.652L188.856 583.985C189.162 586.572 191.525 588.418 194.128 588.111Z" fill="white"/>
<path d="M133.693 542.595L168.285 538.506C170.887 538.199 172.756 535.852 172.45 533.266L168.389 498.932C168.083 496.346 165.72 494.5 163.117 494.806L128.526 498.895C125.923 499.202 124.054 501.549 124.36 504.135L128.421 538.469C128.727 541.055 131.083 542.901 133.693 542.595Z" fill="white"/>
<path d="M140.123 594.495L174.715 590.406C177.318 590.1 179.187 587.752 178.88 585.166L174.82 550.833C174.513 548.246 172.15 546.4 169.548 546.706L134.956 550.795C132.354 551.102 130.485 553.449 130.791 556.035L134.852 590.369C135.158 592.955 137.521 594.801 140.123 594.495Z" fill="white"/>
<path d="M248.767 442.256L253.815 441.658C256.574 441.329 259.072 443.287 259.393 446.023L261.584 464.569C261.906 467.305 259.932 469.787 257.18 470.116L252.132 470.714C249.373 471.043 246.875 469.084 246.554 466.348L244.363 447.802C244.041 445.059 246.016 442.577 248.767 442.256Z" fill="#A1BDEB"/>
<path d="M135.764 455.614L140.811 455.016C143.571 454.687 146.068 456.646 146.39 459.382L148.581 477.927C148.902 480.663 146.928 483.145 144.176 483.474L139.129 484.072C136.37 484.401 133.872 482.442 133.551 479.706L131.36 461.161C131.038 458.425 133.005 455.935 135.764 455.614Z" fill="#A1BDEB"/>
<path d="M202.024 510.13C202.009 509.891 201.994 509.644 201.919 509.42C201.194 507.372 199.586 506.744 198.33 504.98C197.769 504.195 198.689 501.885 196.67 501.975C195.93 502.005 194.113 502.341 192.527 502.431C190.217 502.558 187.211 501.317 185.005 499.889C176.346 494.29 169.451 486.494 162.878 478.563C162.504 478.114 162.116 477.636 161.996 477.06C161.772 476.036 162.43 475.042 163.035 474.182C165.847 470.198 168.292 465.952 170.319 461.519C172.128 457.565 173.631 453.341 173.556 448.991C173.482 444.64 171.582 440.118 167.866 437.853C165.084 436.156 160.792 434.923 158.481 437.225C154.369 441.321 151.28 452.28 150.084 459.105C148.955 465.556 148.282 472.089 148.065 478.637C148.035 479.445 148.02 480.282 148.319 481.037C148.633 481.837 149.261 482.472 149.882 483.078C157.816 490.852 166.385 497.878 175.142 504.77C177.55 506.662 180.645 507.05 182.859 508.822C184.272 509.951 184.564 511.849 185.655 513.21C186.74 514.555 188.504 516.05 190.007 516.895C192.969 518.577 196.177 517.134 199.108 516.155C199.833 515.908 200.327 515.751 200.828 515.228C201.635 514.383 201.762 513.247 201.919 512.133C202.009 511.461 202.054 510.788 202.024 510.13Z" fill="#EAC5B0"/>
<path d="M147.878 458.215C147.87 458.245 147.863 458.275 147.863 458.305C146.494 465.541 145.859 473.001 146.165 480.364C146.308 483.78 148.334 484.64 150.869 486.778C153.77 489.23 156.672 491.682 159.573 494.126C162.684 490.373 166.161 486.92 169.945 483.833C168.434 481.904 164.8 478.368 165.293 476.066C165.869 473.353 168.748 470.011 169.982 467.44C172.876 461.392 175.201 455.091 177.497 448.797C180.75 439.841 183.935 430.864 187.054 421.856C187.816 419.651 188.587 417.394 188.609 415.054C188.631 412.714 187.786 410.247 185.88 408.887C183.883 407.459 181.101 407.549 178.851 408.528C176.6 409.507 174.783 411.256 173.1 413.043C170.102 416.235 167.365 419.674 164.927 423.314C162.654 426.715 160.642 430.288 158.638 433.861C156.926 436.911 155.206 439.969 153.494 443.018C152.507 444.783 151.512 446.547 150.704 448.393C149.329 451.525 148.513 454.866 147.878 458.215Z" fill="#3F60B2"/>
<path d="M500.267 369.037C498.487 372.931 495.571 376.176 493.201 379.734C490.89 383.195 490.06 386.334 489.439 390.349C488.998 393.249 487.959 395.514 484.467 396.015C477.871 396.949 479.756 391.507 478.26 387.545C476.548 383.015 472.899 379.442 470.349 375.398C462.976 363.722 465.084 340.631 480.406 335.705C497.149 330.323 505.673 357.226 500.267 369.037Z" fill="#EAC5B0"/>
<path d="M473.556 357.734C471.657 357.809 469.563 357.958 468.15 359.237C466.737 360.515 466.894 363.296 468.756 363.602C470.446 363.871 472.629 362.115 473.661 363.4C474.267 364.148 473.736 365.254 473.28 366.129C471.523 369.5 470.999 373.41 471.822 376.998C471.126 377.641 470.042 376.975 469.436 376.302C466.408 372.976 464.037 369.089 462.489 364.903C461.884 365.92 460.986 366.779 459.94 367.377C460.568 365.8 460.171 364.081 459.783 362.466C458.354 356.561 457.375 349.639 461.502 344.81C463.708 342.223 467.066 340.743 470.446 340.115C473.826 339.487 477.265 339.644 480.668 339.794C482.126 339.861 483.921 340.175 484.265 341.521C481.072 342.799 477.766 345.296 476.166 348.316C475.673 349.25 473.751 357.727 473.556 357.734Z" fill="#212940"/>
<path d="M480.309 343.547C480.189 343.629 480.077 343.718 479.965 343.801C478.514 344.9 477.161 346.245 475.411 346.731C472.884 347.434 470.177 346.215 467.687 347.075C464.905 348.039 463.08 351.358 461.054 353.324C457.726 356.546 453.606 358.915 449.179 360.268C446.921 360.956 444.573 361.382 442.217 361.509C441.148 361.569 439.72 361.771 438.673 361.494C437.275 361.121 437.32 360.478 438.815 360.007C443.496 358.512 444.962 351.941 444.603 347.591C444.326 344.152 443.137 340.564 444.446 337.372C445.448 334.935 447.601 333.679 449.68 332.281C451.976 330.742 454.458 331.16 457.061 330.42C459.775 329.65 461.989 327.512 464.763 326.967C467.687 326.391 470.61 327.684 473.542 328.252C475.957 328.723 478.477 328.693 480.885 328.163C483.038 327.692 485.147 326.817 487.353 326.84C490.606 326.869 493.604 328.903 495.504 331.541C498.188 335.279 499.93 341.678 498.981 346.596C499.13 345.834 496.558 343.068 496.027 342.47C494.913 341.214 493.559 340.033 491.855 339.831C487.981 339.375 483.412 341.289 480.309 343.547Z" fill="#212940"/>
<path d="M585.146 387.007C585.416 387.022 585.692 387.044 585.939 387.134C588.22 387.979 588.908 389.788 590.867 391.223C591.742 391.866 594.344 390.872 594.209 393.129C594.165 393.959 593.753 395.985 593.641 397.764C593.469 400.35 594.815 403.736 596.378 406.226C602.525 416.011 611.161 423.852 619.955 431.342C620.456 431.768 620.987 432.209 621.63 432.351C622.782 432.613 623.896 431.895 624.868 431.23C629.377 428.135 634.17 425.467 639.173 423.262C643.637 421.296 648.393 419.674 653.268 419.823C658.144 419.973 663.184 422.17 665.666 426.364C667.528 429.503 667.745 433.562 666.227 436.889C662.466 445.126 649.238 444.73 641.573 445.964C634.32 447.13 626.984 447.788 619.641 447.93C618.736 447.945 617.802 447.952 616.957 447.608C616.059 447.242 615.364 446.532 614.698 445.829C606.106 436.829 598.352 427.111 590.762 417.199C588.676 414.471 588.287 410.995 586.335 408.498C585.087 406.898 582.963 406.547 581.452 405.299C579.957 404.065 578.312 402.062 577.385 400.373C575.545 397.031 577.205 393.451 578.349 390.192C578.633 389.377 578.82 388.831 579.419 388.278C580.383 387.388 581.647 387.261 582.903 387.097C583.651 386.992 584.399 386.955 585.146 387.007Z" fill="#EAC5B0"/>
<path d="M644.968 451.951C638.627 452.699 632.271 452.833 626.079 452.332C623.874 452.153 621.645 451.884 619.596 451.047C616.403 449.738 613.928 447.167 611.543 444.67C602.988 435.685 594.381 426.625 587.771 416.13C590.859 414.284 593.948 412.43 597.029 410.584C597.619 410.232 598.247 409.866 598.935 409.888C599.818 409.918 600.528 410.576 601.164 411.189C606.585 416.489 612.006 421.781 617.428 427.081C618.28 427.911 619.192 428.778 620.359 429.002C621.234 429.167 622.131 428.95 622.984 428.703C637.849 424.42 651.107 413.492 664.485 405.994C671.095 402.294 677.975 398.504 685.527 397.906C701.657 396.62 711.303 415.607 699.301 427.261C685.064 441.09 665.083 449.582 644.968 451.951Z" fill="#D8E4F2"/>
<path d="M663.834 685.438L664.089 703.819L653.194 703.961L652.909 683.584L663.834 685.438Z" fill="#EAC5B0"/>
<path d="M654.166 701.083L663.64 704.215L666.467 707.257L665.988 714.464L640.369 716.452C638.208 713.305 639.614 709.029 643.226 707.788L644.415 707.377L654.166 701.083Z" fill="#212940"/>
<path d="M742.358 667.818L749.574 684.727L739.546 688.988L731.545 670.248L742.358 667.818Z" fill="#EAC5B0"/>
<path d="M739.733 689.309C740.092 688.913 740.511 688.532 740.997 688.181C742.201 687.299 751.914 682.156 752.752 684.473C752.887 684.847 752.842 685.265 752.797 685.662C751.997 692.337 750.434 698.915 748.138 705.231C747.159 707.937 745.671 710.928 742.874 711.6C741.648 711.899 740.361 711.675 739.135 711.398C737.318 710.987 735.538 710.449 733.796 709.784C733.16 709.537 732.487 709.238 732.158 708.648C731.5 707.459 732.652 706.046 733.848 705.403C735.052 704.76 736.518 704.305 737.101 703.071C737.363 702.518 737.4 701.89 737.438 701.285C737.684 696.762 736.914 692.419 739.733 689.309Z" fill="#212940"/>
<path d="M673.899 600.251C677.474 616.591 687.696 628.335 698.613 640.347C711.109 654.102 722.856 668.521 733.796 683.539C738.522 681.565 743.255 679.592 747.981 677.626C744.025 654.662 733.13 633.59 724.688 611.874C718.818 596.782 714.07 580.823 713.808 564.512C713.681 556.401 715.648 548.986 716.702 541.092C718.003 531.322 718.078 521.306 719.259 511.483C719.656 508.194 719.88 504.3 717.345 502.154C716.216 501.197 714.735 500.801 713.285 500.517C659.505 490.104 667.102 569.176 673.899 600.251Z" fill="#314F8F"/>
<path d="M717.711 514.556C717.741 504.643 716.53 495.083 714.675 487.794C699.376 486.972 682.088 488.669 666.96 491.734C652.169 494.731 642.949 497.953 642.844 513.98C642.65 543.477 631.112 568.601 626.139 596.954C623.245 613.429 628.248 628.17 633.789 643.427C640.13 660.889 645.529 678.687 649.956 696.732C655.078 696.702 660.208 696.673 665.33 696.643C670.385 673.896 668.299 650.267 668.732 626.974C669.031 610.783 670.691 594.218 676.644 579.029C683.187 562.329 692.609 568.975 703.421 559.294C713.913 549.876 717.659 531.681 717.711 514.556Z" fill="#314F8F"/>
<path d="M700.341 401.046C702.031 402.354 703.511 403.931 704.984 405.501C706.3 406.899 707.609 408.304 708.925 409.702C713.479 414.553 715.73 421.744 717.682 427.941C727.948 460.578 731.642 505.346 724.98 539.448C699.69 541.631 670.415 535.254 645.178 531.808C642.725 531.472 639.943 530.926 638.672 528.803C637.902 527.518 637.879 525.933 637.879 524.43C637.879 502.782 642.456 479.52 646.748 458.178C648.557 449.171 650.793 440.245 653.65 431.514C656.678 422.268 660.096 412.288 667.184 405.299C674.767 397.816 689.296 394.124 698.785 399.962C699.316 400.291 699.84 400.657 700.341 401.046Z" fill="#D8E4F2"/>
<path d="M698.045 405.688C698.688 402.742 698.561 399.296 698.95 396.762C699.563 396.471 700.146 396.142 700.692 395.798C711.243 389.063 728.935 352.913 700.819 344.817C675.29 337.469 676.614 372.58 681.594 387.224C682.447 389.728 683.583 392.098 685.273 394.146C686.425 395.551 686.686 395.282 686.522 396.919C686.26 399.378 684.353 401.457 684.017 403.991C683.501 407.915 684.922 412.976 685.811 416.773C688.922 414.717 692.025 412.669 695.136 410.614C696.774 409.53 697.596 407.736 698.045 405.688Z" fill="#EAC5B0"/>
<path d="M675.597 373.956C677.16 378.627 679.351 383.09 682.087 387.179C681.938 378.538 682.985 369.874 685.191 361.517C685.355 360.881 685.52 360.156 685.176 359.596C684.854 359.072 684.196 358.878 683.591 358.744C672.838 356.434 672.867 365.815 675.597 373.956Z" fill="#212940"/>
<path d="M703.848 386.977C705.575 389.399 709.351 388.749 712.013 387.411C722.938 381.917 729.377 368.7 726.946 356.718C724.92 346.686 712.275 339.166 709.718 351.597C708.813 356 711.497 362.107 710.884 366.996C710.002 373.978 706.742 380.653 703.848 386.977Z" fill="#212940"/>
<path d="M675.709 335.608C674.483 336.094 673.241 336.602 671.925 337.118C669.211 338.18 667.237 338.538 664.44 336.946C663.64 336.49 658.271 331.415 659.565 330.361C651.003 337.342 658.047 347.538 661.255 354.759C663.423 359.626 663.864 366.488 668.732 369.672C674.086 373.171 677.758 368.745 682.618 366.765C686.903 365.015 691.539 364.073 695.899 362.519C703.137 359.94 713.905 355.402 711.512 345.789C708.716 334.562 697.335 331.766 687.113 332.626C682.738 332.984 679.321 334.18 675.709 335.608Z" fill="#212940"/>
<path d="M681.99 429.189C680.816 436.575 680.824 444.162 679.769 451.592C679.194 455.666 678.289 459.688 677.564 463.74C675.492 475.229 674.797 486.905 674.094 498.559C673.959 500.854 673.817 503.156 673.683 505.458C673.593 506.916 673.002 509.316 673.712 510.713C674.438 512.134 676.233 512.276 677.578 512.829C679.523 513.621 681.34 514.728 682.933 516.096C685.894 515.221 687.883 512.298 688.571 509.286C689.259 506.273 688.877 503.134 688.541 500.061C685.587 473.136 686.111 445.822 690.096 419.031C691.293 419.569 692.743 418.687 693.297 417.498C693.85 416.31 693.753 414.934 693.641 413.626C693.663 413.85 687.419 413.604 686.948 413.581C683.239 413.394 682.132 414.262 682.125 418.38C683.935 419.248 683.598 421.871 683.097 423.815C682.633 425.586 682.274 427.38 681.99 429.189Z" fill="#314F8F"/>
<path d="M521.197 704.103C523.5 704.177 525.721 703.662 527.987 703.452C529.153 680.997 527.037 657.465 526.11 634.905C520.337 635.212 514.572 635.518 508.799 635.832C512.815 647.89 515.686 660.328 517.361 672.924C517.63 674.92 520.868 704.088 521.197 704.103Z" fill="#EAC5B0"/>
<path d="M528.682 699.094C530.103 698.84 530.948 699.476 531.898 700.343C532.451 700.844 532.825 701.561 533.49 701.92C534.156 702.279 534.806 702.354 535.599 702.428C539.764 702.847 549.351 702.675 544.243 709.634C539.607 715.951 527.284 713.439 520.165 711.72C519.694 711.608 519.2 711.533 518.857 711.174C518.513 710.815 518.281 710.3 518.139 709.761C517.324 706.786 516.217 703.071 519.873 701.83C521.436 701.3 522.872 702.331 524.525 701.756C525.878 701.292 527.261 699.349 528.682 699.094Z" fill="#212940"/>
<path d="M539.054 648.45C527.284 648.219 515.521 647.994 503.752 647.763C494.232 602.463 485.85 556.932 478.611 511.214C478.051 507.671 477.505 503.986 478.529 500.54C480.458 494.036 487.435 490.321 494.105 489.073C504.477 487.137 523.53 489.835 528.854 500.614C534.477 512.006 533.535 532.354 534.896 544.942C538.613 579.305 540.011 613.908 539.054 648.45Z" fill="#314F8F"/>
<path d="M453.905 704.103C451.602 704.177 449.381 703.662 447.115 703.452C445.949 680.997 448.065 657.465 448.992 634.905C454.765 635.212 460.53 635.518 466.303 635.832C462.288 647.89 459.416 660.328 457.741 672.924C457.472 674.92 454.234 704.088 453.905 704.103Z" fill="#EAC5B0"/>
<path d="M446.42 699.094C444.999 698.84 444.154 699.476 443.204 700.343C442.651 700.844 442.277 701.561 441.612 701.92C440.946 702.279 440.296 702.354 439.503 702.428C435.338 702.847 425.751 702.675 430.859 709.634C435.495 715.951 447.818 713.439 454.937 711.72C455.408 711.608 455.902 711.533 456.246 711.174C456.59 710.815 456.821 710.3 456.963 709.761C457.779 706.786 458.885 703.071 455.229 701.83C453.666 701.3 452.23 702.331 450.577 701.756C449.232 701.292 447.841 699.349 446.42 699.094Z" fill="#212940"/>
<path d="M436.056 648.45C447.826 648.219 459.588 647.994 471.358 647.763C480.877 602.463 489.26 556.932 496.498 511.214C497.059 507.671 497.605 503.986 496.58 500.54C494.651 494.036 487.674 490.321 481.004 489.073C470.633 487.137 451.58 489.835 446.255 500.614C440.632 512.006 441.574 532.354 440.213 544.942C436.49 579.305 435.099 613.908 436.056 648.45Z" fill="#314F8F"/>
<path d="M545.126 327.871C544.969 328.043 544.804 328.215 544.707 328.417C543.787 330.286 544.423 331.81 544.049 333.851C543.884 334.763 541.678 335.675 543.092 336.998C543.608 337.484 545.058 338.508 546.173 339.54C547.803 341.05 548.954 343.943 549.448 346.409C551.385 356.105 550.629 366.054 549.575 375.876C549.515 376.437 549.44 377.02 549.134 377.491C548.573 378.328 547.459 378.538 546.457 378.695C541.836 379.427 537.282 380.586 532.877 382.156C528.944 383.553 525.041 385.347 522.094 388.308C519.148 391.268 517.316 395.596 518.236 399.662C518.924 402.712 521.182 405.358 524.076 406.532C531.262 409.44 539.248 401.419 544.737 397.681C549.934 394.146 554.877 390.244 559.52 386.013C560.096 385.49 560.679 384.944 561.001 384.241C561.345 383.486 561.36 382.634 561.36 381.804C561.405 371.16 560.507 360.567 559.393 349.945C559.087 347.022 557.284 344.638 557.023 341.932C556.858 340.205 557.972 338.732 558.174 337.073C558.376 335.428 558.219 333.216 557.808 331.616C556.985 328.462 553.845 327.213 551.22 325.853C550.562 325.516 550.121 325.285 549.433 325.292C548.311 325.307 547.451 325.972 546.569 326.608C546.045 326.982 545.559 327.4 545.126 327.871Z" fill="#EAC5B0"/>
<path d="M545.986 403.55C550.592 400.305 554.892 396.665 559.378 393.04C560.186 392.382 561.023 391.694 561.479 390.76C561.883 389.93 561.943 388.981 561.988 388.054C562.638 375.503 562.369 362.907 561.195 350.394C557.187 350.7 553.187 351.014 549.179 351.321C549.051 357.263 548.932 363.206 548.805 369.141C548.767 370.928 548.7 372.804 547.765 374.322C546.726 376.011 544.819 376.923 543.009 377.745C537.439 380.287 532.75 380.481 526.813 380.541C516.613 380.638 506.421 382.193 496.663 385.153C494.801 385.721 492.759 386.491 491.922 388.248C491.458 389.22 491.443 390.334 491.443 391.41C491.428 396.396 491.413 401.434 492.483 406.3C493.335 410.158 495.661 417.229 499.519 419.232C503.243 421.168 509.786 419.15 513.712 418.283C521.975 418.283 531.314 412.056 538.306 408.319C540.99 406.891 543.533 405.276 545.986 403.55Z" fill="#A1BDEB"/>
<path d="M466.221 400.059C463.649 403.28 460.441 406.061 457.913 409.395C452.611 416.392 448.416 424.241 445.47 432.516C437.933 453.663 437.791 476.245 437.716 498.372C437.693 505.735 437.671 513.098 437.648 520.468C437.626 527.712 438.269 529.274 446.143 528.317C460.74 526.546 475.912 523.541 489.14 517.052C495.436 513.965 501.314 510.07 507.917 507.641C517.518 504.105 527.359 505.705 536.855 503.41C532.735 490.949 529.781 480.342 527.665 467.507C525.489 454.291 523.508 439.871 520.315 426.835C518.4 419.008 514.834 411.697 511.214 404.506C509.853 401.808 508.477 399.109 506.773 396.605C505.883 395.297 504.911 394.034 503.819 392.89C503.034 392.068 502.263 390.618 501.172 390.296C498.181 389.414 495.13 388.711 492.056 388.188C491.518 387.605 491.899 386.387 491.167 386.058C490.972 385.968 490.748 385.983 490.538 385.998C486.216 386.319 481.902 386.633 477.58 386.955C477.422 387.747 477.677 388.554 477.796 389.354C477.923 390.154 477.871 391.074 477.28 391.619C476.921 391.948 476.428 392.075 475.964 392.217C475.815 392.262 475.658 392.314 475.508 392.359C471.351 393.75 469.025 396.486 466.445 399.79C466.363 399.872 466.296 399.969 466.221 400.059Z" fill="#A1BDEB"/>
<path d="M601.005 696.258C676.496 689.057 731.853 622.043 724.649 546.578C717.445 471.113 650.408 415.775 574.917 422.977C499.426 430.178 444.069 497.192 451.273 572.657C458.477 648.122 525.514 703.46 601.005 696.258Z" fill="#3F60B2"/>
<path d="M590.29 678.533C655.995 677.245 708.215 622.952 706.927 557.265C705.639 491.579 651.33 439.374 585.625 440.661C519.921 441.949 467.701 496.242 468.989 561.928C470.277 627.615 524.585 679.82 590.29 678.533Z" fill="white"/>
<g opacity="0.07">
<g opacity="0.07">
<path d="M635.202 451.017C658.832 464.449 678.005 486 688.07 513.524C710.645 575.224 678.902 643.539 617.181 666.099C587.487 676.953 556.26 675.241 529.333 663.67C558.683 680.362 594.897 684.525 629.093 672.027C690.814 649.459 722.55 581.151 699.982 519.452C688.279 487.436 664.238 463.5 635.202 451.017Z" fill="#2F4862"/>
</g>
</g>
<path d="M476.847 495.284C476.877 495.053 476.914 494.821 476.877 494.597C476.57 492.533 475.179 491.644 474.327 489.753C473.945 488.908 475.239 486.905 473.325 486.621C472.622 486.516 470.85 486.494 469.347 486.284C467.148 485.97 464.553 484.251 462.744 482.502C460.313 480.155 457.793 477.606 455.752 474.944C451.475 469.346 447.325 462.64 444.184 456.324C454.391 450.673 460.927 438.974 460.381 427.32C460.321 426.102 460.179 424.846 459.558 423.8C459.027 422.917 458.19 422.26 457.307 421.721C447.998 416.048 443.018 425.108 438.703 432.239C436.011 436.694 433.558 441.381 431.547 446.188C428.735 452.915 430.956 458.791 434.852 464.733C438.98 471.035 443.279 477.337 448.671 482.644C451.295 485.223 454.212 487.114 457.121 489.304C459.992 491.472 458.87 492.631 460.897 495.165C462.026 496.585 462.916 498.244 464.299 499.426C466.774 501.556 470.064 500.794 472.996 500.412C473.729 500.315 474.222 500.255 474.783 499.859C475.703 499.209 476.024 498.17 476.383 497.153C476.585 496.54 476.749 495.92 476.847 495.284Z" fill="#EAC5B0"/>
<path d="M463.275 392.658C451.303 400.709 441.881 412.796 436.317 426.05C433.812 432.022 429.617 436.747 428.466 443.355C427.314 449.97 428.346 456.974 431.023 463.104C435.674 473.741 444.476 481.971 453.658 489.08C455.722 485.963 457.779 482.853 459.842 479.736C460.209 479.176 460.59 478.585 460.628 477.92C460.665 477.217 460.313 476.567 459.977 475.954C457.038 470.654 454.092 465.354 451.153 460.054C450.548 458.963 449.934 457.834 449.822 456.593C449.516 453.14 453.12 450.464 453.636 447.077C453.972 447.346 454.309 447.616 454.645 447.892C454.331 447.638 473.826 426.827 474.94 425.549C479.21 420.668 483.592 415.585 485.431 409.365C489.357 396.089 475.157 384.667 463.275 392.658Z" fill="#A1BDEB"/>
<path d="M696.011 528.811C695.854 528.594 695.697 528.362 695.607 528.115C694.822 525.813 695.794 524.139 695.667 521.717C695.615 520.633 693.199 519.25 695.031 517.919C695.704 517.433 697.536 516.462 698.987 515.438C701.103 513.935 702.883 510.758 703.825 507.97C705.612 502.7 704.506 486.561 711.445 484.767C727.746 480.551 712.612 511.326 711.931 514.316C711.482 516.29 712.544 518.166 712.529 520.125C712.514 522.061 712.006 524.602 711.273 526.389C709.837 529.924 706.016 530.896 702.763 532.07C701.956 532.361 701.402 532.563 700.61 532.451C699.309 532.264 698.411 531.36 697.492 530.493C696.953 529.977 696.445 529.416 696.011 528.811Z" fill="#EAC5B0"/>
<path d="M712.38 413.073C712.956 413.873 713.576 415.076 714.496 416.459C719.334 423.71 721.488 434.781 723.193 443.19C726.834 461.108 726.55 479.841 722.131 497.594C721.966 498.245 721.757 498.955 721.189 499.314C720.628 499.665 719.902 499.545 719.252 499.411C715.199 498.589 711.146 497.766 707.093 496.944C706.218 496.765 705.306 496.57 704.633 495.987C703.324 494.843 703.496 492.803 703.736 491.083C705.336 479.826 705.47 468.366 704.154 457.072C703.534 451.734 700.812 445.171 701.133 439.909C701.425 435.177 704.169 430.071 704.551 424.891C704.775 421.789 705.119 417.169 707.317 414.71C710.241 411.458 711.228 411.481 712.38 413.073Z" fill="#D8E4F2"/>
<path d="M1002.83 469.473C1002.64 469.271 1002.43 469.069 1002.2 468.935C999.997 467.701 998.12 468.374 995.675 467.798C994.583 467.537 993.626 464.823 991.936 466.438C991.315 467.036 989.992 468.71 988.668 469.996C986.747 471.865 983.18 473.076 980.166 473.517C968.344 475.236 956.38 473.689 944.595 471.79C943.922 471.685 943.226 471.558 942.673 471.155C941.693 470.43 941.514 469.062 941.387 467.851C940.804 462.229 939.689 456.668 938.074 451.256C936.631 446.427 934.724 441.598 931.337 437.86C927.957 434.123 922.842 431.634 917.877 432.486C914.153 433.129 910.818 435.67 909.218 439.094C905.247 447.571 914.422 457.722 918.587 464.577C922.528 471.065 926.925 477.277 931.733 483.152C932.324 483.877 932.952 484.617 933.782 485.051C934.664 485.514 935.696 485.582 936.698 485.641C949.545 486.374 962.384 485.963 975.283 485.298C978.828 485.111 981.826 483.092 985.102 482.95C987.195 482.861 988.9 484.296 990.897 484.647C992.871 484.999 995.548 484.954 997.507 484.55C1001.37 483.758 1003.07 480.058 1004.88 476.963C1005.33 476.193 1005.64 475.677 1005.67 474.84C1005.73 473.487 1004.98 472.403 1004.27 471.304C1003.84 470.646 1003.37 470.026 1002.83 469.473Z" fill="#EAC5B0"/>
<path d="M912.381 465.347C915.275 469.712 918.184 474.085 920.711 478.787C922.386 481.912 924.031 485.253 926.947 487.256C928.802 488.527 931.015 489.14 933.191 489.671C946.711 492.945 960.836 493.7 974.625 491.891C975.912 491.719 977.265 491.502 978.289 490.695C980.054 489.297 980.204 486.726 980.204 484.476C980.204 481.829 980.204 479.191 980.204 476.544C980.204 475.76 980.181 474.907 979.695 474.294C979.239 473.719 978.484 473.495 977.773 473.3C969.249 470.983 960.582 469.211 951.826 468.008C949.037 467.627 946.061 467.223 943.937 465.377C939.383 461.43 939.278 446.696 938.231 440.611C937.042 433.667 936.078 426.663 934.717 419.748C933.199 412.064 931.576 404.118 926.985 397.771C917.189 384.219 895.78 389.339 894.644 406.599C893.784 419.629 896.229 432.875 900.955 445.007C903.864 452.459 908.104 458.896 912.381 465.347Z" fill="#3F60B2"/>
<path d="M948.851 615.395L949.397 648.57C949.172 657.772 950.002 666.951 950.563 676.123C951.086 684.645 949.367 693.428 953.412 701.322C954.683 703.796 957.375 705.523 959.432 702.66C961.017 700.455 960.284 696.642 960.673 694.078C963.612 674.845 969.078 656.09 971.807 636.826C974.664 616.658 966.849 617.189 948.851 615.395Z" fill="#EAC5B0"/>
<path d="M950.736 695.656L948.597 701.187L959.096 710.426L968.72 710.823L971.823 705.754L958.894 694.504L950.736 695.656Z" fill="#212940"/>
<path d="M925.341 615.724L919.292 648.346C917.191 662.937 912.427 677.147 910.326 691.746C909.848 695.103 910.087 698.773 908.681 701.935C907.313 705.03 904.621 705.157 902.25 703.056C899.072 700.238 900.538 695.215 900.598 691.365C900.986 665.755 898.968 640.504 898.489 614.857C898.481 614.521 898.496 614.132 898.758 613.923C898.968 613.751 899.274 613.751 899.543 613.773C902.033 613.93 925.207 616.427 925.341 615.724Z" fill="#EAC5B0"/>
<path d="M900.523 697.016L897.195 701.927L905.339 713.297L914.618 715.853L918.791 711.615L908.733 697.741L900.523 697.016Z" fill="#212940"/>
<path d="M966.364 694.721L973.842 629.688L976.339 558.263L968.996 533.094L929.357 526.949L880.355 535.344L878 544.86L898.317 644.638V696.964L911.777 697.711L925.237 646.133L934.958 561.664L946.922 630.435L948.418 693.974L966.364 694.721Z" fill="#3F60B2"/>
<path d="M978.164 456.414C978.142 456.197 978.127 455.973 978.082 455.756C974.044 433.854 982.404 417.147 966.491 397.585C957.929 387.052 953.525 388.315 942.106 385.52C939.467 384.877 934.045 382.941 934.352 387C930.725 386.895 927.091 387.239 923.562 388.039L923.442 386.506C917.094 387.994 908.726 388.442 902.878 391.089C896.605 393.929 890.922 403.154 887.691 408.909C876.609 428.689 881.111 452.886 881.133 474.691C881.141 480.753 877.043 545.734 880.154 545.891C899.581 546.871 918.582 540.136 937.814 541.952C949.203 543.028 960.457 545.854 971.621 547.416C972.376 547.521 973.229 547.536 973.827 547.058C974.492 546.519 974.605 545.563 974.672 544.71C975.846 528.856 975.868 512.515 976.751 496.496C977.469 483.399 979.301 469.548 978.164 456.414Z" fill="#3F60B2"/>
<path d="M941.321 294.24L954.258 350.857C957.84 366.548 972.698 376.998 988.513 375.675C987.608 375.989 986.726 376.333 985.866 376.721C972.533 382.686 964.846 397.218 968.211 411.959L981.148 468.576L1062.61 451.465L1049.67 394.848C1046.09 379.158 1031.23 368.708 1015.42 370.031C1016.32 369.717 1017.21 369.373 1018.07 368.984C1031.4 363.019 1039.08 348.488 1035.72 333.747L1022.78 277.13L941.321 294.24Z" fill="#587BC9"/>
<path d="M1032.86 280.082L933.283 300.998C930.523 301.581 927.779 299.839 927.158 297.118C926.538 294.397 928.273 291.721 931.032 291.138L1030.61 270.215C1033.36 269.632 1036.11 271.374 1036.73 274.095C1037.35 276.823 1035.62 279.499 1032.86 280.082Z" fill="#212940"/>
<path d="M1072.69 454.418L973.117 475.333C970.357 475.916 967.613 474.175 966.992 471.454C966.372 468.733 968.107 466.057 970.866 465.474L1070.44 444.558C1073.2 443.975 1075.94 445.717 1076.56 448.438C1077.18 451.159 1075.45 453.835 1072.69 454.418Z" fill="#212940"/>
<path d="M1047.85 399.774C1040.27 378.747 1024.2 378.052 1022.08 377.842C1021 377.812 1020.04 377.072 1019.79 375.989C1019.5 374.725 1020.31 373.477 1021.59 373.208C1021.74 373.178 1021.89 373.163 1022.04 373.155V373.148C1022.07 373.148 1022.1 373.155 1022.14 373.155C1022.28 373.155 1022.42 373.17 1022.55 373.2C1043.06 376.213 1047.85 399.774 1047.85 399.774Z" fill="#F7F7F8"/>
<path d="M1016.85 376.878C1015.85 377.087 1014.86 376.459 1014.63 375.473C1014.41 374.486 1015.04 373.522 1016.03 373.312C1017.03 373.103 1018.02 373.731 1018.24 374.718C1018.47 375.697 1017.84 376.669 1016.85 376.878Z" fill="#F7F7F8"/>
<path d="M956.92 340.878L958.976 349.863C960.569 356.845 964.831 362.832 970.963 366.719C977.095 370.606 984.371 371.929 991.444 370.442L992.82 370.15C996.559 370.539 999.932 373.447 1000.79 377.192L1008.28 409.941C1009.32 414.515 1006.41 419.008 1001.78 419.98L1002.72 419.785C995.647 421.273 989.612 425.392 985.739 431.379C981.865 437.367 980.609 444.513 982.202 451.495L984.258 460.48L1056.29 445.35L1054.23 436.365C1052.64 429.383 1048.38 423.396 1042.25 419.509C1036.12 415.622 1028.84 414.299 1021.77 415.786L1022.34 415.667C1017.71 416.638 1013.1 413.723 1012.06 409.148L1004.58 376.4C1003.72 372.655 1005.39 368.693 1008.57 366.846L1010.5 366.443C1017.57 364.955 1023.61 360.836 1027.49 354.849C1031.36 348.861 1032.62 341.715 1031.02 334.733L1028.97 325.748L956.92 340.878Z" fill="white"/>
<path d="M920.115 414.419C918.709 422.611 919.27 430.998 919.83 439.288C920.07 442.787 920.316 446.345 921.528 449.634C923.038 453.723 925.917 457.124 928.519 460.622C934.382 468.501 940.693 515.767 943.924 525.036C946.593 514.914 947.61 466.304 950.28 456.182C952.082 449.335 953.899 442.413 954.033 435.342C954.295 421.498 948.141 408.431 942.129 395.962C941.232 394.109 940.319 392.225 938.936 390.692C935.062 386.409 926.321 385.841 923.218 391.238C921.775 393.75 922.47 397.069 922.32 399.782C922.051 404.761 920.959 409.515 920.115 414.419Z" fill="white"/>
<path d="M938.996 417.229C940.17 424.614 940.162 432.202 941.217 439.632C941.792 443.706 942.697 447.728 943.423 451.779C945.494 463.268 946.189 474.945 946.892 486.598C947.027 488.893 947.169 491.196 947.303 493.498C947.393 494.956 947.991 497.355 947.274 498.753C946.548 500.173 944.754 500.315 943.408 500.868C941.463 501.661 939.646 502.767 938.054 504.135C935.092 503.26 933.103 500.338 932.415 497.325C931.727 494.313 932.109 491.173 932.445 488.101C935.399 461.175 934.876 433.861 930.89 407.07C929.693 407.609 928.243 406.726 927.689 405.538C927.136 404.349 927.233 402.974 927.345 401.666C927.323 401.89 933.567 401.643 934.038 401.621C937.747 401.434 938.854 402.301 938.861 406.42C937.052 407.287 937.388 409.911 937.889 411.854C938.353 413.626 938.712 415.42 938.996 417.229Z" fill="#212940"/>
<path d="M1016.29 446.218C1016.04 446.098 1015.78 445.971 1015.52 445.926C1013.03 445.515 1011.49 446.793 1008.99 447.077C1007.88 447.204 1006.06 444.984 1005.02 447.077C1004.64 447.847 1003.96 449.88 1003.16 451.532C1002 453.947 999.049 456.302 996.372 457.737C985.844 463.381 974.066 466.004 962.341 468.239C961.676 468.366 960.973 468.486 960.322 468.292C959.156 467.94 958.52 466.722 957.989 465.623C955.521 460.54 952.583 455.689 949.218 451.151C946.219 447.1 942.772 443.213 938.315 440.85C933.859 438.488 928.205 437.89 923.823 440.387C920.541 442.256 918.268 445.792 917.931 449.552C917.094 458.873 929.177 465.287 935.429 470.317C941.344 475.072 947.595 479.422 954.123 483.302C954.931 483.78 955.768 484.266 956.695 484.386C957.683 484.52 958.677 484.229 959.634 483.945C971.965 480.252 983.892 475.498 995.789 470.474C999.057 469.092 1001.19 466.169 1004.22 464.92C1006.16 464.121 1008.25 464.891 1010.24 464.539C1012.22 464.195 1014.71 463.239 1016.42 462.192C1019.78 460.129 1020.12 456.07 1020.76 452.549C1020.92 451.674 1021.03 451.084 1020.79 450.284C1020.38 448.991 1019.3 448.228 1018.26 447.444C1017.64 446.973 1016.98 446.554 1016.29 446.218Z" fill="#EAC5B0"/>
<path d="M929.851 473.158C934.06 476.275 938.285 479.4 942.263 482.958C944.903 485.32 947.588 487.907 951.02 488.796C953.196 489.357 955.484 489.185 957.712 488.938C971.539 487.413 985.073 483.309 997.419 476.903C998.571 476.305 999.767 475.64 1000.46 474.534C1001.64 472.62 1000.9 470.146 1000.13 468.03C999.229 465.548 998.331 463.059 997.427 460.578C997.157 459.837 996.851 459.045 996.178 458.634C995.55 458.253 994.765 458.29 994.032 458.35C985.23 459.075 976.474 460.368 967.837 462.215C965.085 462.805 962.147 463.44 959.522 462.431C953.891 460.271 948.769 446.457 945.718 441.09C942.234 434.968 938.936 428.711 935.302 422.679C931.256 415.973 927.016 409.051 920.541 404.648C906.714 395.245 888.327 407.362 893.142 423.972C896.777 436.508 903.589 448.139 912.173 457.931C917.445 463.949 923.629 468.546 929.851 473.158Z" fill="#3F60B2"/>
<path d="M942.817 345.004C944.791 348.465 945.741 352.45 945.92 356.434C945.965 357.495 946.04 358.714 946.892 359.342C947.812 360.007 947.004 361.48 947.7 360.583C948.395 359.686 950.766 356.583 950.87 355.447C951.117 352.801 951.117 350.132 950.855 347.486C950.631 345.184 950.16 342.784 948.657 341.028C947.767 339.989 946.571 339.256 945.397 338.546C943.699 337.522 941.942 336.483 939.99 336.116C936.625 335.488 934.554 336.699 937.53 339.047C939.669 340.736 941.463 342.635 942.817 345.004Z" fill="#212940"/>
<path d="M921.7 390.154C921.7 391.544 921.73 392.853 921.924 393.951C925.334 396.598 928.557 399.483 931.563 402.57C933.477 400.006 935.444 397.323 936.057 394.176C936.319 392.838 936.274 379.45 937.014 379.323C941.052 378.627 945.793 377.327 947.176 373.103C947.61 371.773 947.625 370.323 947.64 368.91C947.685 363.057 947.722 357.204 947.767 351.343C947.782 349.317 947.79 347.232 947.094 345.356C945.875 342.059 942.787 340.093 939.751 338.86C932.012 335.705 922.993 335.832 915.845 340.317C913.945 341.513 912.151 343.046 911.052 345.131C909.362 348.346 909.578 352.315 909.84 356.03C910.079 359.454 910.326 362.877 910.565 366.308C910.842 370.248 911.433 374.785 914.499 376.863C916.121 377.97 918.223 378.171 919.621 379.599C921.939 381.961 921.707 386.349 921.7 390.154Z" fill="#EAC5B0"/>
<path d="M949.068 366.585C949.001 365.501 948.53 362.317 946.892 364.32C946.466 364.843 946.361 365.583 946.331 366.279C946.301 366.974 946.339 367.691 946.115 368.349C945.614 369.852 943.946 370.539 942.465 370.509C941.875 370.502 941.276 370.405 940.753 370.106C940.245 369.814 939.848 369.358 939.452 368.91C938.502 367.818 937.545 366.727 936.595 365.636C934.958 363.759 931.712 364.567 929.507 364.858C926.964 365.187 924.422 365.957 922.343 367.632C922.133 367.803 921.932 367.975 921.722 368.155C921.221 368.588 920.72 369.014 920.137 369.298C918.17 370.255 915.74 369.254 914.364 367.467C913.736 366.645 913.145 365.591 912.166 365.456C911.403 365.352 910.655 365.897 910.259 366.615C909.863 367.333 909.758 368.185 909.706 369.014C909.511 372.042 909.93 375.159 911.238 377.843C914.08 383.658 919.576 384.376 925.102 384.241C927.286 384.189 929.469 384.137 931.653 384.084C935.646 383.987 939.863 383.823 943.228 381.505C946.197 379.457 947.962 375.981 948.679 372.333C949.068 370.442 949.18 368.499 949.068 366.585ZM934.457 374.83C932.356 376.243 930.037 376.318 927.697 375.615C926.702 375.316 927.121 373.642 928.123 373.941C930.067 374.524 931.899 374.509 933.649 373.335C934.524 372.745 935.339 374.24 934.457 374.83Z" fill="#212940"/>
<path d="M949.898 334.86C950.287 333.44 950.571 331.998 950.751 330.54C949.397 331.011 947.932 331.138 946.518 330.906C946.518 330.061 946.511 329.224 946.511 328.38C946.503 327.677 937.029 327.191 936.259 327.124C929.05 326.533 922.462 325.973 915.942 329.837C910.371 333.141 906.804 338.075 905.952 344.496C905.137 350.633 907.141 358.639 910.693 363.73C910.67 362.1 909.735 358.243 910.117 356.695C910.356 355.141 910.887 353.638 911.635 352.255C913.115 349.489 915.411 347.165 918.058 345.505C922.283 342.859 927.196 341.461 932.101 340.773C936.595 340.145 942.077 339.57 946.511 340.758C948.642 341.334 949.001 341.865 950.295 339.712C950.519 339.331 952.328 334.898 952.149 334.898C951.401 334.883 950.653 334.868 949.898 334.86Z" fill="#212940"/>
<path d="M590.398 542.022L570.731 561.689L590.265 581.224L609.933 561.556L590.398 542.022Z" fill="#D8E4F2"/>
<path d="M664.297 561.684L590.684 635.297L517.568 562.182L591.182 488.568L664.297 561.684ZM590.709 627.849L656.827 561.731L591.156 496.061L525.039 562.179L590.709 627.849Z" fill="#D8E4F2"/>
<path d="M589.701 556.987L585.964 560.723L630.5 605.259L634.237 601.522L589.701 556.987Z" fill="#D8E4F2"/>
<path d="M530.942 537.563L527.205 541.299L578.697 592.791L582.434 589.054L530.942 537.563Z" fill="#D8E4F2"/>
<path d="M570.299 498.205L566.563 501.942L618.055 553.434L621.791 549.697L570.299 498.205Z" fill="#D8E4F2"/>
<path d="M524.874 525.364L515.029 535.209L524.807 544.987L534.652 535.142L524.874 525.364Z" fill="#D8E4F2"/>
<path d="M544.541 505.696L534.696 515.541L544.475 525.32L554.32 515.475L544.541 505.696Z" fill="#D8E4F2"/>
<path d="M564.209 486.029L554.364 495.874L564.142 505.652L573.987 495.807L564.209 486.029Z" fill="#D8E4F2"/>
<path d="M617.634 618.125L607.79 627.969L617.568 637.748L627.413 627.903L617.634 618.125Z" fill="#D8E4F2"/>
<path d="M637.302 598.457L627.457 608.302L637.235 618.08L647.08 608.235L637.302 598.457Z" fill="#D8E4F2"/>
<path d="M656.97 578.79L647.125 588.635L656.903 598.413L666.748 588.568L656.97 578.79Z" fill="#D8E4F2"/>
<path d="M618.084 485.846L608.239 495.691L618.017 505.469L627.862 495.625L618.084 485.846Z" fill="#D8E4F2"/>
<path d="M637.618 505.38L627.773 515.225L637.551 525.004L647.396 515.159L637.618 505.38Z" fill="#D8E4F2"/>
<path d="M657.152 524.915L647.307 534.76L657.086 544.538L666.931 534.693L657.152 524.915Z" fill="#D8E4F2"/>
<path d="M524.691 579.239L514.846 589.084L524.625 598.862L534.47 589.017L524.691 579.239Z" fill="#D8E4F2"/>
<path d="M544.225 598.773L534.38 608.618L544.159 618.396L554.004 608.551L544.225 598.773Z" fill="#D8E4F2"/>
<path d="M563.76 618.307L553.915 628.152L563.693 637.931L573.538 628.086L563.76 618.307Z" fill="#D8E4F2"/>
<path d="M588.51 540.64L568.843 560.307L588.377 579.842L608.044 560.174L588.51 540.64Z" fill="#3F60B2"/>
<path d="M662.409 560.301L588.795 633.915L515.68 560.8L589.293 487.186L662.409 560.301ZM588.821 626.467L654.938 560.349L589.268 494.679L523.15 560.797L588.821 626.467Z" fill="#3F60B2"/>
<path d="M587.813 555.604L584.076 559.341L628.612 603.877L632.348 600.14L587.813 555.604Z" fill="#3F60B2"/>
<path d="M529.054 536.181L525.317 539.917L576.809 591.409L580.545 587.672L529.054 536.181Z" fill="#3F60B2"/>
<path d="M568.411 496.823L564.674 500.56L616.166 552.052L619.903 548.315L568.411 496.823Z" fill="#3F60B2"/>
<path d="M522.985 523.982L513.141 533.827L522.919 543.605L532.764 533.76L522.985 523.982Z" fill="#3F60B2"/>
<path d="M542.653 504.314L532.808 514.159L542.586 523.938L552.431 514.093L542.653 504.314Z" fill="#3F60B2"/>
<path d="M562.32 484.647L552.476 494.492L562.254 504.27L572.099 494.425L562.32 484.647Z" fill="#3F60B2"/>
<path d="M615.746 616.742L605.901 626.587L615.68 636.366L625.525 626.521L615.746 616.742Z" fill="#3F60B2"/>
<path d="M635.414 597.075L625.569 606.92L635.347 616.698L645.192 606.853L635.414 597.075Z" fill="#3F60B2"/>
<path d="M655.081 577.407L645.236 587.252L655.015 597.031L664.86 587.186L655.081 577.407Z" fill="#3F60B2"/>
<path d="M616.196 484.464L606.351 494.309L616.129 504.087L625.974 494.242L616.196 484.464Z" fill="#3F60B2"/>
<path d="M635.73 503.998L625.885 513.843L635.663 523.622L645.508 513.777L635.73 503.998Z" fill="#3F60B2"/>
<path d="M655.264 523.533L645.419 533.378L655.197 543.156L665.042 533.311L655.264 523.533Z" fill="#3F60B2"/>
<path d="M522.803 577.857L512.958 587.702L522.736 597.48L532.581 587.635L522.803 577.857Z" fill="#3F60B2"/>
<path d="M542.337 597.391L532.492 607.236L542.27 617.014L552.115 607.169L542.337 597.391Z" fill="#3F60B2"/>
<path d="M561.871 616.925L552.027 626.77L561.805 636.549L571.65 626.704L561.871 616.925Z" fill="#3F60B2"/>
<defs>
<clipPath id="clip0">
<rect width="782" height="569.05" fill="white" transform="translate(0 339) rotate(-30)"/>
</clipPath>
</defs>
</svg>
