<svg width="310" height="430" viewBox="0 0 310 430" fill="none" xmlns="http://www.w3.org/2000/svg">
<rect y="50" width="300" height="316" rx="12" fill="#D8E4F2" fill-opacity="0.3"/>
<path fill-rule="evenodd" clip-rule="evenodd" d="M24 82H276V157.711H249.182V212.521H215.951V228.004H188.988V144.705H156.486V248.286H125.296V157.866H100.81V232.339H94.6882V216.856H63.0607V247.822H51.1093V139.906H24.1457V228.004H24V82ZM24 299.999V300H276V299.999H24Z" fill="white"/>
<path d="M220.229 415.412C222.753 415.194 225.487 415.412 228.011 415.848C229.904 417.373 232.218 418.681 234.531 419.553C235.162 419.771 235.793 420.207 236.424 420.643C236.845 421.079 237.055 422.169 236.634 422.605C236.214 423.041 235.583 423.259 234.952 423.259C230.114 423.259 225.277 422.823 220.65 421.951C220.439 421.951 220.019 421.733 219.808 421.733C219.598 421.515 219.598 421.297 219.598 421.079C218.967 419.117 219.177 416.937 220.229 415.412Z" fill="#424051"/>
<path d="M211.605 416.72C209.081 416.502 206.347 416.72 203.823 417.156C201.93 418.682 199.617 419.989 197.303 420.861C196.672 421.079 196.041 421.515 195.41 421.951C194.99 422.387 194.779 423.477 195.2 423.913C195.621 424.349 196.252 424.567 196.883 424.567C201.72 424.567 206.347 424.131 211.185 423.259C211.395 423.259 211.816 423.041 212.026 423.041C212.236 422.823 212.236 422.605 212.236 422.387C212.867 420.425 212.447 418.246 211.605 416.72Z" fill="#424051"/>
<path d="M202.69 367.677C202.059 352.855 199.827 338.251 200.037 323.429C199.617 318.416 200.248 313.185 201.93 308.389C202.141 308.171 202.141 307.735 202.351 307.517C202.982 306.863 204.244 307.081 205.085 307.517C213.498 311.223 223.594 310.351 231.166 305.12C232.638 307.517 233.058 310.569 233.479 313.402C234.11 317.98 234.741 322.557 234.951 327.135C234.951 328.224 234.951 329.096 234.951 330.186C234.741 335.853 233.689 341.521 232.848 347.406C232.217 351.111 231.796 354.817 231.796 358.522C231.796 361.574 231.01 363.804 230.379 366.855C228.696 374.266 228.065 389.356 228.065 389.356L225.962 413.769V415.848C225.962 415.848 220.649 417.374 220.649 415.848C220.229 400.154 219.598 384.243 219.177 368.549C218.967 362.01 218.756 355.253 217.074 348.932C211.816 349.585 212.657 367.895 212.447 372.472C211.816 387.294 211.185 402.116 210.554 416.938C208.45 416.938 208.369 416.938 206.265 416.938C205.003 413.451 204.793 409.745 204.583 406.258C203.952 393.179 203.11 380.537 202.69 367.677Z" fill="#EAC5B0"/>
<path d="M225.487 239.292C218.335 239.946 211.395 241.254 204.875 237.331C190.152 254.986 197.303 253.678 195.831 270.898C195.41 274.603 200.247 282.886 200.037 286.374C198.565 304.029 191.834 332.801 192.465 350.457C192.676 355.47 192.886 360.483 194.148 365.061C194.569 366.369 194.989 367.676 195.831 368.548C196.672 369.42 197.934 369.42 199.196 369.42C212.026 368.548 221.911 362.227 237.265 371.382C240.42 339.994 233.479 307.953 231.796 286.592C230.745 271.77 236.213 266.321 233.479 250.845C232.848 247.357 232.007 243.652 230.324 240.818C229.903 239.946 227.8 239.074 228.641 239.074C229.693 238.638 228.01 239.074 225.487 239.292Z" fill="#A1BDEB"/>
<path d="M234.531 182.403C234.531 181.967 234.32 181.749 234.32 181.313C233.9 180.441 234.11 179.787 233.479 179.351C232.638 178.915 232.007 178.261 231.796 177.607C231.796 177.389 232.427 176.518 232.217 176.3C232.007 175.646 230.955 175.864 230.745 175.428C230.114 174.12 230.534 172.594 231.586 171.722C232.638 170.85 234.32 170.85 235.372 171.286C236.213 171.722 236.844 172.594 237.475 173.466C237.896 174.12 238.316 174.774 238.527 175.428C239.368 178.043 237.896 181.313 238.737 183.929C238.947 184.365 238.947 184.8 238.737 185.018C238.737 185.018 238.527 185.236 238.316 185.236C237.685 185.454 235.372 186.108 234.951 185.672C234.741 185.236 234.741 184.582 234.741 184.147C234.741 183.275 234.531 182.839 234.531 182.403Z" fill="#EAC5B0"/>
<path d="M231.165 176.517C231.165 176.299 231.165 176.299 231.165 176.081V175.863C231.165 175.645 231.586 175.427 231.796 175.427C232.006 175.427 232.217 175.209 232.427 175.209C232.637 175.209 232.637 175.209 232.848 175.209L233.058 175.427C233.268 175.645 233.479 175.863 233.479 175.863C233.689 176.081 233.689 176.081 233.689 176.299C233.899 176.735 233.689 177.389 233.268 177.825C233.058 178.043 232.217 178.479 231.796 178.261C231.586 178.043 231.375 177.825 231.375 177.607C231.375 177.171 231.165 176.953 231.165 176.517Z" fill="#DDD2C5"/>
<path d="M201.509 209.867C201.93 208.559 202.561 207.034 203.402 205.944C205.926 201.584 212.867 196.135 217.915 200.058C218.966 200.93 219.808 202.238 220.649 203.546C221.49 204.854 222.121 206.162 222.752 207.687C223.804 210.303 224.014 213.573 223.383 216.406C222.752 219.022 221.28 221.42 219.808 223.817C217.915 226.651 215.601 229.702 212.236 230.574C207.819 231.664 203.192 228.395 201.509 224.035C199.406 219.24 200.037 214.227 201.509 209.867Z" fill="#EAC5B0"/>
<path d="M234.32 220.111C233.269 226.432 231.586 232.971 232.007 239.292C232.007 240.818 232.638 242.562 233.899 242.78C235.161 243.216 236.423 241.908 237.054 240.818C237.896 239.51 238.527 237.984 239.158 236.459C239.789 234.715 239.999 232.753 240.209 230.791C242.102 216.406 243.785 201.802 241.471 187.416C241.261 185.672 240.84 183.928 239.578 182.838C238.527 181.966 236.844 181.748 235.372 181.966C233.058 182.184 233.479 182.838 233.899 185.018C234.53 188.941 235.161 192.865 235.372 196.788C236.003 204.635 235.582 212.482 234.32 220.111Z" fill="#587BC9"/>
<path d="M232.637 280.707C226.327 282.233 219.807 282.015 213.287 282.451C208.66 282.887 204.033 283.541 199.406 283.759H199.195V283.977C199.195 285.502 199.616 285.284 200.878 285.284C202.14 285.284 203.402 285.066 204.664 285.066C207.188 284.848 209.712 284.63 212.025 284.413C213.918 284.195 215.811 284.195 217.704 283.977C222.121 283.759 226.538 283.977 230.744 283.977C231.165 283.977 231.585 283.977 232.006 283.759C232.427 283.541 232.427 282.887 232.427 282.451C232.427 281.797 232.427 281.361 232.637 280.707Z" fill="#314F8F"/>
<path d="M223.593 280.271C224.014 281.796 224.014 283.54 224.014 285.066C223.593 285.284 222.962 285.284 222.541 285.502H222.331C222.121 285.502 222.121 285.284 222.121 285.066C221.91 283.758 221.7 282.45 221.7 281.143C221.7 280.489 221.49 280.489 221.91 280.053C222.121 280.271 223.593 280.271 223.593 280.271Z" fill="#587BC9"/>
<path d="M211.815 285.067C211.605 283.977 211.605 282.887 211.394 281.797C211.184 280.707 210.343 281.143 209.501 281.361C209.501 281.361 209.501 281.361 209.291 281.361C209.291 281.361 209.291 281.361 209.291 281.579C209.291 282.233 209.501 282.887 209.501 283.541C209.712 284.413 209.712 285.285 209.712 286.157C210.343 286.375 211.184 286.157 211.815 285.721C211.815 285.721 212.025 285.721 212.025 285.503C212.025 285.067 212.025 285.067 211.815 285.067Z" fill="#587BC9"/>
<path d="M178.373 274.386C177.742 273.732 177.111 273.078 176.901 272.424C176.691 271.77 176.48 270.899 176.48 270.245C176.48 270.027 176.48 269.591 176.48 269.373C176.48 269.155 176.691 268.937 176.901 268.937C177.532 268.501 178.373 268.065 179.004 268.501C179.846 268.937 180.266 270.027 181.108 270.245C181.739 270.463 182.58 270.245 182.79 270.681C183.001 270.899 183.001 271.117 183.001 271.334C183.001 273.078 182.58 275.258 183.421 276.784C183.632 277.22 183.842 277.438 183.632 277.874C183.632 278.092 183.421 278.092 183.211 278.092C181.739 278.745 181.528 278.527 180.687 277.22C180.056 276.13 179.215 275.258 178.373 274.386Z" fill="#EAC5B0"/>
<path d="M181.107 281.579C181.949 282.887 182.79 284.194 183.631 285.502C184.683 287.028 185.735 288.772 187.627 289.208C189.941 289.644 191.834 287.9 193.517 286.156C195.62 283.759 197.513 281.361 198.564 278.309C198.985 277.219 199.195 275.912 199.406 274.604C200.668 267.847 203.402 261.308 206.346 255.205C207.188 253.461 208.239 251.063 207.188 249.319C206.346 247.794 204.243 247.358 202.561 248.012C200.878 248.665 199.826 250.191 198.985 251.717C194.568 259.128 195.199 268.719 190.362 275.912C189.52 277.001 189.1 279.835 187.838 280.271C186.576 280.707 184.893 276.784 184.052 275.694C183.842 275.258 183.631 274.822 183.211 274.386C183 273.95 181.107 275.476 180.687 275.694C178.583 277.001 180.056 280.053 181.107 281.579Z" fill="#587BC9"/>
<path d="M193.517 236.895C194.358 235.805 195.62 234.715 196.041 233.189C196.462 232.099 196.041 230.792 196.251 229.702C196.251 228.394 196.672 227.086 197.934 226.65C198.986 226.214 200.037 226.868 200.879 227.74C201.299 227.522 201.93 227.304 202.351 227.086C205.085 225.996 206.978 223.163 207.819 220.111C208.661 217.059 208.45 214.008 208.24 210.738C208.03 208.777 207.819 206.597 207.399 204.635C204.875 202.673 203.192 199.186 205.716 196.134C208.45 192.865 213.498 191.557 217.494 192.647C222.121 193.955 231.586 199.404 231.796 204.417C232.007 208.123 231.376 211.828 232.638 215.316C233.9 218.367 230.324 219.021 233.058 220.983C233.689 221.419 234.11 221.855 234.32 222.509C234.741 223.381 234.531 224.252 235.162 224.906C235.372 225.124 235.793 225.342 236.213 225.56C238.316 226.214 241.051 227.304 241.051 229.702C241.051 230.574 240.63 231.445 241.261 232.317C241.471 232.753 241.892 232.971 242.313 233.189C243.154 234.061 242.944 235.369 242.523 236.459C242.102 237.549 241.471 238.42 241.471 239.728C241.471 240.6 241.892 241.254 241.892 242.126C241.892 243.652 241.051 245.178 239.578 245.613C238.316 246.049 236.424 245.831 236.003 247.139C235.793 247.575 235.793 248.011 235.582 248.447C235.372 248.665 234.951 248.883 234.531 249.101C231.796 249.755 228.641 247.357 226.538 249.319C225.066 250.627 225.276 253.024 223.804 254.332C222.121 255.858 219.177 254.55 217.494 256.076C217.074 256.512 216.653 257.166 216.022 257.384C214.76 258.256 212.867 257.166 212.026 255.64C211.184 254.332 210.764 252.588 209.502 251.499C207.188 249.755 204.033 251.063 201.299 251.063C199.406 251.063 197.513 250.627 195.831 249.319C195.2 248.883 194.779 248.447 194.569 247.793C193.727 246.267 194.779 244.088 193.938 242.562C193.727 242.126 193.096 241.69 192.886 241.254C191.835 239.728 192.465 237.985 193.517 236.895Z" fill="#4A4549"/>
<path d="M106.367 239.813C106.367 241.009 106.637 242.444 107.445 243.4C108.253 244.357 110.139 244.835 110.947 243.879C111.486 243.4 111.486 242.444 111.486 241.726C111.486 236.226 111.486 230.965 110.678 225.465C110.409 223.313 110.139 221.161 111.756 219.487C112.564 218.531 113.911 218.052 114.988 217.335C116.066 216.618 116.874 215.183 116.066 214.226C115.797 213.748 115.258 213.509 115.258 212.791C114.988 212.074 115.797 211.357 116.335 210.878C116.874 210.161 116.874 209.204 116.066 208.965C115.258 210.4 114.18 211.596 112.833 212.791C112.564 213.031 112.025 213.27 111.756 213.509C110.947 213.509 110.409 213.031 109.87 212.552C109.331 212.074 107.984 212.313 107.984 212.791C109.87 216.378 108.253 221.4 107.715 224.987C106.637 230.009 106.098 235.031 106.367 239.813Z" fill="#EAC5B0"/>
<path d="M114.72 234.074C113.911 233.596 113.103 233.596 112.295 233.596C109.87 233.596 107.715 233.596 105.29 233.357C104.482 233.357 103.674 233.357 103.135 234.074C102.866 234.792 103.674 235.509 104.213 236.226C106.368 238.379 105.829 241.726 105.29 244.596C105.021 245.313 104.752 246.27 103.943 246.509C102.596 246.987 101.519 245.552 101.249 244.357C99.633 240.531 98.0165 236.705 96.6695 232.879C96.1307 231.205 95.3225 229.531 94.2449 228.096C89.3956 222.596 80.2358 227.139 84.0074 233.357C88.3179 240.292 94.7837 246.509 99.9024 252.966C102.058 255.596 104.752 258.466 108.254 258.226C108.523 258.226 109.062 258.226 109.332 257.987C109.601 257.748 112.026 256.553 112.026 256.074C112.295 251.053 112.564 246.987 112.834 241.966C112.834 240.531 112.295 238.857 113.103 237.422C113.911 236.226 113.911 235.509 115.528 235.748C115.797 235.27 115.528 234.313 114.72 234.074Z" fill="#587BC9"/>
<path d="M47.6377 276.88C48.9847 267.554 52.7564 258.706 55.181 249.619C57.0669 242.923 56.381 228.653 57.728 221.958C59.1019 221.707 64.8722 220.205 64.8722 220.205C64.8722 220.205 65.7019 216.938 65.9713 216.699C66.2407 216.46 67.0758 216.448 67.3452 216.448C72.1945 216.687 72.9618 217.814 77.8111 218.532C81.5827 219.249 79.7746 220.284 83.0075 221.958C83.8157 222.436 82.7327 223.711 88.503 224.963C89.8769 225.464 91.0119 225.227 91.2813 226.184C92.359 234.314 95.5918 242.445 96.9389 250.575C98.0165 255.836 98.0165 261.336 98.2859 266.836C98.5553 272.576 98.8247 278.315 99.0941 284.054C98.2859 288.32 96.9389 289.793 91.5255 290.574C86.9457 289.617 85.3544 290.032 80.7745 289.793C70.2677 289.076 58.9193 288.597 49.7595 284.054C48.9513 283.576 48.4459 281.184 47.9071 280.467C47.3683 279.271 47.6377 278.076 47.6377 276.88Z" fill="#D8E4F2"/>
<path d="M88.4363 237.537L87.5703 237.597L87.6645 238.726L88.5304 238.666L88.4363 237.537Z" fill="#587BC9"/>
<path d="M89.8554 240.159L86.6141 240.383L86.2617 236.155L89.503 235.931L89.8554 240.159V240.159ZM86.7607 240.157L89.672 239.956L89.3555 236.158L86.4442 236.36L86.7607 240.157Z" fill="#587BC9"/>
<path d="M88.1256 237.973L87.9609 237.984L88.1756 240.56L88.3403 240.548L88.1256 237.973Z" fill="#587BC9"/>
<path d="M87.0719 235.772L86.9072 235.784L87.1554 238.761L87.3201 238.75L87.0719 235.772Z" fill="#587BC9"/>
<path d="M88.8043 235.653L88.6396 235.664L88.8878 238.642L89.0525 238.63L88.8043 235.653Z" fill="#587BC9"/>
<path d="M87.1624 235.235L86.7285 235.265L86.7757 235.831L87.2096 235.801L87.1624 235.235Z" fill="#587BC9"/>
<path d="M88.0287 235.175L87.5947 235.205L87.6419 235.771L88.0758 235.741L88.0287 235.175Z" fill="#587BC9"/>
<path d="M88.8949 235.115L88.4609 235.145L88.5081 235.711L88.942 235.681L88.8949 235.115Z" fill="#587BC9"/>
<path d="M87.6097 240.599L87.1758 240.629L87.2229 241.195L87.6568 241.165L87.6097 240.599Z" fill="#587BC9"/>
<path d="M88.4759 240.539L88.042 240.569L88.0891 241.135L88.5231 241.105L88.4759 240.539Z" fill="#587BC9"/>
<path d="M89.3421 240.479L88.9082 240.509L88.9553 241.075L89.3893 241.045L89.3421 240.479Z" fill="#587BC9"/>
<path d="M90.2142 236.585L89.7803 236.615L89.8274 237.181L90.2613 237.151L90.2142 236.585Z" fill="#587BC9"/>
<path d="M90.3089 237.715L89.875 237.745L89.9221 238.311L90.3561 238.281L90.3089 237.715Z" fill="#587BC9"/>
<path d="M90.4027 238.844L89.9688 238.875L90.0159 239.44L90.4498 239.41L90.4027 238.844Z" fill="#587BC9"/>
<path d="M86.1019 236.87L85.668 236.9L85.7151 237.465L86.149 237.435L86.1019 236.87Z" fill="#587BC9"/>
<path d="M86.1956 238L85.7617 238.03L85.8089 238.595L86.2428 238.565L86.1956 238Z" fill="#587BC9"/>
<path d="M86.2904 239.13L85.8564 239.16L85.9036 239.725L86.3375 239.695L86.2904 239.13Z" fill="#587BC9"/>
<path d="M71.0752 184.574C74.0387 184.096 77.2715 184.096 80.5044 183.857C84.0067 186.966 86.1619 191.031 87.2395 195.096C88.0477 198.444 88.5865 202.031 87.5089 205.379C86.7007 208.727 84.5455 212.074 81.3126 213.748C76.4633 216.618 69.4588 216.14 64.6095 213.031C59.7602 209.922 57.0661 204.661 56.5273 199.4C56.2579 194.857 57.3355 190.553 59.2213 186.487C62.4542 185.531 67.3035 185.053 71.0752 184.574Z" fill="#EAC5B0"/>
<rect x="66.7949" y="213.693" width="12.6397" height="7.01186" fill="#EAC5B0"/>
<path d="M76.9615 223.961C76.0822 223.36 73.8474 219.537 72.8398 217.7L78.8849 219.203L79.1597 222.959C78.7933 223.543 77.8408 224.562 76.9615 223.961Z" fill="#EAC5B0"/>
<path d="M95.052 374.924C95.8602 387.358 96.6684 392.858 98.0154 405.293C96.1296 405.054 95.5908 405.054 93.7049 404.815C91.5497 397.641 89.3945 396.924 88.0474 389.511C86.9698 384.25 85.6228 379.228 84.2758 374.206C80.5041 360.097 76.7324 345.749 72.9607 331.402C71.3443 325.184 69.7279 318.728 67.0338 312.749C64.3398 306.293 60.8375 296.967 70.5361 293.858C75.9242 292.184 83.4675 293.14 87.2392 297.206C91.5497 301.988 91.0109 309.401 91.5497 315.141C92.0885 324.467 92.6273 334.032 93.1661 343.358C93.9744 353.88 94.5132 364.402 95.052 374.924Z" fill="#314F8F"/>
<path d="M72.153 301.032C71.6142 299.836 70.8059 298.402 69.4589 297.684C67.8425 296.728 65.6872 296.728 63.532 296.967C60.5685 297.206 57.3357 297.445 54.3722 297.923C51.9476 298.402 49.2535 298.88 47.6371 300.554C46.29 302.228 46.29 304.38 46.29 306.532C46.8288 321.837 47.3677 337.141 48.4453 352.445C49.2535 366.554 52.7558 376.119 54.1028 390.228C54.6416 395.728 54.911 394.772 56.258 404.815C56.258 405.533 56.258 405.054 56.5274 405.533C56.7968 405.533 57.0663 405.294 57.3357 405.294C58.4133 405.294 58.1439 406.011 59.2215 406.011C59.4909 406.011 60.5685 405.769 60.5685 405.769C60.4752 404.516 60.5685 403.62 60.5685 402.424C62.7238 374.924 65.1484 356.032 71.0753 329.01C73.5 319.923 75.9246 309.88 72.153 301.032Z" fill="#314F8F"/>
<path d="M92.6279 292.185C92.6279 291.228 92.6279 290.511 92.3585 289.793C91.8197 288.837 90.4727 288.119 89.395 287.641C78.8882 283.098 66.765 280.945 54.9111 281.663C53.8335 281.663 52.4865 281.902 51.6783 282.38C50.3312 283.098 50.0618 284.532 49.7924 285.728C48.9842 289.793 48.176 293.859 47.0984 297.685C46.5596 300.315 46.0208 303.185 47.6372 305.576C48.4454 306.772 50.0618 307.967 51.4089 308.685C60.8381 314.185 73.2307 316.098 84.2763 313.946C88.5868 312.989 91.0115 311.793 91.5503 307.967C91.8197 302.946 92.0891 297.445 92.6279 292.185Z" fill="#314F8F"/>
<path d="M49.2537 302.467C50.062 302.467 51.1396 302.228 51.9478 301.989C53.5642 301.51 54.9113 300.793 55.9889 300.076C57.6053 298.88 58.1441 296.967 58.6829 295.293C59.7606 292.423 61.1076 289.315 60.8382 285.967H60.2994C60.5688 289.076 59.4912 292.184 58.1441 295.054C57.3359 296.728 56.5277 298.88 55.4501 299.597C54.3725 300.315 53.2948 301.032 51.6784 301.271C49.7926 301.749 48.4455 301.749 47.0985 301.271L46.8291 301.749C47.6373 302.228 48.4455 302.467 49.2537 302.467Z" fill="#A1BDEB"/>
<path d="M90.7421 305.097L91.0115 304.619C88.8562 302.945 87.2398 300.554 86.701 297.684C86.1622 295.054 86.1622 292.184 86.4316 289.554H85.8928C85.6234 292.184 85.6234 295.054 86.1622 297.923C86.9704 300.793 88.5868 303.423 90.7421 305.097Z" fill="#A1BDEB"/>
<path d="M53.0258 185.77C53.834 184.335 54.9116 182.901 55.9892 181.705C59.4915 178.596 64.3408 176.922 69.4595 176.683C74.3088 176.444 79.4275 177.879 83.738 180.031C85.6238 180.988 87.2403 182.183 88.5873 183.857C90.7425 186.727 91.2814 190.314 91.0119 193.901C90.7425 197.249 90.4731 202.988 87.7791 205.857C87.7791 202.27 88.5873 199.879 87.7791 197.488C86.9709 194.618 86.1627 191.749 84.2768 189.357C83.4686 188.401 80.2357 187.922 78.8887 188.162C79.1581 189.835 78.8887 191.509 78.0805 192.944C76.1946 189.835 71.6148 188.64 67.5737 189.118C65.6878 189.357 63.5326 189.835 61.9162 191.031C59.2221 192.944 58.1445 196.292 58.4139 199.162C58.4139 202.27 59.2221 205.14 59.2221 208.249C56.5281 207.292 55.4504 204.662 54.6422 202.27C54.1034 200.596 53.5646 198.922 53.0258 197.249C51.9482 193.183 51.1399 189.118 53.0258 185.77Z" fill="#524F63"/>
<path d="M44.4044 179.553C44.6739 177.879 45.2127 175.966 46.2903 174.531C47.9067 172.618 50.6008 171.662 53.2948 171.183C55.9889 170.705 58.9523 171.183 61.377 172.379C67.8427 176.205 63.5322 186.249 57.3359 188.64C53.0254 190.314 47.6373 188.879 45.4821 185.292C44.135 183.857 44.135 181.705 44.4044 179.553Z" fill="#524F63"/>
<path d="M76.1948 219.966C76.1948 219.488 76.1948 219.249 75.9254 219.009C75.656 218.77 75.3866 218.77 75.3866 218.77C72.4231 217.814 69.1902 217.096 65.9574 216.618C65.688 217.336 65.1492 217.814 64.8798 218.531C64.8798 218.77 64.6104 219.009 64.6104 219.249C64.6104 219.488 64.8798 219.727 64.8798 219.966C65.688 220.923 66.7656 221.64 68.1126 222.596C70.5373 224.27 73.5007 226.901 76.4642 227.618C77.003 226.662 77.2374 225.168 77.2374 224.211C77.2374 222.537 76.1948 221.162 76.1948 219.966Z" fill="#587BC9"/>
<path d="M77.8107 219.727C77.8107 219.249 78.0801 218.771 78.3495 218.531C78.8883 218.053 79.4271 218.053 80.2353 218.292C80.7741 218.531 81.313 218.771 81.8518 219.249C82.9294 220.205 84.007 220.923 85.354 221.879L85.6234 222.118C85.6234 222.358 85.6234 222.358 85.354 222.597C84.5458 223.314 83.7376 224.031 82.9294 224.749C82.3906 225.227 81.5824 225.945 80.7741 226.184C79.1577 226.901 77.5413 226.901 77.5413 225.227C77.2719 223.314 77.5413 221.401 77.8107 219.727Z" fill="#587BC9"/>
<path d="M78.276 228.941C78.5815 235.745 77.665 242.549 76.7486 249.354C76.7486 249.637 76.4432 249.921 76.1377 249.637C76.4432 245.668 76.7486 241.699 77.0541 237.729C77.0541 234.327 77.0541 230.642 77.0541 227.239C77.0541 226.672 76.4432 222.987 77.6651 223.837C78.5815 224.404 78.276 228.09 78.276 228.941Z" fill="#333333"/>
<path d="M78.841 228.904C79.8032 233.67 79.8578 238.552 79.9124 243.434C79.943 243.633 79.7467 243.862 79.4892 243.691C79.2872 240.865 79.0851 238.039 78.8831 235.213C78.5155 232.816 78.1172 230.219 77.7495 227.821C77.6883 227.421 76.8362 224.882 77.8357 225.366C78.5777 225.679 78.749 228.305 78.841 228.904Z" fill="#333333"/>
<path d="M97.7362 403.38C98.0056 403.38 98.5445 403.619 98.8139 403.858C99.0833 404.097 99.0833 404.337 99.0833 404.576C99.6221 406.967 100.161 409.119 100.43 411.51C100.7 412.706 100.7 413.902 101.239 414.858C102.316 417.011 104.471 418.684 106.896 419.641C108.782 420.358 110.937 420.837 113.092 421.076C113.631 421.076 114.439 421.076 114.978 421.793C115.248 422.511 114.709 423.467 114.439 423.945C113.631 424.663 112.015 424.663 110.937 424.424C107.435 423.706 104.202 422.75 100.7 421.793C99.8915 421.554 99.0833 421.315 98.5445 420.837C98.275 420.597 98.0056 420.119 97.7362 419.88C96.928 418.684 96.3892 417.25 95.581 416.054C95.3116 417.728 95.0422 419.163 94.5034 420.598C94.234 420.598 93.6952 420.598 93.4258 420.598C93.6952 414.619 93.1688 409.837 92.8994 403.858C94.2464 403.858 96.3892 402.902 97.7362 403.38Z" fill="#424051"/>
<path d="M89.9339 278.553C83.1987 273.77 76.1942 269.227 69.4591 264.444C69.1896 264.205 68.6508 263.966 68.3814 263.966C67.8426 263.966 67.3038 264.444 66.765 264.922C66.2262 265.64 65.418 266.357 65.418 267.314C65.418 268.988 67.0344 270.183 68.3814 270.901C75.386 274.966 82.3905 278.792 90.2033 281.422C93.9749 282.618 98.2854 283.575 101.788 285.488C102.596 285.966 103.404 286.444 104.212 286.683C105.021 286.922 106.098 286.683 106.906 285.966C107.445 285.249 107.445 284.053 107.176 283.335C106.637 281.422 105.559 279.27 103.674 279.27C102.596 279.27 101.518 279.749 100.441 279.988C99.0936 280.466 98.8242 279.988 97.4772 279.988C96.3996 279.988 95.5914 280.466 94.5138 280.466C92.6279 280.227 91.2809 279.27 89.9339 278.553Z" fill="#EAC5B0"/>
<path d="M48.9848 241.728C48.446 244.119 47.9072 246.51 47.9072 249.141C47.9072 251.054 48.446 252.967 48.7154 254.88C49.2543 257.51 49.7931 259.902 51.6789 262.054C54.6424 265.402 59.7611 266.119 63.8021 268.271C63.2633 269.228 62.7245 270.184 62.9939 271.141C63.2633 272.097 64.6104 272.815 65.4186 272.097C65.688 271.858 65.9574 271.619 65.9574 271.141C67.035 268.989 68.382 266.836 69.9985 264.923C70.8067 263.967 71.6149 263.01 71.8843 262.054C72.1537 260.858 71.6149 259.423 70.5373 259.184C69.4597 260.141 70.5373 259.663 69.4597 260.619C69.1903 260.858 68.9208 261.097 68.6514 261.097C68.1126 261.336 67.5738 260.858 67.035 260.619C66.2268 259.902 65.4186 259.423 64.6104 258.706C64.0715 258.228 63.2633 257.749 62.9939 257.032C62.7245 256.554 62.7245 255.836 62.7245 255.119C63.2633 248.184 65.9574 243.641 67.5738 236.945C68.1126 235.032 68.382 233.119 67.8432 231.206C67.035 227.858 64.0716 225.228 61.3775 222.836C60.8387 222.358 60.2999 221.88 59.4917 221.88C58.9528 221.641 58.414 221.88 57.8752 221.88C53.2953 223.075 51.6789 225.467 51.4095 229.293C50.6013 233.358 49.7931 237.662 48.9848 241.728Z" fill="#587BC9"/>
<path d="M73.5005 200.356C71.3452 199.639 69.19 198.443 67.8429 197.009C67.0347 197.487 66.7653 198.443 66.4959 199.4C65.9571 203.704 68.1123 208.009 71.6146 210.639C69.9982 210.639 68.3818 210.4 67.0347 210.4C66.7653 210.4 66.4959 210.4 66.2265 210.639C65.9571 210.878 65.9571 211.117 66.2265 211.356C66.7653 212.791 67.5735 214.226 68.3818 215.422C65.4183 215.183 62.4548 213.748 60.2996 211.835C58.1443 209.922 56.5279 207.53 54.9115 205.139C53.5645 202.748 52.2174 200.117 51.6786 197.487C51.1398 194.856 51.6786 191.748 53.2951 189.595C55.4503 186.965 58.9526 185.53 62.7242 184.813C64.8795 184.335 67.3041 184.095 69.4594 184.574C70.8064 184.813 73.231 185.53 74.0393 186.726C74.8475 187.922 73.231 189.356 72.6922 190.552C71.3452 193.661 71.6146 197.487 73.5005 200.356Z" fill="#524F63"/>
<path d="M62.9824 409.836C63.2518 411.51 63.5212 413.423 64.3294 415.097C65.6764 417.728 68.9093 418.923 71.8728 419.88C72.1422 419.88 72.681 420.119 72.681 420.358C72.9504 420.597 72.9504 420.836 72.9504 421.076C72.9504 421.793 72.9504 422.749 73.2198 423.467C73.2198 423.706 73.2198 423.706 73.2198 423.706C73.2198 423.945 72.9504 423.945 72.681 423.945C69.4481 423.706 65.9458 423.945 62.713 424.184C62.1741 424.184 61.6353 424.184 61.0965 423.945C60.2883 423.706 60.2883 422.749 60.2883 422.032C60.2883 421.315 60.5577 420.597 60.5577 419.88C60.2883 419.162 59.7495 418.445 58.9413 418.684C58.6719 420.119 58.6719 421.793 59.2107 423.228C58.6719 423.467 57.8637 423.467 57.0554 423.467C57.3249 419.402 57.5943 415.336 56.786 411.271C56.5166 409.836 54.8527 406.489 55.6609 405.054C56.786 405.054 58.6719 405.054 60.0189 405.054C61.6353 405.054 61.9047 405.532 62.4436 406.967C62.4436 407.923 62.713 408.88 62.9824 409.836Z" fill="#424051"/>
<path opacity="0.08" d="M84.7133 430C112.721 430 135.427 427.027 135.427 423.359C135.427 419.691 112.721 416.718 84.7133 416.718C56.7051 416.718 34 419.691 34 423.359C34 427.027 56.7051 430 84.7133 430Z" fill="#9DAFBD"/>
<path opacity="0.08" d="M215.119 430C243.127 430 265.832 427.027 265.832 423.359C265.832 419.691 243.127 416.718 215.119 416.718C187.11 416.718 164.405 419.691 164.405 423.359C164.405 427.027 187.11 430 215.119 430Z" fill="#9DAFBD"/>
<path d="M138.897 95.5455L141.248 93.9937C141.013 93.0533 140.73 92.1128 140.448 91.2194C140.119 90.279 139.79 89.3856 139.367 88.5392L136.545 88.7743C133.348 89.0564 131.091 85.7179 132.549 82.8495L133.818 80.3104C132.502 78.8997 131.044 77.6301 129.445 76.5016L127.141 78.1003C124.508 79.9342 120.887 78.1944 120.699 74.9499L120.558 72.1285C118.677 71.5643 116.796 71.1881 114.868 71L113.693 73.5862C112.329 76.5016 108.332 76.7837 106.545 74.1035L104.994 71.7524C104.053 71.9875 103.113 72.2696 102.219 72.5517C101.279 72.8809 100.386 73.21 99.5392 73.6332L99.7743 76.4546C100.056 79.6521 96.7179 81.9091 93.8495 80.4514L91.3103 79.1818C89.8997 80.4984 88.6301 81.9561 87.5016 83.5549L89.1003 85.8589C90.9342 88.4922 89.1944 92.1129 85.9498 92.301L83.1285 92.442C82.5643 94.3229 82.1881 96.2038 82 98.1317L84.5862 99.3072C87.5016 100.671 87.7837 104.668 85.1035 106.455L82.7524 108.006C82.9875 108.947 83.2696 109.887 83.5517 110.781C83.8809 111.721 84.21 112.614 84.6332 113.461L87.4545 113.226C90.652 112.944 92.9091 116.282 91.4514 119.15L90.1818 121.69C91.4984 123.1 92.9561 124.37 94.5548 125.498L96.8589 123.9C99.4922 122.066 103.113 123.806 103.301 127.05L103.442 129.871C105.323 130.436 107.204 130.812 109.132 131L110.307 128.414C111.671 125.498 115.668 125.216 117.455 127.897L119.006 130.248C119.947 130.013 120.887 129.73 121.781 129.448C122.721 129.119 123.614 128.79 124.461 128.367L124.226 125.545C123.944 122.348 127.282 120.091 130.15 121.549L132.69 122.818C134.1 121.502 135.37 120.044 136.498 118.445L134.9 116.141C133.066 113.508 134.806 109.887 138.05 109.699L140.871 109.558C141.436 107.677 141.812 105.796 142 103.868L139.414 102.693C136.451 101.282 136.169 97.2853 138.897 95.5455ZM116.044 112.614C109.602 114.824 102.643 111.439 100.386 104.997C98.1756 98.5549 101.561 91.5956 108.003 89.3386C114.445 87.1285 121.404 90.5141 123.661 96.9561C125.871 103.398 122.439 110.404 116.044 112.614Z" fill="#96BFEE"/>
<path d="M165.995 89.5003C167.746 89.7407 169.546 89.9331 171.346 89.9811C173.097 90.0292 174.849 89.9811 176.551 89.885L178.643 81.0859L187.351 78.6337L193.822 85.0287C196.984 83.4419 199.903 81.4705 202.578 79.2107L199.027 70.8924L204.622 63.8243L213.67 65.2187C215.178 62.2376 216.395 59.0641 217.222 55.7464L209.438 51.0343L209.827 42.091L218 38.004C217.465 34.494 216.492 31.1282 215.178 27.9548L206.032 28.676L201.07 21.2232L205.254 13.1934C202.773 10.7412 200 8.57754 196.984 6.75041L190.027 12.6164L181.514 9.49109L180.103 0.547761C178.303 0.259266 176.503 0.0669478 174.605 0.0188652C172.903 -0.0292173 171.2 0.0188416 169.546 0.115006L167.405 8.91412L158.697 11.3182L152.324 4.87518C149.162 6.4619 146.195 8.43328 143.519 10.6451L147.022 19.0114L141.427 26.0315L132.378 24.589C130.822 27.6663 129.557 30.9359 128.73 34.3497L136.562 39.0618L136.173 48.0052L128 52.0922C128.584 55.6022 129.557 58.9199 130.87 62.1414L140.016 61.4201L145.076 68.8729L140.892 76.9027C143.373 79.3549 146.146 81.5186 149.162 83.3458L156.07 77.4797L164.584 80.557L165.995 89.5003ZM150.524 43.4854C151.351 31.2244 162.103 21.9925 174.508 22.8099C186.914 23.6273 196.254 34.2536 195.427 46.5146C194.6 58.7756 183.849 68.0074 171.443 67.19C159.038 66.3726 149.697 55.7464 150.524 43.4854Z" fill="#305399"/>
<path opacity="0.08" d="M314 391.299C314 393.341 301.986 395 287 395C272.014 395 260 393.341 260 391.299C260 389.257 272.014 387.598 287 387.598C301.986 387.598 314 389.257 314 391.299Z" fill="#9DAFBD"/>
<path d="M266.072 275.933C266.072 275.933 257.675 312.432 270.981 337.317C284.287 362.202 284.158 362.075 284.158 362.075C284.158 362.075 287.646 300.053 266.072 275.933Z" fill="#5BB59B"/>
<path d="M266.589 371.391C267.364 375.857 268.397 380.452 270.723 384.408C272.919 388.364 276.536 391.81 281.058 392.831C283.125 393.341 285.192 393.341 287.259 393.213C289.584 393.213 291.909 392.958 293.976 391.81C296.56 390.278 297.852 387.471 298.885 384.663C300.694 379.941 301.986 375.092 302.89 370.242C303.407 367.435 303.795 364.372 302.373 361.82C300.565 358.374 296.302 356.97 292.426 356.332C285.967 355.311 277.053 354.801 270.852 357.353C265.426 359.65 265.684 366.414 266.589 371.391Z" fill="#D8E4F2"/>
<path d="M281.316 362.203C286.483 362.458 292.038 361.692 295.268 360.033C295.914 359.65 296.431 359.267 296.172 358.885C295.785 358.374 294.493 358.119 293.201 358.119C287 357.481 280.153 357.225 274.081 358.246C265.297 359.65 276.536 361.947 281.316 362.203Z" fill="#524F63"/>
<path d="M278.603 267C278.603 267 274.469 336.551 284.158 362.075C284.158 362.075 290.488 300.053 278.603 267Z" fill="#63A590"/>
<path d="M282.996 361.564H285.321C288.68 347.782 298.627 303.116 293.331 282.314C293.331 282.314 276.536 340.89 280.8 354.035C281.704 357.48 282.479 359.905 282.996 361.564Z" fill="#5BB59B"/>
</svg>
