<svg width="406" height="500" viewBox="0 0 406 500" fill="none" xmlns="http://www.w3.org/2000/svg">
<g opacity="0.3">
<path d="M165.628 36.2123C163.361 35.6021 161.037 36.8852 160.331 39.116L141.761 97.5518C141.393 98.7051 141.52 99.9662 142.108 101.03L142.154 101.11C142.746 102.134 143.708 102.87 144.84 103.195C177.326 111.911 206.214 128.866 229.272 152.248C240.424 163.553 250.228 176.349 258.386 190.479C266.099 203.839 272.064 217.916 276.254 232.4C285.292 263.676 286.03 296.893 278.031 329.148C277.446 331.495 278.846 333.876 281.162 334.506L337.348 349.792C338.479 350.106 339.684 349.937 340.706 349.341C341.711 348.761 342.449 347.793 342.735 346.644C358.975 282.144 349.553 214.837 316.213 157.092C280.802 95.7584 227.322 52.826 165.628 36.2123Z" fill="#6E96E6"/>
<path d="M234.228 203.14C228.669 193.511 221.77 184.55 213.819 176.351C193.895 155.8 167.162 140.212 136.859 132.053C134.548 131.431 132.17 132.793 131.516 135.095L118.107 183.12C117.789 184.26 117.942 185.475 118.524 186.51C119.07 187.412 120.092 188.295 121.233 188.608C148.726 195.976 168.802 205.808 183.9 231.957C198.436 257.134 196.769 280.997 189.788 309.113C189.519 310.246 189.69 311.418 190.261 312.407L190.347 312.538C190.979 313.56 192.018 314.29 193.177 314.535L243.146 325.128C245.46 325.61 247.715 324.207 248.288 321.92C255.711 292.496 255.092 261.432 247.148 233.959C243.988 223.004 239.692 212.604 234.228 203.14Z" fill="#6E96E6"/>
<path d="M105.67 228.489C85.629 240.06 78.8146 265.905 90.4732 286.099C102.132 306.292 127.922 313.303 147.958 301.735C167.995 290.167 174.816 264.333 163.155 244.136C151.501 223.94 125.706 216.921 105.67 228.489Z" fill="#6E96E6"/>
</g>
<path d="M108.584 169.647C108.854 169.662 109.13 169.684 109.377 169.774C111.658 170.619 112.346 172.428 114.305 173.863C115.18 174.506 117.782 173.512 117.647 175.769C117.602 176.599 117.191 178.625 117.079 180.404C116.907 182.99 118.253 186.376 119.816 188.866C125.963 198.651 134.599 206.492 143.393 213.982C143.894 214.408 144.425 214.849 145.068 214.991C146.22 215.253 147.334 214.535 148.306 213.87C152.815 210.775 157.608 208.107 162.611 205.901C167.075 203.936 171.831 202.313 176.706 202.463C181.582 202.612 186.622 204.81 189.104 209.004C190.966 212.143 191.183 216.202 189.665 219.529C185.904 227.766 172.676 227.37 165.011 228.604C157.758 229.77 150.422 230.427 143.079 230.569C142.174 230.584 141.24 230.592 140.395 230.248C139.497 229.882 138.802 229.172 138.136 228.469C129.544 219.469 121.79 209.751 114.2 199.839C112.114 197.111 111.725 193.635 109.773 191.138C108.525 189.538 106.401 189.187 104.89 187.939C103.395 186.705 101.75 184.702 100.822 183.013C98.983 179.671 100.643 176.091 101.787 172.831C102.071 172.017 102.258 171.471 102.856 170.918C103.821 170.028 105.085 169.901 106.341 169.737C107.089 169.632 107.837 169.595 108.584 169.647Z" fill="#EAC5B0"/>
<path d="M168.406 234.591C162.065 235.339 155.709 235.473 149.517 234.972C147.311 234.793 145.083 234.524 143.034 233.687C139.841 232.378 137.366 229.807 134.981 227.31C126.426 218.325 117.819 209.265 111.209 198.77C114.297 196.924 117.386 195.07 120.466 193.224C121.057 192.872 121.685 192.506 122.373 192.528C123.256 192.558 123.966 193.216 124.602 193.829C130.023 199.129 135.444 204.421 140.866 209.721C141.718 210.551 142.63 211.418 143.797 211.642C144.672 211.807 145.569 211.59 146.422 211.343C161.287 207.06 174.545 196.131 187.923 188.634C194.533 184.934 201.413 181.144 208.965 180.546C225.095 179.26 234.741 198.247 222.739 209.901C208.502 223.73 188.521 232.221 168.406 234.591Z" fill="white"/>
<path d="M187.273 468.077L187.527 486.458L176.632 486.6L176.348 466.223L187.273 468.077Z" fill="#EAC5B0"/>
<path d="M177.604 483.722L187.078 486.854L189.905 489.897L189.426 497.103L163.808 499.091C161.647 495.944 163.052 491.668 166.664 490.427L167.853 490.016L177.604 483.722Z" fill="#212940"/>
<path d="M265.795 450.458L273.011 467.366L262.984 471.627L254.982 452.887L265.795 450.458Z" fill="#EAC5B0"/>
<path d="M263.171 471.949C263.53 471.553 263.949 471.171 264.435 470.82C265.639 469.938 275.352 464.795 276.19 467.112C276.324 467.486 276.279 467.905 276.235 468.301C275.434 474.976 273.872 481.554 271.576 487.871C270.596 490.577 269.108 493.567 266.312 494.24C265.085 494.539 263.799 494.314 262.573 494.038C260.756 493.627 258.976 493.089 257.234 492.423C256.598 492.177 255.925 491.878 255.596 491.287C254.938 490.098 256.09 488.686 257.286 488.043C258.49 487.4 259.956 486.944 260.539 485.711C260.801 485.157 260.838 484.529 260.875 483.924C261.122 479.402 260.352 475.058 263.171 471.949Z" fill="#212940"/>
<path d="M197.337 382.89C200.911 399.231 211.133 410.974 222.051 422.987C234.546 436.741 246.294 451.16 257.234 466.178C261.959 464.205 266.693 462.231 271.419 460.265C267.463 437.302 256.568 416.229 248.126 394.514C242.256 379.422 237.507 363.462 237.246 347.151C237.118 339.041 239.085 331.625 240.14 323.732C241.441 313.962 241.515 303.945 242.697 294.123C243.093 290.834 243.318 286.939 240.783 284.794C239.653 283.837 238.173 283.441 236.722 283.157C182.942 272.744 190.54 351.816 197.337 382.89Z" fill="#314F8F"/>
<path d="M241.149 297.195C241.179 287.283 239.968 277.722 238.113 270.434C222.814 269.612 205.526 271.309 190.398 274.373C175.607 277.371 166.387 280.593 166.282 296.619C166.088 326.116 154.55 351.24 149.577 379.593C146.683 396.069 151.686 410.81 157.227 426.066C163.568 443.528 168.967 461.327 173.394 479.372C178.516 479.342 183.646 479.312 188.768 479.282C193.823 456.535 191.737 432.906 192.17 409.614C192.469 393.422 194.129 376.858 200.082 361.668C206.625 344.969 216.047 351.614 226.859 341.934C237.351 332.515 241.097 314.32 241.149 297.195Z" fill="#314F8F"/>
<path d="M223.779 183.685C225.469 184.993 226.949 186.57 228.422 188.14C229.739 189.538 231.047 190.943 232.363 192.341C236.917 197.193 239.168 204.384 241.12 210.581C251.387 243.217 255.08 287.986 248.418 322.087C223.128 324.27 193.853 317.894 168.616 314.448C166.163 314.111 163.381 313.566 162.11 311.443C161.34 310.157 161.317 308.572 161.317 307.07C161.317 285.422 165.894 262.159 170.186 240.818C171.996 231.81 174.231 222.885 177.088 214.154C180.116 204.907 183.534 194.928 190.623 187.938C198.205 180.456 212.734 176.763 222.223 182.601C222.754 182.93 223.278 183.296 223.779 183.685Z" fill="white"/>
<path d="M221.483 188.327C222.126 185.382 221.999 181.936 222.388 179.402C223.001 179.11 223.584 178.781 224.13 178.437C234.681 171.702 252.374 135.552 224.257 127.457C198.728 120.109 200.052 155.219 205.032 169.863C205.885 172.367 207.021 174.737 208.711 176.785C209.863 178.191 210.124 177.922 209.96 179.559C209.698 182.018 207.791 184.096 207.455 186.63C206.939 190.555 208.36 195.615 209.25 199.413C212.36 197.357 215.464 195.309 218.574 193.253C220.212 192.169 221.034 190.375 221.483 188.327Z" fill="#EAC5B0"/>
<path d="M199.035 156.595C200.598 161.267 202.789 165.73 205.526 169.819C205.376 161.177 206.423 152.514 208.629 144.156C208.794 143.521 208.958 142.796 208.614 142.235C208.293 141.712 207.635 141.518 207.029 141.383C196.276 139.073 196.306 148.455 199.035 156.595Z" fill="#212940"/>
<path d="M227.285 169.617C229.013 172.039 232.789 171.388 235.451 170.05C246.376 164.556 252.814 151.34 250.384 139.357C248.357 129.326 235.713 121.806 233.155 134.237C232.25 138.64 234.935 144.747 234.322 149.636C233.439 156.617 230.179 163.293 227.285 169.617Z" fill="#212940"/>
<path d="M199.147 118.248C197.921 118.733 196.679 119.242 195.363 119.758C192.649 120.819 190.675 121.178 187.878 119.586C187.078 119.13 181.709 114.054 183.003 113C174.441 119.982 181.485 130.178 184.693 137.399C186.861 142.265 187.302 149.127 192.17 152.312C197.524 155.81 201.196 151.385 206.056 149.404C210.341 147.655 214.977 146.713 219.337 145.158C226.575 142.579 237.343 138.042 234.95 128.429C232.154 117.201 220.772 114.405 210.55 115.265C206.176 115.624 202.759 116.82 199.147 118.248Z" fill="#212940"/>
<path d="M205.428 211.829C204.254 219.214 204.262 226.802 203.207 234.232C202.631 238.306 201.727 242.327 201.001 246.379C198.93 257.868 198.234 269.544 197.532 281.198C197.397 283.493 197.255 285.795 197.12 288.098C197.031 289.555 196.44 291.955 197.15 293.353C197.875 294.773 199.67 294.915 201.016 295.468C202.96 296.261 204.777 297.367 206.37 298.735C209.331 297.86 211.32 294.938 212.008 291.925C212.696 288.913 212.315 285.773 211.979 282.701C209.025 255.775 209.548 228.461 213.534 201.67C214.73 202.208 216.181 201.326 216.734 200.138C217.288 198.949 217.19 197.574 217.078 196.266C217.101 196.49 210.857 196.243 210.386 196.221C206.677 196.034 205.57 196.901 205.563 201.02C207.372 201.887 207.036 204.511 206.535 206.454C206.071 208.226 205.712 210.02 205.428 211.829Z" fill="#314F8F"/>
<path d="M219.449 311.45C219.292 311.233 219.135 311.002 219.045 310.755C218.26 308.453 219.232 306.778 219.105 304.356C219.053 303.272 216.637 301.89 218.469 300.559C219.142 300.073 220.975 299.101 222.425 298.077C224.541 296.575 226.321 293.398 227.263 290.61C229.05 285.34 227.944 269.201 234.883 267.407C251.184 263.191 236.05 293.966 235.369 296.956C234.92 298.929 235.982 300.806 235.967 302.764C235.952 304.7 235.444 307.242 234.711 309.028C233.275 312.564 229.454 313.536 226.201 314.709C225.394 315.001 224.841 315.203 224.048 315.091C222.747 314.904 221.849 313.999 220.93 313.132C220.391 312.616 219.883 312.056 219.449 311.45Z" fill="#EAC5B0"/>
<path d="M235.818 195.713C236.393 196.512 237.014 197.716 237.934 199.099C242.772 206.35 244.926 217.42 246.631 225.83C250.272 243.748 249.988 262.48 245.569 280.234C245.404 280.884 245.195 281.594 244.626 281.953C244.066 282.305 243.34 282.185 242.69 282.05C238.637 281.228 234.584 280.406 230.531 279.584C229.656 279.404 228.744 279.21 228.071 278.627C226.762 277.483 226.934 275.442 227.173 273.723C228.774 262.466 228.908 251.006 227.592 239.711C226.972 234.374 224.25 227.811 224.571 222.548C224.863 217.817 227.607 212.711 227.989 207.531C228.213 204.429 228.557 199.809 230.755 197.35C233.679 194.098 234.666 194.12 235.818 195.713Z" fill="white"/>
<path opacity="0.08" d="M109.789 487.893C109.789 491.259 90.2567 493.993 65.8943 493.993C41.5319 493.993 22 491.259 22 487.893C22 484.527 41.5319 481.792 65.8943 481.792C90.2567 481.792 109.789 484.527 109.789 487.893Z" fill="#9DAFBD"/>
<path d="M31.8717 297.725C31.8717 297.725 18.2203 357.889 39.8525 398.91C61.4846 439.93 61.2746 439.72 61.2746 439.72C61.2746 439.72 66.9451 337.484 31.8717 297.725Z" fill="#5BB59B"/>
<path d="M32.7123 455.077C33.9724 462.439 35.6526 470.012 39.433 476.534C43.0033 483.055 48.8839 488.735 56.2346 490.417C59.5949 491.259 62.9553 491.259 66.3156 491.049C70.096 491.049 73.8763 490.628 77.2367 488.735C81.4371 486.21 83.5373 481.582 85.2175 476.954C88.1577 469.171 90.258 461.177 91.7281 453.183C92.5682 448.555 93.1982 443.507 90.888 439.299C87.9477 433.62 81.017 431.306 74.7164 430.254C64.2154 428.571 49.724 427.729 39.643 431.937C30.8221 435.723 31.2421 446.872 32.7123 455.077Z" fill="#D8E4F2"/>
<path d="M56.6537 439.93C65.0546 440.351 74.0855 439.089 79.336 436.354C80.3861 435.723 81.2262 435.092 80.8061 434.461C80.1761 433.62 78.0759 433.199 75.9756 433.199C65.8947 432.147 54.7636 431.726 44.8926 433.409C30.6112 435.723 48.883 439.51 56.6537 439.93Z" fill="#524F63"/>
<path d="M52.2431 283C52.2431 283 45.5225 397.647 61.274 439.72C61.274 439.72 71.565 337.484 52.2431 283Z" fill="#63A590"/>
<path d="M59.3838 438.878H63.1642C68.6247 416.159 84.7963 342.532 76.1854 308.243C76.1854 308.243 48.8828 404.8 55.8134 426.467C57.2836 432.147 58.5437 436.144 59.3838 438.878Z" fill="#5BB59B"/>
</svg>
