<svg width="730" height="599" viewBox="0 0 730 599" fill="none" xmlns="http://www.w3.org/2000/svg">
<rect x="70" width="620" height="560" rx="12" fill="#D8E4F2" fill-opacity="0.3"/>
<path opacity="0.08" d="M721 583.928C721 587.278 700.976 590 676 590C651.024 590 631 587.278 631 583.928C631 580.578 651.024 577.856 676 577.856C700.976 577.856 721 580.578 721 583.928Z" fill="#9DAFBD"/>
<path d="M641.12 394.656C641.12 394.656 627.125 454.536 649.302 495.364C671.479 536.191 671.264 535.982 671.264 535.982C671.264 535.982 677.077 434.227 641.12 394.656Z" fill="#5BB59B"/>
<path d="M641.981 551.266C643.273 558.594 644.996 566.132 648.871 572.622C652.532 579.113 658.56 584.766 666.096 586.441C669.541 587.278 672.986 587.278 676.431 587.069C680.307 587.069 684.182 586.65 687.627 584.766C691.934 582.253 694.087 577.647 695.809 573.041C698.824 565.294 700.977 557.338 702.484 549.382C703.345 544.776 703.991 539.751 701.623 535.564C698.608 529.911 691.503 527.607 685.044 526.561C674.278 524.886 659.422 524.048 649.087 528.236C640.044 532.004 640.474 543.101 641.981 551.266Z" fill="#D8E4F2"/>
<path d="M666.527 536.191C675.139 536.61 684.397 535.354 689.78 532.632C690.857 532.004 691.718 531.376 691.287 530.748C690.641 529.91 688.488 529.491 686.335 529.491C676 528.445 664.589 528.026 654.469 529.701C639.828 532.004 658.56 535.773 666.527 536.191Z" fill="#524F63"/>
<path d="M662.005 380C662.005 380 655.115 494.108 671.263 535.982C671.263 535.982 681.814 434.227 662.005 380Z" fill="#63A590"/>
<path d="M669.326 535.144H673.201C678.799 512.532 695.378 439.252 686.55 405.125C686.55 405.125 658.56 501.226 665.665 522.791C667.172 528.445 668.464 532.423 669.326 535.144Z" fill="#5BB59B"/>
<path fill-rule="evenodd" clip-rule="evenodd" d="M130 60H630V191.974H576.79V287.513H510.856V314.502H457.357V169.303H392.869V349.857H330.983V192.244H282.4V322.059H270.254V295.07H207.501V349.048H183.788V160.937H130.289V314.502H130V60ZM130 439.999V440H630V439.999H130Z" fill="white"/>
<path d="M511.462 574.836C515.643 574.475 520.172 574.836 524.352 575.558C527.488 578.086 531.32 580.252 535.152 581.696C536.197 582.057 537.242 582.779 538.287 583.501C538.984 584.223 539.333 586.028 538.636 586.75C537.939 587.473 536.894 587.834 535.849 587.834C527.836 587.834 519.823 587.112 512.159 585.667C511.811 585.667 511.114 585.306 510.766 585.306C510.417 584.945 510.417 584.584 510.417 584.223C509.372 580.974 509.72 577.363 511.462 574.836Z" fill="#424051"/>
<path d="M497.179 577.003C492.998 576.642 488.47 577.003 484.289 577.725C481.154 580.252 477.321 582.418 473.489 583.862C472.444 584.223 471.399 584.946 470.354 585.668C469.657 586.39 469.309 588.195 470.006 588.917C470.702 589.639 471.747 590 472.793 590C480.805 590 488.47 589.278 496.482 587.834C496.831 587.834 497.527 587.473 497.876 587.473C498.224 587.112 498.224 586.751 498.224 586.39C499.269 583.14 498.572 579.53 497.179 577.003Z" fill="#424051"/>
<path d="M482.412 495.769C481.366 471.219 477.67 447.029 478.018 422.479C477.321 414.175 478.366 405.51 481.154 397.567C481.502 397.206 481.502 396.484 481.85 396.123C482.895 395.04 484.986 395.401 486.379 396.123C500.314 402.26 517.036 400.816 529.578 392.151C532.017 396.123 532.713 401.177 533.41 405.871C534.455 413.453 535.5 421.034 535.849 428.616C535.849 430.421 535.849 431.866 535.849 433.671C535.5 443.058 533.758 452.445 532.365 462.193C531.32 468.33 530.623 474.468 530.623 480.606C530.623 485.66 529.32 489.354 528.275 494.408C525.488 506.684 524.443 531.678 524.443 531.678L520.959 572.115V575.559C520.959 575.559 512.159 578.086 512.159 575.559C511.462 549.564 510.417 523.208 509.72 497.214C509.372 486.382 509.024 475.19 506.237 464.72C497.527 465.803 498.921 496.13 498.572 503.712C497.527 528.263 496.482 552.813 495.437 577.364C491.953 577.364 491.818 577.364 488.334 577.364C486.244 571.587 485.895 565.45 485.547 559.673C484.502 538.011 483.108 517.071 482.412 495.769Z" fill="#EAC5B0"/>
<path d="M520.172 283.118C508.327 284.201 496.831 286.367 486.031 279.868C461.645 309.112 473.489 306.946 471.051 335.468C470.354 341.606 478.367 355.325 478.018 361.102C475.58 390.346 464.432 438.003 465.477 467.247C465.825 475.551 466.173 483.855 468.264 491.437C468.96 493.603 469.657 495.769 471.051 497.213C472.444 498.657 474.534 498.657 476.625 498.657C497.876 497.213 514.249 486.743 539.681 501.907C544.907 449.917 533.41 396.845 530.623 361.463C528.881 336.912 537.939 327.886 533.41 302.253C532.365 296.476 530.972 290.338 528.185 285.645C527.488 284.201 524.004 282.756 525.397 282.756C527.139 282.034 524.352 282.756 520.172 283.118Z" fill="#A1BDEB"/>
<path d="M535.152 188.887C535.152 188.165 534.804 187.804 534.804 187.082C534.107 185.638 534.455 184.555 533.41 183.833C532.017 183.111 530.971 182.028 530.623 180.944C530.623 180.583 531.668 179.139 531.32 178.778C530.971 177.695 529.23 178.056 528.881 177.334C527.836 175.168 528.533 172.641 530.275 171.196C532.017 169.752 534.804 169.752 536.545 170.474C537.939 171.196 538.984 172.641 540.029 174.085C540.726 175.168 541.423 176.251 541.771 177.334C543.165 181.666 540.726 187.082 542.12 191.415C542.468 192.137 542.468 192.859 542.12 193.22C542.12 193.22 541.771 193.581 541.423 193.581C540.378 193.942 536.545 195.025 535.849 194.303C535.5 193.581 535.5 192.498 535.5 191.776C535.5 190.331 535.152 189.609 535.152 188.887Z" fill="#EAC5B0"/>
<path d="M529.578 179.139C529.578 178.778 529.578 178.778 529.578 178.417V178.056C529.578 177.694 530.275 177.333 530.623 177.333C530.971 177.333 531.32 176.972 531.668 176.972C532.017 176.972 532.017 176.972 532.365 176.972L532.713 177.333C533.062 177.694 533.41 178.056 533.41 178.056C533.758 178.417 533.758 178.417 533.758 178.778C534.107 179.5 533.758 180.583 533.062 181.305C532.713 181.666 531.32 182.388 530.623 182.027C530.275 181.666 529.926 181.305 529.926 180.944C529.926 180.222 529.578 179.861 529.578 179.139Z" fill="#DDD2C5"/>
<path d="M480.457 234.378C481.154 232.212 482.199 229.685 483.592 227.879C487.773 220.659 499.269 211.633 507.63 218.131C509.372 219.576 510.766 221.742 512.159 223.908C513.553 226.074 514.598 228.24 515.643 230.768C517.385 235.1 517.733 240.516 516.688 245.209C515.643 249.542 513.204 253.513 510.766 257.485C507.63 262.178 503.798 267.233 498.224 268.677C490.908 270.482 483.244 265.066 480.457 257.846C476.973 249.903 478.018 241.599 480.457 234.378Z" fill="#EAC5B0"/>
<path d="M534.804 251.346C533.062 261.816 530.275 272.647 530.972 283.117C530.972 285.645 532.017 288.533 534.107 288.894C536.197 289.616 538.288 287.45 539.333 285.645C540.726 283.479 541.771 280.951 542.816 278.424C543.862 275.536 544.21 272.286 544.558 269.037C547.694 245.208 550.481 221.019 546.649 197.19C546.3 194.302 545.603 191.414 543.513 189.609C541.771 188.164 538.984 187.803 536.546 188.164C532.713 188.525 533.41 189.609 534.107 193.219C535.152 199.718 536.197 206.216 536.546 212.715C537.591 225.712 536.894 238.71 534.804 251.346Z" fill="#587BC9"/>
<path d="M532.017 351.716C521.565 354.243 510.766 353.882 499.966 354.604C492.302 355.326 484.637 356.41 476.973 356.771H476.625V357.132C476.625 359.659 477.322 359.298 479.412 359.298C481.502 359.298 483.592 358.937 485.683 358.937C489.863 358.576 494.044 358.215 497.876 357.854C501.011 357.493 504.147 357.493 507.282 357.132C514.598 356.771 521.914 357.132 528.881 357.132C529.578 357.132 530.275 357.132 530.972 356.771C531.668 356.41 531.668 355.326 531.668 354.604C531.668 353.521 531.668 352.799 532.017 351.716Z" fill="#314F8F"/>
<path d="M517.036 350.993C517.733 353.521 517.733 356.409 517.733 358.936C517.036 359.297 515.991 359.297 515.295 359.658H514.946C514.598 359.658 514.598 359.297 514.598 358.936C514.249 356.77 513.901 354.604 513.901 352.438C513.901 351.354 513.553 351.354 514.249 350.632C514.598 350.993 517.036 350.993 517.036 350.993Z" fill="#587BC9"/>
<path d="M497.527 358.936C497.179 357.131 497.179 355.326 496.831 353.521C496.482 351.716 495.089 352.438 493.695 352.799C493.695 352.799 493.695 352.799 493.347 352.799C493.347 352.799 493.347 352.799 493.347 353.16C493.347 354.243 493.695 355.326 493.695 356.409C494.044 357.853 494.044 359.297 494.044 360.742C495.089 361.103 496.482 360.742 497.527 360.019C497.527 360.019 497.876 360.019 497.876 359.658C497.876 358.936 497.876 358.936 497.527 358.936Z" fill="#587BC9"/>
<path d="M442.135 341.245C441.09 340.162 440.045 339.079 439.697 337.996C439.348 336.913 439 335.469 439 334.386C439 334.025 439 333.303 439 332.941C439 332.58 439.348 332.219 439.697 332.219C440.742 331.497 442.135 330.775 443.181 331.497C444.574 332.219 445.271 334.025 446.664 334.386C447.709 334.747 449.103 334.386 449.451 335.108C449.8 335.469 449.8 335.83 449.8 336.191C449.8 339.079 449.103 342.69 450.496 345.217C450.845 345.939 451.193 346.3 450.845 347.022C450.845 347.383 450.496 347.383 450.148 347.383C447.709 348.466 447.361 348.105 445.968 345.939C444.922 344.134 443.529 342.69 442.135 341.245Z" fill="#EAC5B0"/>
<path d="M446.664 353.16C448.058 355.326 449.451 357.492 450.845 359.658C452.587 362.186 454.329 365.074 457.464 365.796C461.296 366.518 464.431 363.63 467.218 360.741C470.702 356.77 473.838 352.799 475.58 347.744C476.276 345.939 476.625 343.773 476.973 341.606C479.063 330.414 483.592 319.583 488.469 309.474C489.863 306.586 491.605 302.614 489.863 299.726C488.469 297.199 484.986 296.477 482.199 297.56C479.412 298.643 477.67 301.17 476.276 303.697C468.96 315.973 470.005 331.858 461.993 343.773C460.599 345.578 459.903 350.271 457.812 350.993C455.722 351.715 452.935 345.217 451.541 343.412C451.193 342.689 450.845 341.967 450.148 341.245C449.8 340.523 446.664 343.05 445.967 343.412C442.484 345.578 444.922 350.632 446.664 353.16Z" fill="#587BC9"/>
<path d="M467.218 279.146C468.612 277.341 470.702 275.536 471.399 273.009C472.096 271.203 471.399 269.037 471.747 267.232C471.747 265.066 472.444 262.899 474.534 262.177C476.276 261.455 478.018 262.538 479.412 263.983C480.108 263.622 481.153 263.26 481.85 262.899C486.379 261.094 489.515 256.401 490.908 251.346C492.302 246.292 491.953 241.237 491.605 235.822C491.256 232.572 490.908 228.962 490.211 225.712C486.031 222.463 483.244 216.687 487.424 211.632C491.953 206.216 500.314 204.05 506.933 205.855C514.598 208.022 530.275 217.048 530.623 225.351C530.971 231.489 529.926 237.627 532.017 243.403C534.107 248.458 528.184 249.541 532.713 252.79C533.758 253.512 534.455 254.235 534.804 255.318C535.5 256.762 535.152 258.206 536.197 259.289C536.545 259.65 537.242 260.011 537.939 260.372C541.423 261.455 545.952 263.26 545.952 267.232C545.952 268.676 545.255 270.12 546.3 271.564C546.648 272.286 547.345 272.647 548.042 273.009C549.435 274.453 549.087 276.619 548.39 278.424C547.693 280.229 546.648 281.673 546.648 283.84C546.648 285.284 547.345 286.367 547.345 287.811C547.345 290.338 545.952 292.866 543.513 293.588C541.423 294.31 538.287 293.949 537.591 296.115C537.242 296.837 537.242 297.559 536.894 298.281C536.545 298.642 535.849 299.003 535.152 299.364C530.623 300.447 525.397 296.476 521.914 299.725C519.475 301.892 519.823 305.863 517.385 308.029C514.598 310.556 509.72 308.39 506.933 310.918C506.237 311.64 505.54 312.723 504.495 313.084C502.404 314.528 499.269 312.723 497.876 310.195C496.482 308.029 495.785 305.141 493.695 303.336C489.863 300.447 484.637 302.614 480.108 302.614C476.973 302.614 473.838 301.892 471.051 299.725C470.005 299.003 469.309 298.281 468.96 297.198C467.567 294.671 469.309 291.06 467.915 288.533C467.567 287.811 466.522 287.089 466.173 286.367C464.431 283.84 465.477 280.951 467.218 279.146Z" fill="#4A4549"/>
<path d="M322.867 283.981C322.867 285.961 323.314 288.338 324.652 289.922C325.991 291.506 329.115 292.299 330.453 290.714C331.346 289.922 331.346 288.338 331.346 287.149C331.346 278.039 331.346 269.325 330.007 260.215C329.561 256.65 329.115 253.086 331.792 250.313C333.131 248.729 335.362 247.936 337.147 246.748C338.932 245.56 340.271 243.183 338.932 241.599C338.486 240.807 337.593 240.411 337.593 239.222C337.147 238.034 338.486 236.846 339.378 236.054C340.271 234.865 340.271 233.281 338.932 232.885C337.593 235.262 335.808 237.242 333.577 239.222C333.131 239.619 332.238 240.015 331.792 240.411C330.453 240.411 329.561 239.619 328.668 238.826C327.776 238.034 325.545 238.43 325.545 239.222C328.668 245.164 325.991 253.482 325.099 259.423C323.314 267.741 322.421 276.059 322.867 283.981Z" fill="#EAC5B0"/>
<path d="M336.701 274.474C335.362 273.682 334.023 273.682 332.684 273.682C328.668 273.682 325.098 273.682 321.082 273.286C319.744 273.286 318.405 273.286 317.512 274.474C317.066 275.663 318.405 276.851 319.297 278.039C322.867 281.604 321.975 287.149 321.082 291.902C320.636 293.091 320.19 294.675 318.851 295.071C316.62 295.863 314.835 293.487 314.389 291.506C311.711 285.169 309.034 278.831 306.803 272.494C305.91 269.721 304.572 266.949 302.787 264.572C294.754 255.462 279.582 262.988 285.83 273.286C292.97 284.773 303.679 295.071 312.158 305.765C315.728 310.122 320.19 314.876 325.991 314.479C326.437 314.479 327.33 314.479 327.776 314.083C328.222 313.687 332.238 311.707 332.238 310.915C332.684 302.597 333.131 295.863 333.577 287.545C333.577 285.169 332.684 282.396 334.023 280.02C335.362 278.039 335.362 276.851 338.039 277.247C338.486 276.455 338.039 274.87 336.701 274.474Z" fill="#587BC9"/>
<path d="M225.588 345.376C227.819 329.929 234.067 315.273 238.083 300.222C241.206 289.131 240.07 265.495 242.301 254.405C244.577 253.99 254.135 251.501 254.135 251.501C254.135 251.501 255.509 246.09 255.955 245.694C256.402 245.298 257.785 245.279 258.231 245.279C266.263 245.675 267.534 247.542 275.566 248.73C281.814 249.918 278.819 251.632 284.174 254.405C285.512 255.197 283.719 257.308 293.276 259.382C295.552 260.212 297.432 259.821 297.878 261.405C299.663 274.872 305.018 288.339 307.249 301.806C309.034 310.52 309.034 319.63 309.48 328.74C309.927 338.247 310.373 347.753 310.819 357.259C309.48 364.325 307.249 366.765 298.283 368.058C290.697 366.474 288.061 367.161 280.475 366.765C263.072 365.577 244.275 364.785 229.103 357.259C227.764 356.467 226.927 352.506 226.034 351.318C225.142 349.337 225.588 347.357 225.588 345.376Z" fill="#D8E4F2"/>
<path d="M293.166 280.21L291.732 280.309L291.888 282.18L293.322 282.081L293.166 280.21Z" fill="#587BC9"/>
<path d="M295.518 284.554L290.149 284.926L289.565 277.922L294.934 277.55L295.518 284.554V284.554ZM290.392 284.551L295.214 284.217L294.69 277.927L289.867 278.261L290.392 284.551Z" fill="#587BC9"/>
<path d="M292.652 280.933L292.38 280.951L292.735 285.218L293.008 285.199L292.652 280.933Z" fill="#587BC9"/>
<path d="M290.906 277.288L290.633 277.306L291.044 282.239L291.317 282.22L290.906 277.288Z" fill="#587BC9"/>
<path d="M293.776 277.089L293.504 277.108L293.915 282.04L294.188 282.021L293.776 277.089Z" fill="#587BC9"/>
<path d="M291.057 276.397L290.338 276.447L290.416 277.384L291.135 277.334L291.057 276.397Z" fill="#587BC9"/>
<path d="M292.491 276.298L291.772 276.347L291.851 277.284L292.569 277.235L292.491 276.298Z" fill="#587BC9"/>
<path d="M293.926 276.198L293.207 276.248L293.285 277.185L294.004 277.135L293.926 276.198Z" fill="#587BC9"/>
<path d="M291.797 285.283L291.079 285.332L291.157 286.269L291.875 286.219L291.797 285.283Z" fill="#587BC9"/>
<path d="M293.232 285.183L292.513 285.233L292.591 286.17L293.31 286.12L293.232 285.183Z" fill="#587BC9"/>
<path d="M294.666 285.084L293.948 285.134L294.026 286.07L294.744 286.021L294.666 285.084Z" fill="#587BC9"/>
<path d="M296.112 278.634L295.393 278.683L295.471 279.62L296.19 279.57L296.112 278.634Z" fill="#587BC9"/>
<path d="M296.268 280.505L295.549 280.555L295.627 281.492L296.346 281.442L296.268 280.505Z" fill="#587BC9"/>
<path d="M296.423 282.376L295.705 282.426L295.783 283.362L296.501 283.313L296.423 282.376Z" fill="#587BC9"/>
<path d="M289.3 279.105L288.581 279.155L288.659 280.092L289.378 280.042L289.3 279.105Z" fill="#587BC9"/>
<path d="M289.456 280.977L288.737 281.026L288.815 281.963L289.534 281.913L289.456 280.977Z" fill="#587BC9"/>
<path d="M289.612 282.848L288.893 282.898L288.971 283.835L289.69 283.785L289.612 282.848Z" fill="#587BC9"/>
<path d="M264.41 192.484C269.319 191.692 274.674 191.692 280.029 191.296C285.83 196.445 289.4 203.179 291.185 209.912C292.523 215.458 293.416 221.399 291.631 226.944C290.292 232.49 286.722 238.035 281.367 240.807C273.335 245.561 261.733 244.768 253.701 239.619C245.669 234.47 241.206 225.756 240.314 217.042C239.867 209.516 241.652 202.387 244.776 195.653C250.131 194.069 258.163 193.277 264.41 192.484Z" fill="#EAC5B0"/>
<rect x="257.321" y="240.716" width="20.9361" height="11.6142" fill="#EAC5B0"/>
<path d="M274.16 257.723C272.704 256.727 269.002 250.395 267.333 247.353L277.346 249.842L277.802 256.064C277.195 257.032 275.617 258.718 274.16 257.723Z" fill="#EAC5B0"/>
<path d="M304.125 507.773C305.464 528.37 306.803 537.48 309.034 558.077C305.91 557.681 305.018 557.68 301.894 557.284C298.324 545.402 294.754 544.213 292.523 531.935C290.738 523.221 288.507 514.903 286.276 506.585C280.029 483.215 273.781 459.45 267.534 435.685C264.857 425.386 262.179 414.692 257.717 404.789C253.255 394.095 247.454 378.647 263.518 373.498C272.443 370.726 284.937 372.31 291.185 379.044C298.324 386.965 297.432 399.244 298.324 408.75C299.217 424.198 300.109 440.042 301.002 455.489C302.34 472.917 303.233 490.345 304.125 507.773Z" fill="#314F8F"/>
<path d="M266.196 385.381C265.303 383.4 263.964 381.024 261.733 379.836C259.056 378.251 255.486 378.251 251.916 378.647C247.007 379.043 241.653 379.439 236.744 380.232C232.728 381.024 228.266 381.816 225.588 384.589C223.357 387.361 223.357 390.926 223.357 394.491C224.249 419.841 225.142 445.191 226.927 470.54C228.266 493.91 234.067 509.753 236.298 533.123C237.19 542.233 237.636 540.648 239.868 557.284C239.868 558.472 239.868 557.68 240.314 558.472C240.76 558.472 241.206 558.076 241.653 558.076C243.438 558.076 242.991 559.265 244.776 559.265C245.222 559.265 247.007 558.863 247.007 558.863C246.853 556.789 247.007 555.304 247.007 553.323C250.577 507.773 254.593 476.482 264.411 431.723C268.427 416.672 272.443 400.036 266.196 385.381Z" fill="#314F8F"/>
<path d="M300.109 370.726C300.109 369.142 300.109 367.954 299.663 366.765C298.77 365.181 296.539 363.993 294.754 363.201C277.351 355.675 257.271 352.11 237.636 353.298C235.851 353.298 233.62 353.694 232.281 354.487C230.05 355.675 229.604 358.051 229.158 360.032C227.819 366.765 226.48 373.499 224.695 379.836C223.803 384.193 222.911 388.947 225.588 392.907C226.927 394.888 229.604 396.868 231.835 398.057C247.453 407.167 267.98 410.335 286.276 406.771C293.416 405.186 297.432 403.206 298.324 396.868C298.77 388.55 299.217 379.44 300.109 370.726Z" fill="#314F8F"/>
<path d="M228.266 387.758C229.604 387.758 231.389 387.361 232.728 386.965C235.405 386.173 237.637 384.985 239.422 383.797C242.099 381.816 242.991 378.647 243.884 375.875C245.669 371.122 247.9 365.973 247.454 360.427H246.561C247.008 365.576 245.223 370.726 242.991 375.479C241.653 378.251 240.314 381.816 238.529 383.004C236.744 384.193 234.959 385.381 232.282 385.777C229.158 386.569 226.927 386.569 224.696 385.777L224.25 386.569C225.588 387.361 226.927 387.758 228.266 387.758Z" fill="#A1BDEB"/>
<path d="M296.986 392.115L297.432 391.322C293.862 388.55 291.185 384.589 290.292 379.836C289.4 375.479 289.4 370.726 289.846 366.369H288.954C288.507 370.726 288.507 375.479 289.4 380.232C290.738 384.985 293.416 389.342 296.986 392.115Z" fill="#A1BDEB"/>
<path d="M234.513 194.465C235.851 192.088 237.636 189.712 239.421 187.731C245.222 182.582 253.255 179.809 261.733 179.413C269.765 179.017 278.244 181.394 285.384 184.959C288.507 186.543 291.185 188.523 293.416 191.296C296.986 196.049 297.878 201.991 297.432 207.932C296.986 213.477 296.539 222.983 292.077 227.736C292.077 221.795 293.416 217.834 292.077 213.873C290.738 209.12 289.4 204.367 286.276 200.406C284.937 198.822 279.582 198.03 277.351 198.426C277.798 201.198 277.351 203.971 276.013 206.348C272.889 201.198 265.303 199.218 258.609 200.01C255.486 200.406 251.916 201.198 249.238 203.179C244.776 206.348 242.991 211.893 243.437 216.646C243.437 221.795 244.776 226.548 244.776 231.697C240.314 230.113 238.529 225.756 237.19 221.795C236.298 219.022 235.405 216.25 234.513 213.477C232.728 206.744 231.389 200.01 234.513 194.465Z" fill="#524F63"/>
<path d="M220.233 184.167C220.679 181.394 221.572 178.225 223.357 175.849C226.034 172.68 230.497 171.096 234.959 170.304C239.421 169.511 244.33 170.304 248.346 172.284C259.056 178.621 251.916 195.257 241.652 199.218C234.513 201.991 225.588 199.614 222.018 193.673C219.787 191.296 219.787 187.732 220.233 184.167Z" fill="#524F63"/>
<path d="M272.889 251.106C272.889 250.314 272.889 249.918 272.443 249.522C271.997 249.126 271.55 249.126 271.55 249.126C266.642 247.541 261.287 246.353 255.932 245.561C255.486 246.749 254.593 247.541 254.147 248.73C254.147 249.126 253.701 249.522 253.701 249.918C253.701 250.314 254.147 250.71 254.147 251.106C255.486 252.69 257.271 253.879 259.502 255.463C263.518 258.236 268.427 262.593 273.335 263.781C274.228 262.197 274.616 259.722 274.616 258.138C274.616 255.365 272.889 253.087 272.889 251.106Z" fill="#587BC9"/>
<path d="M275.566 250.71C275.566 249.918 276.013 249.126 276.459 248.73C277.351 247.937 278.244 247.937 279.582 248.333C280.475 248.73 281.367 249.126 282.26 249.918C284.045 251.502 285.83 252.69 288.061 254.275L288.507 254.671C288.507 255.067 288.507 255.067 288.061 255.463C286.722 256.651 285.384 257.84 284.045 259.028C283.152 259.82 281.814 261.008 280.475 261.404C277.798 262.593 275.12 262.593 275.12 259.82C274.674 256.651 275.12 253.483 275.566 250.71Z" fill="#587BC9"/>
<path d="M276.337 265.971C276.843 277.242 275.325 288.512 273.807 299.783C273.807 300.252 273.301 300.722 272.795 300.252C273.301 293.678 273.807 287.103 274.313 280.529C274.313 274.894 274.313 268.789 274.313 263.153C274.313 262.214 273.301 256.109 275.325 257.518C276.843 258.457 276.337 264.562 276.337 265.971Z" fill="#333333"/>
<path d="M277.272 265.911C278.866 273.805 278.957 281.891 279.047 289.977C279.098 290.308 278.773 290.687 278.346 290.404C278.012 285.723 277.677 281.042 277.342 276.361C276.733 272.39 276.074 268.088 275.465 264.117C275.363 263.455 273.952 259.249 275.607 260.05C276.836 260.568 277.12 264.918 277.272 265.911Z" fill="#333333"/>
<path d="M308.57 554.907C309.016 554.907 309.909 555.303 310.355 555.699C310.801 556.095 310.801 556.491 310.801 556.888C311.694 560.848 312.586 564.413 313.032 568.374C313.479 570.355 313.479 572.335 314.371 573.919C316.156 577.484 319.726 580.257 323.742 581.841C326.866 583.03 330.435 583.822 334.005 584.218C334.898 584.218 336.237 584.218 337.129 585.406C337.575 586.594 336.683 588.179 336.237 588.971C334.898 590.159 332.22 590.159 330.435 589.763C324.634 588.575 319.28 586.99 313.479 585.406C312.14 585.01 310.801 584.614 309.909 583.822C309.462 583.426 309.016 582.633 308.57 582.237C307.231 580.257 306.339 577.88 305 575.9C304.554 578.673 304.108 581.049 303.215 583.426C302.769 583.426 301.876 583.426 301.43 583.426C301.876 573.523 301.005 565.602 300.558 555.699C302.79 555.699 306.339 554.115 308.57 554.907Z" fill="#424051"/>
<path d="M295.647 348.147C284.491 340.225 272.889 332.7 261.733 324.778C261.287 324.382 260.394 323.986 259.948 323.986C259.056 323.986 258.163 324.778 257.271 325.57C256.378 326.758 255.04 327.947 255.04 329.531C255.04 332.304 257.717 334.284 259.948 335.472C271.55 342.206 283.152 348.543 296.093 352.9C302.34 354.881 309.48 356.465 315.281 359.634C316.62 360.426 317.959 361.218 319.297 361.614C320.636 362.01 322.421 361.614 323.76 360.426C324.652 359.238 324.652 357.257 324.206 356.069C323.314 352.9 321.529 349.335 318.405 349.335C316.62 349.335 314.835 350.128 313.05 350.524C310.819 351.316 310.373 350.524 308.142 350.524C306.357 350.524 305.018 351.316 303.233 351.316C300.109 350.92 297.878 349.335 295.647 348.147Z" fill="#EAC5B0"/>
<path d="M227.819 287.151C226.927 291.112 226.034 295.073 226.034 299.43C226.034 302.599 226.927 305.767 227.373 308.936C228.266 313.293 229.158 317.254 232.282 320.819C237.19 326.364 245.669 327.552 252.362 331.117C251.47 332.702 250.577 334.286 251.024 335.87C251.47 337.455 253.701 338.643 255.04 337.455C255.486 337.059 255.932 336.663 255.932 335.87C257.717 332.306 259.948 328.741 262.626 325.572C263.964 323.988 265.303 322.403 265.749 320.819C266.196 318.838 265.303 316.462 263.518 316.066C261.733 317.65 263.518 316.858 261.733 318.442C261.287 318.838 260.841 319.235 260.395 319.235C259.502 319.631 258.61 318.838 257.717 318.442C256.378 317.254 255.04 316.462 253.701 315.274C252.809 314.481 251.47 313.689 251.024 312.501C250.577 311.709 250.577 310.521 250.577 309.332C251.47 297.846 255.932 290.32 258.61 279.229C259.502 276.061 259.948 272.892 259.056 269.723C257.717 264.178 252.809 259.821 248.346 255.86C247.454 255.068 246.561 254.276 245.223 254.276C244.33 253.88 243.438 254.276 242.545 254.276C234.959 256.256 232.282 260.217 231.835 266.554C230.497 273.288 229.158 280.418 227.819 287.151Z" fill="#587BC9"/>
<path d="M268.427 218.625C264.857 217.437 261.287 215.457 259.056 213.08C257.717 213.872 257.271 215.457 256.824 217.041C255.932 224.171 259.502 231.3 265.303 235.657C262.625 235.657 259.948 235.261 257.717 235.261C257.271 235.261 256.824 235.261 256.378 235.657C255.932 236.053 255.932 236.449 256.378 236.845C257.271 239.222 258.609 241.599 259.948 243.579C255.039 243.183 250.131 240.806 246.561 237.638C242.991 234.469 240.314 230.508 237.636 226.547C235.405 222.586 233.174 218.229 232.281 213.872C231.389 209.515 232.281 204.366 234.959 200.801C238.529 196.444 244.33 194.068 250.577 192.879C254.147 192.087 258.163 191.691 261.733 192.483C263.964 192.879 267.98 194.068 269.319 196.048C270.658 198.029 267.98 200.405 267.088 202.386C264.857 207.535 265.303 213.872 268.427 218.625Z" fill="#524F63"/>
<path d="M251.006 565.602C251.452 568.374 251.898 571.543 253.237 574.316C255.468 578.673 260.823 580.653 265.731 582.237C266.178 582.237 267.07 582.633 267.07 583.029C267.516 583.426 267.516 583.822 267.516 584.218C267.516 585.406 267.516 586.99 267.962 588.179C267.962 588.575 267.962 588.575 267.962 588.575C267.962 588.971 267.516 588.971 267.07 588.971C261.715 588.575 255.914 588.971 250.559 589.367C249.667 589.367 248.774 589.367 247.882 588.971C246.543 588.575 246.543 586.99 246.543 585.802C246.543 584.614 246.989 583.426 246.989 582.237C246.543 581.049 245.651 579.861 244.312 580.257C243.866 582.633 243.866 585.406 244.758 587.783C243.866 588.179 242.527 588.179 241.188 588.179C241.635 581.445 242.081 574.712 240.742 567.978C240.296 565.602 237.54 560.056 238.878 557.68C240.742 557.68 243.866 557.68 246.097 557.68C248.774 557.68 249.221 558.472 250.113 560.848C250.113 562.433 250.559 564.017 251.006 565.602Z" fill="#424051"/>
<path opacity="0.08" d="M287 599C333.392 599 371 594.075 371 588C371 581.925 333.392 577 287 577C240.608 577 203 581.925 203 588C203 594.075 240.608 599 287 599Z" fill="#9DAFBD"/>
<path opacity="0.08" d="M503 599C549.392 599 587 594.075 587 588C587 581.925 549.392 577 503 577C456.608 577 419 581.925 419 588C419 594.075 456.608 599 503 599Z" fill="#9DAFBD"/>
<path d="M143.547 291.748L150 288.829C149.795 286.422 149.488 284.015 149.027 281.608C148.566 279.201 148.054 276.845 147.388 274.541L140.321 274.08C132.281 273.568 127.979 264.401 132.69 257.897L136.839 252.11C134.073 248.167 130.949 244.428 127.467 241.048L121.116 244.172C113.896 247.706 105.599 241.97 106.419 233.981L107.136 226.965C102.731 224.865 98.1734 223.226 93.5131 222.048L89.5698 227.938C85.1144 234.595 75.0256 233.776 71.748 226.453L68.829 220C66.422 220.205 64.015 220.512 61.6081 220.973C59.2011 221.434 56.8453 221.946 54.5408 222.612L54.0799 229.679C53.5678 237.719 44.4008 242.021 37.8969 237.31L32.1099 233.161C28.1666 235.927 24.4281 239.051 21.0481 242.533L24.1721 248.884C27.7057 256.104 21.9699 264.401 13.9809 263.581L6.96482 262.864C4.86513 267.269 3.22636 271.827 2.04848 276.487L7.93786 280.43C14.5954 284.886 13.776 294.974 6.4527 298.252L-3.27743e-06 301.171C0.204845 303.578 0.512098 305.985 0.973006 308.392C1.43391 310.799 1.94604 313.155 2.6118 315.459L9.67905 315.92C17.7193 316.432 22.0212 325.599 17.3097 332.103L13.1615 337.89C15.9269 341.833 19.0509 345.572 22.5333 348.952L28.8836 345.828C36.1045 342.294 44.4008 348.03 43.5814 356.019L42.8644 363.035C47.2687 365.135 51.8266 366.774 56.4868 367.952L60.4302 362.062C64.8856 355.405 74.9744 356.224 78.252 363.547L81.171 370C83.578 369.795 85.985 369.488 88.3919 369.027C90.7989 368.566 93.1547 368.054 95.4592 367.388L95.9201 360.321C96.4322 352.281 105.599 347.979 112.103 352.69L117.89 356.839C121.833 354.073 125.572 350.949 128.952 347.467L125.828 341.116C122.294 333.896 128.03 325.599 136.019 326.419L143.035 327.136C145.135 322.731 146.774 318.173 147.952 313.513L142.062 309.57C135.405 305.114 136.224 295.026 143.547 291.748ZM80.4541 325.394C63.7077 328.416 47.6784 317.354 44.6057 300.608C41.5841 283.861 52.646 267.832 69.3923 264.759C86.1386 261.738 102.168 272.8 105.241 289.546C108.313 306.292 97.2004 322.322 80.4541 325.394Z" fill="#587BC9"/>
<path d="M98.8965 452.545L101.248 450.994C101.013 450.053 100.73 449.113 100.448 448.219C100.119 447.279 99.79 446.386 99.3668 445.539L96.5455 445.774C93.348 446.056 91.0909 442.718 92.5486 439.85L93.8182 437.31C92.5016 435.9 91.0439 434.63 89.4451 433.502L87.1411 435.1C84.5078 436.934 80.8871 435.194 80.6991 431.95L80.558 429.129C78.6771 428.564 76.7962 428.188 74.8683 428L73.6928 430.586C72.3291 433.502 68.3323 433.784 66.5454 431.103L64.9937 428.752C64.0533 428.987 63.1129 429.27 62.2194 429.552C61.279 429.881 60.3856 430.21 59.5392 430.633L59.7743 433.455C60.0564 436.652 56.7179 438.909 53.8495 437.451L51.3103 436.182C49.8997 437.498 48.6301 438.956 47.5016 440.555L49.1003 442.859C50.9342 445.492 49.1944 449.113 45.9498 449.301L43.1285 449.442C42.5643 451.323 42.1881 453.204 42 455.132L44.5862 456.307C47.5016 457.671 47.7837 461.668 45.1035 463.455L42.7524 465.006C42.9875 465.947 43.2696 466.887 43.5517 467.781C43.8809 468.721 44.21 469.614 44.6332 470.461L47.4545 470.226C50.652 469.944 52.9091 473.282 51.4514 476.15L50.1818 478.69C51.4984 480.1 52.9561 481.37 54.5548 482.498L56.8589 480.9C59.4922 479.066 63.1128 480.806 63.3009 484.05L63.442 486.871C65.3229 487.436 67.2038 487.812 69.1316 488L70.3072 485.414C71.6708 482.498 75.6677 482.216 77.4545 484.897L79.0063 487.248C79.9467 487.013 80.8871 486.73 81.7806 486.448C82.721 486.119 83.6144 485.79 84.4608 485.367L84.2257 482.545C83.9436 479.348 87.2821 477.091 90.1505 478.549L92.6896 479.818C94.1003 478.502 95.3699 477.044 96.4984 475.445L94.8997 473.141C93.0658 470.508 94.8056 466.887 98.0501 466.699L100.871 466.558C101.436 464.677 101.812 462.796 102 460.868L99.4138 459.693C96.4514 458.282 96.1693 454.285 98.8965 452.545ZM76.0439 469.614C69.6019 471.824 62.6426 468.439 60.3856 461.997C58.1756 455.555 61.5611 448.596 68.0031 446.339C74.4451 444.129 81.4044 447.514 83.6614 453.956C85.8715 460.398 82.4389 467.404 76.0439 469.614Z" fill="#96BFEE"/>
<path d="M125.995 446.5C127.746 446.741 129.546 446.933 131.346 446.981C133.097 447.029 134.849 446.981 136.551 446.885L138.643 438.086L147.351 435.634L153.822 442.029C156.984 440.442 159.903 438.471 162.578 436.211L159.027 427.892L164.622 420.824L173.67 422.219C175.178 419.238 176.395 416.064 177.222 412.746L169.438 408.034L169.827 399.091L178 395.004C177.465 391.494 176.492 388.128 175.178 384.955L166.032 385.676L161.07 378.223L165.254 370.193C162.773 367.741 160 365.578 156.984 363.75L150.027 369.616L141.514 366.491L140.103 357.548C138.303 357.259 136.503 357.067 134.605 357.019C132.903 356.971 131.2 357.019 129.546 357.115L127.405 365.914L118.697 368.318L112.324 361.875C109.162 363.462 106.195 365.433 103.519 367.645L107.022 376.011L101.427 383.031L92.3784 381.589C90.8216 384.666 89.5568 387.936 88.7297 391.35L96.5622 396.062L96.173 405.005L88 409.092C88.5838 412.602 89.5567 415.92 90.8703 419.141L100.016 418.42L105.076 425.873L100.892 433.903C103.373 436.355 106.146 438.519 109.162 440.346L116.07 434.48L124.584 437.557L125.995 446.5ZM110.524 400.485C111.351 388.224 122.103 378.993 134.508 379.81C146.914 380.627 156.254 391.254 155.427 403.515C154.6 415.776 143.849 425.007 131.443 424.19C119.038 423.373 109.697 412.746 110.524 400.485Z" fill="#305399"/>
<path d="M650.897 155.545L653.248 153.994C653.013 153.053 652.73 152.113 652.448 151.219C652.119 150.279 651.79 149.386 651.367 148.539L648.545 148.774C645.348 149.056 643.091 145.718 644.549 142.85L645.818 140.31C644.502 138.9 643.044 137.63 641.445 136.502L639.141 138.1C636.508 139.934 632.887 138.194 632.699 134.95L632.558 132.129C630.677 131.564 628.796 131.188 626.868 131L625.693 133.586C624.329 136.502 620.332 136.784 618.545 134.103L616.994 131.752C616.053 131.987 615.113 132.27 614.219 132.552C613.279 132.881 612.386 133.21 611.539 133.633L611.774 136.455C612.056 139.652 608.718 141.909 605.85 140.451L603.31 139.182C601.9 140.498 600.63 141.956 599.502 143.555L601.1 145.859C602.934 148.492 601.194 152.113 597.95 152.301L595.129 152.442C594.564 154.323 594.188 156.204 594 158.132L596.586 159.307C599.502 160.671 599.784 164.668 597.103 166.455L594.752 168.006C594.987 168.947 595.27 169.887 595.552 170.781C595.881 171.721 596.21 172.614 596.633 173.461L599.455 173.226C602.652 172.944 604.909 176.282 603.451 179.15L602.182 181.69C603.498 183.1 604.956 184.37 606.555 185.498L608.859 183.9C611.492 182.066 615.113 183.806 615.301 187.05L615.442 189.871C617.323 190.436 619.204 190.812 621.132 191L622.307 188.414C623.671 185.498 627.668 185.216 629.455 187.897L631.006 190.248C631.947 190.013 632.887 189.73 633.781 189.448C634.721 189.119 635.614 188.79 636.461 188.367L636.226 185.545C635.944 182.348 639.282 180.091 642.15 181.549L644.69 182.818C646.1 181.502 647.37 180.044 648.498 178.445L646.9 176.141C645.066 173.508 646.806 169.887 650.05 169.699L652.871 169.558C653.436 167.677 653.812 165.796 654 163.868L651.414 162.693C648.451 161.282 648.169 157.285 650.897 155.545ZM628.044 172.614C621.602 174.824 614.643 171.439 612.386 164.997C610.176 158.555 613.561 151.596 620.003 149.339C626.445 147.129 633.404 150.514 635.661 156.956C637.871 163.398 634.439 170.404 628.044 172.614Z" fill="#96BFEE"/>
<path d="M677.995 149.5C679.746 149.741 681.546 149.933 683.346 149.981C685.097 150.029 686.849 149.981 688.551 149.885L690.643 141.086L699.351 138.634L705.822 145.029C708.984 143.442 711.903 141.471 714.578 139.211L711.027 130.892L716.622 123.824L725.67 125.219C727.178 122.238 728.395 119.064 729.222 115.746L721.438 111.034L721.827 102.091L730 98.004C729.465 94.494 728.492 91.1282 727.178 87.9548L718.032 88.676L713.07 81.2232L717.254 73.1934C714.773 70.7412 712 68.5775 708.984 66.7504L702.027 72.6164L693.514 69.4911L692.103 60.5478C690.303 60.2593 688.503 60.0669 686.605 60.0189C684.903 59.9708 683.2 60.0188 681.546 60.115L679.405 68.9141L670.697 71.3182L664.324 64.8752C661.162 66.4619 658.195 68.4333 655.519 70.6451L659.022 79.0114L653.427 86.0315L644.378 84.589C642.822 87.6663 641.557 90.9359 640.73 94.3497L648.562 99.0618L648.173 108.005L640 112.092C640.584 115.602 641.557 118.92 642.87 122.141L652.016 121.42L657.076 128.873L652.892 136.903C655.373 139.355 658.146 141.519 661.162 143.346L668.07 137.48L676.584 140.557L677.995 149.5ZM662.524 103.485C663.351 91.2244 674.103 81.9925 686.508 82.8099C698.914 83.6273 708.254 94.2536 707.427 106.515C706.6 118.776 695.849 128.007 683.443 127.19C671.038 126.373 661.697 115.746 662.524 103.485Z" fill="#305399"/>
</svg>
