<svg width="709" height="727" viewBox="0 0 709 727" fill="none" xmlns="http://www.w3.org/2000/svg">
<rect x="57" y="67" width="580" height="560" rx="12" fill="#D8E4F2" fill-opacity="0.3"/>
<path d="M383.984 278.896L279.82 306.806L307.731 410.97L411.894 383.059L383.984 278.896Z" fill="#D8E4F2"/>
<path d="M594.451 489.856L204.57 594.324L100.104 204.451L489.984 99.9833L594.451 489.856V489.856ZM219.058 569.231L569.239 475.401L475.41 125.226L125.229 219.057L219.058 569.231Z" fill="#D8E4F2"/>
<path d="M352.701 328.046L332.911 333.349L396.543 570.828L416.333 565.525L352.701 328.046Z" fill="#D8E4F2"/>
<path d="M192.685 147.525L172.896 152.828L246.466 427.398L266.256 422.095L192.685 147.525Z" fill="#D8E4F2"/>
<path d="M401.135 91.6715L381.345 96.9741L454.916 371.544L474.705 366.241L401.135 91.6715Z" fill="#D8E4F2"/>
<path d="M195.866 94.4592L143.725 108.43L157.699 160.583L209.84 146.612L195.866 94.4592Z" fill="#D8E4F2"/>
<path d="M300.032 66.5478L247.891 80.519L261.866 132.671L314.007 118.7L300.032 66.5478Z" fill="#D8E4F2"/>
<path d="M404.197 38.6369L352.056 52.6081L366.031 104.76L418.172 90.7893L404.197 38.6369Z" fill="#D8E4F2"/>
<path d="M328.401 589.088L276.26 603.059L290.235 655.211L342.376 641.24L328.401 589.088Z" fill="#D8E4F2"/>
<path d="M432.568 561.176L380.427 575.148L394.401 627.3L446.542 613.329L432.568 561.176Z" fill="#D8E4F2"/>
<path d="M536.733 533.266L484.592 547.237L498.566 599.389L550.707 585.418L536.733 533.266Z" fill="#D8E4F2"/>
<path d="M585.708 143.427L533.567 157.398L547.542 209.551L599.683 195.58L585.708 143.427Z" fill="#D8E4F2"/>
<path d="M613.62 247.594L561.479 261.566L575.453 313.718L627.594 299.747L613.62 247.594Z" fill="#D8E4F2"/>
<path d="M641.53 351.758L589.389 365.729L603.364 417.882L655.505 403.911L641.53 351.758Z" fill="#D8E4F2"/>
<path d="M91.0695 275.966L38.9285 289.937L52.9026 342.089L105.044 328.118L91.0695 275.966Z" fill="#D8E4F2"/>
<path d="M118.981 380.132L66.8398 394.104L80.814 446.256L132.955 432.285L118.981 380.132Z" fill="#D8E4F2"/>
<path d="M146.891 484.296L94.7505 498.267L108.725 550.42L160.866 536.449L146.891 484.296Z" fill="#D8E4F2"/>
<path opacity="0.08" d="M709 717C709 722.41 673.161 727 629 727C584.839 727 549 722.574 549 717C549 711.59 584.839 707 629 707C673.161 707.164 709 711.59 709 717Z" fill="#9DAFBD"/>
<path opacity="0.08" d="M127 721.217C127 724.408 106.976 727 82 727C57.0239 727 37 724.408 37 721.217C37 718.027 57.0239 715.435 82 715.435C106.976 715.435 127 718.027 127 721.217Z" fill="#9DAFBD"/>
<path d="M47.1201 540.958C47.1201 540.958 33.1249 597.987 55.3019 636.87C77.479 675.754 77.2636 675.554 77.2636 675.554C77.2636 675.554 83.077 578.645 47.1201 540.958Z" fill="#5BB59B"/>
<path d="M47.9815 690.111C49.2734 697.09 50.9959 704.268 54.8715 710.45C58.5317 716.631 64.5605 722.015 72.0963 723.61C75.5413 724.408 78.9863 724.408 82.4313 724.208C86.3069 724.208 90.1825 723.81 93.6274 722.015C97.9337 719.622 100.087 715.235 101.809 710.849C104.824 703.471 106.977 695.893 108.484 688.316C109.345 683.929 109.991 679.144 107.623 675.156C104.608 669.772 97.503 667.578 91.0437 666.581C80.2782 664.986 65.4217 664.189 55.0868 668.177C46.0437 671.766 46.4743 682.334 47.9815 690.111Z" fill="#D8E4F2"/>
<path d="M72.5265 675.754C81.139 676.153 90.3974 674.956 95.7801 672.364C96.8567 671.766 97.7179 671.168 97.2873 670.569C96.6414 669.772 94.4883 669.373 92.3352 669.373C82.0002 668.376 70.5888 667.977 60.4691 669.572C45.828 671.766 64.56 675.355 72.5265 675.754Z" fill="#524F63"/>
<path d="M68.0051 527C68.0051 527 61.1151 635.674 77.2635 675.554C77.2635 675.554 87.8137 578.645 68.0051 527Z" fill="#63A590"/>
<path d="M75.3256 674.757H79.2012C84.7993 653.221 101.378 583.431 92.5505 550.928C92.5505 550.928 64.5601 642.453 71.6653 662.992C73.1725 668.376 74.4644 672.164 75.3256 674.757Z" fill="#5BB59B"/>
<path d="M501.098 437.36C501.349 437.108 501.516 436.94 501.766 436.772C504.19 435.43 506.363 436.185 509.037 435.513C510.291 435.262 511.293 432.156 513.215 434.003C513.884 434.674 515.388 436.521 516.893 438.031C519.065 440.13 522.993 441.473 526.42 441.976C539.624 443.907 552.995 442.144 566.199 440.046C566.951 439.962 567.703 439.794 568.372 439.29C569.458 438.451 569.709 436.94 569.792 435.597C570.461 429.303 571.714 423.008 573.469 416.964C575.057 411.509 577.23 406.137 580.991 401.941C584.751 397.744 590.518 394.974 596.033 395.898C600.212 396.653 603.889 399.507 605.727 403.284C610.156 412.768 599.877 424.183 595.281 431.904C590.852 439.206 586.005 446.173 580.573 452.803C579.904 453.643 579.236 454.482 578.316 454.902C577.314 455.405 576.144 455.489 575.057 455.573C560.683 456.413 546.309 455.909 531.935 455.154C528.007 454.986 524.665 452.636 520.987 452.552C518.648 452.468 516.725 454.062 514.553 454.482C512.38 454.902 509.371 454.818 507.198 454.398C502.853 453.475 501.014 449.362 498.925 445.921C498.424 445.082 498.089 444.494 498.006 443.571C497.922 442.06 498.758 440.801 499.594 439.626C499.928 438.703 500.513 437.948 501.098 437.36Z" fill="#EAC5B0"/>
<path d="M602.134 432.744C598.875 437.612 595.615 442.564 592.857 447.852C591.019 451.377 589.18 455.154 585.921 457.336C583.832 458.763 581.408 459.434 578.901 460.022C563.775 463.715 547.981 464.554 532.604 462.54C531.183 462.372 529.679 462.12 528.509 461.197C526.503 459.602 526.336 456.748 526.336 454.23C526.336 451.293 526.336 448.271 526.336 445.334C526.336 444.494 526.336 443.487 526.921 442.816C527.422 442.144 528.258 441.892 529.094 441.724C538.621 439.123 548.315 437.108 558.092 435.765C561.185 435.346 564.527 434.842 566.951 432.828C572.049 428.379 572.132 411.845 573.302 405.046C574.639 397.24 575.726 389.351 577.23 381.629C578.901 372.984 580.74 364.087 585.838 356.953C596.785 341.761 620.686 347.469 622.023 366.857C622.943 381.461 620.268 396.401 615.003 409.998C611.661 418.224 606.981 425.442 602.134 432.744Z" fill="#314F8F"/>
<path d="M606.766 602.421L606.18 639.943C606.431 650.337 605.511 660.732 604.842 671.126C604.256 680.76 606.18 690.648 601.662 699.606C600.24 702.394 597.228 704.338 594.885 701.127C593.128 698.676 593.965 694.282 593.463 691.408C590.2 669.69 584.092 648.478 580.996 626.675C577.817 603.858 586.602 604.449 606.766 602.421Z" fill="#EAC5B0"/>
<path d="M604.59 693.183L607.016 699.437L595.303 709.831L584.509 710.338L580.995 704.592L595.47 691.831L604.59 693.183Z" fill="#212940"/>
<path d="M633.038 602.843L639.815 639.689C642.158 656.168 647.512 672.225 649.855 688.788C650.357 692.591 650.106 696.732 651.696 700.282C653.202 703.746 656.214 703.915 658.891 701.549C662.405 698.338 660.816 692.676 660.732 688.366C660.314 659.379 662.573 630.9 663.075 601.829C663.075 601.491 663.075 600.984 662.74 600.731C662.489 600.562 662.154 600.562 661.82 600.562C659.142 600.815 633.205 603.604 633.038 602.843Z" fill="#EAC5B0"/>
<path d="M660.816 694.704L664.497 700.282L655.377 713.127L645.002 716L640.401 711.183L651.612 695.549L660.816 694.704Z" fill="#212940"/>
<path d="M587.104 692.084L578.737 618.562L575.976 537.857L584.176 509.377L628.52 502.448L683.406 511.913L686 522.73L663.242 635.464V694.619L648.182 695.465L633.122 637.154L622.245 541.659L608.858 619.407L607.184 691.239L587.104 692.084Z" fill="#314F8F"/>
<path d="M573.968 422.672C573.968 422.418 574.052 422.165 574.052 421.911C578.57 397.15 569.199 378.22 587.02 356.164C596.642 344.248 601.495 345.685 614.296 342.558C617.225 341.797 623.332 339.685 622.998 344.248C627.014 344.164 631.114 344.502 635.046 345.431L635.213 343.741C642.325 345.431 651.696 345.938 658.222 348.896C665.25 352.107 671.609 362.502 675.207 369.009C687.59 391.404 682.57 418.7 682.57 443.376C682.57 450.222 687.171 523.659 683.657 523.828C661.904 524.927 640.652 517.321 619.149 519.349C606.431 520.532 593.797 523.744 581.331 525.518C580.494 525.603 579.49 525.687 578.904 525.096C578.151 524.504 578.068 523.406 577.984 522.476C576.645 504.56 576.645 486.053 575.641 467.968C574.721 453.179 572.629 437.545 573.968 422.672Z" fill="#3F60B2"/>
<path opacity="0.2" d="M575.282 461.429V454.245C577.068 449.755 597.158 446.612 603.854 445.265C610.551 443.918 614.122 434.939 624.837 424.612C635.552 414.286 645.374 389.143 650.731 386.449C656.088 383.755 660.106 384.653 661.446 389.143C662.785 393.633 660.999 406.204 658.767 409.796C656.535 413.388 642.248 435.837 637.784 442.122C633.32 448.408 619.033 462.776 615.015 465.469C610.997 468.163 598.497 466.816 592.693 465.469L575.282 461.429Z" fill="#212940"/>
<path d="M638.895 375.263C640.484 384.559 639.815 394.024 639.229 403.404C638.978 407.376 638.644 411.348 637.305 415.066C635.632 419.714 632.369 423.517 629.44 427.489C622.914 436.362 615.802 489.856 612.205 500.335C609.192 488.926 608.105 433.912 605.093 422.503C603.085 414.728 601.077 406.953 600.909 398.925C600.658 383.291 607.519 368.502 614.213 354.389C615.217 352.277 616.221 350.164 617.81 348.474C622.161 343.657 631.95 342.981 635.381 349.065C636.97 351.938 636.217 355.657 636.385 358.699C636.719 364.277 637.974 369.685 638.895 375.263Z" fill="white"/>
<path d="M617.726 378.39C616.388 386.756 616.388 395.291 615.216 403.742C614.547 408.39 613.543 412.869 612.706 417.432C610.364 430.447 609.611 443.63 608.858 456.813C608.69 459.433 608.523 462.053 608.356 464.588C608.272 466.194 607.603 468.982 608.356 470.504C609.192 472.109 611.2 472.278 612.706 472.87C614.882 473.799 616.89 474.982 618.73 476.588C622.077 475.574 624.253 472.278 625.006 468.898C625.759 465.518 625.34 461.968 625.006 458.503C621.742 428.08 622.328 397.15 626.763 366.896C628.101 367.488 629.691 366.474 630.36 365.206C630.946 363.854 630.862 362.333 630.779 360.812C630.779 361.065 623.834 360.812 623.249 360.727C619.065 360.558 617.894 361.488 617.894 366.136C619.902 367.15 619.567 370.108 618.981 372.305C618.479 374.333 618.061 376.361 617.726 378.39Z" fill="#212940"/>
<path d="M531.297 411.179C531.548 411.01 531.883 410.925 532.134 410.841C534.895 410.418 536.652 411.855 539.413 412.108C540.668 412.277 542.676 409.742 543.847 412.108C544.266 412.953 545.019 415.235 545.939 417.179C547.278 419.883 550.541 422.587 553.553 424.193C565.35 430.616 578.486 433.573 591.622 436.024C592.375 436.193 593.128 436.278 593.881 436.109C595.22 435.686 595.889 434.334 596.475 433.066C599.236 427.32 602.499 421.827 606.264 416.672C609.611 412.108 613.459 407.714 618.48 405.01C623.5 402.305 629.775 401.629 634.711 404.503C638.393 406.615 640.903 410.587 641.321 414.897C642.241 425.461 628.771 432.728 621.743 438.39C615.133 443.799 608.105 448.7 600.825 453.095C599.905 453.602 598.985 454.193 597.981 454.362C596.893 454.531 595.722 454.193 594.718 453.855C580.912 449.715 567.609 444.306 554.222 438.644C550.541 437.123 548.198 433.742 544.768 432.39C542.592 431.461 540.25 432.39 537.99 431.968C535.815 431.545 532.97 430.531 531.046 429.348C527.281 426.982 526.946 422.418 526.193 418.446C526.026 417.432 525.859 416.756 526.193 415.911C526.612 414.475 527.867 413.629 529.038 412.7C529.791 412.024 530.46 411.517 531.297 411.179Z" fill="#EAC5B0"/>
<path d="M628.018 441.602C623.332 445.151 618.563 448.616 614.129 452.672C611.2 455.377 608.188 458.25 604.339 459.264C601.913 459.94 599.319 459.686 596.809 459.433C581.331 457.743 566.187 453.095 552.381 445.827C551.126 445.151 549.788 444.39 548.951 443.123C547.612 440.926 548.449 438.137 549.286 435.771C550.29 432.982 551.294 430.193 552.298 427.32C552.632 426.475 552.967 425.63 553.72 425.123C554.389 424.7 555.31 424.7 556.146 424.785C566.019 425.63 575.808 427.066 585.43 429.179C588.526 429.855 591.789 430.531 594.718 429.433C600.993 426.982 606.766 411.348 610.196 405.348C614.129 398.418 617.81 391.319 621.826 384.559C626.344 376.953 631.113 369.178 638.309 364.192C653.787 353.544 674.37 367.234 668.931 386.08C664.832 400.277 657.218 413.376 647.596 424.447C641.907 431.207 634.962 436.447 628.018 441.602Z" fill="#3F60B2"/>
<path d="M613.46 296.755C611.284 300.642 610.197 305.205 610.029 309.684C609.946 310.867 609.862 312.304 608.942 312.98C607.938 313.741 608.858 315.431 608.021 314.417C607.268 313.403 604.591 309.853 604.507 308.586C604.256 305.628 604.256 302.586 604.507 299.628C604.758 297.008 605.26 294.304 606.933 292.36C607.938 291.177 609.276 290.332 610.615 289.571C612.539 288.388 614.464 287.205 616.639 286.867C620.404 286.191 622.747 287.543 619.4 290.163C616.974 291.938 614.966 294.05 613.46 296.755Z" fill="#212940"/>
<path d="M637.138 347.798C637.138 349.403 637.138 350.84 636.887 352.107C633.038 355.065 629.44 358.361 626.094 361.826C623.918 358.953 621.743 355.91 621.073 352.361C620.822 350.84 620.822 335.713 619.986 335.544C615.468 334.783 610.197 333.262 608.607 328.53C608.105 327.009 608.105 325.403 608.105 323.797C608.021 317.206 608.021 310.529 607.938 303.938C607.938 301.656 607.938 299.29 608.691 297.177C610.029 293.459 613.543 291.262 616.89 289.825C625.508 286.276 635.632 286.36 643.664 291.515C645.756 292.867 647.764 294.642 649.019 296.924C650.943 300.557 650.692 305.036 650.357 309.262C650.106 313.149 649.855 317.037 649.521 320.839C649.186 325.318 648.517 330.389 645.086 332.755C643.246 334.023 640.903 334.192 639.313 335.882C636.803 338.502 637.138 343.488 637.138 347.798Z" fill="#EAC5B0"/>
<path d="M606.933 327.6C607.77 331.741 609.694 335.628 613.041 337.995C616.806 340.614 621.492 340.783 626.01 340.952C628.436 341.037 630.863 341.037 633.373 341.121C639.564 341.29 645.672 340.445 648.851 333.854C650.357 330.811 650.776 327.262 650.608 323.882C650.525 322.952 650.441 321.938 650.023 321.177C649.604 320.332 648.768 319.741 647.931 319.91C646.843 320.079 646.174 321.262 645.505 322.192C643.998 324.22 641.237 325.318 639.062 324.22C638.393 323.882 637.807 323.375 637.305 322.952C637.054 322.783 636.887 322.53 636.636 322.361C634.293 320.501 631.448 319.572 628.603 319.234C626.177 318.896 622.496 317.966 620.655 320.079C619.567 321.346 618.563 322.53 617.476 323.797C617.057 324.304 616.555 324.811 616.053 325.149C615.468 325.487 614.798 325.572 614.129 325.572C612.455 325.572 610.615 324.811 610.029 323.121C609.778 322.361 609.778 321.6 609.778 320.755C609.778 319.994 609.611 319.149 609.192 318.558C607.352 316.276 606.85 319.91 606.766 321.093C606.348 323.29 606.515 325.487 606.933 327.6ZM623.751 328.783C625.675 330.135 627.767 330.135 629.942 329.459C631.03 329.121 631.532 330.98 630.444 331.318C627.85 332.079 625.257 331.995 622.914 330.473C621.826 329.797 622.747 328.107 623.751 328.783Z" fill="#212940"/>
<path d="M605.595 285.261C605.176 283.656 604.842 282.05 604.674 280.36C606.18 280.867 607.854 281.036 609.443 280.783C609.443 279.853 609.443 278.839 609.443 277.909C609.443 277.149 620.069 276.557 620.906 276.473C628.938 275.797 636.385 275.205 643.664 279.515C649.855 283.233 653.871 288.811 654.875 296.079C655.796 303.008 653.537 312.051 649.604 317.797C649.604 315.938 650.692 311.628 650.274 309.853C650.023 308.079 649.437 306.389 648.6 304.867C646.927 301.741 644.417 299.121 641.405 297.262C636.719 294.304 631.197 292.698 625.675 291.938C620.655 291.262 614.547 290.585 609.527 291.938C607.101 292.614 606.766 293.205 605.26 290.754C605.009 290.332 603.001 285.346 603.168 285.346C603.838 285.346 604.758 285.261 605.595 285.261Z" fill="#212940"/>
</svg>
