<svg width="290" height="292" viewBox="0 0 290 292" fill="none" xmlns="http://www.w3.org/2000/svg">
<g opacity="0.3">
<path d="M156.08 80.2742L125.903 88.3604L133.989 118.538L164.166 110.452L156.08 80.2742Z" fill="#6E96E6"/>
<path d="M217.056 141.392L104.102 171.658L73.8364 58.7061L186.79 28.4401L217.056 141.392ZM108.299 164.388L209.752 137.204L182.568 35.7534L81.1154 62.9375L108.299 164.388Z" fill="#6E96E6"/>
<path d="M147.018 94.5135L141.284 96.0498L159.719 164.85L165.453 163.314L147.018 94.5135Z" fill="#6E96E6"/>
<path d="M100.659 42.2137L94.9253 43.75L116.24 123.297L121.973 121.76L100.659 42.2137Z" fill="#6E96E6"/>
<path d="M161.05 26.0321L155.316 27.5684L176.631 107.115L182.364 105.579L161.05 26.0321Z" fill="#6E96E6"/>
<path d="M101.58 26.8401L86.4741 30.8877L90.5226 45.9968L105.628 41.9492L101.58 26.8401Z" fill="#6E96E6"/>
<path d="M131.759 18.7532L116.653 22.8008L120.701 37.9099L135.807 33.8623L131.759 18.7532Z" fill="#6E96E6"/>
<path d="M161.937 10.6672L146.831 14.7148L150.88 29.8239L165.986 25.7763L161.937 10.6672Z" fill="#6E96E6"/>
<path d="M139.978 170.143L124.872 174.19L128.92 189.299L144.026 185.252L139.978 170.143Z" fill="#6E96E6"/>
<path d="M170.156 162.056L155.05 166.104L159.099 181.213L174.204 177.165L170.156 162.056Z" fill="#6E96E6"/>
<path d="M200.335 153.97L185.229 158.018L189.277 173.127L204.383 169.079L200.335 153.97Z" fill="#6E96E6"/>
<path d="M214.524 41.0266L199.418 45.0742L203.466 60.1833L218.572 56.1357L214.524 41.0266Z" fill="#6E96E6"/>
<path d="M222.61 71.2063L207.504 75.2539L211.553 90.363L226.659 86.3154L222.61 71.2063Z" fill="#6E96E6"/>
<path d="M230.696 101.384L215.59 105.432L219.639 120.541L234.744 116.493L230.696 101.384Z" fill="#6E96E6"/>
<path d="M71.2185 79.426L56.1128 83.4736L60.1612 98.5827L75.267 94.5351L71.2185 79.426Z" fill="#6E96E6"/>
<path d="M79.3049 109.604L64.1992 113.651L68.2477 128.76L83.3534 124.713L79.3049 109.604Z" fill="#6E96E6"/>
<path d="M87.3909 139.782L72.2852 143.83L76.3336 158.939L91.4393 154.892L87.3909 139.782Z" fill="#6E96E6"/>
</g>
<path opacity="0.08" d="M290 242.415C290 244.393 277.986 246.001 263 246.001C248.014 246.001 236 244.393 236 242.415C236 240.437 248.014 238.83 263 238.83C277.986 238.83 290 240.437 290 242.415Z" fill="#9DAFBD"/>
<path d="M242.072 130.654C242.072 130.654 233.675 166.012 246.981 190.12C260.287 214.227 260.158 214.104 260.158 214.104C260.158 214.104 263.646 154.02 242.072 130.654Z" fill="#5BB59B"/>
<path d="M242.589 223.128C243.364 227.455 244.397 231.906 246.723 235.738C248.919 239.571 252.536 242.909 257.058 243.898C259.125 244.392 261.192 244.392 263.259 244.269C265.584 244.269 267.909 244.021 269.976 242.909C272.56 241.425 273.852 238.705 274.885 235.985C276.694 231.411 277.986 226.713 278.89 222.015C279.407 219.296 279.795 216.328 278.373 213.856C276.565 210.518 272.302 209.158 268.426 208.54C261.967 207.551 253.053 207.056 246.852 209.529C241.426 211.754 241.684 218.306 242.589 223.128Z" fill="#D8E4F2"/>
<path d="M257.316 214.227C262.483 214.475 268.038 213.733 271.268 212.126C271.914 211.755 272.431 211.384 272.172 211.013C271.785 210.519 270.493 210.271 269.201 210.271C263 209.653 256.153 209.406 250.081 210.395C241.297 211.755 252.536 213.98 257.316 214.227Z" fill="#524F63"/>
<path d="M254.603 122C254.603 122 250.469 189.378 260.158 214.103C260.158 214.103 266.488 154.02 254.603 122Z" fill="#63A590"/>
<path d="M258.995 213.609H261.321C264.68 200.258 274.627 156.987 269.33 136.836C269.33 136.836 252.536 193.582 256.799 206.315C257.703 209.653 258.479 212.002 258.995 213.609Z" fill="#5BB59B"/>
<path opacity="0.08" d="M54 242.415C54 244.393 41.9856 246.001 27 246.001C12.0144 246.001 0 244.393 0 242.415C0 240.437 12.0144 238.83 27 238.83C41.9856 238.83 54 240.437 54 242.415Z" fill="#9DAFBD"/>
<path d="M6.07201 130.654C6.07201 130.654 -2.32512 166.012 10.9811 190.12C24.2873 214.227 24.1581 214.104 24.1581 214.104C24.1581 214.104 27.6462 154.02 6.07201 130.654Z" fill="#5BB59B"/>
<path d="M6.5888 223.128C7.36392 227.455 8.39742 231.906 10.7228 235.738C12.9189 239.571 16.5362 242.909 21.0577 243.898C23.1247 244.392 25.1917 244.392 27.2587 244.269C29.584 244.269 31.9094 244.021 33.9764 242.909C36.5601 241.425 37.852 238.705 38.8855 235.985C40.6941 231.411 41.9859 226.713 42.8902 222.015C43.407 219.296 43.7945 216.328 42.3735 213.856C40.5649 210.518 36.3017 209.158 32.4261 208.54C25.9668 207.551 17.0529 207.056 10.852 209.529C5.42612 211.754 5.6845 218.306 6.5888 223.128Z" fill="#D8E4F2"/>
<path d="M21.3159 214.227C26.4833 214.475 32.0384 213.733 35.268 212.126C35.914 211.755 36.4307 211.384 36.1723 211.013C35.7848 210.519 34.4929 210.271 33.2011 210.271C27.0001 209.653 20.1532 209.406 14.0814 210.395C5.29674 211.755 16.536 213.98 21.3159 214.227Z" fill="#524F63"/>
<path d="M18.603 122C18.603 122 14.469 189.378 24.158 214.103C24.158 214.103 30.4881 154.02 18.603 122Z" fill="#63A590"/>
<path d="M22.9953 213.609H25.3207C28.6795 200.258 38.6269 156.987 33.3302 136.836C33.3302 136.836 16.536 193.582 20.7991 206.315C21.7035 209.653 22.4786 212.002 22.9953 213.609Z" fill="#5BB59B"/>
<path opacity="0.08" d="M212.053 292C241.353 292 265.105 288.911 265.105 285.101C265.105 281.292 241.353 278.203 212.053 278.203C182.753 278.203 159 281.292 159 285.101C159 288.911 182.753 292 212.053 292Z" fill="#9DAFBD"/>
<g clip-path="url(#clip0)">
<path d="M196.998 168.295C196.998 171.664 193.532 174.471 189.235 174.471C184.938 174.471 181.473 171.664 181.473 168.295C181.473 164.927 184.938 162.12 189.235 162.12C193.532 162.12 196.998 164.927 196.998 168.295Z" stroke="#212940" stroke-miterlimit="10"/>
<path d="M193.532 162.261C193.948 159.454 190.621 155.104 190.621 155.104L192.146 144.718H185.908L184.799 155.104L185.354 162.402C185.492 163.384 185.908 164.086 186.463 164.647C187.572 165.63 189.235 165.77 190.621 165.068L193.116 163.805L192.007 163.244L190.76 162.823C191.037 161.981 191.73 161.7 192.701 161.981L193.532 162.261Z" fill="#EAC5B0"/>
<path d="M208.087 43.8068C208.087 43.8068 207.533 36.9297 214.048 34.1227C222.642 30.3333 233.316 36.5086 237.613 49.2804C241.91 62.1924 256.188 66.8239 261.039 71.4554C267.693 77.6308 270.049 89.5604 254.94 93.4902C245.514 96.0164 246.623 90.5428 236.088 91.9463C225.553 93.3498 205.731 91.9463 202.681 82.543C199.631 73.1396 207.671 68.9292 204.206 61.0696C200.602 53.0698 201.295 44.6489 208.087 43.8068Z" fill="#212940"/>
<path opacity="0.12" d="M248.564 75.8061C243.019 74.4026 243.574 69.7711 241.495 66.4027C239.554 63.0344 235.395 61.3502 230.821 60.6484C230.821 60.6484 212.246 61.4905 212.107 64.2975C211.969 67.2448 211.414 70.8939 208.919 72.8588C206.285 74.8236 202.82 81.7007 204.345 85.3498C210.028 92.2269 226.801 93.2093 236.227 91.9462C246.762 90.5427 245.653 95.8759 255.079 93.49C259.792 92.2269 262.842 90.262 264.505 87.8761C264.505 87.8761 264.505 87.7357 264.644 87.7357C264.644 87.5954 264.782 87.5954 264.782 87.455C269.08 80.5779 254.109 77.2096 248.564 75.8061Z" fill="black"/>
<path d="M244.96 113.841C244.96 113.841 240.109 111.876 241.772 105.42L247.733 107.244L244.96 113.841Z" fill="#212940"/>
<path d="M241.772 78.0518C245.93 79.5956 257.159 93.9112 260.624 98.9637C264.089 104.016 267.832 107.665 266.862 111.314C265.891 114.963 244.96 113.841 244.96 113.841C244.96 113.841 245.792 108.086 241.772 105.42H253.416L240.247 91.3849L241.772 78.0518Z" fill="#314F8F"/>
<path opacity="0.08" d="M240.247 91.2442L245.376 96.7178L241.495 79.876L240.247 91.2442Z" fill="black"/>
<path d="M197.413 80.2979C197.413 80.2979 192.423 103.455 190.482 112.438C188.542 121.42 186.047 125.911 185.354 146.402C185.354 146.402 187.433 148.086 192.839 146.823L205.176 94.3327L197.413 80.2979Z" fill="#314F8F"/>
<path opacity="0.08" d="M205.176 94.3327L197.414 80.2979L202.404 105.982L205.176 94.3327Z" fill="black"/>
<path d="M240.385 238.61V266.259L242.603 272.715C244.267 277.206 246.901 281.417 250.366 284.645L252.861 287.031L238.861 283.522C237.752 283.241 236.781 282.539 236.088 281.697L231.514 276.224L231.375 284.504H228.742L227.771 270.329C227.494 267.803 228.187 265.277 229.573 263.171L232.623 258.54L229.85 238.61H240.385Z" fill="#EAC5B0"/>
<path d="M184.107 229.348L175.512 258.961C175.512 258.961 165.532 277.908 168.443 290.119C168.443 290.119 178.839 283.101 183.275 272.154L183.552 259.803L196.998 229.348H184.107Z" fill="#EAC5B0"/>
<path d="M243.712 137.139C243.712 137.139 243.851 211.383 241.494 242.26H227.632C227.632 242.26 224.305 208.997 227.632 202.12L223.612 157.77L196.998 237.207L180.779 235.663C180.779 235.663 192.285 205.208 195.334 191.875C198.384 178.541 201.711 149.489 208.919 137.279H243.712V137.139Z" fill="#314F8F"/>
<path opacity="0.08" d="M243.712 137.139H208.919C207.672 139.244 206.563 141.77 205.592 144.577C210.305 146.823 221.533 150.472 230.405 142.191C230.405 142.191 235.811 145.419 243.851 144.296C243.712 139.946 243.712 137.139 243.712 137.139Z" fill="black"/>
<path d="M213.632 51.1045C213.632 51.1045 218.9 59.8061 230.821 60.6482C230.821 60.6482 229.712 69.0691 225.692 73.2796L226.108 76.3672L233.177 78.1918L231.514 86.1916H210.167L208.919 78.3321L214.602 77.069L214.88 71.034C214.88 71.034 212.523 67.9463 211.969 64.4376C211.969 64.4376 208.087 62.7534 208.919 59.3851C209.751 56.0167 212.246 58.543 212.246 58.543L213.632 51.1045Z" fill="#EAC5B0"/>
<path opacity="0.1" d="M232.623 78.0523L226.246 76.3681L225.83 73.2804C216.82 77.2102 212.246 64.4385 212.246 64.4385C212.8 67.9472 215.157 71.0349 215.157 71.0349L215.018 73.8418C217.513 77.6312 221.394 80.4382 224.444 81.2803C229.712 82.6838 231.929 79.4558 231.929 79.4558L232.623 78.0523Z" fill="black"/>
<path d="M211.275 82.8232H232.068L226.662 127.875L211.275 82.8232Z" fill="white"/>
<path d="M230.266 75.8066L226.108 119.595L227.633 138.823C227.633 138.823 236.088 141.349 245.792 139.946C245.792 139.946 240.524 118.613 241.217 110.473C241.91 102.333 243.019 105.841 242.881 96.7186C242.742 87.7363 241.772 78.0522 241.772 78.0522L230.266 75.8066Z" fill="#314F8F"/>
<path d="M231.514 93.2099C230.96 90.9643 234.148 90.1222 234.702 84.7889C235.257 79.4557 230.128 75.8066 230.128 75.8066L225.969 119.595C225.969 119.595 234.009 105.42 234.009 101.49C234.148 97.4203 232.068 95.5958 231.514 93.2099Z" fill="#587BC9"/>
<path d="M211.275 75.8066L226.108 119.595L228.603 138.542C228.603 138.542 215.295 145.841 206.147 140.086L208.503 128.858C209.612 123.525 209.335 118.052 207.671 112.859L197.414 80.2978L211.275 75.8066Z" fill="#314F8F"/>
<path d="M204.206 86.1924C204.761 90.6836 210.583 91.1046 210.721 95.1747C210.86 99.2448 209.058 103.455 212.385 107.946C215.711 112.438 226.108 119.736 226.108 119.736L211.276 75.8066C211.276 75.8066 203.79 81.7013 204.206 86.1924Z" fill="#587BC9"/>
<path opacity="0.08" d="M227.632 242.259H241.494C241.771 237.909 242.187 232.575 242.326 226.681L223.612 157.77L227.632 202.12C224.305 208.997 227.632 242.259 227.632 242.259Z" fill="black"/>
<path d="M242.326 105.701L231.514 105.42C230.544 105.42 229.435 105.701 228.603 106.402L218.484 114.122C218.484 114.122 221.949 119.735 223.336 120.999C224.722 122.262 225.415 117.771 225.415 117.771C225.415 117.771 230.405 115.385 232.068 111.174L245.099 112.016C244.96 110.051 244.406 107.385 242.326 105.701Z" fill="#EAC5B0"/>
<path d="M228.463 284.426H231.145L231.286 276.227L235.943 281.647C236.648 282.481 237.636 283.176 238.765 283.454L253.018 286.928L250.478 284.565C247.232 281.647 244.692 278.034 242.998 274.003C241.446 274.837 238.906 275.393 236.084 273.031C231.568 269.139 232.556 258.855 232.556 258.855L229.451 263.442C228.04 265.526 227.476 268.028 227.617 270.529L228.463 284.426Z" fill="#212940"/>
<path d="M174.68 272.715C173.017 272.715 171.492 271.452 171.215 268.926C168.858 275.382 166.918 283.662 168.442 290.118C168.442 290.118 178.839 283.101 183.275 272.154L183.552 259.803C183.413 259.663 179.948 272.715 174.68 272.715Z" fill="#212940"/>
<path d="M232.346 107.525C232.346 107.525 232.9 108.789 232.346 111.034L233.871 111.174C233.871 111.174 234.286 109.771 233.871 107.525H232.346Z" fill="#314F8F"/>
<path d="M233.732 105.42C234.425 106.122 234.564 107.245 234.009 107.806C233.455 108.508 232.346 108.368 231.653 107.666C230.959 106.964 230.821 105.841 231.375 105.28C231.93 104.719 233.039 104.719 233.732 105.42Z" fill="#212940"/>
<path d="M233.455 105.841C233.87 106.262 234.009 106.964 233.593 107.385C233.177 107.806 232.484 107.806 232.068 107.385C231.653 106.964 231.514 106.262 231.93 105.841C232.207 105.42 232.9 105.42 233.455 105.841Z" fill="white"/>
<path d="M212.384 167.454H165.947V199.454H212.384V167.454Z" fill="#D8E4F2"/>
<path d="M165.947 167.454L189.097 183.454L212.384 167.454H165.947Z" fill="#A1BDEB"/>
</g>
<path opacity="0.08" d="M79.2816 292C110.054 292 135 288.742 135 284.723C135 280.704 110.054 277.445 79.2816 277.445C48.509 277.445 23.563 280.704 23.563 284.723C23.563 288.742 48.509 292 79.2816 292Z" fill="#9DAFBD"/>
<path d="M8.69415 69.4765C8.87271 69.4864 9.05624 69.5012 9.21992 69.5605C10.7327 70.1194 11.1891 71.3162 12.4886 72.2657C13.0689 72.691 14.7951 72.0332 14.7058 73.5267C14.676 74.0757 14.4032 75.4159 14.3288 76.5929C14.2147 78.304 15.1075 80.5443 16.1442 82.1911C20.2214 88.6646 25.9503 93.8523 31.7834 98.8076C32.1157 99.0895 32.4679 99.3813 32.8944 99.4752C33.6583 99.6483 34.3974 99.1735 35.0422 98.7334C38.0331 96.686 41.2125 94.9205 44.5308 93.4616C47.492 92.161 50.6466 91.0878 53.8806 91.1867C57.1146 91.2856 60.4577 92.7396 62.1044 95.514C63.3395 97.591 63.4833 100.276 62.4764 102.477C59.9815 107.927 51.2071 107.665 46.123 108.481C41.3117 109.252 36.4459 109.687 31.575 109.781C30.9749 109.791 30.3549 109.796 29.7944 109.569C29.1992 109.326 28.7379 108.857 28.2964 108.392C22.5973 102.438 17.4537 96.0085 12.4192 89.4509C11.0353 87.6458 10.7774 85.3462 9.4828 83.6945C8.65447 82.6362 7.2458 82.4037 6.24386 81.5778C5.25184 80.7619 4.16062 79.4365 3.54557 78.3188C2.32539 76.1082 3.42653 73.7394 4.18543 71.5832C4.37391 71.0442 4.49791 70.6831 4.89472 70.3172C5.53457 69.7287 6.37283 69.6446 7.20612 69.5358C7.70213 69.4666 8.19814 69.4419 8.69415 69.4765Z" fill="#EAC5B0"/>
<path d="M48.3748 112.442C44.1686 112.936 39.9526 113.025 35.8456 112.694C34.3824 112.575 32.9043 112.397 31.5452 111.843C29.4272 110.978 27.7855 109.277 26.2032 107.625C20.5288 101.681 14.8198 95.6868 10.4351 88.7434C12.4836 87.5219 14.5321 86.2955 16.5756 85.074C16.9675 84.8415 17.3841 84.5992 17.8405 84.614C18.4258 84.6338 18.897 85.069 19.3186 85.4745C22.9146 88.9808 26.5107 92.4821 30.1068 95.9884C30.6722 96.5374 31.2774 97.111 32.0511 97.2594C32.6315 97.3682 33.2267 97.2248 33.7921 97.0616C43.6528 94.2279 52.447 86.9977 61.3207 82.0375C65.7054 79.5895 70.2687 77.0822 75.2784 76.6866C85.9773 75.836 92.3758 88.3973 84.4148 96.1071C74.9708 105.256 61.7174 110.874 48.3748 112.442Z" fill="white"/>
<path d="M60.8893 266.91L61.0579 279.071L53.831 279.165L53.6426 265.684L60.8893 266.91Z" fill="#EAC5B0"/>
<path d="M54.4758 277.261L60.7602 279.333L62.6351 281.346L62.3177 286.113L45.3244 287.428C43.891 285.346 44.8235 282.518 47.2192 281.697L48.0078 281.425L54.4758 277.261Z" fill="#212940"/>
<path d="M112.976 255.254L117.762 266.44L111.111 269.259L105.803 256.861L112.976 255.254Z" fill="#EAC5B0"/>
<path d="M111.235 269.472C111.473 269.21 111.751 268.958 112.073 268.725C112.872 268.142 119.315 264.739 119.87 266.272C119.96 266.52 119.93 266.796 119.9 267.059C119.369 271.475 118.333 275.827 116.81 280.006C116.16 281.796 115.173 283.774 113.318 284.219C112.505 284.417 111.651 284.269 110.838 284.086C109.633 283.814 108.452 283.457 107.296 283.017C106.875 282.854 106.428 282.656 106.21 282.266C105.774 281.479 106.538 280.545 107.331 280.119C108.13 279.694 109.102 279.392 109.489 278.576C109.662 278.21 109.687 277.795 109.712 277.394C109.876 274.402 109.365 271.529 111.235 269.472Z" fill="#212940"/>
<path d="M67.5658 210.553C69.9367 221.364 76.7172 229.133 83.959 237.08C92.2473 246.18 100.04 255.719 107.296 265.655C110.431 264.349 113.571 263.043 116.705 261.743C114.082 246.55 106.855 232.609 101.255 218.243C97.3611 208.258 94.2114 197.7 94.0378 186.909C93.9535 181.543 95.258 176.638 95.9574 171.415C96.8205 164.952 96.8701 158.325 97.6538 151.827C97.9166 149.651 98.0654 147.074 96.384 145.655C95.635 145.022 94.6529 144.76 93.6906 144.572C58.0177 137.683 63.0571 189.995 67.5658 210.553Z" fill="#314F8F"/>
<path d="M96.6269 153.859C96.6467 147.301 95.8432 140.976 94.6131 136.154C84.4647 135.61 72.997 136.733 62.9627 138.76C53.1516 140.744 47.0358 142.875 46.9664 153.478C46.8374 172.992 39.184 189.614 35.8855 208.372C33.966 219.271 37.2843 229.024 40.9597 239.117C45.1659 250.67 48.7471 262.445 51.6835 274.383C55.0811 274.363 58.4838 274.343 61.8814 274.324C65.2344 259.275 63.8506 243.642 64.1383 228.232C64.3367 217.521 65.4378 206.562 69.386 196.513C73.7261 185.465 79.9758 189.861 87.1481 183.457C94.1072 177.226 96.5922 165.189 96.6269 153.859Z" fill="#314F8F"/>
<path d="M85.1045 78.7638C86.2255 79.6293 87.2076 80.6727 88.1847 81.7113C89.0577 82.6361 89.9257 83.5658 90.7987 84.4906C93.8194 87.7001 95.3124 92.4576 96.607 96.5573C103.417 118.149 105.867 147.767 101.448 170.328C84.673 171.772 65.2542 167.553 48.5139 165.273C46.887 165.051 45.0418 164.69 44.1986 163.285C43.6877 162.435 43.6729 161.386 43.6729 160.392C43.6729 146.071 46.7084 130.68 49.5555 116.561C50.7559 110.602 52.2389 104.697 54.1337 98.9212C56.1425 92.8038 58.4093 86.2017 63.1115 81.5777C68.141 76.6274 77.7785 74.1844 84.0728 78.0467C84.425 78.2643 84.7722 78.5067 85.1045 78.7638Z" fill="white"/>
<path d="M83.582 81.8346C84.0085 79.8861 83.9242 77.6063 84.1821 75.9298C84.5888 75.7369 84.9757 75.5193 85.3378 75.2918C92.3365 70.836 104.072 46.9201 85.4221 41.5643C68.4884 36.703 69.3663 59.9314 72.6698 69.6195C73.2352 71.2762 73.9891 72.8439 75.1101 74.1989C75.874 75.1286 76.0476 74.9506 75.9384 76.0336C75.7648 77.6607 74.5 79.0355 74.2768 80.712C73.9346 83.3083 74.877 86.6563 75.4673 89.1686C77.5307 87.8086 79.5891 86.4536 81.6525 85.0936C82.7387 84.3765 83.2844 83.1896 83.582 81.8346Z" fill="#EAC5B0"/>
<path d="M68.6918 60.8423C69.7285 63.9332 71.1818 66.8856 72.9972 69.5907C72.898 63.8738 73.5924 58.1421 75.0556 52.6132C75.1648 52.1928 75.2739 51.7131 75.0457 51.3422C74.8324 50.996 74.3959 50.8674 73.9942 50.7784C66.8616 49.2503 66.8814 55.4568 68.6918 60.8423Z" fill="#212940"/>
<path d="M87.4307 69.4568C88.5764 71.0591 91.0813 70.6288 92.8471 69.7436C100.094 66.1087 104.364 57.3653 102.752 49.4378C101.408 42.8011 93.0207 37.8261 91.3243 46.0502C90.7242 48.9631 92.5048 53.0035 92.0981 56.2378C91.5128 60.8567 89.3502 65.273 87.4307 69.4568Z" fill="#212940"/>
<path d="M68.766 35.4717C67.9526 35.7931 67.1292 36.1294 66.2562 36.4706C64.4557 37.1729 63.1462 37.4103 61.2912 36.3569C60.7604 36.0552 57.1991 32.6973 58.0572 32C52.3779 36.619 57.0503 43.3645 59.1782 48.1418C60.6166 51.3612 60.9092 55.9011 64.1383 58.0078C67.6897 60.3222 70.1251 57.3946 73.3491 56.084C76.1913 54.9268 79.2665 54.3037 82.1583 53.2751C86.9596 51.5689 94.1022 48.5671 92.5149 42.2073C90.6599 34.7793 83.1106 32.9297 76.3302 33.4985C73.4285 33.7358 71.1617 34.5271 68.766 35.4717Z" fill="#212940"/>
<path d="M72.9324 97.3825C72.1537 102.269 72.1586 107.288 71.4593 112.204C71.0773 114.899 70.4772 117.56 69.996 120.24C68.6221 127.841 68.1608 135.566 67.6945 143.276C67.6052 144.794 67.511 146.317 67.4217 147.84C67.3622 148.805 66.9703 150.392 67.4416 151.317C67.9227 152.257 69.1131 152.351 70.006 152.716C71.2956 153.241 72.5009 153.973 73.5574 154.878C75.5216 154.299 76.841 152.365 77.2973 150.372C77.7536 148.379 77.5007 146.302 77.2775 144.27C75.3182 126.456 75.6654 108.386 78.3092 90.6618C79.1028 91.0178 80.065 90.4343 80.4321 89.6479C80.7991 88.8616 80.7346 87.9517 80.6602 87.0862C80.6751 87.2346 76.5334 87.0714 76.2209 87.0566C73.7607 86.9329 73.0266 87.5066 73.0217 90.2315C74.222 90.8052 73.9988 92.541 73.6665 93.8268C73.359 94.9989 73.1209 96.1858 72.9324 97.3825Z" fill="#314F8F"/>
<path d="M82.2323 163.291C82.1281 163.147 82.024 162.994 81.9644 162.831C81.4436 161.308 82.0884 160.2 82.0041 158.598C81.9694 157.881 80.3673 156.966 81.5825 156.085C82.0289 155.764 83.2441 155.121 84.2064 154.444C85.6101 153.45 86.7906 151.348 87.4156 149.503C88.601 146.017 87.8669 135.339 92.4699 134.153C103.283 131.363 93.2437 151.724 92.7923 153.702C92.4947 155.007 93.199 156.249 93.1891 157.544C93.1792 158.825 92.8419 160.507 92.3558 161.689C91.4035 164.028 88.8689 164.671 86.7112 165.447C86.1756 165.64 85.8085 165.773 85.2827 165.699C84.4197 165.576 83.8245 164.977 83.2144 164.404C82.8573 164.062 82.52 163.691 82.2323 163.291Z" fill="#EAC5B0"/>
<path d="M93.0897 86.7206C93.4716 87.2498 93.8833 88.046 94.4934 88.9609C97.7026 93.7579 99.1311 101.082 100.262 106.646C102.678 118.5 102.489 130.893 99.5577 142.638C99.4486 143.068 99.3097 143.538 98.9327 143.776C98.5607 144.008 98.0796 143.929 97.6481 143.84C94.9597 143.296 92.2713 142.752 89.5829 142.208C89.0026 142.089 88.3975 141.961 87.9511 141.575C87.0831 140.818 87.1971 139.468 87.3558 138.331C88.4173 130.883 88.5066 123.302 87.6336 115.829C87.2219 112.298 85.4165 107.956 85.6297 104.475C85.8232 101.344 87.6435 97.9665 87.8965 94.5393C88.0453 92.487 88.2735 89.4307 89.7317 87.8037C91.6711 85.6524 92.3259 85.6673 93.0897 86.7206Z" fill="white"/>
<defs>
<clipPath id="clip0">
<rect width="101.053" height="257.119" fill="white" transform="translate(165.947 33)"/>
</clipPath>
</defs>
</svg>
