<svg width="361" height="445" viewBox="0 0 361 445" fill="none" xmlns="http://www.w3.org/2000/svg">
<g opacity="0.3">
<path d="M176.887 128.754L129.044 141.574L141.863 189.417L189.707 176.597L176.887 128.754Z" fill="#6E96E6"/>
<path d="M273.556 225.65L94.4811 273.633L46.499 94.5614L225.574 46.5784L273.556 225.65ZM101.135 262.108L261.976 219.01L218.88 58.1727L58.039 101.27L101.135 262.108Z" fill="#6E96E6"/>
<path d="M162.518 151.329L153.429 153.765L182.655 262.841L191.745 260.405L162.518 151.329Z" fill="#6E96E6"/>
<path d="M89.0223 68.4148L79.9326 70.8503L113.724 196.962L122.814 194.527L89.0223 68.4148Z" fill="#6E96E6"/>
<path d="M184.764 42.7607L175.675 45.1963L209.466 171.308L218.556 168.873L184.764 42.7607Z" fill="#6E96E6"/>
<path d="M90.4829 44.0411L66.5342 50.4581L72.9526 74.4121L96.9014 67.995L90.4829 44.0411Z" fill="#6E96E6"/>
<path d="M138.328 31.2213L114.379 37.6383L120.797 61.5923L144.746 55.1752L138.328 31.2213Z" fill="#6E96E6"/>
<path d="M186.171 18.4015L162.223 24.8186L168.641 48.7726L192.59 42.3555L186.171 18.4015Z" fill="#6E96E6"/>
<path d="M151.358 271.228L127.409 277.645L133.828 301.599L157.776 295.182L151.358 271.228Z" fill="#6E96E6"/>
<path d="M199.202 258.408L175.253 264.825L181.671 288.779L205.62 282.362L199.202 258.408Z" fill="#6E96E6"/>
<path d="M247.046 245.588L223.098 252.005L229.516 275.959L253.465 269.542L247.046 245.588Z" fill="#6E96E6"/>
<path d="M269.541 66.5325L245.592 72.9496L252.01 96.9035L275.959 90.4865L269.541 66.5325Z" fill="#6E96E6"/>
<path d="M282.361 114.377L258.412 120.794L264.831 144.748L288.779 138.331L282.361 114.377Z" fill="#6E96E6"/>
<path d="M295.18 162.221L271.231 168.638L277.65 192.592L301.599 186.175L295.18 162.221Z" fill="#6E96E6"/>
<path d="M42.3491 127.408L18.4004 133.825L24.8188 157.779L48.7676 151.362L42.3491 127.408Z" fill="#6E96E6"/>
<path d="M55.1695 175.253L31.2207 181.67L37.6391 205.624L61.5879 199.207L55.1695 175.253Z" fill="#6E96E6"/>
<path d="M67.9888 223.096L44.04 229.513L50.4585 253.467L74.4072 247.05L67.9888 223.096Z" fill="#6E96E6"/>
</g>
<g clip-path="url(#clip0)">
<path d="M129.164 250.742C129.164 256.114 123.677 260.59 116.873 260.59C110.069 260.59 104.582 256.114 104.582 250.742C104.582 245.371 110.069 240.895 116.873 240.895C123.677 240.895 129.164 245.371 129.164 250.742Z" stroke="#212940" stroke-miterlimit="10"/>
<path d="M123.676 241.119C124.334 236.643 119.067 229.705 119.067 229.705L121.481 213.144H111.604L109.849 229.705L110.727 241.343C110.946 242.91 111.604 244.029 112.482 244.924C114.238 246.49 116.872 246.714 119.067 245.595L123.017 243.581L121.262 242.686L119.286 242.014C119.725 240.672 120.823 240.224 122.359 240.672L123.676 241.119Z" fill="#EAC5B0"/>
<path d="M146.721 52.2321C146.721 52.2321 145.843 41.2659 156.159 36.7899C169.767 30.7474 186.666 40.5945 193.47 60.9603C200.274 81.5498 222.88 88.9351 230.562 96.3205C241.097 106.168 244.828 125.191 220.905 131.457C205.981 135.485 207.736 126.757 191.056 128.995C174.376 131.233 142.99 128.995 138.162 114.001C133.333 99.0061 146.063 92.2921 140.576 79.7594C134.87 67.0028 135.967 53.5749 146.721 52.2321Z" fill="#212940"/>
<path opacity="0.12" d="M210.809 103.259C202.03 101.021 202.908 93.6357 199.616 88.2645C196.543 82.8933 189.959 80.2077 182.716 79.0887C182.716 79.0887 153.306 80.4315 153.086 84.9075C152.867 89.6073 151.989 95.4261 148.038 98.5593C143.868 101.692 138.381 112.659 140.796 118.477C149.794 129.444 176.351 131.01 191.276 128.996C207.956 126.758 206.2 135.262 221.125 131.458C228.587 129.444 233.416 126.31 236.049 122.506C236.049 122.506 236.049 122.282 236.269 122.282C236.269 122.058 236.488 122.058 236.488 121.834C243.292 110.868 219.589 105.497 210.809 103.259Z" fill="black"/>
<path d="M205.103 163.909C205.103 163.909 197.421 160.775 200.055 150.481L209.492 153.39L205.103 163.909Z" fill="#212940"/>
<path d="M200.055 106.84C206.639 109.302 224.417 132.129 229.904 140.186C235.391 148.243 241.317 154.061 239.781 159.88C238.244 165.699 205.103 163.909 205.103 163.909C205.103 163.909 206.42 154.733 200.055 150.481H218.491L197.641 128.101L200.055 106.84Z" fill="#314F8F"/>
<path opacity="0.08" d="M197.641 127.877L205.761 136.605L199.616 109.749L197.641 127.877Z" fill="black"/>
<path d="M129.821 110.421C129.821 110.421 121.92 147.348 118.847 161.671C115.775 175.994 111.824 183.155 110.727 215.83C110.727 215.83 114.019 218.516 122.578 216.501L142.112 132.801L129.821 110.421Z" fill="#314F8F"/>
<path opacity="0.08" d="M142.112 132.801L129.821 110.421L137.723 151.376L142.112 132.801Z" fill="black"/>
<path d="M197.86 362.866V406.954L201.372 417.249C204.005 424.411 208.175 431.124 213.662 436.272L217.613 440.076L195.446 434.481C193.69 434.034 192.153 432.915 191.056 431.572L183.813 422.844L183.594 436.048H179.424L177.887 413.444C177.448 409.416 178.546 405.388 180.741 402.031L185.569 394.645L181.18 362.866H197.86Z" fill="#EAC5B0"/>
<path d="M108.752 348.095L95.1444 395.317C95.1444 395.317 79.3419 425.53 83.951 445C83.951 445 100.412 433.81 107.435 416.354L107.874 396.66L129.164 348.095H108.752Z" fill="#EAC5B0"/>
<path d="M203.128 201.059C203.128 201.059 203.347 319.449 199.616 368.685H177.668C177.668 368.685 172.401 315.644 177.668 304.678L171.303 233.958L129.163 360.628L103.484 358.166C103.484 358.166 121.701 309.602 126.53 288.341C131.358 267.08 136.626 220.754 148.039 201.283H203.128V201.059Z" fill="#314F8F"/>
<path opacity="0.08" d="M203.127 201.059H148.038C146.063 204.416 144.307 208.445 142.771 212.921C150.233 216.501 168.011 222.32 182.057 209.116C182.057 209.116 190.617 214.263 203.347 212.473C203.127 205.535 203.127 201.059 203.127 201.059Z" fill="black"/>
<path d="M155.501 63.8704C155.501 63.8704 163.841 77.7459 182.716 79.0887C182.716 79.0887 180.96 92.5166 174.595 99.2306L175.254 104.154L186.447 107.064L183.814 119.82H150.014L148.039 107.287L157.037 105.273L157.476 95.6498C157.476 95.6498 153.745 90.7263 152.867 85.1313C152.867 85.1313 146.722 82.4457 148.039 77.0745C149.355 71.7033 153.306 75.7317 153.306 75.7317L155.501 63.8704Z" fill="#EAC5B0"/>
<path opacity="0.1" d="M185.569 106.84L175.473 104.154L174.815 99.2306C160.548 105.497 153.306 85.1312 153.306 85.1312C154.184 90.7262 157.915 95.6498 157.915 95.6498L157.695 100.126C161.646 106.168 167.791 110.644 172.62 111.987C180.96 114.225 184.472 109.078 184.472 109.078L185.569 106.84Z" fill="black"/>
<path d="M151.77 114.449H184.691L176.132 186.288L151.77 114.449Z" fill="white"/>
<path d="M181.838 103.259L175.254 173.084L177.668 203.745C177.668 203.745 191.056 207.773 206.42 205.535C206.42 205.535 198.08 171.518 199.177 158.537C200.274 145.557 202.03 151.152 201.811 136.605C201.591 122.282 200.055 106.84 200.055 106.84L181.838 103.259Z" fill="#314F8F"/>
<path d="M183.813 131.01C182.935 127.429 187.983 126.086 188.861 117.582C189.739 109.078 181.619 103.259 181.619 103.259L175.034 173.084C175.034 173.084 187.764 150.48 187.764 144.214C187.983 137.724 184.691 134.814 183.813 131.01Z" fill="#587BC9"/>
<path d="M151.769 103.259L175.253 173.084L179.204 203.297C179.204 203.297 158.134 214.935 143.648 205.759L147.38 187.855C149.135 179.35 148.696 170.622 146.063 162.342L129.821 110.42L151.769 103.259Z" fill="#314F8F"/>
<path d="M140.576 119.82C141.454 126.981 150.672 127.653 150.892 134.143C151.111 140.633 148.258 147.347 153.526 154.509C158.793 161.67 175.254 173.308 175.254 173.308L151.77 103.259C151.77 103.259 139.918 112.658 140.576 119.82Z" fill="#587BC9"/>
<path opacity="0.08" d="M177.668 368.685H199.616C200.054 361.747 200.713 353.243 200.932 343.843L171.303 233.958L177.668 304.678C172.4 315.644 177.668 368.685 177.668 368.685Z" fill="black"/>
<path d="M200.933 150.928L183.814 150.481C182.277 150.481 180.521 150.928 179.205 152.047L163.183 164.356C163.183 164.356 168.67 173.308 170.864 175.322C173.059 177.336 174.157 170.175 174.157 170.175C174.157 170.175 182.058 166.37 184.692 159.656L205.323 160.999C205.103 157.866 204.225 153.614 200.933 150.928Z" fill="#EAC5B0"/>
<path d="M178.984 435.924H183.23L183.453 422.85L190.826 431.492C191.943 432.822 193.508 433.93 195.295 434.373L217.862 439.913L213.84 436.146C208.701 431.492 204.679 425.73 201.998 419.304C199.54 420.634 195.518 421.52 191.05 417.753C183.9 411.548 185.464 395.149 185.464 395.149L180.548 402.462C178.314 405.786 177.42 409.775 177.644 413.764L178.984 435.924Z" fill="#212940"/>
<path d="M93.8268 417.249C91.193 417.249 88.7788 415.235 88.3398 411.207C84.6087 421.501 81.536 434.705 83.9502 445C83.9502 445 100.411 433.81 107.434 416.354L107.873 396.66C107.654 396.436 102.167 417.249 93.8268 417.249Z" fill="#212940"/>
<path d="M185.13 153.838C185.13 153.838 186.008 155.852 185.13 159.433L187.544 159.656C187.544 159.656 188.203 157.418 187.544 153.838H185.13Z" fill="#314F8F"/>
<path d="M187.326 150.481C188.423 151.6 188.642 153.39 187.765 154.285C186.887 155.404 185.131 155.18 184.033 154.061C182.936 152.942 182.717 151.152 183.594 150.257C184.472 149.362 186.228 149.362 187.326 150.481Z" fill="#212940"/>
<path d="M186.887 151.152C187.545 151.824 187.765 152.943 187.106 153.614C186.448 154.285 185.351 154.285 184.692 153.614C184.034 152.943 183.814 151.824 184.473 151.152C184.912 150.481 186.009 150.481 186.887 151.152Z" fill="white"/>
<path d="M153.525 249.4H80V300.426H153.525V249.4Z" fill="#D8E4F2"/>
<path d="M80 249.4L116.653 274.913L153.525 249.4H80Z" fill="#A1BDEB"/>
</g>
<path opacity="0.08" d="M360.789 436.893C360.789 440.259 341.257 442.993 316.894 442.993C292.532 442.993 273 440.259 273 436.893C273 433.527 292.532 430.792 316.894 430.792C341.257 430.792 360.789 433.527 360.789 436.893Z" fill="#9DAFBD"/>
<path d="M282.872 246.725C282.872 246.725 269.22 306.889 290.852 347.91C312.485 388.93 312.275 388.72 312.275 388.72C312.275 388.72 317.945 286.484 282.872 246.725Z" fill="#5BB59B"/>
<path d="M283.712 404.077C284.972 411.439 286.653 419.012 290.433 425.534C294.003 432.055 299.884 437.735 307.235 439.417C310.595 440.259 313.955 440.259 317.316 440.049C321.096 440.049 324.876 439.628 328.237 437.735C332.437 435.21 334.537 430.582 336.217 425.954C339.158 418.171 341.258 410.177 342.728 402.183C343.568 397.555 344.198 392.507 341.888 388.299C338.948 382.62 332.017 380.306 325.716 379.254C315.215 377.571 300.724 376.729 290.643 380.937C281.822 384.723 282.242 395.872 283.712 404.077Z" fill="#D8E4F2"/>
<path d="M307.654 388.93C316.055 389.351 325.085 388.089 330.336 385.354C331.386 384.723 332.226 384.092 331.806 383.461C331.176 382.62 329.076 382.199 326.976 382.199C316.895 381.147 305.764 380.726 295.893 382.409C281.611 384.723 299.883 388.51 307.654 388.93Z" fill="#524F63"/>
<path d="M303.243 232C303.243 232 296.522 346.647 312.274 388.72C312.274 388.72 322.565 286.484 303.243 232Z" fill="#63A590"/>
<path d="M310.384 387.878H314.164C319.625 365.159 335.796 291.532 327.185 257.243C327.185 257.243 299.883 353.8 306.813 375.467C308.284 381.147 309.544 385.144 310.384 387.878Z" fill="#5BB59B"/>
<defs>
<clipPath id="clip0">
<rect width="160" height="410" fill="white" transform="translate(80 35)"/>
</clipPath>
</defs>
</svg>
