<svg width="190" height="423" viewBox="0 0 190 423" fill="none" xmlns="http://www.w3.org/2000/svg">
<path opacity="0.08" d="M160 413C160 418.41 124.161 423 80 423C35.8386 423 0 418.574 0 413C0 407.59 35.8386 403 80 403C124.161 403.164 160 407.59 160 413Z" fill="#9DAFBD"/>
<path d="M187.789 161.64C187.635 161.448 187.465 161.248 187.273 161.12C185.45 159.889 183.827 160.433 181.768 159.793C180.853 159.506 180.145 156.964 178.639 158.379C178.086 158.898 176.891 160.393 175.717 161.512C174.005 163.15 170.928 164.118 168.346 164.389C158.222 165.468 148.105 163.534 138.151 161.272C137.582 161.144 136.992 161 136.542 160.601C135.738 159.889 135.634 158.627 135.575 157.5C135.302 152.296 134.572 147.117 133.413 142.057C132.38 137.542 130.941 133.01 128.211 129.421C125.481 125.832 121.23 123.314 116.973 123.89C113.785 124.321 110.841 126.528 109.343 129.605C105.631 137.254 113.032 146.997 116.309 153.495C119.408 159.65 122.898 165.564 126.757 171.183C127.237 171.879 127.731 172.582 128.425 173.021C129.163 173.485 130.034 173.589 130.882 173.685C141.781 174.908 152.724 175.084 163.719 175.02C166.744 175.004 169.371 173.269 172.168 173.277C173.954 173.285 175.348 174.676 177.031 175.092C178.691 175.499 180.971 175.571 182.654 175.283C185.974 174.716 187.568 171.375 189.228 168.609C189.642 167.922 189.922 167.459 189.988 166.691C190.092 165.444 189.494 164.413 188.933 163.374C188.601 162.759 188.225 162.167 187.789 161.64Z" fill="#EAC5B0"/>
<path d="M112.243 155.142C115.453 158.627 118.972 161.72 121.489 166.076C123.237 169.105 124.698 172.558 127.458 174.516C129.606 176.043 132.255 176.451 134.808 176.746C136.822 176.978 138.844 177.17 140.866 177.314C141.892 172.174 142.917 167.035 143.943 161.896C142.032 161.064 139.973 160.633 137.907 160.617C135.568 144.735 134.011 128.79 131.827 112.892C130.845 105.746 129.775 98.3451 126.123 92.3025C118.33 79.3862 99.9048 83.1907 98.2593 99.0564C96.968 111.445 98.6725 124.21 102.487 135.935C104.155 141.066 106.199 147.437 109.357 151.697C110.258 152.912 111.232 154.047 112.243 155.142Z" fill="#3F60B2"/>
<path d="M47.4764 397.531C45.1741 397.699 43.0637 396.82 40.8279 396.548C40.9312 387.996 41.7872 379.803 43.4917 371.363C46.9673 375.543 49.8894 373.113 49.7713 380.962C49.7344 383.504 47.0263 393.663 47.4764 397.531Z" fill="#E5D1BD"/>
<path d="M40.3261 392.296C37.7066 391.281 37.1163 398.059 37.0941 399.657C37.0794 400.617 37.19 401.592 36.9613 402.519C36.7104 403.542 36.0906 404.397 35.4855 405.22C34.2163 406.947 32.9471 408.673 31.6779 410.408C31.1097 411.183 30.5268 411.982 30.2242 412.917C29.4642 415.235 30.7186 417.985 32.7478 419.096C39.7875 422.948 46.2146 413.621 47.7347 407.466C47.9709 406.523 48.1406 405.564 48.3103 404.605C48.6645 402.623 50.0517 398.291 49.3212 396.356C48.4726 394.094 45.9047 395.733 44.2223 394.878C42.6505 394.086 41.3813 392.704 40.3261 392.296Z" fill="#212940"/>
<path d="M90.3119 256.674C83.7519 276.017 76.181 294.936 71.8642 315.189C66.5292 340.207 57.9326 364.601 53.5199 389.666C50.6716 389.77 47.8085 389.634 44.9749 389.274C41.7281 388.859 36.5702 387.908 35.3969 384.071C34.7992 382.105 35.4338 378.916 35.5223 376.878C35.8175 370.347 36.2455 363.817 36.6882 357.295C37.9427 338.84 38.806 320.161 41.9348 301.969C45.2332 282.835 48.3914 263.628 51.2914 244.493C52.7894 234.606 54.6341 224.775 56.9069 215.056C57.4898 212.554 63.5849 186.745 64.7803 186.953C78.9776 189.399 92.2599 194.49 104.627 202.435C105.83 203.21 106.989 204.13 107.409 205.504C107.83 206.879 107.446 208.062 107.062 209.309C103.365 221.202 98.4436 232.36 94.5032 244.205C93.1381 248.322 91.7434 252.438 90.3119 256.674Z" fill="#D8E4F2"/>
<path d="M91.5442 396.14C93.6989 397.044 95.9569 396.884 98.1632 397.339C100.406 389.147 101.845 381.042 102.539 372.434C98.0747 375.303 95.9495 372.042 93.9055 379.571C93.2414 382.017 93.0421 392.592 91.5442 396.14Z" fill="#E5D1BD"/>
<path d="M100.421 394.878C100.429 399.513 103.793 404.501 105.66 408.673C105.882 409.161 106.103 409.672 106.11 410.216C106.125 411.023 105.668 411.742 105.232 412.398C104.627 413.309 103.963 414.268 102.997 414.676C102.045 415.075 100.982 414.876 99.9859 414.636C98.3182 414.236 96.6727 413.765 95.0419 413.205C94.636 413.069 94.2228 412.917 93.8908 412.63C93.4997 412.286 93.2635 411.782 93.0422 411.295C91.891 408.785 90.917 407.011 90.976 404.221C91.0424 401.336 91.3745 398.346 90.8875 395.493C90.644 394.11 90.3267 392.336 91.4261 391.577C92.2747 390.985 93.8243 391.8 94.7467 391.96C96.3775 392.248 97.8828 392.136 99.3808 393.063C99.6833 393.255 99.9859 393.479 100.17 393.799C100.37 394.118 100.421 394.494 100.421 394.878Z" fill="#212940"/>
<path d="M89.3306 247.858C90.2825 268.44 92.3117 288.941 90.8728 309.666C89.0945 335.267 90.6072 361.324 87.9359 386.685C90.6293 387.7 93.3965 388.491 96.2005 389.059C99.4178 389.706 104.598 390.465 106.775 387.172C107.889 385.494 108.155 382.241 108.627 380.259C110.14 373.928 111.519 367.558 112.892 361.188C116.759 343.164 121.068 325.052 123.075 306.677C125.185 287.342 127.443 267.992 129.923 248.785C131.207 238.858 132.144 228.883 132.646 218.876C132.771 216.295 134.04 189.695 132.845 189.511C118.618 187.273 104.539 187.856 90.5555 191.453C89.1978 191.805 87.8326 192.308 87.0578 193.483C86.283 194.658 86.3199 195.913 86.3421 197.232C86.6077 209.781 88.2459 222.017 88.755 234.598C88.9247 238.97 89.1166 243.358 89.3306 247.858Z" fill="#D8E4F2"/>
<path d="M81.3389 82.6954C81.1101 82.7833 80.874 82.8712 80.6453 82.9671C76.8229 84.5337 73.5761 87.3631 70.3957 90.1446C65.6215 94.3249 63.2676 96.1552 61.4302 102.342C59.7109 108.112 58.6335 114.203 57.5783 120.15C52.1695 150.666 51.129 181.063 47.2476 211.811C46.1924 220.179 45.3733 230.018 51.0921 235.765C61.2309 227.221 73.9746 226.725 86.2755 226.709C94.909 226.701 103.358 223.672 112.014 224.719C120.286 225.718 127.51 223.48 135.907 224.072C137.929 224.216 140.512 224.192 141.309 222.169C138.401 212.738 138.453 202.587 137.796 192.668C136.092 167.011 128.248 142.385 125.082 116.904C124.005 108.24 123.429 93.8613 117.238 87.3072C110.508 80.1856 95.1525 80.0338 86.5042 81.4325C84.7554 81.7043 83.0139 82.0799 81.3389 82.6954Z" fill="#3F60B2"/>
<path d="M103.454 111.293C102.332 110.47 101.211 109.647 100.089 108.824C102.355 106.37 104.62 103.916 106.885 101.454C107.83 100.431 108.797 99.3682 109.32 98.0414C109.889 96.5947 109.889 94.9722 109.859 93.3976C109.822 91.2316 109.748 89.0096 108.959 87.0274C107.513 83.3906 102.436 81.3525 98.975 81.5283C95.1895 81.7202 91.4852 83.4306 88.1056 85.1571C87.0209 85.7086 85.9214 86.308 85.0654 87.2192C83.1985 89.2094 82.8296 92.4305 83.538 95.164C84.2464 97.8975 85.8624 100.239 87.5522 102.413C89.242 104.588 91.0572 106.682 92.2895 109.191C89.2494 111.078 86.2092 112.964 83.169 114.85C82.7558 115.106 82.3057 115.418 82.2097 115.921C82.1138 116.393 82.3721 116.856 82.6082 117.264C85.7886 122.683 89.4707 130.005 89.5076 136.527C89.5445 144.479 90.2087 152.488 90.5038 160.457C91.1237 177.042 91.3081 193.643 91.072 210.236C91.0203 214.057 90.9392 217.869 90.8359 221.682C94.7689 221.954 98.7241 221.906 102.65 221.538C103.498 221.458 104.413 221.338 105.033 220.707C105.786 219.947 105.867 218.708 105.897 217.589C105.963 214.816 105.978 212.034 105.956 209.253C105.823 192.876 104.347 176.563 103.602 160.217C102.967 146.318 101.218 129.901 109.638 118.175C109.896 117.824 110.169 117.44 110.176 116.984C110.191 116.305 109.608 115.801 109.092 115.418C107.21 114.043 105.328 112.668 103.454 111.293Z" fill="white"/>
<path d="M90.7104 83.0629C90.8506 83.3666 91.0424 83.6464 91.3007 83.9181C92.3042 84.9892 93.6989 85.6046 95.0788 85.8124C96.9014 86.0922 98.7535 85.7645 100.561 85.3968C103.004 84.8932 102.915 83.3426 103.27 80.9448C103.461 79.634 103.587 78.3072 103.675 76.9884C103.727 76.261 103.469 73.6634 103.897 73.1518C104.185 72.8082 105.365 72.9201 105.882 72.6323C106.701 72.1687 107.387 71.3135 107.881 70.4823C108.678 69.1475 109.114 67.5969 109.542 66.0782C110.287 63.4326 111.032 60.787 111.778 58.1334C112.538 55.4319 113.305 52.6983 113.549 49.8849C113.917 45.6407 113.283 39.6541 110.324 36.5449C107.623 33.7155 103.69 32.7244 100.082 32.2208C95.3001 31.5574 90.3488 32.5086 86.2239 35.2581C84.5562 36.3691 82.9771 37.8078 81.9957 39.782C80.4756 42.8352 80.5937 46.6398 80.756 50.1966C80.9036 53.4816 81.0585 56.7666 81.2061 60.0517C81.3758 63.8323 81.8112 68.1883 84.4308 70.2345C85.818 71.3215 87.6333 71.5533 88.8213 72.952C90.3119 74.7024 90.216 77.3241 90.275 79.5381C90.3045 80.8249 90.216 82.0238 90.7104 83.0629Z" fill="#EAC5B0"/>
<path d="M105.838 40.5894C106 40.9011 106.14 41.2209 106.243 41.5486C106.797 43.291 106.42 45.2572 106.966 47.0076C107.83 49.7811 110.811 51.4436 111.261 54.321C111.63 56.6789 110.139 58.9169 110.014 61.3067C109.874 63.9124 111.416 66.3821 111.18 68.9558C110.973 71.1938 109.66 74.3349 108.428 76.1253C108.811 75.5738 112.265 75.7657 113.158 75.1742C114.53 74.263 114.685 73.6955 115.098 72.1449C115.504 70.6023 115.187 69.0917 115.821 67.5091C116.596 65.5749 118.19 64.1521 118.751 62.09C119.511 59.2765 118.131 56.3032 118.234 53.3779C118.397 48.9419 121.939 44.7617 120.655 40.5495C119.902 38.0797 117.681 36.4971 116.434 34.2671C115.489 32.5727 115.135 30.5825 114.478 28.7361C113.822 26.8898 112.693 25.0435 110.944 24.484C109.97 24.1723 108.922 24.3001 107.926 24.1003C106.199 23.7566 104.768 22.4618 103.107 21.8544C100.731 20.9831 96.5399 23.5888 95.1526 25.7708C93.7727 27.9369 94.4737 29.7752 95.8758 31.6935C98.2371 34.8826 103.904 36.9687 105.838 40.5894Z" fill="#212940"/>
<path d="M73.8418 27.4892C72.4177 28.6242 70.6614 29.4394 69.3627 30.7582C66.8243 33.3399 66.3447 37.4562 66.2561 41.2208C66.175 44.5698 64.8172 47.5511 65.1567 51.0439C65.3854 53.3938 66.3004 55.7597 68.064 57.1504C70.263 58.8768 73.709 59.1566 74.683 61.8981C75.7456 64.8714 72.8973 68.62 74.6314 71.2097C75.5833 72.6324 77.4502 72.8482 78.8153 73.7994C80.3354 74.8704 81.1176 76.7807 82.0473 78.4671C82.9771 80.1536 84.3717 81.8401 86.187 81.8881C86.2608 78.8988 86.3419 76.5329 85.1613 73.7994C84.475 72.2088 82.4532 69.2754 84.0102 67.549C84.9916 66.1183 87.3012 65.6547 87.3603 63.8723C87.3898 63.0331 86.8511 62.3217 86.4231 61.6263C84.7776 58.9248 84.6079 55.32 85.7295 52.3148C86.8437 49.3095 89.146 46.9116 91.832 45.4969C94.9828 43.8424 94.4811 43.0112 95.3961 39.7341C96.2373 36.7208 97.8164 36.0175 100.318 34.9225C102.561 33.9394 103.284 33.3239 104.118 31.046C104.723 29.3835 105.468 27.3853 104.59 25.523C103.889 24.0443 102.635 22.9892 101.41 21.9822C98.8642 19.8801 96.0011 17.666 92.806 17.9138C91.035 18.0497 89.36 18.9529 87.589 19.0648C86.401 19.1367 85.2277 18.857 84.0397 18.809C82.0178 18.7371 79.8853 19.4005 78.2471 20.7033C76.5942 22.0221 76.6459 23.3969 75.7235 25.2592C75.2734 26.1864 74.6092 26.8817 73.8418 27.4892Z" fill="#212940"/>
<path d="M80.9922 15.2043C81.3021 13.1262 81.1029 10.4087 79.2655 9.70529C78.2619 9.32164 77.1329 9.74525 76.0851 9.51346C73.8566 9.0259 73.0966 6.10055 71.9307 3.99045C71.7536 3.67074 71.547 3.35103 71.2371 3.20716C70.7943 2.99135 70.2852 3.18318 69.7981 3.24712C67.5844 3.54286 65.8946 1.169 63.8137 0.313774C61.231 -0.749266 57.9769 1.00115 57.2021 3.87056C56.8848 5.05349 56.9364 6.31635 56.6413 7.50728C55.4237 12.3109 48.9302 14.3571 48.7604 19.3366C48.6497 22.7016 51.6899 25.9226 50.5093 29.0398C49.7566 31.03 47.3879 32.3888 47.661 34.5229C47.838 35.8976 49.181 36.8328 50.465 36.8088C51.7416 36.7928 52.9222 36.0255 53.8815 35.1223C55.409 33.6756 56.5601 31.8213 58.0212 30.2867C59.4748 28.7521 61.4229 27.5132 63.4374 27.785C65.3855 28.0487 67.1564 29.6952 69.0897 29.3435C70.6393 29.0638 71.7905 27.5612 73.3179 27.1375C74.7421 26.7459 76.2253 27.3454 77.6937 27.4413C79.1622 27.5372 80.9627 26.7059 81.0069 25.1154C81.0143 24.7317 80.9184 24.3321 81.0291 23.9644C81.339 22.9333 82.9624 22.9973 83.2723 21.9662C82.5049 20.6874 81.4275 21.143 80.8741 19.4725C80.4461 18.1856 80.8003 16.5151 80.9922 15.2043Z" fill="#212940"/>
<path d="M93.1601 197.456C93.1454 197.2 93.1306 196.936 93.0568 196.696C92.341 194.506 90.7545 193.835 89.5149 191.949C88.9614 191.109 89.8691 188.64 87.8767 188.736C87.1462 188.767 85.3531 189.127 83.7887 189.223C81.5086 189.359 78.5422 188.032 76.3654 186.506C67.8204 180.519 61.0169 172.182 54.5307 163.702C54.1618 163.223 53.7781 162.711 53.66 162.096C53.4386 161.001 54.088 159.938 54.6857 159.018C57.4602 154.758 59.8732 150.218 61.8729 145.479C63.6586 141.25 65.1418 136.735 65.068 132.083C64.9942 127.431 63.12 122.595 59.4526 120.173C56.7076 118.359 52.472 117.04 50.1918 119.502C46.1334 123.882 43.0858 135.6 41.9052 142.897C40.7909 149.795 40.1268 156.78 39.9128 163.782C39.8833 164.645 39.8685 165.54 40.1637 166.348C40.4736 167.203 41.0935 167.882 41.7059 168.53C49.5351 176.842 57.9915 184.355 66.6324 191.725C69.0085 193.747 72.0634 194.163 74.2476 196.057C75.6422 197.264 75.93 199.294 77.0074 200.749C78.0773 202.187 79.8188 203.786 81.302 204.689C84.2241 206.487 87.3897 204.945 90.2823 203.898C90.9981 203.634 91.4851 203.466 91.9795 202.907C92.7764 202.004 92.9019 200.789 93.0568 199.598C93.1454 198.878 93.1896 198.159 93.1601 197.456Z" fill="#EAC5B0"/>
<path d="M39.7284 141.946C39.721 141.978 39.7137 142.01 39.7137 142.042C38.3633 149.779 37.7361 157.756 38.0386 165.628C38.1788 169.281 40.1785 170.2 42.68 172.486C45.5431 175.108 48.4062 177.73 51.2693 180.343C54.339 176.331 57.7702 172.638 61.504 169.337C60.0135 167.275 56.4272 163.494 56.9143 161.033C57.4824 158.131 60.3234 154.558 61.5409 151.809C64.3966 145.343 66.6915 138.605 68.9569 131.875C72.1668 122.3 75.3103 112.7 78.3873 103.069C79.14 100.711 79.9 98.2973 79.9222 95.7955C79.9443 93.2938 79.1105 90.6562 77.2288 89.2015C75.2586 87.6749 72.5136 87.7708 70.2925 88.8178C68.0714 89.8649 66.2783 91.7352 64.618 93.6455C61.659 97.0584 58.9583 100.735 56.5527 104.628C54.3094 108.264 52.3245 112.085 50.3469 115.905C48.6571 119.166 46.9599 122.435 45.2701 125.697C44.2961 127.583 43.3146 129.469 42.5177 131.443C41.16 134.792 40.3556 138.365 39.7284 141.946Z" fill="#3F60B2"/>
</svg>
