<svg width="709" height="727" viewBox="0 0 709 727" fill="none" xmlns="http://www.w3.org/2000/svg">
<rect x="56.4282" y="66.7212" width="580" height="560" rx="12" fill="#D8E4F2" fill-opacity="0.3"/>
<path d="M383.412 278.617L279.248 306.527L307.159 410.691L411.322 382.78L383.412 278.617Z" fill="#D8E4F2"/>
<path d="M593.879 489.577L203.998 594.045L99.5322 204.173L489.413 99.7045L593.879 489.577V489.577ZM218.486 568.953L568.667 475.122L474.838 124.947L124.657 218.778L218.486 568.953Z" fill="#D8E4F2"/>
<path d="M352.129 327.767L332.339 333.07L395.971 570.549L415.761 565.246L352.129 327.767Z" fill="#D8E4F2"/>
<path d="M192.114 147.247L172.324 152.549L245.895 427.119L265.684 421.816L192.114 147.247Z" fill="#D8E4F2"/>
<path d="M400.563 91.3926L380.773 96.6953L454.344 371.265L474.134 365.963L400.563 91.3926Z" fill="#D8E4F2"/>
<path d="M195.294 94.1804L143.153 108.151L157.127 160.304L209.268 146.333L195.294 94.1804Z" fill="#D8E4F2"/>
<path d="M299.461 66.2691L247.32 80.2402L261.294 132.393L313.435 118.421L299.461 66.2691Z" fill="#D8E4F2"/>
<path d="M403.626 38.3581L351.485 52.3293L365.459 104.482L417.6 90.5105L403.626 38.3581Z" fill="#D8E4F2"/>
<path d="M327.83 588.809L275.689 602.78L289.663 654.932L341.804 640.961L327.83 588.809Z" fill="#D8E4F2"/>
<path d="M431.996 560.898L379.855 574.869L393.829 627.021L445.97 613.05L431.996 560.898Z" fill="#D8E4F2"/>
<path d="M536.161 532.987L484.02 546.958L497.994 599.11L550.135 585.139L536.161 532.987Z" fill="#D8E4F2"/>
<path d="M585.137 143.148L532.996 157.12L546.97 209.272L599.111 195.301L585.137 143.148Z" fill="#D8E4F2"/>
<path d="M613.048 247.316L560.907 261.287L574.881 313.439L627.022 299.468L613.048 247.316Z" fill="#D8E4F2"/>
<path d="M640.959 351.48L588.818 365.451L602.792 417.603L654.933 403.632L640.959 351.48Z" fill="#D8E4F2"/>
<path d="M90.4977 275.687L38.3567 289.658L52.3309 341.81L104.472 327.839L90.4977 275.687Z" fill="#D8E4F2"/>
<path d="M118.409 379.854L66.2681 393.825L80.2422 445.977L132.383 432.006L118.409 379.854Z" fill="#D8E4F2"/>
<path d="M146.32 484.018L94.1787 497.989L108.153 550.141L160.294 536.17L146.32 484.018Z" fill="#D8E4F2"/>
<path opacity="0.08" d="M708.428 716.721C708.428 722.131 672.59 726.721 628.428 726.721C584.267 726.721 548.428 722.295 548.428 716.721C548.428 711.311 584.267 706.721 628.428 706.721C672.59 706.885 708.428 711.311 708.428 716.721Z" fill="#9DAFBD"/>
<path opacity="0.08" d="M126.428 720.939C126.428 724.129 106.404 726.721 81.4282 726.721C56.4521 726.721 36.4282 724.129 36.4282 720.939C36.4282 717.748 56.4521 715.156 81.4282 715.156C106.404 715.156 126.428 717.748 126.428 720.939Z" fill="#9DAFBD"/>
<path d="M46.5483 540.679C46.5483 540.679 32.5531 597.708 54.7301 636.592C76.9072 675.475 76.6919 675.276 76.6919 675.276C76.6919 675.276 82.5053 578.366 46.5483 540.679Z" fill="#5BB59B"/>
<path d="M47.4097 689.832C48.7016 696.811 50.4241 703.99 54.2997 710.171C57.96 716.352 63.9887 721.736 71.5246 723.331C74.9695 724.129 78.4145 724.129 81.8595 723.93C85.7351 723.93 89.6107 723.531 93.0557 721.736C97.3619 719.343 99.515 714.957 101.237 710.57C104.252 703.192 106.405 695.615 107.912 688.037C108.773 683.651 109.419 678.865 107.051 674.877C104.037 669.493 96.9313 667.3 90.4719 666.303C79.7064 664.707 64.8499 663.91 54.515 667.898C45.4719 671.487 45.9025 682.055 47.4097 689.832Z" fill="#D8E4F2"/>
<path d="M71.9548 675.475C80.5672 675.874 89.8256 674.677 95.2084 672.085C96.2849 671.487 97.1462 670.889 96.7155 670.291C96.0696 669.493 93.9165 669.094 91.7634 669.094C81.4285 668.097 70.017 667.698 59.8974 669.294C45.2562 671.487 63.9883 675.076 71.9548 675.475Z" fill="#524F63"/>
<path d="M67.4333 526.721C67.4333 526.721 60.5434 635.395 76.6917 675.275C76.6917 675.275 87.2419 578.366 67.4333 526.721Z" fill="#63A590"/>
<path d="M74.7538 674.478H78.6294C84.2275 652.942 100.806 583.152 91.9787 550.649C91.9787 550.649 63.9883 642.175 71.0935 662.713C72.6007 668.097 73.8926 671.886 74.7538 674.478Z" fill="#5BB59B"/>
<path d="M500.526 437.081C500.777 436.829 500.944 436.662 501.195 436.494C503.618 435.151 505.791 435.906 508.465 435.235C509.719 434.983 510.722 431.877 512.644 433.724C513.312 434.395 514.817 436.242 516.321 437.753C518.494 439.851 522.421 441.194 525.848 441.697C539.052 443.628 552.423 441.865 565.627 439.767C566.379 439.683 567.131 439.515 567.8 439.012C568.886 438.172 569.137 436.662 569.22 435.319C569.889 429.024 571.143 422.729 572.898 416.686C574.485 411.23 576.658 405.858 580.419 401.662C584.179 397.465 589.946 394.695 595.461 395.619C599.64 396.374 603.317 399.228 605.155 403.005C609.585 412.489 599.306 423.904 594.709 431.626C590.28 438.928 585.433 445.894 580.001 452.525C579.332 453.364 578.664 454.203 577.745 454.623C576.742 455.127 575.572 455.21 574.485 455.294C560.111 456.134 545.737 455.63 531.363 454.875C527.436 454.707 524.093 452.357 520.416 452.273C518.076 452.189 516.154 453.784 513.981 454.203C511.808 454.623 508.8 454.539 506.627 454.119C502.281 453.196 500.443 449.083 498.353 445.642C497.852 444.803 497.518 444.215 497.434 443.292C497.35 441.781 498.186 440.522 499.022 439.347C499.356 438.424 499.941 437.669 500.526 437.081Z" fill="#EAC5B0"/>
<path d="M601.562 432.465C598.303 437.333 595.044 442.285 592.286 447.573C590.447 451.098 588.609 454.875 585.349 457.057C583.26 458.484 580.837 459.155 578.33 459.743C563.203 463.436 547.409 464.275 532.032 462.261C530.611 462.093 529.107 461.841 527.937 460.918C525.931 459.323 525.764 456.469 525.764 453.952C525.764 451.014 525.764 447.992 525.764 445.055C525.764 444.215 525.764 443.208 526.349 442.537C526.851 441.865 527.686 441.614 528.522 441.446C538.049 438.844 547.743 436.829 557.521 435.486C560.613 435.067 563.956 434.563 566.379 432.549C571.477 428.1 571.56 411.566 572.73 404.767C574.067 396.962 575.154 389.072 576.658 381.35C578.33 372.705 580.168 363.809 585.266 356.674C596.213 341.483 620.114 347.19 621.452 366.578C622.371 381.182 619.697 396.122 614.432 409.719C611.089 417.945 606.409 425.163 601.562 432.465Z" fill="#314F8F"/>
<path d="M606.194 602.142L605.609 639.664C605.86 650.058 604.939 660.453 604.27 670.847C603.684 680.481 605.609 690.369 601.09 699.327C599.668 702.116 596.656 704.059 594.313 700.848C592.556 698.397 593.393 694.003 592.891 691.129C589.628 669.411 583.52 648.199 580.424 626.396C577.245 603.579 586.03 604.17 606.194 602.142Z" fill="#EAC5B0"/>
<path d="M604.018 692.904L606.444 699.158L594.731 709.552L583.938 710.059L580.424 704.313L594.898 691.552L604.018 692.904Z" fill="#212940"/>
<path d="M632.466 602.565L639.243 639.41C641.586 655.889 646.941 671.946 649.283 688.51C649.785 692.312 649.534 696.453 651.124 700.003C652.63 703.468 655.642 703.637 658.32 701.27C661.834 698.059 660.244 692.397 660.16 688.087C659.742 659.101 662.001 630.621 662.503 601.551C662.503 601.213 662.503 600.705 662.168 600.452C661.917 600.283 661.583 600.283 661.248 600.283C658.571 600.536 632.633 603.325 632.466 602.565Z" fill="#EAC5B0"/>
<path d="M660.244 694.425L663.925 700.003L654.806 712.848L644.431 715.721L639.829 710.904L651.04 695.27L660.244 694.425Z" fill="#212940"/>
<path d="M586.532 691.805L578.165 618.283L575.404 537.578L583.604 509.098L627.948 502.169L682.835 511.634L685.428 522.451L662.671 635.185V694.341L647.61 695.186L632.55 636.875L621.673 541.381L608.286 619.128L606.613 690.96L586.532 691.805Z" fill="#314F8F"/>
<path d="M573.396 422.393C573.396 422.139 573.48 421.886 573.48 421.632C577.998 396.871 568.627 377.942 586.448 355.885C596.07 343.969 600.923 345.406 613.724 342.279C616.653 341.519 622.761 339.406 622.426 343.969C626.442 343.885 630.542 344.223 634.474 345.152L634.642 343.462C641.753 345.152 651.124 345.659 657.65 348.617C664.679 351.829 671.037 362.223 674.635 368.73C687.018 391.125 681.998 418.421 681.998 443.098C681.998 449.943 686.6 523.38 683.086 523.549C661.332 524.648 640.08 517.042 618.577 519.07C605.86 520.254 593.226 523.465 580.759 525.24C579.922 525.324 578.918 525.409 578.333 524.817C577.58 524.225 577.496 523.127 577.412 522.197C576.074 504.281 576.074 485.774 575.07 467.689C574.149 452.9 572.058 437.266 573.396 422.393Z" fill="#3F60B2"/>
<path opacity="0.2" d="M574.71 461.15V453.966C576.496 449.476 596.586 446.333 603.282 444.987C609.979 443.64 613.551 434.66 624.265 424.333C634.98 414.007 644.802 388.864 650.159 386.17C655.516 383.476 659.534 384.374 660.874 388.864C662.213 393.354 660.427 405.925 658.195 409.517C655.963 413.109 641.677 435.558 637.212 441.844C632.748 448.129 618.462 462.497 614.444 465.191C610.426 467.885 597.925 466.538 592.121 465.191L574.71 461.15Z" fill="#212940"/>
<path d="M638.323 374.984C639.913 384.28 639.243 393.745 638.658 403.125C638.407 407.097 638.072 411.069 636.733 414.787C635.06 419.435 631.797 423.238 628.868 427.21C622.342 436.083 615.23 489.577 611.633 500.056C608.621 488.648 607.533 433.633 604.521 422.224C602.513 414.449 600.505 406.675 600.337 398.646C600.086 383.012 606.947 368.223 613.641 354.11C614.645 351.998 615.649 349.885 617.239 348.195C621.589 343.378 631.378 342.702 634.809 348.786C636.399 351.66 635.646 355.378 635.813 358.42C636.148 363.998 637.403 369.406 638.323 374.984Z" fill="white"/>
<path d="M617.155 378.111C615.816 386.477 615.816 395.012 614.645 403.463C613.975 408.111 612.971 412.59 612.135 417.154C609.792 430.168 609.039 443.351 608.286 456.534C608.118 459.154 607.951 461.774 607.784 464.309C607.7 465.915 607.031 468.704 607.784 470.225C608.62 471.83 610.628 471.999 612.135 472.591C614.31 473.521 616.318 474.704 618.159 476.309C621.505 475.295 623.681 471.999 624.434 468.619C625.187 465.239 624.768 461.689 624.434 458.225C621.171 427.802 621.756 396.872 626.191 366.618C627.53 367.209 629.119 366.195 629.789 364.927C630.374 363.575 630.291 362.054 630.207 360.533C630.207 360.787 623.262 360.533 622.677 360.449C618.493 360.279 617.322 361.209 617.322 365.857C619.33 366.871 618.995 369.829 618.41 372.026C617.908 374.054 617.489 376.083 617.155 378.111Z" fill="#212940"/>
<path d="M530.725 410.9C530.976 410.731 531.311 410.646 531.562 410.562C534.323 410.139 536.08 411.576 538.841 411.83C540.096 411.999 542.104 409.463 543.275 411.83C543.694 412.675 544.447 414.956 545.367 416.9C546.706 419.604 549.969 422.309 552.981 423.914C564.778 430.337 577.914 433.295 591.05 435.745C591.803 435.914 592.556 435.999 593.309 435.83C594.648 435.407 595.317 434.055 595.903 432.788C598.664 427.041 601.927 421.548 605.692 416.393C609.039 411.83 612.888 407.435 617.908 404.731C622.928 402.027 629.203 401.351 634.139 404.224C637.821 406.336 640.331 410.308 640.749 414.618C641.67 425.182 628.199 432.45 621.171 438.112C614.561 443.52 607.533 448.422 600.254 452.816C599.333 453.323 598.413 453.915 597.409 454.084C596.321 454.253 595.15 453.915 594.146 453.577C580.341 449.436 567.037 444.027 553.65 438.365C549.969 436.844 547.626 433.464 544.196 432.112C542.02 431.182 539.678 432.112 537.419 431.689C535.243 431.266 532.399 430.252 530.474 429.069C526.709 426.703 526.374 422.14 525.621 418.168C525.454 417.154 525.287 416.477 525.621 415.632C526.04 414.196 527.295 413.351 528.466 412.421C529.219 411.745 529.889 411.238 530.725 410.9Z" fill="#EAC5B0"/>
<path d="M627.446 441.323C622.76 444.872 617.991 448.337 613.557 452.393C610.628 455.098 607.616 457.971 603.768 458.985C601.341 459.661 598.748 459.408 596.237 459.154C580.759 457.464 565.615 452.816 551.81 445.548C550.555 444.872 549.216 444.112 548.379 442.844C547.04 440.647 547.877 437.858 548.714 435.492C549.718 432.703 550.722 429.914 551.726 427.041C552.061 426.196 552.395 425.351 553.148 424.844C553.818 424.421 554.738 424.421 555.575 424.506C565.447 425.351 575.237 426.787 584.859 428.9C587.954 429.576 591.217 430.252 594.146 429.154C600.421 426.703 606.194 411.069 609.624 405.069C613.557 398.139 617.238 391.04 621.254 384.28C625.772 376.674 630.542 368.899 637.737 363.913C653.216 353.265 673.798 366.956 668.36 385.801C664.26 399.998 656.646 413.097 647.024 424.168C641.335 430.928 634.39 436.168 627.446 441.323Z" fill="#3F60B2"/>
<path d="M612.888 296.476C610.712 300.363 609.625 304.927 609.457 309.405C609.374 310.589 609.29 312.025 608.37 312.701C607.366 313.462 608.286 315.152 607.449 314.138C606.696 313.124 604.019 309.574 603.935 308.307C603.684 305.349 603.684 302.307 603.935 299.349C604.186 296.729 604.688 294.025 606.362 292.081C607.366 290.898 608.704 290.053 610.043 289.293C611.967 288.109 613.892 286.926 616.067 286.588C619.832 285.912 622.175 287.264 618.828 289.884C616.402 291.659 614.394 293.771 612.888 296.476Z" fill="#212940"/>
<path d="M636.566 347.519C636.566 349.124 636.566 350.561 636.315 351.829C632.466 354.786 628.869 358.082 625.522 361.547C623.346 358.674 621.171 355.632 620.502 352.082C620.251 350.561 620.251 335.434 619.414 335.265C614.896 334.504 609.625 332.983 608.035 328.251C607.533 326.73 607.533 325.124 607.533 323.518C607.449 316.927 607.449 310.251 607.366 303.659C607.366 301.377 607.366 299.011 608.119 296.898C609.457 293.18 612.972 290.983 616.318 289.546C624.936 285.997 635.06 286.081 643.092 291.236C645.184 292.588 647.192 294.363 648.447 296.645C650.371 300.279 650.12 304.758 649.786 308.983C649.535 312.87 649.284 316.758 648.949 320.561C648.614 325.04 647.945 330.11 644.515 332.476C642.674 333.744 640.331 333.913 638.741 335.603C636.231 338.223 636.566 343.209 636.566 347.519Z" fill="#EAC5B0"/>
<path d="M606.362 327.321C607.198 331.462 609.123 335.35 612.469 337.716C616.234 340.336 620.92 340.505 625.438 340.674C627.864 340.758 630.291 340.758 632.801 340.843C638.992 341.012 645.1 340.167 648.279 333.575C649.785 330.533 650.204 326.983 650.036 323.603C649.953 322.673 649.869 321.659 649.451 320.899C649.032 320.054 648.196 319.462 647.359 319.631C646.271 319.8 645.602 320.983 644.933 321.913C643.427 323.941 640.666 325.04 638.49 323.941C637.821 323.603 637.235 323.096 636.733 322.673C636.482 322.504 636.315 322.251 636.064 322.082C633.721 320.223 630.876 319.293 628.032 318.955C625.605 318.617 621.924 317.687 620.083 319.8C618.996 321.068 617.991 322.251 616.904 323.518C616.485 324.025 615.983 324.533 615.481 324.871C614.896 325.209 614.226 325.293 613.557 325.293C611.884 325.293 610.043 324.532 609.457 322.842C609.206 322.082 609.206 321.321 609.206 320.476C609.206 319.716 609.039 318.87 608.621 318.279C606.78 315.997 606.278 319.631 606.194 320.814C605.776 323.011 605.943 325.209 606.362 327.321ZM623.179 328.504C625.103 329.857 627.195 329.857 629.37 329.18C630.458 328.842 630.96 330.702 629.872 331.04C627.279 331.8 624.685 331.716 622.342 330.195C621.255 329.518 622.175 327.828 623.179 328.504Z" fill="#212940"/>
<path d="M605.023 284.983C604.605 283.377 604.27 281.771 604.103 280.081C605.609 280.588 607.282 280.757 608.872 280.504C608.872 279.574 608.872 278.56 608.872 277.63C608.872 276.87 619.498 276.278 620.334 276.194C628.366 275.518 635.813 274.926 643.092 279.236C649.284 282.954 653.3 288.532 654.304 295.8C655.224 302.729 652.965 311.772 649.033 317.518C649.033 315.659 650.12 311.349 649.702 309.575C649.451 307.8 648.865 306.11 648.029 304.589C646.355 301.462 643.845 298.842 640.833 296.983C636.148 294.025 630.625 292.419 625.103 291.659C620.083 290.983 613.975 290.307 608.955 291.659C606.529 292.335 606.194 292.926 604.688 290.476C604.437 290.053 602.429 285.067 602.597 285.067C603.266 285.067 604.186 284.983 605.023 284.983Z" fill="#212940"/>
</svg>
