<svg width="320" height="319" viewBox="0 0 320 319" fill="none" xmlns="http://www.w3.org/2000/svg">
<path fill-rule="evenodd" clip-rule="evenodd" d="M20 0H300V81.2683H270.202V140.101H233.279V156.72H203.32V67.308H167.206V178.491H132.551V81.4345H105.344V161.373H98.5425V144.754H63.4008V177.993H50.1214V62.156H20.1619V156.72H20V0ZM20 234V234H300L20 234Z" fill="white"/>
<path opacity="0.08" d="M368.452 295.446C368.452 299.533 342.365 303 310.219 303C278.074 303 251.986 299.656 251.986 295.446C251.986 291.359 278.074 287.892 310.219 287.892C342.365 288.016 368.452 291.359 368.452 295.446Z" fill="#9DAFBD"/>
<path opacity="0.08" d="M43.689 292.626C75.8502 292.626 101.922 289.244 101.922 285.072C101.922 280.9 75.8502 277.518 43.689 277.518C11.5278 277.518 -14.5439 280.9 -14.5439 285.072C-14.5439 289.244 11.5278 292.626 43.689 292.626Z" fill="#9DAFBD"/>
<path opacity="0.08" d="M261.895 285.339C261.895 289.161 235.787 292.404 203.615 292.404C171.444 292.404 145.335 289.277 145.335 285.339C145.335 281.518 171.444 278.275 203.615 278.275C235.787 278.275 261.895 281.402 261.895 285.339Z" fill="#9DAFBD"/>
<path opacity="0.08" d="M118.255 281.218C137.437 281.218 152.988 278.451 152.988 275.037C152.988 271.623 137.437 268.856 118.255 268.856C99.0728 268.856 83.5225 271.623 83.5225 275.037C83.5225 278.451 99.0728 281.218 118.255 281.218Z" fill="#9DAFBD"/>
<path d="M71.1064 187.335L68.0155 127.769C68.0155 127.769 52.6845 126.902 48.2336 126.902C45.7609 126.902 41.5572 128.141 38.219 129.132C35.1281 130.122 32.5317 129.998 30.9244 132.971L5.82617 181.144L21.2808 182.63L26.4735 176.809L23.8771 172.846L33.2735 150.679L33.1499 188.202L71.1064 187.335Z" fill="#EAD18C"/>
<path opacity="0.5" d="M32.7792 141.763L16.2119 171.856L21.4047 177.924C21.4047 177.924 23.5065 178.295 25.4847 177.676L26.3501 176.685L23.7538 172.723L33.1502 150.556L32.7792 141.763Z" fill="url(#paint0_linear)"/>
<path d="M46.0075 175.199C45.3893 174.952 40.1966 171.979 36.3638 171.979C32.5311 171.979 27.8329 176.066 27.8329 176.066C27.8329 176.066 27.2147 178.171 29.8111 177.8C32.4074 177.428 34.1384 177.181 34.1384 177.181C34.1384 177.181 29.6874 179.534 32.6547 180.029C35.622 180.4 48.3566 180.029 48.3566 180.029L46.0075 175.199Z" fill="#EAC5B0"/>
<path d="M45.0192 183.991H-4.43555V180.4H45.0192C46.0083 180.4 46.8737 181.267 46.8737 182.258C46.8737 183.125 46.0083 183.991 45.0192 183.991Z" fill="#5B61D3"/>
<path d="M31.4192 183.992H-16.3046C-18.4065 183.992 -20.261 182.629 -20.7556 180.524L-29.1629 148.698C-29.9047 145.726 -27.6792 142.877 -24.7119 142.877H16.9537C19.0555 142.877 20.9101 144.24 21.4046 146.345L31.4192 183.992Z" fill="#3F60B2"/>
<path d="M-24.7123 142.877C-27.8032 142.877 -30.0287 145.726 -29.1632 148.698L-20.7559 180.524C-20.5086 181.515 -19.8904 182.382 -19.1486 183.001L9.90602 142.877H-24.7123V142.877Z" fill="#4B6DC2"/>
<path d="M3.3534 166.283C3.84795 168.388 2.61159 169.998 0.386129 169.998C-1.71569 169.998 -3.94116 168.264 -4.4357 166.283C-4.93025 164.178 -3.69388 162.568 -1.46842 162.568C0.757038 162.568 2.85885 164.178 3.3534 166.283Z" fill="white"/>
<path d="M46.626 119.472C46.9969 120.339 50.0878 132.104 50.0878 132.104C50.0878 132.104 51.2006 134.085 53.6733 133.837C56.2697 133.59 57.2587 129.998 57.2587 129.998L52.8078 115.138L46.626 119.472Z" fill="#EAC5B0"/>
<path d="M62.4513 112.166C62.4513 120.339 53.7968 129.255 45.7604 129.255C37.6003 129.255 33.1494 120.215 33.1494 112.166C33.1494 104.116 39.7022 97.4288 47.8622 97.4288C55.8986 97.4288 62.4513 103.992 62.4513 112.166Z" fill="#EAC5B0"/>
<path d="M48.9751 128.389L47.2441 132.847L48.3569 137.553L51.8187 132.599L55.2805 138.172L59.1133 131.361L56.5169 126.902C56.5169 126.902 55.2805 129.875 52.4369 130.494C49.5933 131.237 48.9751 128.389 48.9751 128.389Z" fill="white"/>
<path d="M51.8191 132.723L49.2227 135.942L50.459 137.924L48.6045 142.011L48.9754 168.76L51.5718 174.208L55.2809 168.14L54.4154 142.63L52.4372 137.676L53.9209 135.571L51.8191 132.723Z" fill="#3F60B2"/>
<path d="M69.87 140.153L70.7355 187.211L48.6045 186.964L69.87 140.153Z" fill="url(#paint1_linear)"/>
<path d="M68.0153 127.769L69.9935 172.103L49.4697 176.314L52.3134 181.639L81.6153 183.372L77.6589 139.534C77.288 134.952 74.568 130.989 70.488 129.007L68.0153 127.769Z" fill="#EAD18C"/>
<path d="M46.0078 175.199L50.0878 175.695L53.6733 181.639L46.8733 182.134L46.0078 175.199Z" fill="white"/>
<path d="M25.6084 195.385L-10.6172 204.673L7.8047 277.242L14.1102 274.022L8.67016 211.608L41.063 201.453L22.2702 212.227L22.6411 271.421H28.3284C28.3284 271.421 44.2776 213.465 45.7612 213.465C47.3685 213.465 74.0741 195.632 74.0741 195.632L25.6084 195.385Z" fill="#524F63"/>
<path d="M-11.7306 282.814L13.4913 281.081L14.2331 273.155L-12.7197 279.223L-11.7306 282.814Z" fill="#524F63"/>
<path d="M8.79297 287.272L13.8621 287.892L28.0803 282.567L28.4512 271.421H22.7639L20.1676 278.356L12.5021 283.062L8.79297 287.272Z" fill="#524F63"/>
<path d="M32.6557 106.964C32.0375 108.079 31.543 109.317 31.9139 110.432C32.4084 111.794 34.1394 112.29 35.623 112.413C38.0957 112.661 40.6921 112.785 43.1649 112.785C44.8958 112.785 46.503 112.661 48.234 112.29C50.954 111.67 53.3031 110.308 55.7758 108.946C57.5067 107.955 59.3613 106.717 59.7322 104.859C59.9795 102.878 58.6195 101.144 57.3831 99.7819C56.6413 98.915 55.8994 98.172 55.034 97.4289C52.8085 95.8191 49.9649 95.4475 47.2449 95.8191C40.4448 96.8098 35.7466 101.268 32.6557 106.964Z" fill="#4A4549"/>
<path d="M56.6412 111.67C56.8884 110.927 57.8775 110.432 58.6194 110.804C59.3612 111.051 59.8557 111.794 59.9794 112.661C60.103 113.404 59.8557 114.271 59.4848 115.014C59.3612 115.386 59.1139 115.757 58.9903 116.129C58.8666 116.5 58.8666 116.748 58.8666 117.119C58.8666 118.605 58.8666 119.968 58.9903 121.454C60.2266 120.958 60.8448 119.844 61.463 118.729C62.823 116.252 64.183 113.652 63.9357 110.804C63.8121 108.451 62.6994 106.345 61.463 104.364C61.2157 103.993 60.9685 103.497 60.5975 103.249C59.9794 102.878 59.2375 102.878 58.6194 103.002C58.0012 103.249 57.383 103.621 56.7648 103.993C56.1466 104.364 55.6521 104.736 55.0339 105.107C54.5393 105.479 53.9212 105.85 53.5502 106.469C53.0557 107.584 53.7975 108.079 54.4157 108.698C54.9102 108.946 54.2921 116.129 56.6412 111.67Z" fill="#4A4549"/>
<path d="M35.0043 124.054C33.0261 124.054 30.9243 122.444 30.1825 120.339C29.8116 119.225 29.9352 118.234 30.4297 117.491C30.9243 116.872 31.6661 116.5 32.5316 116.5C34.5097 116.5 36.6116 118.11 37.3534 120.215C37.7243 121.33 37.6007 122.321 37.1061 123.064C36.7352 123.683 35.9934 124.054 35.0043 124.054ZM32.5316 116.995C31.7897 116.995 31.1715 117.243 30.9243 117.738C30.5534 118.358 30.4297 119.225 30.8006 120.091C31.4188 121.949 33.397 123.435 35.1279 123.435C35.8698 123.435 36.4879 123.187 36.7352 122.692C37.1061 122.073 37.2298 121.206 36.8588 120.339C36.2407 118.482 34.2625 116.995 32.5316 116.995Z" fill="white"/>
<path d="M44.7719 124.054C42.7937 124.054 40.6919 122.444 39.95 120.339C39.5791 119.225 39.7028 118.234 40.1973 117.491C40.6919 116.872 41.4337 116.5 42.2991 116.5C44.2773 116.5 46.3792 118.11 47.121 120.215C47.4919 121.33 47.3683 122.321 46.8737 123.064C46.5028 123.683 45.761 124.054 44.7719 124.054ZM42.2991 116.995C41.5573 116.995 40.9391 117.243 40.6919 117.738C40.321 118.358 40.1973 119.225 40.5682 120.091C41.1864 121.949 43.1646 123.435 44.8955 123.435C45.6373 123.435 46.2555 123.187 46.5028 122.692C46.8737 122.073 46.9973 121.206 46.6264 120.339C46.0082 118.482 44.03 116.995 42.2991 116.995Z" fill="white"/>
<path d="M98.5537 89.132C98.6773 91.4849 99.9137 93.714 99.2955 95.9431C98.801 97.8006 97.07 99.039 96.5755 100.897C95.9573 103.002 97.07 105.107 98.0591 106.965C98.9246 108.575 100.161 110.308 101.892 110.308C102.634 110.308 103.376 109.937 104.117 109.565C105.848 108.698 107.579 107.832 109.31 106.965C110.052 106.593 110.794 106.222 111.412 105.602C112.277 104.736 112.772 103.497 113.143 102.383C114.503 98.7913 115.616 94.9524 115.368 91.1134C115.121 87.2744 113.019 83.3116 109.31 81.8255C107.332 81.0825 101.397 80.3395 99.6664 82.0732C98.9246 82.8162 99.2955 83.6831 99.1719 84.6738C99.0482 86.2837 98.43 87.6459 98.5537 89.132Z" fill="#524F63"/>
<path d="M102.633 100.649L100.902 101.144C93.6079 105.85 89.4043 112.537 88.4152 121.082L84.7061 181.267L90.2697 178.79L102.633 100.649Z" fill="#EAC5B0"/>
<path d="M139.477 100.277L109.804 99.0389C107.331 98.915 102.881 99.7819 100.408 100.525L96.5751 102.259L103.251 134.085C97.1932 144.364 94.1023 156.252 94.4732 168.14L98.0587 211.608H131.317L135.521 165.788C135.892 156.376 134.161 147.088 130.452 138.419L128.597 134.209L139.477 100.277Z" fill="#A1BDEB"/>
<path opacity="0.14" d="M103.746 113.033C104.611 114.519 105.724 115.881 107.208 116.872C109.186 117.986 111.659 118.234 113.884 117.739C116.11 117.243 118.212 116.253 120.19 115.014C123.775 112.909 127.113 110.432 129.833 107.212C131.688 104.983 133.048 101.64 131.564 99.1629C130.575 97.553 128.721 96.81 126.866 96.3146C117.222 93.5902 96.4515 99.1629 103.746 113.033Z" fill="url(#paint2_linear)"/>
<path d="M126.743 84.6736C126.743 92.5992 118.335 103.373 110.423 103.373C102.51 103.373 98.1826 92.5992 98.1826 84.6736C98.1826 76.7479 104.612 70.3083 112.524 70.3083C120.314 70.4322 126.743 76.7479 126.743 84.6736Z" fill="#EAC5B0"/>
<path d="M139.477 100.277L160.124 127.15C162.226 129.998 161.484 134.085 158.517 135.943L134.408 150.679L131.44 145.974L148.008 132.723C149.244 131.732 149.491 129.998 148.626 128.76L136.139 110.927L139.477 100.277Z" fill="#EAC5B0"/>
<path d="M73.3311 183.992H86.3129C88.4147 183.992 90.1457 182.382 90.2693 180.277L90.3929 178.791L73.3311 183.992Z" fill="#EAC5B0"/>
<path d="M108.568 94.3331C108.32 93.8377 112.029 103.745 112.029 103.745C112.029 103.745 112.895 107.831 116.233 106.841C119.695 105.85 117.593 91.361 117.098 91.2371C116.48 91.1133 108.815 95.1999 108.568 94.3331Z" fill="#EAC5B0"/>
<path d="M116.975 82.8162C110.298 86.9028 103.374 90.9895 95.709 91.4848C97.4399 89.3796 97.069 86.2836 97.4399 83.4354C97.9344 78.9772 100.654 74.6429 104.487 72.2899C108.32 69.937 113.265 69.3178 117.593 70.8039C119.2 71.4231 120.684 72.2899 121.673 73.6522C124.516 77.7388 120.065 80.9586 116.975 82.8162Z" fill="#524F63"/>
<path d="M116.357 98.7911C116.852 100.896 118.088 102.754 118.335 104.983C118.459 106.345 118.212 107.831 117.841 109.193C117.47 110.803 117.099 112.537 116.728 114.147C119.077 113.652 121.179 112.537 122.91 111.051C129.586 105.726 132.924 96.6858 131.441 88.3887C131.07 86.0358 130.204 83.6829 129.339 81.4538C128.721 79.72 127.979 77.9863 126.743 76.5003C125.63 75.0142 123.899 73.8997 122.044 73.8997C119.819 73.8997 117.841 75.2619 116.481 77.1195C115.615 78.3578 114.997 79.8439 114.997 81.3299C114.997 82.816 115.615 88.0172 116.975 88.6364C118.706 87.5218 121.426 88.5125 122.044 90.4939C123.157 93.5899 120.437 94.2091 118.583 95.1998C116.481 96.3143 115.863 96.3143 116.357 98.7911Z" fill="#524F63"/>
<path d="M131.564 89.3797C132.924 90.4943 134.531 91.2373 135.767 92.4757C137.004 93.7141 137.869 95.5716 137.127 97.3054C136.757 98.2961 135.767 99.0391 135.026 99.7821C134.284 100.525 133.542 101.516 133.666 102.63C133.789 103.373 134.16 103.993 134.655 104.612C135.767 106.222 136.633 108.079 136.262 109.937C136.015 111.423 134.902 112.785 133.666 113.528C132.306 114.271 130.698 114.519 129.215 114.271C128.349 114.147 127.484 113.9 126.618 113.9C124.269 114.024 122.415 116.129 120.066 116.376C118.706 116.5 117.346 116.005 116.48 115.014C115.615 114.024 115.12 112.661 115.367 111.299C115.738 109.194 117.593 107.584 119.324 106.346C121.055 104.983 122.909 103.373 123.156 101.268C123.404 99.6583 122.538 98.0484 122.786 96.4385C123.033 94.0856 125.258 92.3519 125.753 90.1228C126 88.8844 125.629 85.5408 127.607 85.5408C129.091 85.6646 130.451 88.5129 131.564 89.3797Z" fill="#524F63"/>
<path d="M114.502 86.7792C114.131 87.5222 113.513 88.2652 113.018 89.0082C112.277 89.999 111.535 90.9897 110.793 91.9804C111.288 89.999 111.535 88.0175 111.288 86.0361C111.288 85.7885 111.164 85.417 111.288 85.1693C111.411 84.5501 111.906 84.1786 112.4 83.9309C113.142 83.4355 114.873 81.9495 115.615 82.9402C116.109 83.6832 114.873 86.16 114.502 86.7792Z" fill="#524F63"/>
<path d="M131.935 141.639L130.575 142.877L135.273 148.326L131.935 141.639Z" fill="#524F63"/>
<path d="M232.452 187.335L229.361 127.769C229.361 127.769 214.03 124.549 209.579 124.549C207.107 124.549 202.903 125.788 199.565 126.779C196.474 127.769 193.877 129.998 192.27 132.97L167.172 181.143L182.626 182.629L187.819 176.809L185.223 172.846L194.619 150.679L194.496 188.202L232.452 187.335Z" fill="#D98E9D"/>
<path d="M230.35 110.556C230.35 118.729 223.798 125.292 215.638 125.292C211.187 125.292 207.972 120.587 205.376 117.491C203.15 114.89 201.543 114.147 201.543 110.556C201.543 102.382 207.601 95.9429 215.761 95.9429C223.921 95.9429 230.35 102.382 230.35 110.556Z" fill="#EAC5B0"/>
<path d="M192.888 183.992H141.455L130.575 142.877H181.884L192.888 183.992Z" fill="#524F63"/>
<path d="M192.889 183.991H143.063L131.936 141.639L182.256 142.877L192.889 183.991Z" fill="white"/>
<path d="M177.187 181.02H141.95V183.992H177.187V181.02Z" fill="#524F63"/>
<path d="M211.805 177.057L231.463 167.645L229.856 135.943L226.394 136.19L200.925 162.939C200.925 162.939 197.092 172.846 194.372 180.772V188.079L220.83 187.583L211.805 177.057Z" fill="url(#paint3_linear)"/>
<path opacity="0.2" d="M186.517 173.208C186.68 173.84 186.202 174.456 185.549 174.456H145.814C145.358 174.456 144.961 174.149 144.846 173.708L139.313 152.446C139.147 151.806 139.635 151.184 140.296 151.194L180.262 151.782C180.714 151.789 181.104 152.097 181.216 152.534L186.517 173.208Z" fill="#A1BDEB"/>
<path d="M186.953 195.385L150.728 204.673L169.149 277.242L175.455 274.022L170.015 211.608L202.408 201.453L183.615 212.227L183.986 271.421H189.673C189.673 271.421 205.622 213.465 207.106 213.465C208.713 213.465 235.419 195.633 235.419 195.633L186.953 195.385Z" fill="#314F8F"/>
<path d="M149.615 282.814L174.837 281.081L175.579 273.155L148.626 279.223L149.615 282.814Z" fill="#524F63"/>
<path d="M206.488 130.741C206.735 133.59 207.23 136.438 208.095 139.162C208.219 139.782 208.466 140.401 208.961 140.772C209.95 141.515 211.434 140.896 212.546 140.153C214.401 138.915 216.132 137.429 217.492 135.571C218.357 134.457 219.223 133.218 219.47 131.732C219.717 130.37 219.47 128.636 218.357 127.769C216.626 126.283 213.041 126.407 210.939 126.283C207.848 126.283 206.117 127.522 206.488 130.741Z" fill="#EFF2F7"/>
<path d="M170.139 287.273L175.208 287.892L189.55 282.567L189.797 271.421H184.11L181.513 278.356L173.848 283.062L170.139 287.273Z" fill="#524F63"/>
<path d="M210.197 117.986L209.084 130.37C209.084 130.37 209.949 135.571 213.04 134.704C216.131 133.837 216.502 131.485 216.502 131.485L217.862 116.624L210.197 117.986Z" fill="#EAC5B0"/>
<path d="M221.201 105.726C223.55 105.602 225.899 105.478 228.001 104.488C230.103 103.497 231.834 101.392 231.834 99.1627C231.834 96.8097 229.361 94.7045 227.259 95.3237C226.764 95.4475 226.27 95.819 225.775 95.9429C225.034 96.1905 224.168 95.9429 223.303 95.6952C217.368 93.9615 210.692 92.7231 205.128 95.5714C204.139 96.0667 203.15 96.8097 202.532 97.8004C202.161 98.5435 202.037 99.5342 201.913 100.401C201.666 102.754 201.543 105.231 201.419 107.584C203.026 106.717 204.633 105.726 206.241 104.983C207.848 104.24 208.961 104.983 210.692 105.355C214.154 105.85 217.739 105.85 221.201 105.726Z" fill="#4A4549"/>
<path opacity="0.7" d="M207.353 101.763C205.87 101.515 204.262 102.011 203.026 103.001C201.913 104.859 201.171 106.964 201.048 109.193C201.171 109.936 201.419 110.803 201.295 111.546C201.295 112.042 201.542 112.785 201.79 113.652C202.655 114.89 204.015 115.757 205.375 117.367C205.375 117.49 205.499 117.49 205.499 117.614C206.982 115.138 209.208 109.565 209.702 108.946C210.321 108.079 212.546 105.478 212.175 104.364C211.804 103.249 208.342 102.011 207.353 101.763Z" fill="#4A4549"/>
<path d="M207.353 107.831C207.23 107.708 207.106 107.46 206.983 107.336C206.735 107.212 206.488 107.212 206.241 107.212C205.252 107.212 204.139 107.336 203.521 108.079C203.273 108.451 203.15 108.822 203.026 109.194C202.779 110.184 202.779 111.175 202.902 112.166C203.026 113.652 203.768 115.385 205.252 115.633C206.117 115.881 207.106 115.509 207.724 114.89C210.073 112.785 208.837 110.06 207.353 107.831Z" fill="#EAC5B0"/>
<path d="M225.899 115.509C226.641 115.385 227.383 115.138 228.248 115.385C228.99 115.509 229.732 116.128 229.732 116.995C229.732 117.367 229.608 117.738 229.608 118.11C229.361 119.224 229.855 120.463 230.226 121.577C231.092 123.93 231.71 126.902 230.226 129.007C228.866 130.989 226.146 131.484 223.797 131.484C216.626 131.113 209.95 126.035 207.724 119.224C206.983 116.871 206.735 114.271 207.477 111.918C207.724 111.175 208.343 110.308 209.084 110.679C209.455 113.404 211.31 116.004 213.783 117.243C218.234 119.1 221.695 116.5 225.899 115.509Z" fill="#4A4549"/>
<path d="M133.543 142.877L181.267 143.992L191.158 182.629H143.928L133.543 142.877ZM131.936 141.639L143.063 183.991H192.765L182.256 142.877L131.936 141.639Z" fill="#524F63"/>
<path d="M212.547 183.992H141.95V181.02H212.547C213.412 181.02 214.03 181.639 214.03 182.506C214.03 183.249 213.289 183.992 212.547 183.992Z" fill="#F3F7FB"/>
<path d="M176.816 183.992H141.95V181.02H176.816C177.681 181.02 178.299 181.639 178.299 182.506C178.299 183.249 177.558 183.992 176.816 183.992Z" fill="#314F8F"/>
<path d="M229.361 127.769L216.503 161.825L183.739 166.159L184.976 172.722L226.889 171.36L238.263 141.515C238.881 140.029 238.881 138.419 238.51 136.933C237.521 133.59 235.049 130.741 231.834 129.132L229.361 127.769Z" fill="#D98E9D"/>
<path d="M183.739 166.159L166.059 156.747C166.059 156.747 165.07 158.11 166.554 159.348C167.914 160.462 172.365 163.806 172.365 163.806V166.407C173.848 171.236 178.423 173.465 183.368 172.97L184.976 172.846L183.739 166.159Z" fill="#EAC5B0"/>
<path d="M255.696 183.868H234.678C234.678 183.868 234.06 182.382 237.398 181.762C240.736 181.143 250.256 180.896 250.256 180.896L252.729 178.171L256.067 179.038L255.696 183.868Z" fill="#75454F"/>
<path d="M273.005 119.348L250.503 180.029L256.067 181.391L290.561 122.197C290.561 122.197 289.572 118.358 283.761 114.643C277.95 111.051 273.005 119.348 273.005 119.348Z" fill="#3F60B2"/>
<path d="M273.623 91.4846C269.296 84.6735 260.147 82.6921 253.347 87.0265C249.514 89.5032 247.041 93.8376 246.671 98.4196C246.423 100.649 246.423 101.515 247.412 103.621C248.401 105.726 250.874 108.698 249.391 112.909C249.02 113.899 249.391 115.385 250.503 115.881C251.616 116.376 252.729 115.138 253.842 115.014C255.943 114.89 260.147 118.11 261.631 119.472C262.249 119.967 262.991 120.587 263.856 120.71C264.598 120.834 265.34 120.587 265.958 120.215C269.172 118.481 271.151 115.138 272.758 111.918C274.242 108.822 275.602 105.602 275.849 102.259C276.467 98.6672 275.849 94.8283 273.623 91.4846Z" fill="#EAC5B0"/>
<path d="M273.129 119.967C273.747 120.587 274.489 121.33 275.354 121.206C275.725 121.206 276.096 120.958 276.467 120.711C277.332 120.091 278.198 119.348 278.94 118.605C279.434 118.11 279.805 117.615 279.929 116.872C279.929 116.5 279.805 116.129 279.682 115.757C278.198 112.413 275.107 109.813 274.118 106.345C273.623 104.735 273.623 103.002 273.005 101.516C272.387 100.03 271.151 98.4197 269.543 98.4197C268.554 98.4197 267.689 98.915 266.823 99.4104C264.227 101.268 262.743 104.612 262.991 107.831C263.238 110.68 264.845 113.404 267.318 115.014C269.543 116.376 271.151 117.986 273.129 119.967Z" fill="#EAC5B0"/>
<path d="M253.347 87.0265C250.627 88.7602 248.649 91.4846 247.536 94.5806C250.38 95.9428 257.551 92.8468 259.529 91.7323C259.282 96.6858 262.002 101.639 266.205 104.116C268.802 105.602 271.893 106.345 274.365 107.831C274.984 105.974 275.602 104.116 275.725 102.259C276.467 98.6672 275.849 94.8283 273.624 91.4846C269.296 84.6735 260.147 82.6921 253.347 87.0265Z" fill="#4A4549"/>
<path d="M261.26 102.011C260.394 100.525 261.26 98.4196 262.867 97.5528C264.474 96.8097 266.453 97.3051 267.689 98.4196C268.925 99.658 269.42 101.516 269.296 103.249C269.173 105.478 267.565 107.831 265.34 107.707C264.104 107.584 263.114 106.841 262.373 105.85C261.754 104.859 261.384 103.621 261.013 102.506" fill="#EAC5B0"/>
<path d="M281.165 112.413L276.961 107.46L270.408 119.72L272.757 127.397L281.536 117.49L281.165 112.413Z" fill="white"/>
<path d="M285.987 113.033L325.303 156.871L301.194 178.047L271.769 132.723C268.801 128.388 273.376 118.729 276.343 114.395C278.569 111.175 283.019 110.556 285.987 113.033Z" fill="#314F8F"/>
<path d="M323.944 291.483L313.434 231.669L301.194 178.047L325.304 156.871L323.944 231.05L329.878 288.511L323.944 291.483Z" fill="#37354C"/>
<path d="M325.303 156.871L305.521 293.34L299.463 292.35L301.194 178.047L325.303 156.871Z" fill="#524F63"/>
<path d="M288.46 297.675L304.286 297.056L305.275 292.102L300.7 291.483L285.369 295.817L285.74 297.923L288.46 297.675Z" fill="#524F63"/>
<path d="M329.878 288.511L330.249 293.093L311.95 294.207L311.703 292.721L328.023 287.52L329.878 288.511Z" fill="#37354C"/>
<path d="M247.907 183.868H226.765C226.765 183.868 226.147 182.382 229.485 181.762C232.823 181.143 243.085 180.896 243.085 180.896L244.816 178.047L249.39 179.781L247.907 183.868Z" fill="#EAC5B0"/>
<path d="M277.95 116.995L261.878 147.212L242.714 180.772L248.896 181.02L265.958 157.367L288.583 128.388C291.55 126.036 292.416 121.949 290.685 118.605C288.336 113.652 281.66 112.785 277.95 116.995Z" fill="#314F8F"/>
<path d="M287.099 156.252C286.605 150.06 284.503 130.989 284.503 130.989L277.95 142.134L287.099 156.252Z" fill="url(#paint4_linear)"/>
<path d="M112.648 206.53C111.536 206.53 103.005 210.121 103.005 210.121L109.681 265.477C108.197 266.22 106.096 266.591 104.612 267.087C101.274 268.077 98.3065 268.325 95.4629 270.307C95.2156 270.43 95.2156 271.297 95.092 271.545C94.9684 272.164 95.8338 272.412 96.452 272.536C100.408 272.659 104.488 272.783 108.445 272.536C111.041 272.412 113.019 271.173 115.368 269.935C116.728 269.316 117.223 267.211 117.099 266.344C117.099 266.096 113.638 206.53 112.648 206.53Z" fill="#EAC5B0"/>
<path d="M105.23 270.554C109.063 270.183 114.255 268.449 117.223 266.096C117.47 268.697 116.728 271.05 111.906 272.288C106.343 273.774 100.284 275.26 94.7207 273.65C94.1026 273.526 93.4844 273.155 93.4844 272.536C93.4844 272.288 93.608 272.04 93.8553 271.793C94.8444 270.43 97.8117 268.077 99.5426 268.697C100.408 268.944 101.15 270.059 102.139 270.307C103.004 270.554 104.241 270.678 105.23 270.554Z" fill="#524F63"/>
<path d="M133.172 266.468C133.172 266.22 129.71 206.654 128.721 206.654C127.608 206.654 119.077 210.245 119.077 210.245L125.754 265.601C126.866 268.573 127.855 271.421 129.463 274.146C131.07 276.87 133.295 279.347 136.139 280.833C136.386 280.957 136.881 281.081 137.128 280.957C137.252 280.833 137.375 280.585 137.375 280.461C137.87 278.852 137.128 277.118 136.51 275.508C135.397 272.536 133.419 269.564 133.172 266.468Z" fill="#EAC5B0"/>
<path d="M127.608 273.774C129.339 276.994 131.441 280.214 134.779 281.7C135.397 281.948 136.015 282.195 136.51 282.071C137.375 281.948 137.87 281.205 138.117 280.338C138.364 279.471 138.241 278.728 137.993 277.861C137.622 276.623 137.128 275.508 136.51 274.394C136.386 274.146 136.139 273.898 135.892 273.774C135.521 273.774 135.15 274.022 134.902 274.27C134.037 274.889 132.801 274.765 131.935 274.27C131.07 273.774 130.328 272.907 129.71 272.041C128.473 270.307 127.361 267.211 125.63 266.22C125.012 268.821 126.372 271.545 127.608 273.774Z" fill="#524F63"/>
<path d="M33.1494 286.777C35.4027 286.777 37.2294 284.948 37.2294 282.691C37.2294 280.434 35.4027 278.604 33.1494 278.604C30.896 278.604 29.0693 280.434 29.0693 282.691C29.0693 284.948 30.896 286.777 33.1494 286.777Z" fill="#524F63"/>
<path d="M82.6044 286.777C84.8578 286.777 86.6844 284.948 86.6844 282.691C86.6844 280.434 84.8578 278.604 82.6044 278.604C80.3511 278.604 78.5244 280.434 78.5244 282.691C78.5244 284.948 80.3511 286.777 82.6044 286.777Z" fill="#524F63"/>
<path d="M60.9676 282.691C60.9676 284.92 59.1131 286.777 56.8876 286.777C54.6622 286.777 52.8076 284.92 52.8076 282.691C52.8076 280.461 54.6622 278.604 56.8876 278.604C59.1131 278.604 60.9676 280.461 60.9676 282.691Z" fill="#524F63"/>
<path d="M33.1494 282.691V280.586C33.1494 275.88 36.9822 271.917 41.804 271.917H57.8768V229.936" stroke="#524F63" stroke-miterlimit="10"/>
<path d="M82.1098 282.691V280.586C82.1098 275.88 78.277 271.917 73.4552 271.917H57.2588V229.936" stroke="#524F63" stroke-miterlimit="10"/>
<path d="M56.8877 282.691V271.917" stroke="#524F63" stroke-miterlimit="10"/>
<path d="M61.5856 250.74H52.4365V271.545H61.5856V250.74Z" fill="#524F63"/>
<path d="M59.7318 230.307H53.9209V253.96H59.7318V230.307Z" fill="#524F63"/>
<path d="M190.91 286.777C193.163 286.777 194.99 284.948 194.99 282.691C194.99 280.434 193.163 278.604 190.91 278.604C188.657 278.604 186.83 280.434 186.83 282.691C186.83 284.948 188.657 286.777 190.91 286.777Z" fill="#524F63"/>
<path d="M240.365 286.777C242.619 286.777 244.445 284.948 244.445 282.691C244.445 280.434 242.619 278.604 240.365 278.604C238.112 278.604 236.285 280.434 236.285 282.691C236.285 284.948 238.112 286.777 240.365 286.777Z" fill="#524F63"/>
<path d="M214.524 286.777C216.778 286.777 218.604 284.948 218.604 282.691C218.604 280.434 216.778 278.604 214.524 278.604C212.271 278.604 210.444 280.434 210.444 282.691C210.444 284.948 212.271 286.777 214.524 286.777Z" fill="#524F63"/>
<path d="M190.91 282.691V280.586C190.91 275.88 194.743 271.917 199.565 271.917H215.761V229.936" stroke="#524F63" stroke-miterlimit="10"/>
<path d="M239.871 282.691V280.586C239.871 275.88 236.038 271.917 231.216 271.917H215.02V229.936" stroke="#524F63" stroke-miterlimit="10"/>
<path d="M214.524 282.691V271.917" stroke="#524F63" stroke-miterlimit="10"/>
<path d="M219.346 250.74H210.197V271.545H219.346V250.74Z" fill="#524F63"/>
<path d="M217.493 230.307H211.682V253.96H217.493V230.307Z" fill="#524F63"/>
<path d="M249.267 188.326H-32.9961V233.155H249.267V188.326Z" fill="#BCBACE"/>
<path d="M252.357 188.698H247.659V302.876H252.357V188.698Z" fill="#524F63"/>
<path d="M252.481 214.827L-33.3672 188.698H252.481V214.827Z" fill="url(#paint5_linear)"/>
<path d="M262.99 183.992H-44V191.546H262.99V183.992Z" fill="#E0E4ED"/>
<path opacity="0.08" d="M297.65 315.039C297.65 317.224 283.934 319 266.825 319C249.716 319 236 317.224 236 315.039C236 312.853 249.716 311.078 266.825 311.078C283.934 311.078 297.65 312.853 297.65 315.039Z" fill="#9DAFBD"/>
<path d="M242.933 191.561C242.933 191.561 233.346 230.626 248.537 257.261C263.728 283.896 263.581 283.76 263.581 283.76C263.581 283.76 267.563 217.377 242.933 191.561Z" fill="#5BB59B"/>
<path d="M243.523 293.731C244.408 298.512 245.587 303.429 248.242 307.663C250.75 311.897 254.879 315.585 260.041 316.678C262.401 317.224 264.761 317.224 267.121 317.088C269.775 317.088 272.43 316.815 274.79 315.585C277.74 313.946 279.215 310.941 280.395 307.936C282.459 302.882 283.934 297.692 284.967 292.502C285.557 289.497 285.999 286.218 284.377 283.487C282.312 279.799 277.445 278.296 273.02 277.613C265.646 276.521 255.469 275.974 248.39 278.706C242.195 281.165 242.49 288.404 243.523 293.731Z" fill="#D8E4F2"/>
<path d="M260.337 283.896C266.236 284.17 272.578 283.35 276.265 281.574C277.003 281.165 277.593 280.755 277.298 280.345C276.855 279.799 275.38 279.526 273.905 279.526C266.826 278.843 259.009 278.569 252.077 279.662C242.048 281.165 254.879 283.623 260.337 283.896Z" fill="#524F63"/>
<path d="M257.239 182C257.239 182 252.519 256.442 263.581 283.76C263.581 283.76 270.808 217.377 257.239 182Z" fill="#63A590"/>
<path d="M262.254 283.213H264.909C268.743 268.462 280.1 220.655 274.053 198.391C274.053 198.391 254.879 261.086 259.746 275.154C260.779 278.842 261.664 281.438 262.254 283.213Z" fill="#5BB59B"/>
<defs>
<linearGradient id="paint0_linear" x1="16.1475" y1="159.912" x2="33.0925" y2="159.912" gradientUnits="userSpaceOnUse">
<stop stop-color="#EAD18C" stop-opacity="0"/>
<stop offset="1" stop-color="#524F63" stop-opacity="0.7"/>
</linearGradient>
<linearGradient id="paint1_linear" x1="25.2112" y1="181.565" x2="108.767" y2="148.569" gradientUnits="userSpaceOnUse">
<stop stop-color="#EAD18C" stop-opacity="0"/>
<stop offset="1" stop-color="#524F63" stop-opacity="0.7"/>
</linearGradient>
<linearGradient id="paint2_linear" x1="108.035" y1="128.592" x2="123.728" y2="87.1467" gradientUnits="userSpaceOnUse">
<stop stop-color="#3F60B2"/>
<stop offset="1" stop-color="#444BCC" stop-opacity="0.5018"/>
</linearGradient>
<linearGradient id="paint3_linear" x1="194.299" y1="161.951" x2="231.424" y2="161.951" gradientUnits="userSpaceOnUse">
<stop stop-color="#B6567A" stop-opacity="0"/>
<stop offset="1" stop-color="#C45771"/>
</linearGradient>
<linearGradient id="paint4_linear" x1="280.706" y1="159.886" x2="285.978" y2="127.485" gradientUnits="userSpaceOnUse">
<stop stop-color="#484EC2" stop-opacity="0"/>
<stop offset="1" stop-color="#444BCC" stop-opacity="0.5018"/>
</linearGradient>
<linearGradient id="paint5_linear" x1="108.024" y1="208.666" x2="128.064" y2="116.324" gradientUnits="userSpaceOnUse">
<stop stop-color="#676475" stop-opacity="0"/>
<stop offset="1" stop-color="#524F63" stop-opacity="0.7"/>
</linearGradient>
</defs>
</svg>
