<svg width="1440" height="700" viewBox="0 0 1440 700" fill="none" xmlns="http://www.w3.org/2000/svg">
<rect x="104" width="1240" height="610" rx="12" fill="#D8E4F2" fill-opacity="0.3"/>
<path opacity="0.08" d="M71.5201 658.349C71.5201 661.714 51.9882 664.449 27.6258 664.449C3.26337 664.449 -16.2686 661.714 -16.2686 658.349C-16.2686 654.983 3.26337 652.248 27.6258 652.248C51.9882 652.248 71.5201 654.983 71.5201 658.349Z" fill="#9DAFBD"/>
<path opacity="0.08" d="M1480 660.241C1480 663.607 1460.47 666.342 1436.11 666.342C1411.95 666.342 1392.21 663.607 1392.21 660.241C1392.21 656.875 1411.74 654.141 1436.11 654.141C1460.47 654.141 1480 656.875 1480 660.241Z" fill="#9DAFBD"/>
<path fill-rule="evenodd" clip-rule="evenodd" d="M740 70H1280V226.285H1222.53V339.424H1151.32V371.385H1093.55V199.439H1023.9V413.252H957.062V226.605H904.592V380.333H891.475V348.373H823.702V412.294H798.091V189.531H740.312V371.385H740V70ZM740 520V520H1280V520H740Z" fill="white"/>
<path d="M1061.75 228.03H1054.13V235.65H1061.75V228.03Z" fill="white"/>
<path d="M1072.26 246.278H1043.74V217.756H1072.26V246.278ZM1045.19 244.83H1070.8V219.213H1045.19V244.83Z" fill="white"/>
<path d="M1058.72 230.812H1057.27V248.185H1058.72V230.812Z" fill="white"/>
<path d="M1051.1 215.564H1049.65V235.651H1051.1V215.564Z" fill="white"/>
<path d="M1066.35 215.564H1064.9V235.651H1066.35V215.564Z" fill="white"/>
<path d="M1052.29 212H1048.47V215.815H1052.29V212Z" fill="white"/>
<path d="M1059.91 212H1056.09V215.815H1059.91V212Z" fill="white"/>
<path d="M1067.53 212H1063.71V215.815H1067.53V212Z" fill="white"/>
<path d="M1052.29 248.186H1048.47V252.001H1052.29V248.186Z" fill="white"/>
<path d="M1059.91 248.186H1056.09V252.001H1059.91V248.186Z" fill="white"/>
<path d="M1067.53 248.186H1063.71V252.001H1067.53V248.186Z" fill="white"/>
<path d="M1078 222.472H1074.19V226.288H1078V222.472Z" fill="white"/>
<path d="M1078 230.093H1074.19V233.908H1078V230.093Z" fill="white"/>
<path d="M1078 237.713H1074.19V241.528H1078V237.713Z" fill="white"/>
<path d="M1041.81 222.472H1038V226.288H1041.81V222.472Z" fill="white"/>
<path d="M1041.81 230.093H1038V233.908H1041.81V230.093Z" fill="white"/>
<path d="M1041.81 237.713H1038V241.528H1041.81V237.713Z" fill="white"/>
<path fill-rule="evenodd" clip-rule="evenodd" d="M160 70H700V226.285H654.089V339.424H583.193V371.385H525.101V199.439H455.454V413.252H388.618V226.605H336.46V380.333H323.343V348.373H255.257V412.294H229.96V189.531H160V70ZM160 520V520H700L160 520Z" fill="white"/>
<path d="M-6.39686 468.181C-6.39686 468.181 -20.0482 528.344 1.58392 569.365C23.216 610.386 23.006 610.175 23.006 610.175C23.006 610.175 28.6766 507.939 -6.39686 468.181Z" fill="#5BB59B"/>
<path d="M-5.55626 625.532C-4.29614 632.895 -2.61597 640.468 1.1644 646.989C4.73475 653.51 10.6153 659.19 17.9661 660.873C21.3264 661.714 24.6867 661.714 28.047 661.504C31.8274 661.504 35.6078 661.083 38.9681 659.19C43.1685 656.666 45.2687 652.038 46.9489 647.41C49.8892 639.626 51.9894 631.633 53.4595 623.639C54.2996 619.011 54.9297 613.962 52.6195 609.755C49.6792 604.075 42.7485 601.761 36.4479 600.709C25.9468 599.026 11.4554 598.185 1.37442 602.392C-7.44645 606.179 -7.02641 617.328 -5.55626 625.532Z" fill="white"/>
<path d="M18.3852 610.386C26.786 610.807 35.8169 609.544 41.0674 606.81C42.1175 606.179 42.9576 605.548 42.5376 604.916C41.9075 604.075 39.8073 603.654 37.7071 603.654C27.6261 602.602 16.495 602.182 6.62404 603.865C-7.65737 606.179 10.6144 609.965 18.3852 610.386Z" fill="#524F63"/>
<path d="M13.9746 453.455C13.9746 453.455 7.25391 568.103 23.0055 610.175C23.0055 610.175 33.2965 507.939 13.9746 453.455Z" fill="#63A590"/>
<path d="M21.1152 609.334H24.8956C30.3562 586.615 46.5277 512.988 37.9169 478.699C37.9169 478.699 10.6142 575.255 17.5449 596.922C19.015 602.602 20.2752 606.599 21.1152 609.334Z" fill="#5BB59B"/>
<path d="M1404.18 472.177C1404.18 472.177 1390.53 532.341 1412.16 573.362C1433.8 614.172 1433.8 614.172 1433.8 614.172C1433.8 614.172 1439.26 511.936 1404.18 472.177Z" fill="#5BB59B"/>
<path d="M1405.02 629.318C1406.28 636.681 1407.96 644.254 1411.74 650.775C1415.52 657.296 1421.19 662.976 1428.55 664.659C1431.91 665.5 1435.27 665.5 1438.63 665.29C1442.41 665.29 1446.19 664.869 1449.55 662.976C1453.75 660.452 1455.85 655.824 1457.53 651.196C1460.47 643.412 1462.57 635.419 1464.04 627.425C1464.88 622.797 1465.51 617.748 1463.2 613.541C1460.26 607.861 1453.33 605.547 1447.03 604.495C1436.53 602.812 1422.03 601.971 1411.95 606.178C1403.13 609.965 1403.55 621.324 1405.02 629.318Z" fill="white"/>
<path d="M1428.96 614.383C1437.37 614.803 1446.4 613.541 1451.65 610.806C1452.7 610.175 1453.54 609.544 1453.12 608.913C1452.49 608.072 1450.39 607.651 1448.29 607.651C1438.21 606.599 1427.07 606.178 1417.2 607.861C1402.92 609.965 1421.19 613.962 1428.96 614.383Z" fill="#524F63"/>
<path d="M1424.55 457.452C1424.55 457.452 1417.83 572.1 1433.58 614.172C1433.58 614.172 1443.88 511.936 1424.55 457.452Z" fill="#63A590"/>
<path d="M1431.69 613.33H1435.47C1440.94 590.611 1457.11 516.984 1448.5 482.695C1448.5 482.695 1421.19 579.252 1428.12 600.919C1429.59 606.599 1430.85 610.596 1431.69 613.33Z" fill="#5BB59B"/>
<path opacity="0.08" d="M96.3025 690.113C150.934 690.113 195.222 684.368 195.222 677.281C195.222 670.194 150.934 664.448 96.3025 664.448C41.6707 664.448 -2.61719 670.194 -2.61719 677.281C-2.61719 684.368 41.6707 690.113 96.3025 690.113Z" fill="#9DAFBD"/>
<path opacity="0.08" d="M1455.01 687.168C1455.01 694.11 1410.69 700 1356.09 700C1301.48 700 1257.17 694.32 1257.17 687.168C1257.17 680.226 1301.48 674.336 1356.09 674.336C1410.69 674.546 1455.01 680.226 1455.01 687.168Z" fill="#9DAFBD"/>
<path opacity="0.08" d="M903.336 682.378C957.968 682.378 1002.26 676.633 1002.26 669.546C1002.26 662.459 957.968 656.714 903.336 656.714C848.704 656.714 804.416 662.459 804.416 669.546C804.416 676.633 848.704 682.378 903.336 682.378Z" fill="#9DAFBD"/>
<path opacity="0.08" d="M1274 670C1274 676.492 1229.65 682 1175 682C1120.35 682 1076 676.689 1076 670C1076 663.508 1120.35 658 1175 658C1229.65 658 1274 663.311 1274 670Z" fill="#9DAFBD"/>
<path opacity="0.08" d="M1030 663C1062.58 663 1089 658.299 1089 652.5C1089 646.701 1062.58 642 1030 642C997.415 642 971 646.701 971 652.5C971 658.299 997.415 663 1030 663Z" fill="#9DAFBD"/>
<path d="M113.944 335.863L151.328 341.963L133.476 325.765L141.877 316.299L174.22 345.119C178.631 349.747 175.48 357.53 168.97 357.74L123.815 359.213L113.944 335.863Z" fill="#D8E4F2"/>
<path d="M129.487 431.578L128.857 675.598L116.045 676.439L107.014 469.443L95.2532 470.495L83.072 674.546L70.2607 673.705L71.9409 427.16L129.487 431.578Z" fill="#524F63"/>
<path d="M113.945 335.863L70.891 333.969C66.4805 333.759 62.0701 335.652 59.3398 339.018L71.9411 437.888L130.747 439.151L125.286 348.484C125.286 348.695 115.625 335.863 113.945 335.863Z" fill="#D8E4F2"/>
<path d="M133.266 316.93C130.956 318.823 127.806 320.506 127.386 323.451C126.966 325.976 128.856 328.711 131.376 329.552C133.896 330.393 136.627 329.973 138.937 328.921C142.717 327.238 145.868 323.662 146.708 319.455C147.128 316.51 145.868 310.619 142.297 309.568C138.307 308.516 136.207 314.616 133.266 316.93Z" fill="white"/>
<path d="M70.261 673.704L45.2686 681.277L46.1086 683.381L82.4422 679.384L83.0723 674.546L70.261 673.704Z" fill="#424051"/>
<path d="M123.396 297.787C121.716 296.946 119.616 297.787 118.566 299.26C117.516 300.732 117.516 302.836 118.146 304.519C119.196 307.674 122.766 309.988 126.127 309.357C129.487 308.936 132.217 305.36 131.587 302.205C131.167 299.891 129.487 297.787 127.177 296.946C124.866 296.104 122.346 296.314 120.036 297.156" fill="#EAC5B0"/>
<path d="M122.556 301.574L141.878 316.93C141.878 316.93 142.298 325.345 137.677 326.186C136.207 327.027 118.355 308.095 118.355 308.095L122.556 301.574Z" fill="#EAC5B0"/>
<path d="M116.045 676.439L116.675 680.436L147.968 685.695C147.968 685.695 149.438 683.17 148.598 682.96C147.758 682.75 128.856 675.597 128.856 675.597L116.045 676.439Z" fill="#424051"/>
<path d="M85.3828 315.037L86.4329 341.963C86.4329 345.118 88.7431 347.643 91.6834 348.274C95.2538 348.905 98.4041 346.381 99.0341 342.804L100.294 319.454L85.3828 315.037Z" fill="#EAC5B0"/>
<path d="M125.117 292.565L111.49 290.026L106.151 318.772L119.778 321.312L125.117 292.565Z" fill="#524F63"/>
<path d="M123.633 292.433L111.451 290.163L106.112 318.909L118.294 321.179L123.633 292.433Z" fill="#524F63"/>
<path d="M83.702 337.966C83.702 337.966 81.8119 339.649 81.6018 340.28C81.3918 340.911 89.1626 352.902 89.1626 352.902L94.4131 344.698L100.924 352.902L103.654 337.966L99.2436 336.915L94.4131 342.384L85.8023 335.442L83.702 337.966Z" fill="white"/>
<path d="M94.413 344.487L91.2627 349.957L93.5729 353.954L92.3128 357.109L93.5729 396.657L97.9833 401.706L101.974 396.868L97.7733 356.899L95.4631 353.743L98.4034 349.536L94.413 344.487Z" fill="#314F8F"/>
<path d="M74.2519 286.217C71.5216 292.528 71.7317 299.68 73.2018 306.412C74.672 313.775 77.8223 320.927 83.4928 325.765C89.1634 330.393 98.1943 331.866 104.075 327.238C107.645 324.503 109.535 320.296 111.006 316.089C113.736 307.674 114.156 298.208 110.796 290.214C104.495 275.489 81.8127 268.547 74.2519 286.217Z" fill="#EAC5B0"/>
<path d="M64.5901 367.628L18.1756 382.563L-15.4277 345.75L-7.02691 338.808L24.0561 364.262L59.3396 339.229L65.2202 349.747L64.5901 367.628Z" fill="#D8E4F2"/>
<path d="M66.2704 298.208C64.1701 299.049 63.3301 301.573 63.5401 303.677C63.7501 305.781 65.0102 307.884 66.2704 309.567C67.1104 310.619 67.7405 311.46 68.7906 312.092C69.8407 312.723 70.8908 312.933 72.1509 313.143C73.6211 313.354 75.3012 313.143 76.1413 312.092C76.5614 311.46 76.7714 310.619 76.7714 309.988C77.1914 306.412 76.3514 304.939 74.2511 302.415C72.361 299.891 69.8407 296.525 66.2704 298.208Z" fill="#EAC5B0"/>
<path d="M79.5012 298.418C79.2911 302.205 77.401 305.991 74.2506 307.885C71.7304 304.729 70.4703 300.732 70.0502 296.946C69.4202 292.107 70.2602 286.848 73.2005 282.851C76.5609 278.223 82.0214 275.699 87.692 275.278C93.3625 274.858 98.8231 276.33 104.074 278.434C106.384 279.275 109.114 280.327 111.004 278.644C111.844 280.327 112.474 282.22 112.474 284.114C112.474 285.586 112.264 287.059 111.424 288.321C109.954 290.424 107.854 292.738 105.334 293.159C87.0619 297.156 78.6611 287.269 78.4511 287.69C78.241 288.742 78.6611 289.793 78.8711 290.845C79.2911 293.37 79.7112 295.894 79.5012 298.418Z" fill="#524F63"/>
<path d="M949.908 503.522L944.658 402.338C944.658 402.338 918.615 400.865 911.055 400.865C906.854 400.865 899.714 402.969 894.043 404.652C888.792 406.334 884.382 406.124 881.652 411.173L839.018 493.004L865.27 495.528L874.091 485.641L869.681 478.909L885.642 441.255L885.432 504.994L949.908 503.522Z" fill="#EAD18C"/>
<path opacity="0.5" d="M884.802 426.108L856.659 477.226L865.48 487.534C865.48 487.534 869.05 488.165 872.411 487.113L873.881 485.431L869.47 478.699L885.432 441.044L884.802 426.108Z" fill="url(#paint0_linear)"/>
<path d="M907.274 482.906C906.224 482.485 897.403 477.437 890.893 477.437C884.382 477.437 876.401 484.379 876.401 484.379C876.401 484.379 875.351 487.955 879.762 487.324C884.172 486.693 887.112 486.272 887.112 486.272C887.112 486.272 879.552 490.269 884.592 491.11C889.633 491.741 911.265 491.11 911.265 491.11L907.274 482.906Z" fill="#EAC5B0"/>
<path d="M905.594 497.841H821.586V491.741H905.594C907.274 491.741 908.745 493.214 908.745 494.896C908.745 496.369 907.274 497.841 905.594 497.841Z" fill="#5B61D3"/>
<path d="M882.492 497.842H801.424C797.854 497.842 794.704 495.528 793.864 491.952L779.582 437.888C778.322 432.84 782.102 428.001 787.143 428.001H857.92C861.49 428.001 864.64 430.315 865.481 433.892L882.492 497.842Z" fill="#3F60B2"/>
<path d="M787.142 428.001C781.892 428.001 778.112 432.84 779.582 437.888L793.863 491.952C794.283 493.634 795.333 495.107 796.593 496.159L845.948 428.001H787.142Z" fill="#4B6DC2"/>
<path d="M834.817 467.76C835.658 471.336 833.557 474.071 829.777 474.071C826.207 474.071 822.426 471.126 821.586 467.76C820.746 464.184 822.846 461.449 826.627 461.449C830.407 461.449 833.977 464.184 834.817 467.76Z" fill="white"/>
<path d="M908.324 388.243C908.954 389.716 914.205 409.7 914.205 409.7C914.205 409.7 916.095 413.066 920.295 412.645C924.706 412.224 926.386 406.124 926.386 406.124L918.825 380.88L908.324 388.243Z" fill="#EAC5B0"/>
<path d="M935.207 375.831C935.207 389.715 920.505 404.861 906.854 404.861C892.992 404.861 885.432 389.505 885.432 375.831C885.432 362.158 896.563 350.798 910.424 350.798C924.075 350.798 935.207 361.947 935.207 375.831Z" fill="#EAC5B0"/>
<path d="M912.314 403.389L909.374 410.962L911.264 418.956L917.145 410.542L923.025 420.008L929.536 408.438L925.126 400.865C925.126 400.865 923.025 405.914 918.195 406.966C913.364 408.228 912.314 403.389 912.314 403.389Z" fill="white"/>
<path d="M917.145 410.751L912.735 416.221L914.835 419.587L911.685 426.529L912.315 471.967L916.725 481.223L923.026 470.915L921.556 427.58L918.195 419.166L920.715 415.59L917.145 410.751Z" fill="#3F60B2"/>
<path d="M947.808 423.373L949.278 503.311L911.685 502.89L947.808 423.373Z" fill="url(#paint1_linear)"/>
<path d="M944.658 402.337L948.019 477.647L913.155 484.799L917.986 493.845L967.761 496.79L961.04 422.321C960.41 414.538 955.789 407.806 948.859 404.441L944.658 402.337Z" fill="#EAD18C"/>
<path d="M907.273 482.906L914.204 483.748L920.295 493.845L908.744 494.687L907.273 482.906Z" fill="white"/>
<path d="M872.621 517.195L811.085 532.972L842.378 656.244L853.089 650.775L843.848 544.752L898.874 527.503L866.95 545.804L867.581 646.357H877.241C877.241 646.357 904.334 547.908 906.854 547.908C909.585 547.908 954.949 517.616 954.949 517.616L872.621 517.195Z" fill="#524F63"/>
<path d="M809.195 665.711L852.039 662.766L853.299 649.303L807.515 659.611L809.195 665.711Z" fill="#524F63"/>
<path d="M844.059 673.284L852.669 674.335L876.822 665.29L877.452 646.357H867.791L863.381 658.138L850.359 666.131L844.059 673.284Z" fill="#524F63"/>
<path d="M884.592 366.996C883.542 368.89 882.702 370.993 883.332 372.887C884.172 375.201 887.113 376.042 889.633 376.252C893.833 376.673 898.244 376.883 902.444 376.883C905.384 376.883 908.115 376.673 911.055 376.042C915.675 374.99 919.666 372.676 923.866 370.362C926.807 368.679 929.957 366.576 930.587 363.42C931.007 360.054 928.697 357.109 926.597 354.795C925.336 353.323 924.076 352.061 922.606 350.798C918.826 348.064 913.995 347.433 909.375 348.064C897.824 349.747 889.843 357.32 884.592 366.996Z" fill="#4A4549"/>
<path d="M925.337 374.99C925.757 373.728 927.437 372.887 928.697 373.518C929.957 373.939 930.797 375.201 931.007 376.673C931.217 377.935 930.797 379.408 930.167 380.67C929.957 381.301 929.537 381.932 929.327 382.563C929.117 383.194 929.117 383.615 929.117 384.246C929.117 386.771 929.117 389.085 929.327 391.609C931.427 390.768 932.477 388.874 933.527 386.981C935.838 382.774 938.148 378.356 937.728 373.518C937.518 369.521 935.627 365.945 933.527 362.579C933.107 361.948 932.687 361.106 932.057 360.686C931.007 360.055 929.747 360.055 928.697 360.265C927.647 360.686 926.597 361.317 925.547 361.948C924.496 362.579 923.656 363.21 922.606 363.841C921.766 364.472 920.716 365.103 920.086 366.155C919.246 368.048 920.506 368.89 921.556 369.942C922.396 370.362 921.346 382.563 925.337 374.99Z" fill="#4A4549"/>
<path d="M888.583 396.027C885.222 396.027 881.652 393.292 880.392 389.716C879.762 387.823 879.972 386.14 880.812 384.877C881.652 383.826 882.912 383.195 884.382 383.195C887.742 383.195 891.313 385.929 892.573 389.505C893.203 391.399 892.993 393.082 892.153 394.344C891.523 395.396 890.263 396.027 888.583 396.027ZM884.382 384.036C883.122 384.036 882.072 384.457 881.652 385.298C881.022 386.35 880.812 387.823 881.442 389.295C882.492 392.451 885.852 394.975 888.793 394.975C890.053 394.975 891.103 394.554 891.523 393.713C892.153 392.661 892.363 391.188 891.733 389.716C890.683 386.56 887.322 384.036 884.382 384.036Z" fill="white"/>
<path d="M905.174 396.027C901.814 396.027 898.244 393.292 896.984 389.716C896.353 387.823 896.563 386.14 897.404 384.877C898.244 383.826 899.504 383.195 900.974 383.195C904.334 383.195 907.905 385.929 909.165 389.505C909.795 391.399 909.585 393.082 908.745 394.344C908.115 395.396 906.854 396.027 905.174 396.027ZM900.974 384.036C899.714 384.036 898.664 384.457 898.244 385.298C897.614 386.35 897.404 387.823 898.034 389.295C899.084 392.451 902.444 394.975 905.384 394.975C906.644 394.975 907.695 394.554 908.115 393.713C908.745 392.661 908.955 391.188 908.325 389.716C907.275 386.56 903.914 384.036 900.974 384.036Z" fill="white"/>
<path d="M996.533 336.705C996.743 340.702 998.843 344.488 997.793 348.275C996.953 351.43 994.013 353.534 993.173 356.689C992.122 360.265 994.013 363.841 995.693 366.997C997.163 369.732 999.263 372.677 1002.2 372.677C1003.46 372.677 1004.72 372.046 1005.98 371.414C1008.92 369.942 1011.86 368.469 1014.8 366.997C1016.06 366.366 1017.32 365.735 1018.38 364.683C1019.85 363.21 1020.69 361.107 1021.32 359.213C1023.63 353.113 1025.52 346.592 1025.1 340.07C1024.68 333.549 1021.11 326.818 1014.8 324.293C1011.44 323.031 1001.36 321.769 998.423 324.714C997.163 325.976 997.793 327.449 997.583 329.132C997.373 331.866 996.323 334.18 996.533 336.705Z" fill="#524F63"/>
<path d="M1003.46 356.268L1000.52 357.109C988.132 365.103 980.992 376.463 979.311 390.978L973.011 493.214L982.462 489.007L1003.46 356.268Z" fill="#EAC5B0"/>
<path d="M1066.05 355.637L1015.64 353.533C1011.44 353.323 1003.88 354.796 999.682 356.058L993.172 359.003L1004.51 413.066C994.222 430.526 988.971 450.721 989.602 470.916L995.692 544.753H1052.19L1059.33 466.919C1059.96 450.931 1057.02 435.154 1050.72 420.429L1047.57 413.276L1066.05 355.637Z" fill="#A1BDEB"/>
<path opacity="0.14" d="M1005.35 377.305C1006.82 379.829 1008.71 382.143 1011.23 383.826C1014.59 385.719 1018.79 386.14 1022.58 385.298C1026.36 384.457 1029.93 382.774 1033.29 380.67C1039.38 377.094 1045.05 372.887 1049.67 367.418C1052.82 363.631 1055.13 357.951 1052.61 353.744C1050.93 351.009 1047.78 349.747 1044.63 348.906C1028.25 344.278 992.962 353.744 1005.35 377.305Z" fill="url(#paint2_linear)"/>
<path d="M1044.42 329.131C1044.42 342.594 1030.14 360.896 1016.69 360.896C1003.25 360.896 995.902 342.594 995.902 329.131C995.902 315.668 1006.82 304.729 1020.26 304.729C1033.5 304.939 1044.42 315.668 1044.42 329.131Z" fill="#EAC5B0"/>
<path d="M1066.05 355.637L1101.12 401.286C1104.69 406.124 1103.43 413.066 1098.39 416.221L1057.44 441.255L1052.4 433.261L1080.54 410.752C1082.64 409.069 1083.06 406.124 1081.59 404.02L1060.38 373.728L1066.05 355.637Z" fill="#EAC5B0"/>
<path d="M953.688 497.842H975.741C979.311 497.842 982.251 495.107 982.461 491.531L982.671 489.007L953.688 497.842Z" fill="#EAC5B0"/>
<path d="M1013.54 345.54C1013.12 344.698 1019.43 361.527 1019.43 361.527C1019.43 361.527 1020.9 368.469 1026.57 366.786C1032.45 365.103 1028.88 340.491 1028.04 340.281C1026.99 340.07 1013.96 347.012 1013.54 345.54Z" fill="#EAC5B0"/>
<path d="M1027.83 325.976C1016.48 332.918 1004.72 339.86 991.702 340.701C994.642 337.125 994.012 331.866 994.642 327.028C995.483 319.455 1000.1 312.092 1006.61 308.095C1013.12 304.098 1021.53 303.047 1028.88 305.571C1031.61 306.623 1034.13 308.095 1035.81 310.409C1040.64 317.351 1033.08 322.821 1027.83 325.976Z" fill="#524F63"/>
<path d="M1026.78 353.112C1027.62 356.689 1029.72 359.844 1030.14 363.631C1030.35 365.945 1029.93 368.469 1029.3 370.783C1028.67 373.518 1028.04 376.463 1027.41 379.197C1031.4 378.356 1034.97 376.463 1037.91 373.938C1049.25 364.893 1054.92 349.536 1052.4 335.442C1051.77 331.445 1050.3 327.448 1048.83 323.662C1047.78 320.717 1046.52 317.772 1044.42 315.247C1042.53 312.723 1039.59 310.83 1036.44 310.83C1032.66 310.83 1029.3 313.144 1026.99 316.299C1025.52 318.403 1024.47 320.927 1024.47 323.451C1024.47 325.976 1025.52 334.811 1027.83 335.863C1030.77 333.969 1035.39 335.652 1036.44 339.018C1038.33 344.277 1033.71 345.329 1030.56 347.012C1026.99 348.905 1025.94 348.905 1026.78 353.112Z" fill="#524F63"/>
<path d="M1052.61 337.125C1054.92 339.019 1057.65 340.281 1059.75 342.385C1061.85 344.488 1063.32 347.644 1062.06 350.589C1061.43 352.272 1059.75 353.534 1058.49 354.796C1057.23 356.058 1055.97 357.741 1056.18 359.634C1056.39 360.896 1057.02 361.948 1057.86 363C1059.75 365.735 1061.22 368.89 1060.59 372.046C1060.17 374.57 1058.28 376.884 1056.18 378.146C1053.87 379.408 1051.14 379.829 1048.62 379.408C1047.15 379.198 1045.68 378.777 1044.21 378.777C1040.22 378.988 1037.07 382.564 1033.08 382.984C1030.77 383.195 1028.46 382.353 1026.99 380.67C1025.52 378.988 1024.68 376.674 1025.1 374.36C1025.73 370.783 1028.88 368.049 1031.82 365.945C1034.76 363.631 1037.91 360.896 1038.33 357.32C1038.75 354.586 1037.28 351.851 1037.7 349.116C1038.12 345.119 1041.9 342.174 1042.74 338.388C1043.16 336.284 1042.53 330.604 1045.89 330.604C1048.41 330.815 1050.72 335.653 1052.61 337.125Z" fill="#524F63"/>
<path d="M1023.62 332.708C1022.99 333.97 1021.94 335.232 1021.1 336.494C1019.84 338.177 1018.58 339.86 1017.32 341.543C1018.16 338.177 1018.58 334.811 1018.16 331.446C1018.16 331.025 1017.95 330.394 1018.16 329.973C1018.37 328.921 1019.21 328.29 1020.05 327.869C1021.31 327.028 1024.25 324.504 1025.52 326.187C1026.36 327.449 1024.25 331.656 1023.62 332.708Z" fill="#524F63"/>
<path d="M1053.24 425.898L1050.93 428.001L1058.91 437.257L1053.24 425.898Z" fill="#524F63"/>
<path d="M1223.98 503.522L1218.73 402.337C1218.73 402.337 1192.69 396.868 1185.13 396.868C1180.93 396.868 1173.79 398.972 1168.12 400.654C1162.87 402.337 1158.46 406.124 1155.73 411.173L1113.09 493.003L1139.35 495.528L1148.17 485.641L1143.76 478.909L1159.72 441.254L1159.51 504.994L1223.98 503.522Z" fill="#D98E9D"/>
<path d="M1220.41 373.097C1220.41 386.981 1209.28 398.13 1195.42 398.13C1187.86 398.13 1182.4 390.136 1177.99 384.877C1174.21 380.46 1171.48 379.197 1171.48 373.097C1171.48 359.213 1181.77 348.274 1195.63 348.274C1209.49 348.274 1220.41 359.213 1220.41 373.097Z" fill="#EAC5B0"/>
<path d="M1156.78 497.842H1069.41L1050.93 428.001H1138.09L1156.78 497.842Z" fill="#524F63"/>
<path d="M1156.78 497.841H1072.14L1053.24 425.897L1138.72 428.001L1156.78 497.841Z" fill="white"/>
<path d="M1130.11 492.793H1070.25V497.842H1130.11V492.793Z" fill="#524F63"/>
<path d="M1188.91 486.062L1222.31 470.074L1219.57 416.222L1213.69 416.642L1170.43 462.081C1170.43 462.081 1163.92 478.91 1159.3 492.373V504.784L1204.24 503.943L1188.91 486.062Z" fill="url(#paint3_linear)"/>
<path opacity="0.2" d="M1146.18 480.395C1146.34 481.028 1145.86 481.644 1145.21 481.644H1076.27C1075.82 481.644 1075.42 481.336 1075.31 480.896L1065.54 443.367C1065.37 442.727 1065.86 442.105 1066.52 442.115L1135.86 443.136C1136.32 443.143 1136.71 443.451 1136.82 443.888L1146.18 480.395Z" fill="#A1BDEB"/>
<path d="M1146.7 517.196L1085.16 532.973L1116.45 656.245L1127.16 650.776L1117.92 544.753L1172.95 527.503L1141.03 545.805L1141.66 646.358H1151.32C1151.32 646.358 1178.41 547.908 1180.93 547.908C1183.66 547.908 1229.02 517.616 1229.02 517.616L1146.7 517.196Z" fill="#314F8F"/>
<path d="M1083.27 665.711L1126.12 662.766L1127.38 649.303L1081.59 659.61L1083.27 665.711Z" fill="#524F63"/>
<path d="M1179.88 407.386C1180.3 412.224 1181.14 417.063 1182.61 421.691C1182.82 422.742 1183.24 423.794 1184.08 424.425C1185.76 425.687 1188.28 424.636 1190.17 423.373C1193.32 421.27 1196.26 418.745 1198.57 415.59C1200.04 413.697 1201.51 411.593 1201.93 409.069C1202.35 406.755 1201.93 403.81 1200.04 402.337C1197.1 399.813 1191.01 400.023 1187.44 399.813C1182.19 399.813 1179.25 401.916 1179.88 407.386Z" fill="#EFF2F7"/>
<path d="M1118.13 673.284L1126.75 674.336L1151.11 665.29L1151.53 646.358H1141.87L1137.46 658.138L1124.44 666.132L1118.13 673.284Z" fill="#524F63"/>
<path d="M1186.18 385.719L1184.29 406.755C1184.29 406.755 1185.76 415.59 1191.01 414.118C1196.26 412.645 1196.89 408.648 1196.89 408.648L1199.2 383.405L1186.18 385.719Z" fill="#EAC5B0"/>
<path d="M1204.87 364.893C1208.86 364.682 1212.85 364.472 1216.42 362.789C1219.99 361.106 1222.93 357.53 1222.93 353.744C1222.93 349.747 1218.73 346.171 1215.16 347.222C1214.32 347.433 1213.48 348.064 1212.64 348.274C1211.38 348.695 1209.91 348.274 1208.44 347.853C1198.36 344.908 1187.02 342.805 1177.57 347.643C1175.89 348.485 1174.21 349.747 1173.16 351.43C1172.53 352.692 1172.32 354.375 1172.11 355.847C1171.69 359.844 1171.48 364.051 1171.27 368.048C1174 366.576 1176.73 364.893 1179.46 363.631C1182.19 362.368 1184.08 363.631 1187.02 364.262C1192.9 365.103 1198.99 365.103 1204.87 364.893Z" fill="#4A4549"/>
<path opacity="0.7" d="M1181.35 358.161C1178.83 357.74 1176.1 358.582 1174 360.265C1172.11 363.42 1170.85 366.996 1170.64 370.783C1170.85 372.045 1171.27 373.517 1171.06 374.78C1171.06 375.621 1171.48 376.883 1171.9 378.356C1173.37 380.459 1175.68 381.932 1177.99 384.667C1177.99 384.877 1178.2 384.877 1178.2 385.087C1180.72 380.88 1184.5 371.414 1185.34 370.362C1186.39 368.889 1190.17 364.472 1189.54 362.579C1188.91 360.685 1183.03 358.582 1181.35 358.161Z" fill="#4A4549"/>
<path d="M1181.35 368.469C1181.14 368.259 1180.93 367.838 1180.72 367.628C1180.3 367.417 1179.88 367.417 1179.46 367.417C1177.78 367.417 1175.89 367.628 1174.84 368.89C1174.42 369.521 1174.21 370.152 1174 370.783C1173.58 372.466 1173.58 374.149 1173.79 375.832C1174 378.356 1175.26 381.301 1177.78 381.722C1179.25 382.143 1180.93 381.512 1181.98 380.46C1185.97 376.884 1183.87 372.256 1181.35 368.469Z" fill="#EAC5B0"/>
<path d="M1212.85 381.511C1214.11 381.301 1215.37 380.88 1216.84 381.301C1218.1 381.511 1219.36 382.563 1219.36 384.036C1219.36 384.667 1219.15 385.298 1219.15 385.929C1218.73 387.822 1219.57 389.926 1220.2 391.819C1221.67 395.816 1222.72 400.865 1220.2 404.441C1217.89 407.807 1213.27 408.648 1209.28 408.648C1197.1 408.017 1185.76 399.392 1181.98 387.822C1180.72 383.825 1180.3 379.408 1181.56 375.411C1181.98 374.149 1183.03 372.676 1184.29 373.307C1184.92 377.935 1188.07 382.353 1192.27 384.456C1199.83 387.612 1205.71 383.194 1212.85 381.511Z" fill="#4A4549"/>
<path d="M1055.97 428.001L1137.04 429.894L1153.84 495.527H1073.61L1055.97 428.001ZM1053.24 425.897L1072.14 497.841H1156.57L1138.72 428.001L1053.24 425.897Z" fill="#524F63"/>
<path d="M1190.17 497.842H1070.25V492.793H1190.17C1191.64 492.793 1192.69 493.845 1192.69 495.318C1192.69 496.58 1191.43 497.842 1190.17 497.842Z" fill="#F3F7FB"/>
<path d="M1129.48 497.842H1070.25V492.793H1129.48C1130.95 492.793 1132 493.845 1132 495.318C1132 496.58 1130.74 497.842 1129.48 497.842Z" fill="#314F8F"/>
<path d="M1218.73 402.337L1196.89 460.187L1141.24 467.55L1143.34 478.699L1214.53 476.385L1233.86 425.688C1234.91 423.163 1234.91 420.429 1234.28 417.904C1232.6 412.224 1228.39 407.386 1222.93 404.651L1218.73 402.337Z" fill="#D98E9D"/>
<path d="M1141.24 467.55L1111.2 451.562C1111.2 451.562 1109.52 453.876 1112.04 455.98C1114.35 457.873 1121.91 463.553 1121.91 463.553V467.97C1124.44 476.174 1132.21 479.961 1140.61 479.12L1143.34 478.909L1141.24 467.55Z" fill="#EAC5B0"/>
<path d="M1263.47 497.631H1227.77C1227.77 497.631 1226.72 495.107 1232.39 494.055C1238.06 493.003 1254.23 492.583 1254.23 492.583L1258.43 487.955L1264.1 489.427L1263.47 497.631Z" fill="#75454F"/>
<path d="M1292.87 388.033L1254.65 491.11L1264.1 493.424L1322.69 392.871C1322.69 392.871 1321.01 386.35 1311.14 380.039C1301.27 373.939 1292.87 388.033 1292.87 388.033Z" fill="#3F60B2"/>
<path d="M1293.92 340.701C1286.57 329.131 1271.03 325.765 1259.48 333.128C1252.97 337.335 1248.77 344.698 1248.14 352.481C1247.72 356.268 1247.72 357.74 1249.4 361.316C1251.08 364.893 1255.28 369.941 1252.76 377.094C1252.13 378.777 1252.76 381.301 1254.65 382.142C1256.54 382.984 1258.43 380.88 1260.32 380.67C1263.89 380.459 1271.03 385.929 1273.55 388.243C1274.6 389.084 1275.86 390.136 1277.33 390.346C1278.59 390.557 1279.85 390.136 1280.9 389.505C1286.36 386.56 1289.72 380.88 1292.45 375.411C1294.97 370.152 1297.28 364.682 1297.7 359.002C1298.75 352.902 1297.7 346.381 1293.92 340.701Z" fill="#EAC5B0"/>
<path d="M1293.08 389.085C1294.13 390.136 1295.39 391.398 1296.86 391.188C1297.49 391.188 1298.12 390.767 1298.75 390.347C1300.22 389.295 1301.69 388.033 1302.95 386.771C1303.79 385.929 1304.42 385.088 1304.63 383.825C1304.63 383.194 1304.42 382.563 1304.21 381.932C1301.69 376.252 1296.44 371.835 1294.76 365.945C1293.92 363.21 1293.92 360.265 1292.87 357.741C1291.82 355.216 1289.72 352.481 1286.99 352.481C1285.31 352.481 1283.84 353.323 1282.37 354.164C1277.96 357.32 1275.44 363 1275.86 368.469C1276.28 373.307 1279.01 377.935 1283.21 380.67C1286.99 382.984 1289.72 385.719 1293.08 389.085Z" fill="#EAC5B0"/>
<path d="M1259.48 333.128C1254.86 336.073 1251.5 340.701 1249.61 345.96C1254.44 348.274 1266.62 343.015 1269.98 341.122C1269.56 349.536 1274.18 357.951 1281.32 362.158C1285.73 364.682 1290.98 365.944 1295.18 368.469C1296.23 365.313 1297.28 362.158 1297.49 359.002C1298.75 352.902 1297.7 346.381 1293.92 340.701C1286.57 329.131 1271.03 325.765 1259.48 333.128Z" fill="#4A4549"/>
<path d="M1272.92 358.582C1271.45 356.058 1272.92 352.481 1275.65 351.009C1278.38 349.747 1281.74 350.588 1283.84 352.481C1285.94 354.585 1286.78 357.74 1286.57 360.686C1286.36 364.472 1283.63 368.469 1279.85 368.259C1277.75 368.048 1276.07 366.786 1274.81 365.103C1273.76 363.42 1273.13 361.317 1272.5 359.423" fill="#EAC5B0"/>
<path d="M1306.73 376.252L1299.59 367.838L1288.46 388.663L1292.45 401.706L1307.36 384.877L1306.73 376.252Z" fill="white"/>
<path d="M1314.92 377.304L1381.71 451.773L1340.76 487.745L1290.77 410.752C1285.73 403.389 1293.5 386.981 1298.54 379.618C1302.32 374.149 1309.88 373.097 1314.92 377.304Z" fill="#314F8F"/>
<path d="M1379.4 680.436L1361.55 578.831L1340.76 487.744L1381.71 451.772L1379.4 577.779L1389.48 675.387L1379.4 680.436Z" fill="#37354C"/>
<path d="M1381.71 451.772L1348.11 683.591L1337.82 681.908L1340.76 487.744L1381.71 451.772Z" fill="#524F63"/>
<path d="M1319.12 690.954L1346.01 689.902L1347.69 681.488L1339.92 680.436L1313.87 687.799L1314.5 691.375L1319.12 690.954Z" fill="#524F63"/>
<path d="M1389.48 675.387L1390.11 683.171L1359.03 685.064L1358.61 682.539L1386.33 673.704L1389.48 675.387Z" fill="#37354C"/>
<path d="M1250.24 497.631H1214.32C1214.32 497.631 1213.27 495.107 1218.94 494.055C1224.61 493.003 1242.05 492.582 1242.05 492.582L1244.99 487.744L1252.76 490.689L1250.24 497.631Z" fill="#EAC5B0"/>
<path d="M1301.27 384.036L1273.97 435.364L1241.42 492.372L1251.92 492.793L1280.9 452.614L1319.33 403.389C1324.37 399.392 1325.84 392.45 1322.9 386.77C1318.91 378.356 1307.57 376.883 1301.27 384.036Z" fill="#314F8F"/>
<path d="M1316.81 450.72C1315.97 440.202 1312.4 407.806 1312.4 407.806L1301.27 426.739L1316.81 450.72Z" fill="url(#paint4_linear)"/>
<path d="M1020.47 536.127C1018.58 536.127 1004.09 542.228 1004.09 542.228L1015.43 636.26C1012.91 637.522 1009.34 638.153 1006.82 638.995C1001.15 640.677 996.113 641.098 991.282 644.464C990.862 644.674 990.862 646.147 990.652 646.568C990.442 647.619 991.912 648.04 992.962 648.251C999.683 648.461 1006.61 648.671 1013.33 648.251C1017.74 648.04 1021.11 645.937 1025.1 643.833C1027.41 642.781 1028.25 639.205 1028.04 637.732C1028.04 637.312 1022.16 536.127 1020.47 536.127Z" fill="#EAC5B0"/>
<path d="M1007.87 644.885C1014.38 644.254 1023.21 641.309 1028.25 637.312C1028.67 641.729 1027.41 645.726 1019.21 647.83C1009.76 650.354 999.473 652.879 990.022 650.144C988.972 649.934 987.922 649.302 987.922 648.251C987.922 647.83 988.132 647.409 988.552 646.988C990.232 644.674 995.273 640.678 998.213 641.729C999.683 642.15 1000.94 644.043 1002.62 644.464C1004.09 644.885 1006.19 645.095 1007.87 644.885Z" fill="#524F63"/>
<path d="M1055.34 637.943C1055.34 637.522 1049.46 536.338 1047.78 536.338C1045.89 536.338 1031.4 542.439 1031.4 542.439L1042.74 636.471C1044.63 641.519 1046.31 646.358 1049.04 650.986C1051.77 655.614 1055.55 659.821 1060.38 662.345C1060.8 662.556 1061.64 662.766 1062.06 662.555C1062.27 662.345 1062.48 661.924 1062.48 661.714C1063.32 658.979 1062.06 656.034 1061.01 653.3C1059.12 648.251 1055.76 643.202 1055.34 637.943Z" fill="#EAC5B0"/>
<path d="M1045.89 650.355C1048.83 655.824 1052.4 661.293 1058.07 663.818C1059.12 664.238 1060.17 664.659 1061.01 664.449C1062.48 664.238 1063.32 662.976 1063.74 661.504C1064.16 660.031 1063.95 658.769 1063.53 657.296C1062.9 655.193 1062.06 653.3 1061.01 651.406C1060.8 650.986 1060.38 650.565 1059.96 650.355C1059.33 650.355 1058.7 650.775 1058.28 651.196C1056.81 652.248 1054.71 652.037 1053.24 651.196C1051.77 650.355 1050.51 648.882 1049.46 647.409C1047.36 644.464 1045.47 639.205 1042.53 637.522C1041.48 641.94 1043.79 646.568 1045.89 650.355Z" fill="#524F63"/>
<path d="M885.432 672.443C889.259 672.443 892.362 669.335 892.362 665.501C892.362 661.667 889.259 658.559 885.432 658.559C881.604 658.559 878.501 661.667 878.501 665.501C878.501 669.335 881.604 672.443 885.432 672.443Z" fill="#524F63"/>
<path d="M969.44 672.443C973.268 672.443 976.371 669.335 976.371 665.501C976.371 661.667 973.268 658.559 969.44 658.559C965.613 658.559 962.51 661.667 962.51 665.501C962.51 669.335 965.613 672.443 969.44 672.443Z" fill="#524F63"/>
<path d="M932.687 665.501C932.687 669.287 929.536 672.443 925.756 672.443C921.976 672.443 918.825 669.287 918.825 665.501C918.825 661.714 921.976 658.559 925.756 658.559C929.536 658.559 932.687 661.714 932.687 665.501Z" fill="#524F63"/>
<path d="M885.432 665.501V661.925C885.432 653.931 891.942 647.2 900.133 647.2H927.436V575.887" stroke="#524F63" stroke-miterlimit="10"/>
<path d="M968.6 665.501V661.925C968.6 653.931 962.089 647.2 953.898 647.2H926.386V575.887" stroke="#524F63" stroke-miterlimit="10"/>
<path d="M925.756 665.501V647.199" stroke="#524F63" stroke-miterlimit="10"/>
<path d="M933.736 611.227H918.194V646.568H933.736V611.227Z" fill="#524F63"/>
<path d="M930.586 576.518H920.715V616.697H930.586V576.518Z" fill="#524F63"/>
<path d="M1153.42 672.443C1157.25 672.443 1160.35 669.335 1160.35 665.501C1160.35 661.667 1157.25 658.559 1153.42 658.559C1149.59 658.559 1146.49 661.667 1146.49 665.501C1146.49 669.335 1149.59 672.443 1153.42 672.443Z" fill="#524F63"/>
<path d="M1237.43 672.443C1241.25 672.443 1244.36 669.335 1244.36 665.501C1244.36 661.667 1241.25 658.559 1237.43 658.559C1233.6 658.559 1230.5 661.667 1230.5 665.501C1230.5 669.335 1233.6 672.443 1237.43 672.443Z" fill="#524F63"/>
<path d="M1193.53 672.443C1197.36 672.443 1200.46 669.335 1200.46 665.501C1200.46 661.667 1197.36 658.559 1193.53 658.559C1189.7 658.559 1186.6 661.667 1186.6 665.501C1186.6 669.335 1189.7 672.443 1193.53 672.443Z" fill="#524F63"/>
<path d="M1153.42 665.501V661.925C1153.42 653.931 1159.93 647.2 1168.12 647.2H1195.63V575.887" stroke="#524F63" stroke-miterlimit="10"/>
<path d="M1236.59 665.501V661.925C1236.59 653.931 1230.08 647.2 1221.88 647.2H1194.37V575.887" stroke="#524F63" stroke-miterlimit="10"/>
<path d="M1193.53 665.501V647.199" stroke="#524F63" stroke-miterlimit="10"/>
<path d="M1201.72 611.227H1186.18V646.568H1201.72V611.227Z" fill="#524F63"/>
<path d="M1198.57 576.518H1188.7V616.697H1198.57V576.518Z" fill="#524F63"/>
<path d="M1252.55 505.205H773.07V581.356H1252.55V505.205Z" fill="#BCBACE"/>
<path d="M781.682 505.835H773.701V699.789H781.682V505.835Z" fill="#524F63"/>
<path d="M1257.8 505.836H1249.82V699.79H1257.8V505.836Z" fill="#524F63"/>
<path d="M1258.01 550.222L772.44 505.836H1258.01V550.222Z" fill="url(#paint5_linear)"/>
<path d="M1275.86 497.842H754.379V510.674H1275.86V497.842Z" fill="#E0E4ED"/>
<defs>
<linearGradient id="paint0_linear" x1="856.55" y1="456.938" x2="885.334" y2="456.938" gradientUnits="userSpaceOnUse">
<stop stop-color="#EAD18C" stop-opacity="0"/>
<stop offset="1" stop-color="#524F63" stop-opacity="0.7"/>
</linearGradient>
<linearGradient id="paint1_linear" x1="871.947" y1="493.72" x2="1013.88" y2="437.67" gradientUnits="userSpaceOnUse">
<stop stop-color="#EAD18C" stop-opacity="0"/>
<stop offset="1" stop-color="#524F63" stop-opacity="0.7"/>
</linearGradient>
<linearGradient id="paint2_linear" x1="1012.64" y1="403.735" x2="1039.3" y2="333.332" gradientUnits="userSpaceOnUse">
<stop stop-color="#3F60B2"/>
<stop offset="1" stop-color="#444BCC" stop-opacity="0.5018"/>
</linearGradient>
<linearGradient id="paint3_linear" x1="1159.17" y1="460.401" x2="1222.24" y2="460.401" gradientUnits="userSpaceOnUse">
<stop stop-color="#B6567A" stop-opacity="0"/>
<stop offset="1" stop-color="#C45771"/>
</linearGradient>
<linearGradient id="paint4_linear" x1="1305.95" y1="456.893" x2="1314.91" y2="401.854" gradientUnits="userSpaceOnUse">
<stop stop-color="#484EC2" stop-opacity="0"/>
<stop offset="1" stop-color="#444BCC" stop-opacity="0.5018"/>
</linearGradient>
<linearGradient id="paint5_linear" x1="1012.62" y1="539.755" x2="1046.66" y2="382.895" gradientUnits="userSpaceOnUse">
<stop stop-color="#676475" stop-opacity="0"/>
<stop offset="1" stop-color="#524F63" stop-opacity="0.7"/>
</linearGradient>
</defs>
</svg>
