<svg width="600" height="610" viewBox="0 0 600 610" fill="none" xmlns="http://www.w3.org/2000/svg">
<rect x="100" y="100" width="400" height="400" rx="200" fill="#A1BDEB" fill-opacity="0.14"/>
<rect x="50" y="50" width="500" height="500" rx="250" stroke="#A1BDEB" stroke-opacity="0.06" stroke-width="100"/>
<g filter="url(#filter0_d)">
<path d="M323.146 51.8894C323.146 51.8894 371.54 22.5718 438.052 60.9724C504.563 99.3729 503.37 155.942 503.37 155.942C503.37 155.942 497.14 173.339 477.305 207.694C457.471 242.049 447.808 248.876 445.742 252.455L434.171 272.495C434.171 272.495 445.169 286.479 442.467 294.462C439.765 302.445 437.095 303.766 437.095 303.766L426.733 285.378C426.733 285.378 396.536 344.287 378.354 375.779C360.173 407.271 334.362 448.673 334.362 448.673C334.362 448.673 335.57 453.187 332.264 458.913L291.768 529.054C288.876 534.064 280.37 539.578 271.203 544.855C260.536 554.77 255.154 557.72 246.235 560.023C211.301 563.747 195.052 558.514 162.019 539.075C128.986 519.637 116.011 508.732 101.769 476.616C99.3042 467.74 99.1681 461.604 102.421 447.409C102.408 436.831 102.93 426.708 105.822 421.698L146.318 351.557C149.624 345.831 154.138 344.62 154.138 344.62C154.138 344.62 177.088 301.567 195.269 270.075C213.451 238.583 249.37 182.977 249.37 182.977L230.159 183.177C229.096 183.189 228.315 182.357 228.688 181.362C229.254 179.847 230.573 177.379 233.636 173.893C239.198 167.561 256.808 170.094 256.808 170.094L268.378 150.054C270.444 146.475 271.525 134.693 291.36 100.338C311.194 65.9837 323.146 51.8894 323.146 51.8894Z" fill="url(#paint0_linear)"/>
</g>
<path d="M102.516 470.367C100.39 459.597 109.906 446.005 116.184 440.086C114.521 445.17 108.524 456.658 108.984 467.421C109.364 476.282 122.255 498.94 128.357 508.19C120.713 499.959 105.188 483.906 102.516 470.367Z" fill="#960000"/>
<path d="M251.273 556.252C261.663 552.707 268.676 537.67 270.663 529.274C267.092 533.257 260.141 544.194 250.589 549.177C242.727 553.279 216.658 553.444 205.597 552.784C216.547 555.289 238.211 560.707 251.273 556.252Z" fill="#960000"/>
<path d="M335.914 59.2611C344.147 51.6083 367.732 47.0936 382.035 55.3518C369.623 58.6828 360.898 62.2339 348.565 70.3822C336.232 78.5304 329.954 84.449 326.378 82.3845C322.802 80.32 327.682 66.914 335.914 59.2611Z" fill="url(#paint1_linear)"/>
<path d="M491.928 149.335C494.439 138.379 486.556 115.697 472.253 107.439C475.574 119.853 476.861 129.185 475.971 143.94C475.081 158.695 473.095 167.091 476.67 169.156C480.246 171.22 489.416 160.291 491.928 149.335Z" fill="url(#paint2_linear)"/>
<path d="M389.259 59.5986C366.199 61.5533 305.757 124.95 292.121 148.569L435.156 231.15C448.793 207.532 473.475 123.489 463.638 102.541C453.8 81.5925 432.234 71.0497 432.234 71.0497C432.234 71.0497 412.32 57.6439 389.259 59.5986Z" fill="url(#paint3_linear)" stroke="#D8E4F2" stroke-opacity="0.4"/>
<path fill-rule="evenodd" clip-rule="evenodd" d="M413.581 87.7657C415.363 90.1877 417.502 91.8651 419.546 93.0247L419.547 93.0249C421.573 94.2159 424.095 95.2292 427.084 95.5612C427.069 96.2429 427.004 96.624 427.004 96.624C423.798 96.1556 421.152 95.1007 419.044 93.8957C416.946 92.6728 414.709 90.9081 412.7 88.3659C412.7 88.3659 412.93 88.1584 413.581 87.7657ZM418.775 89.7358L427.307 79.5803L422.793 92.0573C424.688 93.1498 425.41 93.2865 425.993 92.4789C425.993 92.4789 426.996 93.6974 427.079 95.0435C423.884 94.7626 421.323 93.3546 421.323 93.3546L420.89 90.6975L418.373 91.6514C418.373 91.6514 415.873 90.1376 414.032 87.5109C415.24 86.9096 416.796 87.1689 416.796 87.1689C416.388 88.077 416.868 88.6346 418.775 89.7358Z" fill="#9E9E9E"/>
<path d="M376.895 166.899C325.402 137.17 292.567 147.796 292.567 147.796L284.638 161.529C283.314 163.822 282.175 166.157 281.182 168.612C273.932 186.538 241.788 265.478 228.994 287.637C214.531 312.687 146.254 450.767 146.254 450.767C145.809 458.144 141.502 480.469 182.267 504.005C223.032 527.541 240.212 512.648 246.379 508.574C246.379 508.574 331.82 380.404 346.283 355.354C358.566 334.079 407.259 271.184 421.656 252.712C424.348 249.257 426.784 245.651 428.974 241.858L435.602 230.377C435.602 230.377 428.387 196.629 376.895 166.899Z" fill="url(#paint4_linear)"/>
<path d="M201.976 281.581C252.5 192.419 268.552 177.829 268.552 177.829C268.552 177.829 257.983 224.213 219.633 295.593C181.283 366.972 146.047 429.653 146.047 429.653C146.047 429.653 151.452 370.744 201.976 281.581Z" fill="#444444"/>
<path d="M365.752 376.137C417.707 287.8 422.316 266.604 422.316 266.604C422.316 266.604 387.43 298.949 344.789 367.851C302.148 436.754 265.482 498.609 265.482 498.609C265.482 498.609 313.797 464.474 365.752 376.137Z" fill="#444444"/>
<defs>
<filter id="filter0_d" x="56.958" y="0.320801" width="492.145" height="609.422" filterUnits="userSpaceOnUse" color-interpolation-filters="sRGB">
<feFlood flood-opacity="0" result="BackgroundImageFix"/>
<feColorMatrix in="SourceAlpha" type="matrix" values="0 0 0 0 0 0 0 0 0 0 0 0 0 0 0 0 0 0 127 0"/>
<feOffset dx="6" dy="10"/>
<feColorMatrix type="matrix" values="0 0 0 0 0.160784 0 0 0 0 0.160784 0 0 0 0 0.286275 0 0 0 0.2 0"/>
<feBlend mode="normal" in2="BackgroundImageFix" result="effect1_dropShadow"/>
<feBlend mode="normal" in="SourceGraphic" in2="effect1_dropShadow" result="shape"/>
</filter>
<linearGradient id="paint0_linear" x1="226.611" y1="186.06" x2="436.268" y2="305.2" gradientUnits="userSpaceOnUse">
<stop stop-color="white"/>
<stop offset="0.486188" stop-color="#F3F8FC"/>
<stop offset="0.994475" stop-color="#F4F4F4"/>
</linearGradient>
<linearGradient id="paint1_linear" x1="364.648" y1="49.1307" x2="363.905" y2="80.1823" gradientUnits="userSpaceOnUse">
<stop stop-color="#6E6E6E"/>
<stop offset="0.342541" stop-color="white"/>
<stop offset="0.480663" stop-color="#C9C9C9"/>
<stop offset="0.889503" stop-color="#5D5D5D"/>
</linearGradient>
<linearGradient id="paint2_linear" x1="486.334" y1="119.385" x2="459.814" y2="135.555" gradientUnits="userSpaceOnUse">
<stop stop-color="#6E6E6E"/>
<stop offset="0.342541" stop-color="white"/>
<stop offset="0.480663" stop-color="#C9C9C9"/>
<stop offset="0.889503" stop-color="#5D5D5D"/>
</linearGradient>
<linearGradient id="paint3_linear" x1="458.234" y1="161.45" x2="339.817" y2="94.0351" gradientUnits="userSpaceOnUse">
<stop stop-color="#E6EAEE"/>
<stop offset="0.331492" stop-color="#F5F7F9"/>
<stop offset="1" stop-color="white"/>
</linearGradient>
<linearGradient id="paint4_linear" x1="305.377" y1="125.608" x2="448.412" y2="208.19" gradientUnits="userSpaceOnUse">
<stop stop-color="#262626"/>
<stop offset="0.778317" stop-color="#3A3A3A"/>
<stop offset="0.823126" stop-color="#615C5C"/>
<stop offset="0.864312" stop-color="#282828"/>
<stop offset="1" stop-color="#484848"/>
</linearGradient>
</defs>
</svg>
