<svg width="451" height="451" viewBox="0 0 451 451" fill="none" xmlns="http://www.w3.org/2000/svg">
<rect x="100.887" y="100" width="250" height="251" rx="125" fill="#A1BDEB" fill-opacity="0.14"/>
<rect x="50.8872" y="50" width="350" height="351" rx="175" stroke="#A1BDEB" stroke-opacity="0.06" stroke-width="100"/>
<g filter="url(#filter0_d)">
<path d="M240.716 70.2977C240.716 70.2977 271.025 51.936 312.682 75.9865C354.338 100.037 353.591 135.467 353.591 135.467C353.591 135.467 349.689 146.363 337.267 167.879C324.844 189.396 318.792 193.672 317.498 195.913L310.252 208.464C310.252 208.464 317.14 217.223 315.447 222.222C313.755 227.222 312.083 228.05 312.083 228.05L305.593 216.533C305.593 216.533 286.68 253.429 275.293 273.152C263.906 292.876 247.74 318.806 247.74 318.806C247.74 318.806 248.497 321.633 246.426 325.219L221.064 369.149C219.252 372.287 213.925 375.74 208.183 379.045C201.502 385.255 198.132 387.103 192.546 388.545C170.666 390.877 160.489 387.6 139.8 375.426C119.112 363.251 110.986 356.421 102.066 336.307C100.522 330.748 100.437 326.905 102.474 318.014C102.466 311.389 102.793 305.049 104.604 301.911L129.967 257.982C132.038 254.396 134.865 253.637 134.865 253.637C134.865 253.637 149.238 226.672 160.626 206.949C172.013 187.225 194.509 152.399 194.509 152.399L183.186 152.517C182.123 152.528 181.376 151.693 181.835 150.735C182.291 149.785 183.126 148.449 184.655 146.709C188.139 142.744 199.167 144.33 199.167 144.33L206.414 131.779C207.708 129.537 208.385 122.158 220.808 100.642C233.23 79.1251 240.716 70.2977 240.716 70.2977Z" fill="url(#paint0_linear)"/>
</g>
<path d="M102.533 332.393C101.202 325.647 107.162 317.135 111.094 313.428C110.052 316.612 106.296 323.807 106.585 330.548C106.822 336.097 114.896 350.289 118.718 356.082C113.93 350.927 104.207 340.873 102.533 332.393Z" fill="#960000"/>
<path d="M195.701 386.183C202.208 383.963 206.6 374.545 207.845 369.287C205.608 371.781 201.255 378.631 195.273 381.752C190.348 384.321 174.021 384.425 167.093 384.011C173.952 385.58 187.52 388.974 195.701 386.183Z" fill="#960000"/>
<path d="M248.712 74.9146C253.868 70.1215 268.64 67.2939 277.598 72.4661C269.824 74.5523 264.36 76.7764 256.635 81.8797C248.911 86.9831 244.979 90.6899 242.74 89.3968C240.5 88.1038 243.556 79.7076 248.712 74.9146Z" fill="url(#paint1_linear)"/>
<path d="M346.425 131.329C347.997 124.467 343.06 110.261 334.102 105.089C336.182 112.864 336.988 118.709 336.431 127.95C335.874 137.191 334.629 142.449 336.869 143.742C339.108 145.035 344.852 138.191 346.425 131.329Z" fill="url(#paint2_linear)"/>
<path d="M282.122 75.126C267.679 76.3503 229.824 116.056 221.284 130.849L310.868 182.57C319.409 167.777 334.867 115.141 328.706 102.021C322.545 88.901 309.037 82.2979 309.037 82.2979C309.037 82.2979 296.565 73.9018 282.122 75.126Z" fill="url(#paint3_linear)" stroke="#D8E4F2" stroke-opacity="0.4"/>
<path fill-rule="evenodd" clip-rule="evenodd" d="M297.355 92.7672C298.471 94.2841 299.81 95.3347 301.091 96.061L301.091 96.0611C302.361 96.807 303.94 97.4416 305.812 97.6496C305.802 98.0765 305.762 98.3152 305.762 98.3152C303.754 98.0218 302.096 97.3612 300.776 96.6064C299.463 95.8405 298.062 94.7353 296.803 93.1431C296.803 93.1431 296.947 93.0131 297.355 92.7672ZM300.608 94.0011L305.951 87.6406L303.124 95.4551C304.311 96.1393 304.764 96.2249 305.129 95.7191C305.129 95.7191 305.757 96.4823 305.809 97.3253C303.807 97.1494 302.204 96.2676 302.204 96.2676L301.933 94.6034L300.356 95.2008C300.356 95.2008 298.791 94.2527 297.638 92.6076C298.394 92.231 299.369 92.3934 299.369 92.3934C299.113 92.9622 299.414 93.3114 300.608 94.0011Z" fill="#9E9E9E"/>
<path d="M274.378 142.329C242.128 123.71 221.563 130.365 221.563 130.365L217.341 137.679C216.017 139.972 214.868 142.33 213.873 144.784C208.436 158.198 189.467 204.577 181.747 217.948C172.689 233.637 129.927 320.118 129.927 320.118C129.648 324.738 126.95 338.72 152.482 353.461C178.013 368.201 188.773 358.874 192.635 356.322C192.635 356.322 246.148 276.049 255.206 260.36C262.899 247.035 293.396 207.644 302.413 196.074C304.099 193.911 305.625 191.652 306.996 189.277L311.148 182.086C311.148 182.086 306.629 160.949 274.378 142.329Z" fill="url(#paint4_linear)"/>
<path d="M164.826 214.155C196.47 158.312 206.523 149.174 206.523 149.174C206.523 149.174 199.904 178.225 175.885 222.931C151.866 267.636 129.798 306.894 129.798 306.894C129.798 306.894 133.182 269.998 164.826 214.155Z" fill="#444444"/>
<path d="M267.399 273.376C299.939 218.05 302.826 204.775 302.826 204.775C302.826 204.775 280.977 225.033 254.27 268.187C227.564 311.341 204.6 350.081 204.6 350.081C204.6 350.081 234.86 328.702 267.399 273.376Z" fill="#444444"/>
<rect x="282.887" y="56.0005" width="18" height="18" rx="9" fill="#A1BDEB"/>
<path d="M292.927 69.0005H291.516V63.561L289.832 64.0835V62.936L292.776 61.8813H292.927V69.0005Z" fill="white"/>
<rect x="249.887" y="248" width="18" height="18" rx="9" fill="#A1BDEB"/>
<path d="M261.373 261H256.5V260.034L258.799 257.583C259.115 257.237 259.348 256.936 259.498 256.679C259.651 256.422 259.727 256.178 259.727 255.947C259.727 255.631 259.647 255.384 259.488 255.205C259.328 255.022 259.1 254.931 258.804 254.931C258.485 254.931 258.233 255.042 258.047 255.263C257.865 255.481 257.774 255.769 257.774 256.127H256.358C256.358 255.694 256.46 255.299 256.666 254.941C256.874 254.583 257.167 254.303 257.544 254.101C257.922 253.896 258.35 253.793 258.829 253.793C259.561 253.793 260.129 253.969 260.533 254.321C260.94 254.672 261.143 255.169 261.143 255.81C261.143 256.162 261.052 256.52 260.87 256.884C260.687 257.249 260.375 257.674 259.932 258.159L258.316 259.863H261.373V261Z" fill="white"/>
<rect x="148.887" y="370" width="18" height="18" rx="9" fill="#A1BDEB"/>
<path d="M156.935 378.821H157.687C158.045 378.821 158.31 378.731 158.483 378.552C158.655 378.373 158.742 378.136 158.742 377.839C158.742 377.553 158.655 377.33 158.483 377.17C158.314 377.011 158.079 376.931 157.78 376.931C157.51 376.931 157.283 377.006 157.101 377.156C156.919 377.302 156.828 377.494 156.828 377.732H155.417C155.417 377.361 155.516 377.029 155.714 376.736C155.916 376.44 156.196 376.208 156.554 376.042C156.916 375.876 157.313 375.793 157.746 375.793C158.498 375.793 159.087 375.974 159.513 376.335C159.94 376.694 160.153 377.188 160.153 377.82C160.153 378.145 160.054 378.445 159.855 378.718C159.656 378.992 159.396 379.202 159.074 379.348C159.474 379.491 159.772 379.706 159.967 379.993C160.166 380.279 160.265 380.618 160.265 381.008C160.265 381.64 160.034 382.146 159.572 382.527C159.113 382.908 158.504 383.098 157.746 383.098C157.036 383.098 156.455 382.911 156.002 382.537C155.553 382.162 155.329 381.667 155.329 381.052H156.74C156.74 381.319 156.839 381.537 157.038 381.707C157.239 381.876 157.487 381.96 157.78 381.96C158.115 381.96 158.377 381.873 158.566 381.697C158.758 381.518 158.854 381.282 158.854 380.989C158.854 380.279 158.463 379.924 157.682 379.924H156.935V378.821Z" fill="white"/>
<defs>
<filter id="filter0_d" x="74" y="38" width="310.476" height="385.422" filterUnits="userSpaceOnUse" color-interpolation-filters="sRGB">
<feFlood flood-opacity="0" result="BackgroundImageFix"/>
<feColorMatrix in="SourceAlpha" type="matrix" values="0 0 0 0 0 0 0 0 0 0 0 0 0 0 0 0 0 0 127 0"/>
<feOffset dx="6" dy="10"/>
<feColorMatrix type="matrix" values="0 0 0 0 0.160784 0 0 0 0 0.160784 0 0 0 0 0.286275 0 0 0 0.2 0"/>
<feBlend mode="normal" in2="BackgroundImageFix" result="effect1_dropShadow"/>
<feBlend mode="normal" in="SourceGraphic" in2="effect1_dropShadow" result="shape"/>
</filter>
<linearGradient id="paint0_linear" x1="180.255" y1="154.33" x2="311.564" y2="228.948" gradientUnits="userSpaceOnUse">
<stop stop-color="white"/>
<stop offset="0.486188" stop-color="#F3F8FC"/>
<stop offset="0.994475" stop-color="#F4F4F4"/>
</linearGradient>
<linearGradient id="paint1_linear" x1="266.709" y1="68.5698" x2="266.243" y2="88.0176" gradientUnits="userSpaceOnUse">
<stop stop-color="#6E6E6E"/>
<stop offset="0.342541" stop-color="white"/>
<stop offset="0.480663" stop-color="#C9C9C9"/>
<stop offset="0.889503" stop-color="#5D5D5D"/>
</linearGradient>
<linearGradient id="paint2_linear" x1="342.921" y1="112.571" x2="326.311" y2="122.698" gradientUnits="userSpaceOnUse">
<stop stop-color="#6E6E6E"/>
<stop offset="0.342541" stop-color="white"/>
<stop offset="0.480663" stop-color="#C9C9C9"/>
<stop offset="0.889503" stop-color="#5D5D5D"/>
</linearGradient>
<linearGradient id="paint3_linear" x1="325.321" y1="138.916" x2="251.156" y2="96.6939" gradientUnits="userSpaceOnUse">
<stop stop-color="#E6EAEE"/>
<stop offset="0.331492" stop-color="#F5F7F9"/>
<stop offset="1" stop-color="white"/>
</linearGradient>
<linearGradient id="paint4_linear" x1="229.586" y1="116.469" x2="319.17" y2="168.19" gradientUnits="userSpaceOnUse">
<stop stop-color="#262626"/>
<stop offset="0.778317" stop-color="#3A3A3A"/>
<stop offset="0.823126" stop-color="#615C5C"/>
<stop offset="0.864312" stop-color="#282828"/>
<stop offset="1" stop-color="#484848"/>
</linearGradient>
</defs>
</svg>
