<svg width="64" height="64" viewBox="0 0 64 64" fill="none" xmlns="http://www.w3.org/2000/svg">
<path d="M30 57C41.598 57 51 47.598 51 36C51 24.402 41.598 15 30 15C18.402 15 9 24.402 9 36C9 47.598 18.402 57 30 57Z" fill="#D8E4F2"/>
<path d="M32.2 61C32.1 61 32.1 61 32 61" stroke="#587BC9" stroke-width="2" stroke-linecap="round" stroke-linejoin="round"/>
<path d="M56.8 17C59.5 21.4 61 26.5 61 32C61 46.8 49.8 59.1 35.5 60.8" stroke="#587BC9" stroke-width="2" stroke-linecap="round" stroke-linejoin="round"/>
<path d="M31.7002 3C31.8002 3 31.9002 3 32.0002 3" stroke="#587BC9" stroke-width="2" stroke-linecap="round" stroke-linejoin="round"/>
<path d="M7.2 47C4.5 42.6 3 37.5 3 32C3 17.2 14.1 5.00001 28.5 3.20001" stroke="#587BC9" stroke-width="2" stroke-linecap="round" stroke-linejoin="round"/>
<path d="M32 57C45.8071 57 57 45.8071 57 32C57 18.1929 45.8071 7 32 7C18.1929 7 7 18.1929 7 32C7 45.8071 18.1929 57 32 57Z" stroke="#587BC9" stroke-width="2" stroke-linecap="round" stroke-linejoin="round"/>
<path d="M32 53C43.598 53 53 43.598 53 32C53 20.402 43.598 11 32 11C20.402 11 11 20.402 11 32C11 43.598 20.402 53 32 53Z" stroke="#587BC9" stroke-width="2" stroke-linecap="round" stroke-linejoin="round"/>
<path d="M32 7H63" stroke="#587BC9" stroke-width="2" stroke-linecap="round" stroke-linejoin="round"/>
<path d="M57 1L63 7L57 13" stroke="#587BC9" stroke-width="2" stroke-linecap="round" stroke-linejoin="round"/>
<path d="M32 57H1" stroke="#587BC9" stroke-width="2" stroke-linecap="round" stroke-linejoin="round"/>
<path d="M7 63L1 57L7 51" stroke="#587BC9" stroke-width="2" stroke-linecap="round" stroke-linejoin="round"/>
<path d="M32 30V21" stroke="#587BC9" stroke-width="2" stroke-linecap="round" stroke-linejoin="round"/>
<path d="M30.3002 33L21.7002 38.3" stroke="#587BC9" stroke-width="2" stroke-linecap="round" stroke-linejoin="round"/>
<path d="M32 14V16" stroke="#587BC9" stroke-width="2" stroke-linecap="round" stroke-linejoin="round"/>
<path d="M32 48V50" stroke="#587BC9" stroke-width="2" stroke-linecap="round" stroke-linejoin="round"/>
<path d="M50 32H48" stroke="#587BC9" stroke-width="2" stroke-linecap="round" stroke-linejoin="round"/>
<path d="M16 32H14" stroke="#587BC9" stroke-width="2" stroke-linecap="round" stroke-linejoin="round"/>
<path d="M41 16.4L40 18.1" stroke="#587BC9" stroke-width="2" stroke-linecap="round" stroke-linejoin="round"/>
<path d="M24 45.9L23 47.6" stroke="#587BC9" stroke-width="2" stroke-linecap="round" stroke-linejoin="round"/>
<path d="M47.6004 41L45.9004 40" stroke="#587BC9" stroke-width="2" stroke-linecap="round" stroke-linejoin="round"/>
<path d="M18.1004 24L16.4004 23" stroke="#587BC9" stroke-width="2" stroke-linecap="round" stroke-linejoin="round"/>
<path d="M47.6004 23L45.9004 24" stroke="#587BC9" stroke-width="2" stroke-linecap="round" stroke-linejoin="round"/>
<path d="M18.1004 40L16.4004 41" stroke="#587BC9" stroke-width="2" stroke-linecap="round" stroke-linejoin="round"/>
<path d="M41 47.6L40 45.9" stroke="#587BC9" stroke-width="2" stroke-linecap="round" stroke-linejoin="round"/>
<path d="M24 18.1L23 16.4" stroke="#587BC9" stroke-width="2" stroke-linecap="round" stroke-linejoin="round"/>
<path d="M32 34C33.1046 34 34 33.1046 34 32C34 30.8954 33.1046 30 32 30C30.8954 30 30 30.8954 30 32C30 33.1046 30.8954 34 32 34Z" stroke="#587BC9" stroke-width="2" stroke-linecap="round" stroke-linejoin="round"/>
</svg>
