<svg width="63" height="64" viewBox="0 0 63 64" fill="none" xmlns="http://www.w3.org/2000/svg">
<path d="M62 10H38V28H62L56 19L62 10Z" fill="#D8E4F2"/>
<path d="M13 17C16.3137 17 19 14.3137 19 11C19 7.68629 16.3137 5 13 5C9.68629 5 7 7.68629 7 11C7 14.3137 9.68629 17 13 17Z" fill="#D8E4F2"/>
<path d="M13 13C16.3137 13 19 10.3137 19 7C19 3.68629 16.3137 1 13 1C9.68629 1 7 3.68629 7 7C7 10.3137 9.68629 13 13 13Z" stroke="#587BC9" stroke-width="2" stroke-miterlimit="10" stroke-linecap="round" stroke-linejoin="round"/>
<path d="M1 37V20C1 16.7 3.7 14 7 14H19C22.3 14 25 16.7 25 20V37" stroke="#587BC9" stroke-width="2" stroke-miterlimit="10" stroke-linecap="round" stroke-linejoin="round"/>
<path d="M21 24V57H5V24" stroke="#587BC9" stroke-width="2" stroke-miterlimit="10" stroke-linecap="round" stroke-linejoin="round"/>
<path d="M13 57V37" stroke="#587BC9" stroke-width="2" stroke-miterlimit="10" stroke-linecap="round" stroke-linejoin="round"/>
<path d="M62 5H38V23H62L56 14L62 5Z" stroke="#587BC9" stroke-width="2" stroke-miterlimit="10" stroke-linecap="round" stroke-linejoin="round"/>
<path d="M38 51H34V3C34 1.9 34.9 1 36 1C37.1 1 38 1.9 38 3V51Z" stroke="#587BC9" stroke-width="2" stroke-miterlimit="10" stroke-linecap="round" stroke-linejoin="round"/>
<path d="M42 16V12" stroke="#587BC9" stroke-width="2" stroke-miterlimit="10" stroke-linecap="round" stroke-linejoin="round"/>
<path d="M24 57H2V63H24V57Z" stroke="#587BC9" stroke-width="2" stroke-miterlimit="10" stroke-linecap="round" stroke-linejoin="round"/>
<path d="M46 51H24V57H46V51Z" stroke="#587BC9" stroke-width="2" stroke-miterlimit="10" stroke-linecap="round" stroke-linejoin="round"/>
<path d="M62 51H46V45H62" stroke="#587BC9" stroke-width="2" stroke-miterlimit="10" stroke-linecap="round" stroke-linejoin="round"/>
<path d="M5 53H21" stroke="#587BC9" stroke-width="2" stroke-miterlimit="10" stroke-linecap="round" stroke-linejoin="round"/>
</svg>
