<svg width="64" height="50" viewBox="0 0 64 50" fill="none" xmlns="http://www.w3.org/2000/svg">
<path d="M63 3H1V11H63V3Z" fill="#D8E4F2"/>
<path d="M43 29H7C5.9 29 5 29.9 5 31C5 32.1 5.9 33 7 33H43V38C43 39.1 43.9 40 45 40H53C54.1 40 55 39.1 55 38V24C55 22.9 54.1 22 53 22H45C43.9 22 43 22.9 43 24V29Z" fill="#D8E4F2"/>
<path d="M63 1H1V49H63V1Z" stroke="#587BC9" stroke-width="2" stroke-miterlimit="10" stroke-linecap="round" stroke-linejoin="round"/>
<path d="M1 9H63" stroke="#587BC9" stroke-width="2" stroke-miterlimit="10" stroke-linecap="round" stroke-linejoin="round"/>
<path d="M47 1V9" stroke="#587BC9" stroke-width="2" stroke-miterlimit="10" stroke-linecap="round" stroke-linejoin="round"/>
<path d="M45 31V36C45 37.1 45.9 38 47 38H55C56.1 38 57 37.1 57 36V22C57 20.9 56.1 20 55 20H47C45.9 20 45 20.9 45 22V27" stroke="#587BC9" stroke-width="2" stroke-miterlimit="10" stroke-linecap="round" stroke-linejoin="round"/>
<path d="M53 34V24H49V34H53Z" stroke="#587BC9" stroke-width="2" stroke-miterlimit="10" stroke-linecap="round" stroke-linejoin="round"/>
<path d="M45 31H9C7.9 31 7 30.1 7 29C7 27.9 7.9 27 9 27H45" stroke="#587BC9" stroke-width="2" stroke-miterlimit="10" stroke-linecap="round" stroke-linejoin="round"/>
<path d="M23 31H11V38H23V31Z" stroke="#587BC9" stroke-width="2" stroke-miterlimit="10" stroke-linecap="round" stroke-linejoin="round"/>
<path d="M19 34V38" stroke="#587BC9" stroke-width="2" stroke-miterlimit="10" stroke-linecap="round" stroke-linejoin="round"/>
<path d="M15 36V38" stroke="#587BC9" stroke-width="2" stroke-miterlimit="10" stroke-linecap="round" stroke-linejoin="round"/>
</svg>
