<svg width="176" height="320" viewBox="0 0 176 320" fill="none" xmlns="http://www.w3.org/2000/svg">
<path opacity="0.08" d="M48 297.507C48 300.538 30.201 303 8 303C-14.201 303 -32 300.538 -32 297.507C-32 294.476 -14.201 292.013 8 292.013C30.201 292.013 48 294.476 48 297.507Z" fill="#9DAFBD"/>
<path d="M-23.0044 126.26C-23.0044 126.26 -35.4446 180.438 -15.7316 217.377C3.98129 254.316 3.7899 254.127 3.7899 254.127C3.7899 254.127 8.95737 162.063 -23.0044 126.26Z" fill="#5BB59B"/>
<path d="M-22.2385 267.955C-21.0901 274.585 -19.559 281.405 -16.114 287.277C-12.8605 293.149 -7.5016 298.264 -0.80304 299.779C2.25916 300.537 5.32137 300.537 8.38357 300.348C11.8285 300.348 15.2735 299.969 18.3357 298.264C22.1635 295.991 24.0773 291.823 25.6084 287.656C28.2879 280.647 30.2017 273.448 31.5415 266.25C32.307 262.083 32.8812 257.536 30.7759 253.748C28.0965 248.633 21.7807 246.549 16.0391 245.602C6.46969 244.087 -6.73605 243.329 -15.9227 247.117C-23.9609 250.527 -23.5782 260.567 -22.2385 267.955Z" fill="#D8E4F2"/>
<path d="M-0.421169 254.316C7.23433 254.695 15.464 253.558 20.2487 251.095C21.2056 250.527 21.9712 249.959 21.5884 249.391C21.0142 248.633 19.1004 248.254 17.1865 248.254C7.99988 247.307 -2.14365 246.928 -11.1389 248.443C-24.1532 250.527 -7.50251 253.937 -0.421169 254.316Z" fill="#524F63"/>
<path d="M-4.43992 113C-4.43992 113 -10.5643 216.24 3.78974 254.127C3.78974 254.127 13.1677 162.063 -4.43992 113Z" fill="#63A590"/>
<path d="M2.06764 253.369H5.51262C10.4887 232.91 25.2255 166.609 17.3786 135.732C17.3786 135.732 -7.50174 222.681 -1.18595 242.193C0.153766 247.307 1.30209 250.906 2.06764 253.369Z" fill="#5BB59B"/>
<path d="M138.151 84.1281C138.151 85.5898 138.485 87.3439 139.489 88.5134C140.493 89.6828 142.836 90.2675 143.84 89.0981C144.51 88.5134 144.51 87.3439 144.51 86.4669C144.51 79.7428 144.51 73.311 143.506 66.5869C143.171 63.9557 142.836 61.3245 144.844 59.2781C145.848 58.1087 147.522 57.524 148.86 56.6469C150.199 55.7698 151.203 54.0157 150.199 52.8463C149.864 52.2616 149.195 51.9693 149.195 51.0922C148.86 50.2151 149.864 49.3381 150.534 48.7534C151.203 47.8763 151.203 46.7069 150.199 46.4146C149.195 48.1687 147.856 49.6304 146.183 51.0922C145.848 51.3845 145.179 51.6769 144.844 51.9693C143.84 51.9693 143.171 51.3845 142.502 50.7998C141.832 50.2151 140.159 50.5075 140.159 51.0922C142.502 55.4775 140.493 61.6169 139.824 66.0022C138.485 72.1416 137.816 78.281 138.151 84.1281Z" fill="#EAC5B0"/>
<path d="M148.525 77.112C147.521 76.5273 146.517 76.5273 145.513 76.5273C142.501 76.5273 139.824 76.5273 136.812 76.235C135.808 76.235 134.804 76.2349 134.134 77.112C133.799 77.9891 134.804 78.8661 135.473 79.7432C138.15 82.3744 137.481 86.4673 136.812 89.9755C136.477 90.8526 136.142 92.022 135.138 92.3143C133.465 92.8991 132.126 91.1449 131.791 89.6832C129.783 85.0055 127.775 80.3279 126.102 75.6502C125.433 73.6038 124.429 71.5573 123.09 69.8032C117.066 63.0791 105.687 68.6338 110.372 76.235C115.727 84.7132 123.759 92.3143 130.118 100.208C132.795 103.424 136.142 106.932 140.493 106.64C140.828 106.64 141.497 106.64 141.832 106.347C142.166 106.055 145.179 104.593 145.179 104.008C145.513 97.869 145.848 92.899 146.183 86.7596C146.183 85.0055 145.513 82.9591 146.517 81.2049C147.521 79.7432 147.521 78.8661 149.529 79.1585C149.864 78.5738 149.529 77.4044 148.525 77.112Z" fill="#587BC9"/>
<path d="M65.1911 129.444C66.8645 118.043 71.55 107.225 74.562 96.1161C76.9048 87.9302 76.0528 70.4844 77.7261 62.2985C79.4329 61.9923 86.6012 60.1554 86.6012 60.1554C86.6012 60.1554 87.632 56.1615 87.9666 55.8691C88.3013 55.5768 89.3387 55.563 89.6734 55.563C95.6976 55.8553 96.6507 57.2331 102.675 58.1102C107.36 58.9873 105.114 60.252 109.13 62.2985C110.134 62.8832 108.789 64.4416 115.957 65.9724C117.664 66.5847 119.074 66.2961 119.409 67.4655C120.747 77.4055 124.764 87.3455 126.437 97.2855C127.776 103.717 127.776 110.441 128.11 117.165C128.445 124.182 128.78 131.198 129.114 138.215C128.11 143.43 126.437 145.231 119.712 146.186C114.023 145.016 112.046 145.524 106.356 145.231C93.304 144.354 79.206 143.77 67.827 138.215C66.823 137.63 66.1951 134.707 65.5258 133.83C64.8564 132.368 65.1911 130.906 65.1911 129.444Z" fill="#D8E4F2"/>
<path d="M115.873 81.3447L114.798 81.418L114.915 82.7984L115.99 82.7251L115.873 81.3447Z" fill="#587BC9"/>
<path d="M117.637 84.5509L113.611 84.8253L113.173 79.6562L117.199 79.3819L117.637 84.5509V84.5509ZM113.793 84.549L117.409 84.3026L117.016 79.6599L113.4 79.9063L113.793 84.549Z" fill="#587BC9"/>
<path d="M115.489 81.8791L115.284 81.8931L115.551 85.0413L115.755 85.0274L115.489 81.8791Z" fill="#587BC9"/>
<path d="M114.178 79.1882L113.974 79.2021L114.282 82.8431L114.487 82.8292L114.178 79.1882Z" fill="#587BC9"/>
<path d="M116.332 79.0412L116.127 79.0552L116.435 82.6961L116.64 82.6822L116.332 79.0412Z" fill="#587BC9"/>
<path d="M114.292 78.5312L113.753 78.5679L113.811 79.259L114.35 79.2223L114.292 78.5312Z" fill="#587BC9"/>
<path d="M115.368 78.4579L114.829 78.4946L114.888 79.1858L115.427 79.1491L115.368 78.4579Z" fill="#587BC9"/>
<path d="M116.444 78.3837L115.905 78.4204L115.964 79.1116L116.503 79.0749L116.444 78.3837Z" fill="#587BC9"/>
<path d="M114.847 85.0888L114.309 85.1255L114.367 85.8166L114.906 85.7799L114.847 85.0888Z" fill="#587BC9"/>
<path d="M115.923 85.0155L115.384 85.0522L115.442 85.7434L115.981 85.7067L115.923 85.0155Z" fill="#587BC9"/>
<path d="M116.999 84.9428L116.46 84.9795L116.518 85.6707L117.057 85.6339L116.999 84.9428Z" fill="#587BC9"/>
<path d="M118.083 80.182L117.544 80.2188L117.602 80.9099L118.141 80.8732L118.083 80.182Z" fill="#587BC9"/>
<path d="M118.2 81.5624L117.661 81.5991L117.72 82.2903L118.259 82.2536L118.2 81.5624Z" fill="#587BC9"/>
<path d="M118.316 82.9442L117.777 82.981L117.836 83.6721L118.375 83.6354L118.316 82.9442Z" fill="#587BC9"/>
<path d="M112.973 80.5302L112.435 80.5669L112.493 81.2581L113.032 81.2213L112.973 80.5302Z" fill="#587BC9"/>
<path d="M113.091 81.9106L112.552 81.9473L112.61 82.6384L113.149 82.6017L113.091 81.9106Z" fill="#587BC9"/>
<path d="M113.208 83.2929L112.669 83.3296L112.727 84.0207L113.266 83.984L113.208 83.2929Z" fill="#587BC9"/>
<path d="M94.308 16.5953C97.9895 16.0106 102.006 16.0106 106.022 15.7183C110.373 19.5188 113.05 24.4888 114.389 29.4588C115.393 33.5518 116.062 37.9371 114.723 42.03C113.719 46.1229 111.042 50.2159 107.026 52.2623C101.002 55.7706 92.3 55.1859 86.2758 51.3853C80.2516 47.5847 76.9048 41.1529 76.2355 34.7212C75.9008 29.1665 77.2395 23.9041 79.5822 18.9341C83.5984 17.7647 89.6226 17.18 94.308 16.5953Z" fill="#EAC5B0"/>
<rect x="88.9902" y="52.1953" width="15.7021" height="8.57241" fill="#EAC5B0"/>
<path d="M101.62 64.7472C100.528 64.0124 97.7516 59.3384 96.5 57.0933L104.01 58.9302L104.351 63.5226C103.896 64.2369 102.713 65.482 101.62 64.7472Z" fill="#EAC5B0"/>
<path d="M124.094 249.309C125.098 264.512 126.102 271.236 127.775 286.438C125.432 286.146 124.763 286.146 122.42 285.853C119.743 277.083 117.065 276.206 115.392 267.143C114.053 260.711 112.38 254.572 110.707 248.432C106.021 231.184 101.336 213.642 96.6501 196.101C94.6421 188.5 92.634 180.606 89.2872 173.298C85.9405 165.404 81.5897 154.002 93.638 150.202C100.332 148.155 109.703 149.325 114.388 154.295C119.743 160.142 119.074 169.205 119.743 176.221C120.412 187.623 121.082 199.317 121.751 210.719C122.755 223.582 123.424 236.446 124.094 249.309Z" fill="#314F8F"/>
<path d="M95.6466 158.971C94.9772 157.51 93.9732 155.755 92.2998 154.878C90.2918 153.709 87.6143 153.709 84.9369 154.001C81.2555 154.294 77.2393 154.586 73.5579 155.171C70.5458 155.755 67.199 156.34 65.191 158.387C63.5176 160.433 63.5176 163.064 63.5176 165.695C64.1869 184.406 64.8563 203.117 66.195 221.827C67.199 239.076 71.5498 250.77 73.2232 268.019C73.8926 274.743 74.2273 273.574 75.9006 285.852C75.9006 286.729 75.9006 286.145 76.2353 286.729C76.57 286.729 76.9047 286.437 77.2393 286.437C78.5781 286.437 78.2434 287.314 79.5821 287.314C79.9168 287.314 81.2555 287.018 81.2555 287.018C81.1395 285.487 81.2555 284.391 81.2555 282.929C83.9329 249.308 86.945 226.212 94.3079 193.177C97.32 182.067 100.332 169.788 95.6466 158.971Z" fill="#314F8F"/>
<path d="M121.083 148.156C121.083 146.986 121.083 146.109 120.749 145.232C120.079 144.063 118.406 143.186 117.067 142.601C104.015 137.046 88.9543 134.415 74.2285 135.292C72.8898 135.292 71.2164 135.584 70.2124 136.169C68.539 137.046 68.2043 138.8 67.8696 140.262C66.8656 145.232 65.8616 150.202 64.5229 154.88C63.8535 158.096 63.1842 161.604 65.1922 164.527C66.1963 165.989 68.2043 167.451 69.8777 168.328C81.5914 175.052 96.9866 177.391 110.708 174.76C116.063 173.59 119.075 172.129 119.745 167.451C120.079 161.311 120.414 154.587 121.083 148.156Z" fill="#314F8F"/>
<path d="M67.1986 160.727C68.2026 160.727 69.5414 160.434 70.5454 160.142C72.5535 159.557 74.2268 158.68 75.5656 157.803C77.5736 156.341 78.243 154.002 78.9123 151.956C80.251 148.448 81.9244 144.647 81.5897 140.554H80.9204C81.2551 144.355 79.9164 148.155 78.243 151.664C77.2389 153.71 76.2349 156.341 74.8962 157.218C73.5575 158.095 72.2188 158.972 70.2107 159.265C67.868 159.849 66.1946 159.849 64.5212 159.265L64.1865 159.849C65.1906 160.434 66.1946 160.727 67.1986 160.727Z" fill="#A1BDEB"/>
<path d="M118.739 163.941L119.074 163.357C116.396 161.31 114.388 158.387 113.719 154.878C113.05 151.663 113.05 148.154 113.384 144.938H112.715C112.38 148.154 112.38 151.663 113.05 155.171C114.054 158.679 116.062 161.895 118.739 163.941Z" fill="#A1BDEB"/>
<path d="M71.8848 18.0572C72.8889 16.3031 74.2276 14.549 75.5663 13.0872C79.9171 9.2866 85.9413 7.24013 92.3001 6.94778C98.3243 6.65543 104.683 8.40955 110.038 11.0407C112.381 12.2101 114.389 13.6719 116.062 15.7184C118.74 19.2266 119.409 23.6119 119.074 27.9972C118.74 32.0901 118.405 39.1066 115.058 42.6148C115.058 38.2295 116.062 35.306 115.058 32.3825C114.054 28.8742 113.05 25.366 110.707 22.4425C109.703 21.2731 105.687 20.6884 104.014 20.9807C104.349 23.0272 104.014 25.0737 103.01 26.8278C100.667 23.0272 94.9776 21.5654 89.9574 22.1501C87.6147 22.4425 84.9372 23.0272 82.9292 24.489C79.5824 26.8278 78.2437 30.9207 78.5784 34.429C78.5784 38.2295 79.5824 41.7378 79.5824 45.5384C76.2356 44.3689 74.8969 41.1531 73.8929 38.2295C73.2235 36.1831 72.5542 34.1366 71.8848 32.0901C70.5461 27.1201 69.5421 22.1501 71.8848 18.0572Z" fill="#524F63"/>
<path d="M61.1749 10.4564C61.5096 8.40994 62.1789 6.07111 63.5176 4.317C65.5257 1.97818 68.8725 0.808766 72.2192 0.224061C75.566 -0.360644 79.2475 0.224061 82.2595 1.68582C90.2918 6.36347 84.937 18.6423 77.2394 21.5658C71.8846 23.6123 65.191 21.8582 62.5136 17.4729C60.8402 15.7188 60.8402 13.0876 61.1749 10.4564Z" fill="#524F63"/>
<path d="M100.667 59.8639C100.667 59.2792 100.667 58.9869 100.332 58.6945C99.9972 58.4022 99.6625 58.4022 99.6625 58.4022C95.981 57.2328 91.9649 56.3557 87.9488 55.771C87.6141 56.6481 86.9447 57.2328 86.6101 58.1098C86.6101 58.4022 86.2754 58.6945 86.2754 58.9869C86.2754 59.2792 86.6101 59.5716 86.6101 59.8639C87.6141 61.0333 88.9528 61.9104 90.6262 63.0798C93.6383 65.1263 97.3197 68.3422 101.001 69.2192C101.671 68.0498 101.962 66.2233 101.962 65.0539C101.962 63.0074 100.667 61.3257 100.667 59.8639Z" fill="#587BC9"/>
<path d="M102.674 59.5716C102.674 58.9869 103.009 58.4022 103.344 58.1099C104.013 57.5252 104.683 57.5252 105.687 57.8175C106.356 58.1099 107.025 58.4022 107.695 58.9869C109.033 60.1563 110.372 61.0334 112.045 62.2028L112.38 62.4952C112.38 62.7875 112.38 62.7875 112.045 63.0799C111.041 63.9569 110.037 64.834 109.033 65.711C108.364 66.2958 107.36 67.1728 106.356 67.4652C104.348 68.3422 102.34 68.3422 102.34 66.2957C102.005 63.9569 102.34 61.6181 102.674 59.5716Z" fill="#587BC9"/>
<path d="M103.253 70.835C103.633 79.1537 102.494 87.4724 101.356 95.7911C101.356 96.1377 100.976 96.4843 100.597 96.1377C100.976 91.2852 101.356 86.4326 101.735 81.58C101.735 77.4206 101.735 72.9147 101.735 68.7553C101.735 68.0621 100.976 63.5561 102.494 64.5959C103.633 65.2892 103.253 69.7951 103.253 70.835Z" fill="#333333"/>
<path d="M103.954 70.7912C105.15 76.618 105.218 82.5861 105.285 88.5542C105.324 88.7985 105.08 89.0781 104.76 88.8691C104.509 85.4142 104.258 81.9593 104.007 78.5044C103.55 75.5734 103.055 72.3981 102.599 69.467C102.523 68.9785 101.464 65.8739 102.706 66.4653C103.627 66.8478 103.84 70.0585 103.954 70.7912Z" fill="#333333"/>
<path d="M127.428 284.098C127.762 284.098 128.432 284.39 128.766 284.683C129.101 284.975 129.101 285.267 129.101 285.56C129.77 288.483 130.44 291.114 130.774 294.038C131.109 295.5 131.109 296.961 131.778 298.131C133.117 300.762 135.795 302.808 138.807 303.978C141.149 304.855 143.827 305.44 146.504 305.732C147.174 305.732 148.178 305.732 148.847 306.609C149.182 307.486 148.512 308.655 148.178 309.24C147.174 310.117 145.166 310.117 143.827 309.825C139.476 308.948 135.46 307.778 131.109 306.609C130.105 306.317 129.101 306.024 128.432 305.44C128.097 305.147 127.762 304.562 127.428 304.27C126.424 302.808 125.754 301.054 124.75 299.593C124.416 301.639 124.081 303.393 123.412 305.147C123.077 305.147 122.407 305.147 122.073 305.147C122.407 297.838 121.754 291.991 121.419 284.683C123.092 284.683 125.754 283.513 127.428 284.098Z" fill="#424051"/>
<path d="M117.735 131.49C109.368 125.643 100.666 120.088 92.2995 114.241C91.9648 113.949 91.2954 113.656 90.9607 113.656C90.2914 113.656 89.622 114.241 88.9527 114.826C88.2833 115.703 87.2793 116.58 87.2793 117.749C87.2793 119.796 89.2874 121.257 90.9607 122.134C99.6624 127.104 108.364 131.782 118.07 134.998C122.755 136.46 128.11 137.629 132.461 139.968C133.465 140.553 134.469 141.137 135.473 141.43C136.477 141.722 137.816 141.43 138.82 140.553C139.489 139.676 139.489 138.214 139.154 137.337C138.485 134.998 137.146 132.367 134.803 132.367C133.465 132.367 132.126 132.952 130.787 133.244C129.114 133.829 128.779 133.244 127.106 133.244C125.767 133.244 124.763 133.829 123.424 133.829C121.082 133.536 119.408 132.367 117.735 131.49Z" fill="#EAC5B0"/>
<path d="M66.8641 86.468C66.1947 89.3915 65.5254 92.315 65.5254 95.5309C65.5254 97.8697 66.1947 100.209 66.5294 102.547C67.1988 105.763 67.8681 108.687 70.2109 111.318C73.8923 115.411 80.2512 116.288 85.2713 118.919C84.602 120.089 83.9326 121.258 84.2673 122.427C84.602 123.597 86.2754 124.474 87.2794 123.597C87.6141 123.304 87.9488 123.012 87.9488 122.427C89.2875 119.796 90.9609 117.165 92.9689 114.826C93.973 113.657 94.977 112.487 95.3117 111.318C95.6463 109.856 94.977 108.102 93.6383 107.81C92.2996 108.979 93.6383 108.394 92.2996 109.564C91.9649 109.856 91.6302 110.149 91.2955 110.149C90.6262 110.441 89.9568 109.856 89.2875 109.564C88.2834 108.687 87.2794 108.102 86.2754 107.225C85.606 106.64 84.602 106.056 84.2673 105.179C83.9326 104.594 83.9326 103.717 83.9326 102.84C84.602 94.3615 87.9488 88.8068 89.9568 80.6209C90.6262 78.2821 90.9609 75.9433 90.2915 73.6044C89.2875 69.5115 85.606 66.2956 82.2593 63.3721C81.5899 62.7874 80.9205 62.2027 79.9165 62.2027C79.2472 61.9103 78.5778 62.2027 77.9084 62.2027C72.2189 63.6645 70.2109 66.588 69.8762 71.2656C68.8722 76.2356 67.8681 81.498 66.8641 86.468Z" fill="#587BC9"/>
<path d="M97.3198 35.8899C94.6424 35.0128 91.965 33.5511 90.2916 31.7969C89.2876 32.3816 88.9529 33.5511 88.6182 34.7205C87.9489 39.9828 90.6263 45.2452 94.9771 48.461C92.969 48.461 90.961 48.1687 89.2876 48.1687C88.9529 48.1687 88.6182 48.1687 88.2835 48.461C87.9489 48.7534 87.9489 49.0457 88.2835 49.3381C88.9529 51.0922 89.9569 52.8463 90.961 54.3081C87.2795 54.0157 83.5981 52.2616 80.9206 49.9228C78.2432 47.584 76.2352 44.6605 74.2271 41.7369C72.5537 38.8134 70.8803 35.5975 70.211 32.3816C69.5416 29.1658 70.211 25.3652 72.219 22.734C74.8965 19.5181 79.2473 17.764 83.9327 16.8869C86.6102 16.3022 89.6222 16.0099 92.2997 16.5946C93.973 16.8869 96.9851 17.764 97.9892 19.2258C98.9932 20.6875 96.9851 22.4416 96.3158 23.9034C94.6424 27.704 94.9771 32.3816 97.3198 35.8899Z" fill="#524F63"/>
<path d="M84.2537 291.992C84.5884 294.038 84.9231 296.377 85.9271 298.423C87.6005 301.639 91.6166 303.101 95.2981 304.27C95.6328 304.27 96.3021 304.563 96.3021 304.855C96.6368 305.147 96.6368 305.44 96.6368 305.732C96.6368 306.609 96.6368 307.779 96.9715 308.656C96.9715 308.948 96.9715 308.948 96.9715 308.948C96.9715 309.24 96.6368 309.24 96.3021 309.24C92.286 308.948 87.9352 309.24 83.9191 309.533C83.2497 309.533 82.5803 309.533 81.911 309.24C80.907 308.948 80.907 307.779 80.907 306.902C80.907 306.025 81.2416 305.147 81.2416 304.27C80.907 303.393 80.2376 302.516 79.2336 302.809C78.8989 304.563 78.8989 306.609 79.5683 308.363C78.8989 308.656 77.8949 308.656 76.8908 308.656C77.2255 303.686 77.5602 298.716 76.5562 293.746C76.2215 291.992 74.1544 287.899 75.1584 286.145C76.5562 286.145 78.8989 286.145 80.5723 286.145C82.5803 286.145 82.915 286.729 83.5844 288.483C83.5844 289.653 83.9191 290.822 84.2537 291.992Z" fill="#424051"/>
<path opacity="0.08" d="M117 320C149.585 320 176 316.418 176 312C176 307.582 149.585 304 117 304C84.4152 304 58 307.582 58 312C58 316.418 84.4152 320 117 320Z" fill="#9DAFBD"/>
</svg>
