<svg width="228" height="337" viewBox="0 0 228 337" fill="none" xmlns="http://www.w3.org/2000/svg">
<path d="M82.3245 283.348C76.529 284.014 70.7336 284.68 65.5481 287.345C63.1079 288.677 60.0577 291.341 61.2778 294.005C61.5828 295.004 62.8029 295.67 63.718 296.337C66.1582 297.669 69.2084 297.669 71.9537 297.669C88.12 298.002 103.981 298.002 120.148 298.335C161.936 299.001 203.42 299.334 245.208 300C253.444 300 262.899 300 269 294.005C268.39 292.34 266.56 291.674 264.73 291.341C240.023 286.013 214.095 292.673 189.388 286.346C184 285.5 181 285.5 180.5 284.5C179 282 180 279.5 178.933 277.353C166.427 276.354 154.921 277.354 142.415 277.021C137.229 277.021 131.739 276.688 126.858 278.686C123.198 280.018 120.453 281.017 116.487 281.35C104.896 281.35 93.6105 282.016 82.3245 283.348Z" fill="#F7F9FA"/>
<path d="M154.992 267.442L299.241 145.737L3.41797 143.411L144 267L154.992 267.442Z" fill="#F4F4F4"/>
<path d="M173.074 273.214C174.605 273.214 176.136 273.519 177.361 274.432C179.198 275.954 179.198 278.998 178.892 281.737C178.892 282.346 178.892 282.955 178.586 283.259C178.28 283.868 177.667 284.172 177.055 284.477C174.605 285.694 171.543 285.694 168.787 285.694C161.438 285.39 154.396 285.39 147.047 285.086C141.535 285.086 132.961 286.303 128.062 283.564C124.081 281.129 123.775 274.736 128.368 272.606C131.124 271.388 135.717 271.997 138.779 271.997C142.454 271.997 146.128 271.692 149.496 271.692C157.458 271.997 165.113 273.214 173.074 273.214Z" fill="#979797"/>
<path d="M142.306 269.865C142.919 268.648 144.143 268.648 145.368 268.343C148.43 268.039 151.799 268.039 154.861 268.039C155.473 268.039 155.779 268.039 156.392 268.343C157.004 268.648 157.616 269.257 157.616 270.17C157.923 270.779 157.923 271.692 157.616 272.301C157.616 272.909 157.616 273.518 157.004 273.823C156.698 273.823 156.392 273.823 156.085 274.127C152.717 274.127 149.349 274.127 145.981 274.127C144.756 274.127 142.612 274.431 142 273.518C142 272.605 142 270.474 142.306 269.865Z" fill="#B2B2B2"/>
<path d="M144 267C146.973 267 150.243 266.903 153.216 267.078C153.811 267.078 154.703 267.078 155 267.427C154.405 267.777 153.811 268.126 153.216 268.651C152.919 268.825 152.919 268.825 152.622 269C152.324 269 152.027 269 151.73 269C150.243 268.825 148.162 269 146.676 268.825C145.189 268.126 144.892 267.699 144 267Z" fill="#DADADA"/>
<path d="M294.398 5.39122C294.398 5.39122 295.648 8.64644 295.648 12.9981C295.035 42.1799 295.954 71.1056 297.793 100.287C298.406 108.735 299.018 117.182 299.937 125.629C300.244 129.981 299.325 145.852 299.325 145.852C293.197 148.924 268.992 146.108 261.026 146.108C248.157 146.108 234.982 146.108 222.42 145.852C160.223 145.596 100.477 145.34 43.1814 145.084C33.6833 145.084 24.4916 145.084 15.2998 144.828C11.9295 144.828 5.48308 145.596 3.03195 143.548C-0.0319645 140.988 0.593036 125.117 0.593036 121.79C0.593036 87.4884 3.35056 58.0506 1.51221 23.7493C0.899427 16.5818 -0.63253 8.13448 0.286644 0.455076C7.02726 -0.568845 15.2998 0.455076 22.0404 0.455076C72.595 0.967037 124.988 1.73498 178.913 2.24694C202.199 2.50292 225.791 2.7589 249.996 3.01488C261.639 3.27086 273.894 2.7589 285.537 3.52684C289.214 3.78282 292.866 4.62328 294.398 5.39122Z" fill="#DDDDDD"/>
<path d="M288.495 8.82609C288.495 8.82609 289.119 10.7427 289.119 14.8293C289.119 42.4142 290.06 69.9992 292.882 97.8395C293.352 106.013 294.293 114.186 295.234 122.104C295.704 126.446 295.234 141.771 295.234 141.771C289.119 144.581 265.131 142.026 257.135 141.771C244.436 141.771 231.736 141.516 219.037 141.516C158.361 141.005 100.038 140.494 45.0068 139.983C36.0702 139.983 27.1335 139.728 18.1968 139.728C14.9044 139.728 9.26015 140.238 7.37875 138.451C4.55664 135.896 4.55664 121.082 4.55664 118.017C5.02699 85.8349 7.8491 58.25 6.9084 26.5785C6.9084 19.4268 5.02699 11.7643 6.43805 4.6127C12.5526 3.84646 20.0782 4.35729 26.6631 4.6127C74.1686 4.86812 124.026 5.12354 175.764 5.37895C198.341 5.37895 220.918 6.70673 244.436 6.70673C255.724 6.70673 267.953 6.19589 279.242 6.96214C283.005 6.96214 287.084 8.05985 288.495 8.82609Z" fill="#B2B2B2"/>
<path d="M149.62 141.676V4.55859C147.456 3.97412 140.758 2.94545 131.284 3.50654C119.442 4.20791 90.0282 7.01337 63.2882 6.312C41.8962 5.75091 17.4482 3.74033 7.89817 2.80518C8.0255 3.38965 8.35657 5.11968 8.66217 7.36405C9.04417 10.1695 9.04419 52.6021 6.75219 75.3965C4.91859 93.632 5.22419 124.141 5.60619 137.117C9.55352 138.052 21.1918 140.062 36.1662 140.624C54.8842 141.325 101.394 139.043 116.004 138.169C133.576 137.117 146.946 139.571 149.62 141.676Z" fill="url(#paint0_linear)"/>
<path d="M149.62 141.676V4.55859C151.785 3.97412 158.482 2.94545 167.956 3.50654C179.798 4.20791 209.212 7.01337 235.952 6.312C257.344 5.75091 281.792 3.74033 291.342 2.80518C291.215 3.38965 290.884 5.11968 290.578 7.36405C290.196 10.1695 290.196 52.6021 292.488 75.3965C294.322 93.632 294.016 124.141 293.634 137.117C289.687 138.052 278.048 140.062 263.074 140.624C244.356 141.325 197.846 139.043 183.236 138.169C165.664 137.117 152.294 139.571 149.62 141.676Z" fill="url(#paint1_linear)"/>
<path d="M31.7637 22.4805C41.6371 23.0641 64.8016 24.1876 78.4725 24.0125C92.1434 23.8374 107.207 23.3559 113.029 23.1371" stroke="#587BC9" stroke-width="11"/>
<g opacity="0.6">
<path d="M31.6475 38.1953C41.5161 38.6245 64.671 39.5085 78.3417 39.6112C92.0125 39.7139 107.078 39.6828 112.901 39.6544" stroke="#B1B1B1" stroke-width="2"/>
<path d="M31.585 42.8467C41.0269 43.2699 63.1806 44.14 76.2606 44.2345C89.3405 44.329 103.755 44.2888 109.327 44.2569" stroke="#B1B1B1" stroke-width="2"/>
<path d="M31.5234 47.4971C41.2008 47.9236 63.907 48.8014 77.3129 48.9004C90.7189 48.9994 105.492 48.9642 111.203 48.9342" stroke="#B1B1B1" stroke-width="2"/>
<path d="M31.2744 66.0996C41.143 66.5288 64.2979 67.4128 77.9687 67.5155C91.6395 67.6182 106.705 67.5871 112.528 67.5587" stroke="#B1B1B1" stroke-width="2"/>
<path d="M31.2119 70.751C40.6205 71.1738 62.696 72.0428 75.7298 72.1366C88.7636 72.2304 103.127 72.1895 108.679 72.1574" stroke="#B1B1B1" stroke-width="2"/>
<path d="M31.1504 75.4014C38.1648 75.7908 54.6233 76.5817 64.3421 76.6294C74.061 76.6771 84.7716 76.5853 88.9121 76.5335" stroke="#B1B1B1" stroke-width="2"/>
<path d="M31.4609 52.1479C40.7105 52.5685 62.4131 53.4323 75.2268 53.5231C88.0404 53.6139 102.161 53.5696 107.62 53.5361" stroke="#B1B1B1" stroke-width="2"/>
<path d="M31.3984 56.7988C40.9944 57.2242 63.5097 58.0994 76.803 58.1968C90.0963 58.2942 104.745 58.2573 110.408 58.2267" stroke="#B1B1B1" stroke-width="2"/>
<path d="M31.3369 61.4497C40.5865 61.8703 62.2891 62.7341 75.1027 62.8249C87.9164 62.9156 102.037 62.8714 107.496 62.8379" stroke="#B1B1B1" stroke-width="2"/>
</g>
<path d="M181.384 66.666C191.257 67.2497 214.422 68.3732 228.093 68.1981C241.764 68.023 256.827 67.5415 262.65 67.3226" stroke="#587BC9" stroke-width="11"/>
<g opacity="0.6">
<path d="M181.268 82.3818C191.136 82.811 214.291 83.6951 227.962 83.7978C241.633 83.9004 256.698 83.8693 262.521 83.8409" stroke="#B1B1B1" stroke-width="2"/>
<path d="M181.205 87.0327C190.647 87.456 212.801 88.3261 225.881 88.4205C238.961 88.515 253.375 88.4748 258.947 88.4429" stroke="#B1B1B1" stroke-width="2"/>
<path d="M181.144 91.6831C190.821 92.1096 213.527 92.9874 226.933 93.0864C240.339 93.1854 255.112 93.1502 260.823 93.1203" stroke="#B1B1B1" stroke-width="2"/>
<path d="M180.895 110.286C190.763 110.715 213.918 111.599 227.589 111.702C241.26 111.805 256.325 111.774 262.148 111.745" stroke="#B1B1B1" stroke-width="2"/>
<path d="M180.832 114.937C190.241 115.359 212.316 116.228 225.35 116.322C238.384 116.416 252.747 116.375 258.299 116.343" stroke="#B1B1B1" stroke-width="2"/>
<path d="M180.771 119.587C187.785 119.976 204.243 120.767 213.962 120.815C223.681 120.863 234.392 120.771 238.532 120.719" stroke="#B1B1B1" stroke-width="2"/>
<path d="M181.081 96.334C190.331 96.7546 212.033 97.6184 224.847 97.7091C237.661 97.7999 251.781 97.7556 257.24 97.7222" stroke="#B1B1B1" stroke-width="2"/>
<path d="M181.019 100.985C190.615 101.41 213.13 102.285 226.423 102.383C239.716 102.48 254.366 102.443 260.029 102.413" stroke="#B1B1B1" stroke-width="2"/>
<path d="M180.957 105.635C190.207 106.056 211.909 106.92 224.723 107.01C237.537 107.101 251.657 107.057 257.116 107.023" stroke="#B1B1B1" stroke-width="2"/>
</g>
<path d="M31.8991 85.271C31.8991 85.271 48.608 85.9854 70.2536 85.9854C91.8991 85.9854 112.405 85.271 112.405 85.271L113.165 120.276C98.5937 120.276 84.6833 121.705 73.2915 121.705C59.872 121.705 48.3047 120.991 31.1396 120.991L31.8991 85.271Z" fill="#F0F0F0"/>
<path d="M180 16.2783C180 16.2783 198.228 17.7679 219.873 17.7679C241.519 17.7679 262.025 17.0535 262.025 17.0535L262.785 52.0588C248.214 52.0588 234.303 53.4876 222.911 53.4876C209.492 53.4876 197.925 52.7732 180.759 52.7732L180 16.2783Z" fill="#F0F0F0"/>
<path opacity="0.08" d="M270 314.507C270 317.538 252.201 320 230 320C207.799 320 190 317.538 190 314.507C190 311.476 207.799 309.013 230 309.013C252.201 309.013 270 311.476 270 314.507Z" fill="#9DAFBD"/>
<path d="M198.996 143.26C198.996 143.26 186.555 197.438 206.268 234.377C225.981 271.316 225.79 271.127 225.79 271.127C225.79 271.127 230.957 179.063 198.996 143.26Z" fill="#5BB59B"/>
<path d="M199.762 284.955C200.91 291.585 202.441 298.405 205.886 304.277C209.14 310.149 214.498 315.264 221.197 316.779C224.259 317.537 227.321 317.537 230.384 317.348C233.829 317.348 237.274 316.969 240.336 315.264C244.163 312.991 246.077 308.823 247.608 304.656C250.288 297.647 252.202 290.448 253.541 283.25C254.307 279.083 254.881 274.536 252.776 270.748C250.096 265.633 243.781 263.549 238.039 262.602C228.47 261.087 215.264 260.329 206.077 264.117C198.039 267.527 198.422 277.567 199.762 284.955Z" fill="#D8E4F2"/>
<path d="M221.579 271.316C229.234 271.695 237.464 270.558 242.249 268.095C243.206 267.527 243.971 266.959 243.588 266.391C243.014 265.633 241.1 265.254 239.186 265.254C230 264.307 219.856 263.928 210.861 265.443C197.847 267.527 214.497 270.937 221.579 271.316Z" fill="#524F63"/>
<path d="M217.56 130C217.56 130 211.436 233.24 225.79 271.127C225.79 271.127 235.168 179.063 217.56 130Z" fill="#63A590"/>
<path d="M224.068 270.369H227.513C232.489 249.91 247.226 183.609 239.379 152.732C239.379 152.732 214.498 239.681 220.814 259.193C222.154 264.307 223.302 267.906 224.068 270.369Z" fill="#5BB59B"/>
<path d="M146.475 318.447C149.652 318.172 153.093 318.447 156.27 318.997C158.653 320.922 161.565 322.573 164.477 323.673C165.271 323.948 166.065 324.498 166.859 325.049C167.389 325.599 167.653 326.974 167.124 327.524C166.594 328.074 165.8 328.35 165.006 328.35C158.917 328.35 152.829 327.799 147.005 326.699C146.74 326.699 146.211 326.424 145.946 326.424C145.681 326.149 145.681 325.874 145.681 325.599C144.887 323.123 145.152 320.372 146.475 318.447Z" fill="#424051"/>
<path d="M135.622 320.096C132.445 319.821 129.004 320.096 125.827 320.646C123.444 322.572 120.532 324.222 117.62 325.323C116.826 325.598 116.032 326.148 115.238 326.698C114.708 327.248 114.444 328.624 114.973 329.174C115.503 329.724 116.297 329.999 117.091 329.999C123.18 329.999 129.004 329.449 135.092 328.348C135.357 328.348 135.886 328.073 136.151 328.073C136.416 327.798 136.416 327.523 136.416 327.248C137.21 324.773 136.681 322.022 135.622 320.096Z" fill="#424051"/>
<path d="M124.401 258.205C123.607 239.5 120.797 221.07 121.062 202.364C120.533 196.038 121.327 189.436 123.445 183.384C123.709 183.109 123.709 182.559 123.974 182.284C124.768 181.458 126.357 181.734 127.416 182.284C138.005 186.96 150.711 185.86 160.241 179.258C162.094 182.284 162.624 186.135 163.153 189.711C163.947 195.487 164.742 201.264 165.006 207.041C165.006 208.416 165.006 209.516 165.006 210.892C164.742 218.044 163.418 225.196 162.359 232.623C161.565 237.299 161.036 241.975 161.036 246.652C161.036 250.503 160.045 253.317 159.251 257.168C157.133 266.521 156.339 285.564 156.339 285.564L153.692 316.373V318.997C153.692 318.997 147.005 320.922 147.005 318.997C146.476 299.191 145.682 279.111 145.152 259.305C144.887 251.053 144.623 242.526 142.505 234.548C135.887 235.374 136.946 258.48 136.681 264.257C135.887 282.962 135.093 301.667 134.298 320.372C131.651 320.372 131.548 320.372 128.901 320.372C127.313 315.971 127.048 311.295 126.783 306.894C125.989 290.389 124.93 274.434 124.401 258.205Z" fill="#EAC5B0"/>
<path d="M153.094 96.1842C144.093 97.0094 135.357 98.6599 127.151 93.7085C108.62 115.99 117.621 114.339 115.767 136.07C115.238 140.747 121.327 151.2 121.062 155.601C119.209 177.882 110.738 214.192 111.532 236.473C111.797 242.8 112.061 249.127 113.65 254.904C114.179 256.554 114.709 258.204 115.767 259.305C116.826 260.405 118.415 260.405 120.003 260.405C136.151 259.305 148.593 251.328 167.918 262.881C171.889 223.27 163.153 182.833 161.035 155.876C159.712 137.171 166.595 130.294 163.153 110.763C162.359 106.362 161.3 101.686 159.182 98.1097C158.653 97.0094 156.006 95.9091 157.064 95.9091C158.388 95.359 156.27 95.9091 153.094 96.1842Z" fill="#A1BDEB"/>
<path d="M164.477 24.3903C164.477 23.8401 164.212 23.5651 164.212 23.0149C163.683 21.9146 163.948 21.0894 163.153 20.5392C162.095 19.9891 161.3 19.1638 161.036 18.3386C161.036 18.0635 161.83 16.9632 161.565 16.6881C161.3 15.8629 159.977 16.138 159.712 15.5878C158.918 13.9374 159.447 12.0118 160.771 10.9115C162.095 9.81122 164.212 9.81122 165.536 10.3614C166.595 10.9115 167.389 12.0118 168.183 13.1121C168.713 13.9374 169.242 14.7626 169.507 15.5878C170.566 18.8888 168.713 23.0149 169.772 26.3158C170.036 26.866 170.036 27.4161 169.772 27.6912C169.772 27.6912 169.507 27.9663 169.242 27.9663C168.448 28.2414 165.536 29.0666 165.006 28.5164C164.742 27.9663 164.742 27.1411 164.742 26.5909C164.742 25.4906 164.477 24.9404 164.477 24.3903Z" fill="#EAC5B0"/>
<path d="M160.241 16.9625C160.241 16.6874 160.241 16.6874 160.241 16.4123V16.1372C160.241 15.8622 160.771 15.5871 161.035 15.5871C161.3 15.5871 161.565 15.312 161.83 15.312C162.094 15.312 162.094 15.312 162.359 15.312L162.624 15.5871C162.888 15.8622 163.153 16.1372 163.153 16.1372C163.418 16.4123 163.418 16.4123 163.418 16.6874C163.683 17.2376 163.418 18.0628 162.888 18.6129C162.624 18.888 161.565 19.4382 161.035 19.1631C160.771 18.888 160.506 18.6129 160.506 18.3379C160.506 17.7877 160.241 17.5126 160.241 16.9625Z" fill="#DDD2C5"/>
<path d="M122.915 59.0499C123.445 57.3995 124.239 55.4739 125.298 54.0985C128.475 48.597 137.211 41.7201 143.564 46.6715C144.888 47.7718 145.946 49.4222 147.005 51.0727C148.064 52.7232 148.858 54.3736 149.653 56.2992C150.976 59.6001 151.241 63.7262 150.447 67.3022C149.653 70.6031 147.799 73.629 145.946 76.6548C143.564 80.2308 140.652 84.0819 136.416 85.1822C130.857 86.5576 125.033 82.4314 122.915 76.9299C120.268 70.8782 121.062 64.5515 122.915 59.0499Z" fill="#EAC5B0"/>
<path d="M164.212 71.9774C162.888 79.9546 160.771 88.2069 161.3 96.1841C161.3 98.1097 162.094 100.31 163.683 100.585C165.271 101.136 166.859 99.4851 167.653 98.1097C168.712 96.4592 169.506 94.5337 170.301 92.6082C171.095 90.4075 171.36 87.9319 171.624 85.4562C174.007 67.3011 176.125 48.8709 173.213 30.7159C172.948 28.5153 172.418 26.3147 170.83 24.9393C169.506 23.839 167.389 23.5639 165.536 23.839C162.624 24.114 163.153 24.9393 163.683 27.69C164.477 32.6414 165.271 37.5928 165.536 42.5442C166.33 52.4469 165.8 62.3497 164.212 71.9774Z" fill="#587BC9"/>
<path d="M162.094 148.45C154.152 150.375 145.946 150.1 137.739 150.65C131.916 151.2 126.092 152.026 120.268 152.301H120.003V152.576C120.003 154.501 120.532 154.226 122.121 154.226C123.709 154.226 125.297 153.951 126.886 153.951C130.062 153.676 133.239 153.401 136.151 153.126C138.534 152.851 140.916 152.851 143.299 152.576C148.858 152.301 154.417 152.576 159.712 152.576C160.241 152.576 160.771 152.576 161.3 152.301C161.829 152.026 161.829 151.2 161.829 150.65C161.829 149.825 161.829 149.275 162.094 148.45Z" fill="#314F8F"/>
<path d="M150.711 147.9C151.241 149.825 151.241 152.026 151.241 153.951C150.711 154.226 149.917 154.226 149.388 154.501H149.123C148.858 154.501 148.858 154.226 148.858 153.951C148.594 152.301 148.329 150.65 148.329 149C148.329 148.175 148.064 148.175 148.594 147.625C148.858 147.9 150.711 147.9 150.711 147.9Z" fill="#587BC9"/>
<path d="M135.887 153.952C135.622 152.576 135.622 151.201 135.357 149.826C135.092 148.45 134.034 149 132.975 149.275C132.975 149.275 132.975 149.275 132.71 149.275C132.71 149.275 132.71 149.275 132.71 149.551C132.71 150.376 132.975 151.201 132.975 152.026C133.239 153.127 133.239 154.227 133.239 155.327C134.034 155.602 135.092 155.327 135.887 154.777C135.887 154.777 136.151 154.777 136.151 154.502C136.151 153.952 136.151 153.952 135.887 153.952Z" fill="#587BC9"/>
<path d="M93.7956 140.472C93.0014 139.647 92.2073 138.821 91.9425 137.996C91.6778 137.171 91.4131 136.071 91.4131 135.245C91.4131 134.97 91.4131 134.42 91.4131 134.145C91.4131 133.87 91.6778 133.595 91.9425 133.595C92.7367 133.045 93.7956 132.495 94.5898 133.045C95.6487 133.595 96.1781 134.97 97.237 135.245C98.0312 135.52 99.0901 135.245 99.3548 135.796C99.6195 136.071 99.6195 136.346 99.6195 136.621C99.6195 138.821 99.0901 141.572 100.149 143.498C100.414 144.048 100.678 144.323 100.414 144.873C100.414 145.148 100.149 145.148 99.8843 145.148C98.0312 145.973 97.7665 145.698 96.7076 144.048C95.9134 142.672 94.8545 141.572 93.7956 140.472Z" fill="#EAC5B0"/>
<path d="M97.2377 149.55C98.2966 151.2 99.3555 152.851 100.414 154.501C101.738 156.427 103.062 158.627 105.444 159.177C108.356 159.727 110.739 157.527 112.856 155.326C115.504 152.3 117.886 149.275 119.21 145.423C119.739 144.048 120.004 142.398 120.269 140.747C121.857 132.22 125.298 123.967 129.005 116.265C130.063 114.065 131.387 111.039 130.063 108.838C129.005 106.913 126.357 106.363 124.24 107.188C122.122 108.013 120.798 109.939 119.739 111.864C114.18 121.217 114.974 133.32 108.886 142.398C107.827 143.773 107.297 147.349 105.709 147.899C104.12 148.449 102.003 143.498 100.944 142.123C100.679 141.572 100.414 141.022 99.8849 140.472C99.6202 139.922 97.2377 141.847 96.7082 142.123C94.061 143.773 95.914 147.624 97.2377 149.55Z" fill="#587BC9"/>
<path d="M112.855 93.1589C113.914 91.7835 115.503 90.4082 116.032 88.4826C116.561 87.1072 116.032 85.4568 116.297 84.0814C116.297 82.4309 116.826 80.7805 118.414 80.2303C119.738 79.6802 121.062 80.5054 122.121 81.6057C122.65 81.3306 123.444 81.0555 123.974 80.7805C127.415 79.4051 129.798 75.8291 130.857 71.978C131.915 68.1269 131.651 64.2759 131.386 60.1497C131.121 57.674 130.857 54.9232 130.327 52.4475C127.15 49.9719 125.033 45.5706 128.209 41.7196C131.651 37.5934 138.004 35.9429 143.034 37.3183C148.858 38.9688 160.77 45.8457 161.035 52.1725C161.3 56.8488 160.506 61.5251 162.094 65.9263C163.682 69.7774 159.182 70.6026 162.623 73.0783C163.418 73.6285 163.947 74.1786 164.212 75.0039C164.741 76.1042 164.477 77.2045 165.271 78.0297C165.535 78.3048 166.065 78.5798 166.594 78.8549C169.242 79.6802 172.683 81.0555 172.683 84.0814C172.683 85.1817 172.154 86.282 172.948 87.3823C173.212 87.9325 173.742 88.2075 174.271 88.4826C175.33 89.5829 175.065 91.2334 174.536 92.6088C174.007 93.9842 173.212 95.0845 173.212 96.7349C173.212 97.8352 173.742 98.6605 173.742 99.7608C173.742 101.686 172.683 103.612 170.83 104.162C169.242 104.712 166.859 104.437 166.33 106.088C166.065 106.638 166.065 107.188 165.8 107.738C165.535 108.013 165.006 108.288 164.477 108.563C161.035 109.388 157.064 106.363 154.417 108.838C152.564 110.489 152.829 113.515 150.976 115.165C148.858 117.091 145.152 115.44 143.034 117.366C142.504 117.916 141.975 118.741 141.181 119.016C139.592 120.116 137.21 118.741 136.151 116.816C135.092 115.165 134.563 112.964 132.974 111.589C130.062 109.388 126.091 111.039 122.65 111.039C120.268 111.039 117.885 110.489 115.767 108.838C114.973 108.288 114.444 107.738 114.179 106.913C113.12 104.987 114.444 102.236 113.385 100.311C113.12 99.7608 112.326 99.2106 112.061 98.6605C110.737 96.7349 111.532 94.5343 112.855 93.1589Z" fill="#4A4549"/>
<path opacity="0.08" d="M141 337C173.585 337 200 333.418 200 329C200 324.582 173.585 321 141 321C108.415 321 82 324.582 82 329C82 333.418 108.415 337 141 337Z" fill="#9DAFBD"/>
<defs>
<linearGradient id="paint0_linear" x1="9.53806" y1="51.9008" x2="149.62" y2="51.9008" gradientUnits="userSpaceOnUse">
<stop stop-color="#FEFEFE"/>
<stop offset="0.906077" stop-color="white"/>
<stop offset="1" stop-color="#F9F9F9"/>
</linearGradient>
<linearGradient id="paint1_linear" x1="289.702" y1="51.9008" x2="149.62" y2="51.9008" gradientUnits="userSpaceOnUse">
<stop stop-color="#FEFEFE"/>
<stop offset="0.888173" stop-color="white"/>
<stop offset="0.946309" stop-color="#F7F7F7" stop-opacity="0.974239"/>
<stop offset="1" stop-color="#F1F1F1"/>
</linearGradient>
</defs>
</svg>
