<svg width="320" height="874" viewBox="0 0 320 874" fill="none" xmlns="http://www.w3.org/2000/svg">
<g opacity="0.2">
<path d="M196.412 330.617L92.2485 358.527L120.159 462.691L224.323 434.78L196.412 330.617Z" fill="#D8E4F2"/>
<path d="M406.879 541.577L16.9983 646.046L-87.4678 256.173L302.413 151.705L406.879 541.577ZM31.4859 620.953L381.667 527.122L287.838 176.948L-62.3431 270.778L31.4859 620.953Z" fill="#D8E4F2"/>
<path d="M165.129 379.768L145.339 385.07L208.972 622.549L228.761 617.246L165.129 379.768Z" fill="#D8E4F2"/>
<path d="M5.11363 199.247L-14.6763 204.549L58.8945 479.119L78.6844 473.817L5.11363 199.247Z" fill="#D8E4F2"/>
<path d="M213.563 143.393L193.773 148.696L267.344 423.266L287.134 417.963L213.563 143.393Z" fill="#D8E4F2"/>
<path d="M8.29568 146.18L-43.8462 160.152L-29.8719 212.305L22.27 198.333L8.29568 146.18Z" fill="#D8E4F2"/>
<path d="M112.462 118.269L60.3198 132.24L74.2942 184.393L126.436 170.422L112.462 118.269Z" fill="#D8E4F2"/>
<path d="M216.627 90.3582L164.485 104.33L178.459 156.483L230.601 142.511L216.627 90.3582Z" fill="#D8E4F2"/>
<path d="M140.831 640.809L88.689 654.78L102.663 706.933L154.805 692.962L140.831 640.809Z" fill="#D8E4F2"/>
<path d="M244.997 612.898L192.855 626.869L206.829 679.022L258.971 665.051L244.997 612.898Z" fill="#D8E4F2"/>
<path d="M349.162 584.987L297.02 598.958L310.994 651.111L363.136 637.139L349.162 584.987Z" fill="#D8E4F2"/>
</g>
<path opacity="0.08" d="M128.316 868.09C128.316 871.287 107.19 874 81.1579 874C55.1259 874 34 871.384 34 868.09C34 864.893 55.1259 862.18 81.1579 862.18C107.19 862.277 128.316 864.893 128.316 868.09Z" fill="#9DAFBD"/>
<path d="M144.697 719.532C144.605 719.418 144.505 719.3 144.392 719.225C143.318 718.497 142.361 718.818 141.147 718.44C140.608 718.27 140.19 716.768 139.303 717.604C138.977 717.911 138.272 718.795 137.58 719.456C136.571 720.424 134.757 720.996 133.235 721.157C127.267 721.794 121.304 720.651 115.436 719.314C115.101 719.239 114.753 719.154 114.488 718.918C114.013 718.497 113.953 717.751 113.918 717.085C113.757 714.009 113.326 710.948 112.643 707.958C112.034 705.289 111.186 702.611 109.577 700.49C107.967 698.369 105.462 696.881 102.952 697.221C101.073 697.476 99.3373 698.78 98.4543 700.598C96.2664 705.119 100.629 710.878 102.561 714.718C104.387 718.355 106.445 721.851 108.72 725.172C109.003 725.583 109.294 725.999 109.703 726.258C110.138 726.532 110.651 726.594 111.151 726.651C117.576 727.373 124.027 727.477 130.508 727.439C132.291 727.43 133.84 726.405 135.488 726.41C136.541 726.414 137.363 727.236 138.355 727.482C139.333 727.723 140.677 727.765 141.669 727.595C143.627 727.26 144.566 725.285 145.545 723.651C145.788 723.245 145.954 722.971 145.993 722.517C146.054 721.78 145.701 721.171 145.371 720.557C145.175 720.193 144.953 719.843 144.697 719.532Z" fill="#EAC5B0"/>
<path d="M100.164 715.691C102.056 717.751 104.131 719.579 105.614 722.154C106.645 723.944 107.506 725.985 109.133 727.142C110.399 728.044 111.96 728.285 113.465 728.46C114.653 728.597 115.845 728.71 117.037 728.795C117.641 725.758 118.246 722.72 118.85 719.683C117.724 719.192 116.51 718.937 115.292 718.927C113.913 709.541 112.996 700.117 111.708 690.721C111.13 686.498 110.499 682.123 108.346 678.552C103.752 670.918 92.891 673.167 91.921 682.544C91.1598 689.866 92.1646 697.41 94.4134 704.34C95.3965 707.373 96.6014 711.137 98.4631 713.655C98.9937 714.373 99.5679 715.044 100.164 715.691Z" fill="#3F60B2"/>
<path d="M61.986 858.947C60.6289 859.047 59.3849 858.527 58.0669 858.366C58.1278 853.312 58.6324 848.47 59.6372 843.481C61.6859 845.952 63.4084 844.516 63.3388 849.155C63.3171 850.657 61.7207 856.661 61.986 858.947Z" fill="#E5D1BD"/>
<path d="M57.7711 855.853C56.2269 855.253 55.8789 859.259 55.8659 860.204C55.8572 860.77 55.9224 861.347 55.7876 861.895C55.6397 862.499 55.2743 863.005 54.9176 863.491C54.1695 864.512 53.4213 865.532 52.6732 866.557C52.3382 867.015 51.9946 867.488 51.8162 868.04C51.3682 869.41 52.1077 871.035 53.3039 871.692C57.4535 873.969 61.2422 868.456 62.1382 864.819C62.2774 864.261 62.3775 863.695 62.4775 863.128C62.6863 861.956 63.5041 859.396 63.0734 858.253C62.5732 856.916 61.0595 857.884 60.0677 857.379C59.1412 856.911 58.3931 856.094 57.7711 855.853Z" fill="#212940"/>
<path d="M87.2362 775.699C83.3693 787.13 78.9064 798.312 76.3618 810.282C73.217 825.068 68.1495 839.485 65.5483 854.299C63.8693 854.36 62.1816 854.28 60.5113 854.068C58.5974 853.822 55.5569 853.26 54.8653 850.992C54.513 849.83 54.8871 847.945 54.9393 846.741C55.1132 842.882 55.3655 839.022 55.6265 835.167C56.366 824.26 56.8749 813.22 58.7192 802.469C60.6635 791.16 62.5252 779.808 64.2347 768.5C65.1177 762.656 66.2051 756.846 67.5449 751.102C67.8885 749.623 71.4814 734.37 72.1861 734.492C80.555 735.938 88.3846 738.947 95.6748 743.643C96.3838 744.101 97.0667 744.644 97.3146 745.457C97.5626 746.269 97.3364 746.968 97.1102 747.705C94.931 754.734 92.0297 761.329 89.7069 768.329C88.9022 770.762 88.0801 773.195 87.2362 775.699Z" fill="#D8E4F2"/>
<path d="M87.9619 858.125C89.232 858.659 90.5631 858.565 91.8637 858.834C93.186 853.992 94.0342 849.202 94.4431 844.114C91.8115 845.81 90.5587 843.883 89.3538 848.333C88.9624 849.778 88.8449 856.028 87.9619 858.125Z" fill="#E5D1BD"/>
<path d="M93.1956 857.379C93.2 860.119 95.1835 863.067 96.284 865.533C96.4145 865.821 96.5449 866.123 96.5493 866.444C96.558 866.921 96.2883 867.347 96.0317 867.734C95.675 868.272 95.2835 868.839 94.7137 869.08C94.1526 869.316 93.5262 869.198 92.939 869.057C91.9559 868.82 90.9859 868.542 90.0247 868.211C89.7854 868.131 89.5418 868.041 89.3461 867.871C89.1156 867.668 88.9764 867.37 88.8459 867.082C88.1673 865.599 87.5931 864.55 87.6279 862.901C87.6671 861.196 87.8628 859.429 87.5757 857.743C87.4322 856.926 87.2452 855.877 87.8933 855.428C88.3935 855.079 89.3069 855.56 89.8507 855.655C90.812 855.825 91.6993 855.759 92.5823 856.307C92.7607 856.42 92.939 856.553 93.0477 856.741C93.1652 856.93 93.1956 857.152 93.1956 857.379Z" fill="#212940"/>
<path d="M86.6578 770.488C87.2189 782.652 88.4151 794.769 87.5669 807.018C86.5186 822.148 87.4103 837.548 85.8357 852.537C87.4234 853.137 89.0545 853.605 90.7074 853.94C92.6039 854.323 95.6575 854.771 96.9407 852.825C97.5975 851.833 97.7541 849.911 98.0324 848.739C98.9241 844.998 99.7376 841.233 100.547 837.468C102.826 826.816 105.366 816.111 106.549 805.251C107.793 793.824 109.124 782.388 110.586 771.036C111.343 765.169 111.895 759.274 112.191 753.36C112.265 751.834 113.013 736.113 112.308 736.004C103.922 734.681 95.6227 735.026 87.3799 737.152C86.5795 737.36 85.7748 737.657 85.3181 738.352C84.8614 739.046 84.8831 739.788 84.8962 740.567C85.0528 747.984 86.0184 755.216 86.3185 762.651C86.4186 765.235 86.5317 767.829 86.6578 770.488Z" fill="#D8E4F2"/>
<path d="M81.9468 672.874C81.812 672.926 81.6728 672.978 81.538 673.035C79.2848 673.961 77.3709 675.633 75.4961 677.277C72.6818 679.748 71.2943 680.829 70.2112 684.486C69.1977 687.896 68.5626 691.496 67.9406 695.01C64.7522 713.046 64.1389 731.011 61.8509 749.184C61.2289 754.13 60.7461 759.945 64.1172 763.341C70.0937 758.291 77.6058 757.998 84.8568 757.989C89.946 757.984 94.9265 756.194 100.029 756.813C104.905 757.403 109.163 756.08 114.113 756.43C115.305 756.515 116.828 756.501 117.297 755.306C115.584 749.732 115.614 743.732 115.227 737.87C114.222 722.706 109.598 708.152 107.732 693.092C107.097 687.972 106.758 679.474 103.108 675.6C99.1414 671.391 90.0896 671.301 84.9917 672.128C83.9608 672.289 82.9342 672.511 81.9468 672.874Z" fill="#3F60B2"/>
<path d="M94.9833 689.777C94.3222 689.29 93.661 688.803 92.9998 688.317C94.3352 686.867 95.6706 685.416 97.006 683.962C97.5627 683.357 98.1325 682.729 98.4414 681.944C98.7763 681.089 98.7763 680.13 98.7589 679.2C98.7372 677.92 98.6937 676.606 98.2282 675.435C97.3757 673.286 94.383 672.081 92.343 672.185C90.1116 672.298 87.928 673.309 85.9358 674.33C85.2964 674.656 84.6483 675.01 84.1437 675.548C83.0432 676.725 82.8257 678.628 83.2433 680.244C83.6609 681.859 84.6135 683.243 85.6096 684.528C86.6057 685.813 87.6757 687.051 88.4021 688.534C86.61 689.649 84.8179 690.764 83.0258 691.879C82.7822 692.03 82.5169 692.214 82.4603 692.512C82.4038 692.79 82.556 693.064 82.6952 693.305C84.57 696.508 86.7405 700.835 86.7623 704.69C86.784 709.39 87.1755 714.123 87.3495 718.833C87.7149 728.635 87.8236 738.447 87.6844 748.253C87.654 750.511 87.6061 752.765 87.5452 755.018C89.8636 755.179 92.1951 755.15 94.5092 754.933C95.0094 754.886 95.5488 754.815 95.9142 754.442C96.3578 753.993 96.4057 753.261 96.4231 752.599C96.4622 750.96 96.4709 749.316 96.4579 747.672C96.3796 737.993 95.5096 728.352 95.0703 718.691C94.6962 710.477 93.6653 700.774 98.6284 693.844C98.7807 693.636 98.9416 693.409 98.946 693.14C98.9547 692.738 98.611 692.441 98.3065 692.214C97.1973 691.402 96.0882 690.589 94.9833 689.777Z" fill="white"/>
<path d="M87.4714 673.091C87.554 673.271 87.6671 673.436 87.8194 673.597C88.4109 674.23 89.2331 674.593 90.0465 674.716C91.1208 674.882 92.2126 674.688 93.2783 674.471C94.7181 674.173 94.6659 673.257 94.8747 671.839C94.9878 671.065 95.0617 670.281 95.1139 669.501C95.1444 669.071 94.9921 667.536 95.2444 667.234C95.4141 667.031 96.11 667.097 96.4145 666.927C96.8973 666.653 97.3019 666.147 97.5933 665.656C98.0631 664.867 98.3197 663.951 98.572 663.053C99.0113 661.489 99.4506 659.926 99.89 658.358C100.338 656.761 100.79 655.145 100.934 653.482C101.151 650.974 100.777 647.436 99.0331 645.598C97.4411 643.926 95.1226 643.34 92.9956 643.043C90.177 642.651 87.2583 643.213 84.8267 644.838C83.8437 645.494 82.9128 646.345 82.3343 647.512C81.4383 649.316 81.5079 651.565 81.6036 653.667C81.6906 655.608 81.7819 657.55 81.8689 659.491C81.9689 661.726 82.2256 664.3 83.7697 665.509C84.5875 666.152 85.6575 666.289 86.3579 667.116C87.2365 668.15 87.18 669.7 87.2148 671.008C87.2322 671.769 87.18 672.477 87.4714 673.091Z" fill="#EAC5B0"/>
<path d="M96.3884 647.989C96.4841 648.173 96.5668 648.362 96.6277 648.556C96.9539 649.586 96.732 650.748 97.0539 651.782C97.5628 653.421 99.3201 654.404 99.5855 656.105C99.803 657.498 98.9243 658.821 98.8504 660.233C98.7677 661.773 99.6768 663.233 99.5376 664.754C99.4158 666.077 98.6416 667.933 97.9152 668.991C98.1414 668.665 100.177 668.779 100.703 668.429C101.512 667.891 101.604 667.555 101.847 666.639C102.087 665.727 101.9 664.834 102.274 663.899C102.73 662.756 103.67 661.915 104 660.696C104.449 659.033 103.635 657.276 103.696 655.547C103.792 652.925 105.88 650.455 105.123 647.965C104.679 646.506 103.37 645.57 102.635 644.252C102.078 643.251 101.869 642.075 101.482 640.984C101.095 639.892 100.429 638.801 99.3984 638.47C98.8243 638.286 98.2066 638.362 97.6194 638.244C96.6016 638.041 95.7577 637.275 94.779 636.916C93.3784 636.401 90.9077 637.941 90.09 639.231C89.2765 640.511 89.6898 641.598 90.5162 642.731C91.9082 644.616 95.2488 645.849 96.3884 647.989Z" fill="#212940"/>
<path d="M77.5277 640.247C76.6882 640.917 75.6529 641.399 74.8874 642.179C73.3911 643.704 73.1083 646.137 73.0561 648.362C73.0083 650.342 72.2079 652.104 72.408 654.168C72.5429 655.557 73.0822 656.955 74.1218 657.777C75.4181 658.797 77.4494 658.963 78.0236 660.583C78.6499 662.34 76.9709 664.556 77.9931 666.086C78.5542 666.927 79.6547 667.055 80.4594 667.617C81.3555 668.25 81.8166 669.379 82.3646 670.375C82.9127 671.372 83.7348 672.369 84.8048 672.397C84.8483 670.631 84.8962 669.232 84.2002 667.617C83.7957 666.677 82.6039 664.943 83.5217 663.923C84.1002 663.077 85.4617 662.803 85.4965 661.75C85.5139 661.254 85.1963 660.833 84.944 660.422C83.974 658.826 83.874 656.695 84.5352 654.919C85.192 653.143 86.5491 651.726 88.1324 650.889C89.9898 649.912 89.694 649.42 90.2334 647.484C90.7292 645.703 91.6601 645.287 93.1346 644.64C94.457 644.059 94.8832 643.695 95.3748 642.349C95.7315 641.366 96.1708 640.185 95.6532 639.085C95.2399 638.211 94.5005 637.587 93.7784 636.992C92.2777 635.75 90.59 634.441 88.7066 634.587C87.6626 634.668 86.6752 635.202 85.6313 635.268C84.931 635.31 84.2394 635.145 83.5391 635.117C82.3472 635.074 81.0902 635.466 80.1245 636.236C79.1502 637.015 79.1806 637.828 78.6369 638.929C78.3715 639.477 77.9801 639.888 77.5277 640.247Z" fill="#212940"/>
<path d="M81.7428 632.986C81.9254 631.758 81.808 630.152 80.7249 629.736C80.1333 629.509 79.4678 629.76 78.8502 629.623C77.5365 629.334 77.0885 627.606 76.4012 626.358C76.2969 626.169 76.1751 625.981 75.9924 625.895C75.7314 625.768 75.4312 625.881 75.1442 625.919C73.8392 626.094 72.8431 624.691 71.6165 624.185C70.0941 623.557 68.1758 624.592 67.7191 626.288C67.5321 626.987 67.5625 627.733 67.3885 628.437C66.6708 631.276 62.843 632.485 62.743 635.428C62.6777 637.417 64.4698 639.321 63.7739 641.163C63.3302 642.339 61.9339 643.142 62.0949 644.404C62.1993 645.216 62.9909 645.769 63.7478 645.755C64.5003 645.745 65.1963 645.292 65.7617 644.758C66.6621 643.903 67.3407 642.807 68.2019 641.9C69.0588 640.993 70.2072 640.261 71.3947 640.421C72.543 640.577 73.5869 641.55 74.7266 641.343C75.64 641.177 76.3186 640.289 77.219 640.039C78.0585 639.807 78.9328 640.162 79.7984 640.218C80.664 640.275 81.7254 639.784 81.7515 638.844C81.7558 638.617 81.6993 638.381 81.7645 638.163C81.9472 637.554 82.9041 637.592 83.0868 636.982C82.6345 636.227 81.9994 636.496 81.6732 635.509C81.4209 634.748 81.6297 633.761 81.7428 632.986Z" fill="#212940"/>
<path d="M88.9152 740.7C88.9065 740.549 88.8978 740.393 88.8543 740.251C88.4324 738.957 87.4972 738.56 86.7664 737.445C86.4402 736.949 86.9752 735.489 85.8008 735.546C85.3702 735.565 84.3132 735.778 83.391 735.834C82.0469 735.915 80.2983 735.13 79.0151 734.228C73.9781 730.69 69.9676 725.763 66.1442 720.751C65.9267 720.468 65.7005 720.165 65.6309 719.801C65.5004 719.154 65.8832 718.526 66.2355 717.983C67.8711 715.465 69.2934 712.782 70.4722 709.981C71.5249 707.482 72.3992 704.813 72.3557 702.063C72.3122 699.314 71.2073 696.456 69.0455 695.025C67.4274 693.953 64.9306 693.173 63.5865 694.628C61.1942 697.217 59.3977 704.142 58.7018 708.455C58.0449 712.531 57.6535 716.66 57.5273 720.798C57.5099 721.308 57.5012 721.837 57.6752 722.315C57.8579 722.82 58.2233 723.222 58.5843 723.604C63.1994 728.517 68.1842 732.957 73.2778 737.313C74.6784 738.508 76.4792 738.754 77.7668 739.873C78.5889 740.586 78.7585 741.786 79.3936 742.646C80.0243 743.496 81.0508 744.441 81.9251 744.975C83.6476 746.038 85.5137 745.126 87.2188 744.507C87.6407 744.351 87.9278 744.252 88.2192 743.922C88.689 743.388 88.763 742.67 88.8543 741.966C88.9065 741.541 88.9326 741.116 88.9152 740.7Z" fill="#EAC5B0"/>
<path d="M57.4186 707.893C57.4142 707.911 57.4099 707.93 57.4099 707.949C56.6139 712.522 56.2441 717.236 56.4225 721.889C56.5051 724.048 57.6839 724.591 59.1585 725.942C60.8462 727.492 62.5339 729.041 64.2216 730.586C66.0311 728.215 68.0537 726.032 70.2547 724.081C69.3761 722.862 67.2621 720.628 67.5492 719.173C67.8841 717.458 69.5588 715.347 70.2765 713.722C71.9598 709.9 73.3126 705.918 74.648 701.94C76.5401 696.281 78.3931 690.608 80.207 684.916C80.6507 683.522 81.0987 682.096 81.1117 680.617C81.1248 679.138 80.6333 677.579 79.5241 676.72C78.3627 675.817 76.7446 675.874 75.4353 676.493C74.126 677.112 73.069 678.217 72.0903 679.346C70.3461 681.363 68.7541 683.536 67.336 685.837C66.0137 687.986 64.8436 690.244 63.6779 692.502C62.6818 694.43 61.6813 696.362 60.6852 698.289C60.1111 699.404 59.5326 700.519 59.0628 701.685C58.2624 703.665 57.7883 705.776 57.4186 707.893Z" fill="#3F60B2"/>
<path opacity="0.08" d="M286 855.457C286 858.456 266.297 861 242.019 861C217.741 861 198.038 858.546 198.038 855.457C198.038 852.458 217.741 849.914 242.019 849.914C266.297 850.004 286 852.458 286 855.457Z" fill="#9DAFBD"/>
<path d="M171.703 704.445C171.841 704.306 171.933 704.213 172.071 704.12C173.403 703.375 174.598 703.794 176.068 703.422C176.757 703.282 177.308 701.561 178.365 702.584C178.732 702.957 179.559 703.98 180.386 704.818C181.581 705.981 183.74 706.725 185.624 707.004C192.883 708.074 200.234 707.097 207.493 705.934C207.907 705.888 208.32 705.795 208.688 705.516C209.285 705.05 209.423 704.213 209.469 703.468C209.836 699.979 210.525 696.49 211.49 693.14C212.363 690.116 213.558 687.138 215.625 684.812C217.693 682.485 220.863 680.95 223.895 681.462C226.192 681.881 228.214 683.462 229.224 685.556C231.659 690.813 226.008 697.141 223.482 701.421C221.047 705.469 218.382 709.331 215.395 713.006C215.028 713.471 214.66 713.937 214.155 714.169C213.604 714.448 212.96 714.495 212.363 714.542C204.461 715.007 196.559 714.728 188.656 714.309C186.497 714.216 184.659 712.913 182.638 712.867C181.351 712.82 180.295 713.704 179.1 713.937C177.905 714.169 176.252 714.123 175.057 713.89C172.668 713.378 171.657 711.099 170.509 709.191C170.233 708.726 170.049 708.4 170.003 707.888C169.957 707.051 170.417 706.353 170.876 705.702C171.06 705.19 171.381 704.771 171.703 704.445Z" fill="#EAC5B0"/>
<path d="M227.249 701.887C225.457 704.585 223.665 707.33 222.149 710.261C221.138 712.215 220.128 714.309 218.336 715.519C217.187 716.31 215.855 716.682 214.477 717.008C206.161 719.055 197.478 719.52 189.024 718.403C188.243 718.31 187.416 718.171 186.773 717.659C185.67 716.775 185.578 715.193 185.578 713.797C185.578 712.169 185.578 710.494 185.578 708.866C185.578 708.4 185.578 707.842 185.9 707.47C186.175 707.098 186.635 706.958 187.094 706.865C192.332 705.423 197.661 704.306 203.037 703.562C204.737 703.329 206.574 703.05 207.907 701.933C210.709 699.467 210.755 690.302 211.398 686.533C212.134 682.206 212.731 677.833 213.558 673.553C214.477 668.761 215.487 663.829 218.29 659.874C224.309 651.453 237.448 654.617 238.184 665.364C238.689 673.46 237.219 681.741 234.324 689.278C232.487 693.838 229.914 697.839 227.249 701.887Z" fill="#314F8F"/>
<path d="M229.796 795.943L229.474 816.742C229.612 822.504 229.106 828.266 228.738 834.028C228.416 839.368 229.474 844.849 226.99 849.815C226.208 851.36 224.552 852.438 223.264 850.658C222.298 849.299 222.758 846.863 222.482 845.271C220.688 833.231 217.33 821.473 215.628 809.387C213.88 796.739 218.71 797.067 229.796 795.943Z" fill="#EAC5B0"/>
<path d="M228.598 846.254L229.932 849.721L223.493 855.483L217.559 855.764L215.627 852.578L223.585 845.505L228.598 846.254Z" fill="#212940"/>
<path d="M244.239 796.177L247.965 816.602C249.253 825.737 252.197 834.637 253.485 843.819C253.761 845.927 253.623 848.222 254.497 850.19C255.325 852.11 256.981 852.204 258.453 850.892C260.385 849.112 259.511 845.974 259.465 843.584C259.235 827.517 260.476 811.73 260.752 795.615C260.752 795.428 260.752 795.147 260.568 795.006C260.43 794.913 260.247 794.913 260.063 794.913C258.591 795.053 244.331 796.599 244.239 796.177Z" fill="#EAC5B0"/>
<path d="M259.511 847.098L261.534 850.189L256.521 857.31L250.817 858.903L248.287 856.232L254.451 847.566L259.511 847.098Z" fill="#212940"/>
<path d="M218.986 845.645L214.387 804.89L212.869 760.153L217.376 744.367L241.755 740.525L271.93 745.772L273.356 751.768L260.844 814.259V847.051L252.565 847.519L244.285 815.196L238.305 762.261L230.946 805.359L230.026 845.177L218.986 845.645Z" fill="#314F8F"/>
<path d="M211.765 696.304C211.765 696.163 211.811 696.023 211.811 695.882C214.295 682.157 209.143 671.663 218.94 659.437C224.23 652.832 226.898 653.628 233.936 651.895C235.546 651.473 238.903 650.302 238.719 652.832C240.927 652.785 243.181 652.972 245.343 653.488L245.435 652.551C249.345 653.488 254.497 653.769 258.085 655.408C261.948 657.188 265.444 662.95 267.422 666.557C274.23 678.971 271.47 694.102 271.47 707.781C271.47 711.575 274 752.284 272.068 752.377C260.108 752.986 248.425 748.77 236.604 749.894C229.612 750.55 222.666 752.33 215.813 753.314C215.353 753.361 214.801 753.408 214.479 753.08C214.065 752.752 214.019 752.143 213.973 751.628C213.237 741.697 213.237 731.438 212.685 721.413C212.179 713.215 211.029 704.549 211.765 696.304Z" fill="#3F60B2"/>
<path opacity="0.2" d="M212.487 717.788V713.806C213.469 711.317 224.513 709.575 228.195 708.828C231.876 708.081 233.84 703.104 239.731 697.38C245.621 691.655 251.021 677.718 253.966 676.225C256.911 674.731 259.12 675.229 259.857 677.718C260.593 680.207 259.611 687.175 258.384 689.167C257.157 691.158 249.303 703.602 246.848 707.086C244.394 710.57 236.54 718.534 234.331 720.028C232.122 721.521 225.25 720.774 222.059 720.028L212.487 717.788Z" fill="#212940"/>
<path d="M247.459 670.023C248.333 675.176 247.965 680.423 247.643 685.623C247.505 687.824 247.321 690.026 246.585 692.087C245.665 694.664 243.871 696.772 242.261 698.974C238.673 703.892 234.764 733.545 232.786 739.354C231.13 733.03 230.532 702.534 228.876 696.21C227.772 691.9 226.668 687.59 226.576 683.14C226.438 674.474 230.21 666.276 233.89 658.453C234.442 657.282 234.994 656.11 235.868 655.173C238.259 652.503 243.641 652.129 245.527 655.501C246.401 657.094 245.987 659.155 246.079 660.842C246.263 663.933 246.953 666.932 247.459 670.023Z" fill="white"/>
<path d="M235.822 671.757C235.086 676.395 235.086 681.126 234.442 685.81C234.074 688.387 233.522 690.87 233.062 693.399C231.774 700.613 231.36 707.921 230.946 715.229C230.854 716.681 230.762 718.133 230.67 719.539C230.624 720.429 230.256 721.975 230.67 722.818C231.13 723.708 232.234 723.802 233.062 724.13C234.258 724.645 235.362 725.301 236.373 726.191C238.213 725.629 239.409 723.802 239.823 721.928C240.237 720.054 240.007 718.087 239.823 716.166C238.029 699.302 238.351 682.156 240.789 665.386C241.525 665.714 242.399 665.152 242.767 664.449C243.089 663.7 243.043 662.856 242.997 662.013C242.997 662.154 239.179 662.013 238.857 661.966C236.557 661.873 235.914 662.388 235.914 664.964C237.017 665.527 236.833 667.166 236.511 668.384C236.235 669.508 236.005 670.633 235.822 671.757Z" fill="#212940"/>
<path d="M188.306 689.933C188.444 689.839 188.628 689.792 188.766 689.745C190.284 689.511 191.25 690.308 192.767 690.448C193.457 690.542 194.561 689.136 195.205 690.448C195.435 690.916 195.849 692.181 196.355 693.259C197.091 694.758 198.885 696.257 200.541 697.147C207.027 700.707 214.248 702.347 221.47 703.705C221.884 703.799 222.298 703.846 222.712 703.752C223.448 703.518 223.816 702.768 224.138 702.066C225.656 698.88 227.45 695.835 229.52 692.978C231.36 690.448 233.476 688.012 236.235 686.513C238.995 685.014 242.445 684.639 245.159 686.232C247.183 687.403 248.563 689.605 248.793 691.994C249.299 697.85 241.893 701.878 238.029 705.017C234.395 708.015 230.532 710.732 226.53 713.168C226.024 713.449 225.518 713.777 224.966 713.871C224.368 713.964 223.724 713.777 223.172 713.589C215.582 711.294 208.269 708.296 200.909 705.157C198.885 704.314 197.597 702.44 195.711 701.691C194.515 701.176 193.227 701.691 191.985 701.457C190.79 701.222 189.226 700.66 188.168 700.004C186.098 698.693 185.914 696.163 185.5 693.961C185.408 693.399 185.316 693.025 185.5 692.556C185.73 691.76 186.42 691.291 187.064 690.776C187.478 690.401 187.846 690.12 188.306 689.933Z" fill="#EAC5B0"/>
<path d="M241.479 706.797C238.903 708.764 236.281 710.685 233.843 712.934C232.233 714.433 230.578 716.025 228.462 716.587C227.128 716.962 225.702 716.822 224.322 716.681C215.812 715.744 207.487 713.168 199.897 709.139C199.207 708.764 198.471 708.343 198.011 707.64C197.275 706.422 197.735 704.876 198.195 703.565C198.747 702.019 199.299 700.473 199.851 698.88C200.035 698.412 200.219 697.943 200.633 697.662C201.001 697.428 201.507 697.428 201.967 697.475C207.395 697.943 212.776 698.74 218.066 699.911C219.768 700.285 221.562 700.66 223.172 700.051C226.622 698.693 229.796 690.026 231.681 686.7C233.843 682.859 235.867 678.924 238.075 675.176C240.559 670.96 243.181 666.651 247.137 663.887C255.646 657.984 266.962 665.573 263.972 676.02C261.718 683.89 257.532 691.151 252.242 697.287C249.115 701.035 245.297 703.939 241.479 706.797Z" fill="#3F60B2"/>
<path d="M233.476 626.505C232.28 628.66 231.682 631.189 231.59 633.672C231.544 634.328 231.498 635.124 230.992 635.499C230.44 635.921 230.946 636.858 230.486 636.295C230.072 635.733 228.6 633.766 228.554 633.063C228.416 631.424 228.416 629.737 228.554 628.098C228.692 626.645 228.968 625.146 229.888 624.069C230.44 623.413 231.176 622.945 231.912 622.523C232.97 621.867 234.028 621.211 235.224 621.024C237.294 620.649 238.582 621.399 236.742 622.851C235.408 623.835 234.304 625.006 233.476 626.505Z" fill="#212940"/>
<path d="M246.493 654.799C246.493 655.689 246.493 656.486 246.355 657.188C244.239 658.828 242.261 660.655 240.421 662.575C239.226 660.983 238.03 659.296 237.662 657.329C237.524 656.486 237.524 648.1 237.064 648.007C234.58 647.585 231.682 646.742 230.808 644.119C230.532 643.275 230.532 642.385 230.532 641.495C230.486 637.841 230.486 634.141 230.44 630.487C230.44 629.222 230.44 627.91 230.854 626.739C231.59 624.678 233.522 623.46 235.362 622.664C240.099 620.696 245.665 620.743 250.081 623.6C251.231 624.35 252.335 625.334 253.025 626.599C254.083 628.613 253.945 631.096 253.761 633.438C253.623 635.593 253.485 637.748 253.301 639.856C253.117 642.338 252.749 645.149 250.863 646.461C249.851 647.163 248.563 647.257 247.689 648.194C246.309 649.646 246.493 652.41 246.493 654.799Z" fill="#EAC5B0"/>
<path d="M229.888 643.603C230.348 645.898 231.406 648.053 233.246 649.365C235.316 650.817 237.891 650.911 240.375 651.004C241.709 651.051 243.043 651.051 244.423 651.098C247.827 651.192 251.185 650.723 252.933 647.069C253.761 645.383 253.991 643.415 253.899 641.542C253.853 641.026 253.807 640.464 253.577 640.043C253.347 639.574 252.887 639.246 252.427 639.34C251.829 639.434 251.461 640.089 251.093 640.605C250.265 641.729 248.747 642.338 247.551 641.729C247.183 641.542 246.861 641.261 246.585 641.026C246.447 640.933 246.355 640.792 246.217 640.698C244.929 639.668 243.365 639.153 241.801 638.965C240.467 638.778 238.443 638.262 237.431 639.434C236.833 640.136 236.282 640.792 235.684 641.495C235.454 641.776 235.178 642.057 234.902 642.244C234.58 642.432 234.212 642.479 233.844 642.479C232.924 642.479 231.912 642.057 231.59 641.12C231.452 640.698 231.452 640.277 231.452 639.808C231.452 639.387 231.36 638.918 231.13 638.59C230.118 637.326 229.842 639.34 229.796 639.996C229.566 641.214 229.658 642.432 229.888 643.603ZM239.133 644.259C240.191 645.008 241.341 645.008 242.537 644.633C243.135 644.446 243.411 645.477 242.813 645.664C241.387 646.086 239.961 646.039 238.673 645.196C238.075 644.821 238.581 643.884 239.133 644.259Z" fill="#212940"/>
<path d="M229.152 620.134C228.922 619.244 228.738 618.354 228.646 617.417C229.474 617.698 230.394 617.792 231.268 617.651C231.268 617.136 231.268 616.574 231.268 616.058C231.268 615.637 237.109 615.309 237.569 615.262C241.985 614.887 246.079 614.559 250.081 616.948C253.485 619.01 255.693 622.101 256.245 626.13C256.751 629.971 255.509 634.984 253.347 638.169C253.347 637.139 253.945 634.749 253.715 633.766C253.577 632.782 253.255 631.845 252.795 631.002C251.875 629.269 250.495 627.816 248.839 626.786C246.263 625.146 243.227 624.256 240.191 623.835C237.431 623.46 234.074 623.085 231.314 623.835C229.98 624.209 229.796 624.537 228.968 623.179C228.83 622.945 227.726 620.181 227.818 620.181C228.186 620.181 228.692 620.134 229.152 620.134Z" fill="#212940"/>
<path opacity="0.08" d="M42 838.357C42 840.367 29.5407 842 14 842C-1.54067 842 -14 840.367 -14 838.357C-14 836.347 -1.54067 834.714 14 834.714C29.5407 834.714 42 836.347 42 838.357Z" fill="#9DAFBD"/>
<path d="M-7.70325 724.794C-7.70325 724.794 -16.4114 760.722 -2.61234 785.219C11.1867 809.715 11.0527 809.59 11.0527 809.59C11.0527 809.59 14.67 748.537 -7.70325 724.794Z" fill="#5BB59B"/>
<path d="M-7.1674 818.76C-6.36358 823.157 -5.2918 827.679 -2.88032 831.574C-0.602809 835.468 3.14839 838.86 7.83738 839.865C9.98092 840.367 12.1245 840.367 14.268 840.242C16.6795 840.242 19.091 839.991 21.2345 838.86C23.9139 837.352 25.2537 834.589 26.3254 831.825C28.201 827.177 29.5407 822.403 30.4785 817.63C31.0144 814.866 31.4163 811.851 29.9426 809.338C28.067 805.947 23.646 804.565 19.6269 803.937C12.9283 802.932 3.68427 802.429 -2.74635 804.942C-8.37314 807.203 -8.1052 813.861 -7.1674 818.76Z" fill="#D8E4F2"/>
<path d="M8.10538 809.715C13.4642 809.966 19.225 809.212 22.5743 807.579C23.2441 807.203 23.78 806.826 23.5121 806.449C23.1102 805.946 21.7704 805.695 20.4307 805.695C14.0001 805.067 6.89964 804.816 0.602985 805.821C-8.50706 807.203 3.14844 809.464 8.10538 809.715Z" fill="#524F63"/>
<path d="M5.29166 716C5.29166 716 1.00458 784.465 11.0524 809.589C11.0524 809.589 17.617 748.536 5.29166 716Z" fill="#63A590"/>
<path d="M9.84696 809.087H12.2584C15.7417 795.519 26.0575 751.551 20.5647 731.075C20.5647 731.075 3.14839 788.736 7.56945 801.675C8.50725 805.067 9.31107 807.454 9.84696 809.087Z" fill="#5BB59B"/>
<path opacity="0.08" d="M342 838.357C342 840.367 329.541 842 314 842C298.459 842 286 840.367 286 838.357C286 836.347 298.459 834.714 314 834.714C329.541 834.714 342 836.347 342 838.357Z" fill="#9DAFBD"/>
<path d="M292.297 724.794C292.297 724.794 283.589 760.722 297.388 785.219C311.187 809.715 311.053 809.59 311.053 809.59C311.053 809.59 314.67 748.537 292.297 724.794Z" fill="#5BB59B"/>
<path d="M292.833 818.76C293.636 823.157 294.708 827.679 297.12 831.574C299.397 835.468 303.148 838.86 307.837 839.865C309.981 840.367 312.124 840.367 314.268 840.242C316.679 840.242 319.091 839.991 321.235 838.86C323.914 837.352 325.254 834.589 326.325 831.825C328.201 827.177 329.541 822.403 330.479 817.63C331.014 814.866 331.416 811.851 329.943 809.338C328.067 805.947 323.646 804.565 319.627 803.937C312.928 802.932 303.684 802.429 297.254 804.942C291.627 807.203 291.895 813.861 292.833 818.76Z" fill="#D8E4F2"/>
<path d="M308.105 809.715C313.464 809.966 319.225 809.212 322.574 807.579C323.244 807.203 323.78 806.826 323.512 806.449C323.11 805.946 321.77 805.695 320.431 805.695C314 805.067 306.9 804.816 300.603 805.821C291.493 807.203 303.148 809.464 308.105 809.715Z" fill="#524F63"/>
<path d="M305.292 716C305.292 716 301.005 784.465 311.052 809.589C311.052 809.589 317.617 748.536 305.292 716Z" fill="#63A590"/>
<path d="M309.847 809.087H312.258C315.742 795.519 326.057 751.551 320.565 731.075C320.565 731.075 303.148 788.736 307.569 801.675C308.507 805.067 309.311 807.454 309.847 809.087Z" fill="#5BB59B"/>
</svg>
