<svg width="878" height="785" viewBox="0 0 878 785" fill="none" xmlns="http://www.w3.org/2000/svg">
<g clip-path="url(#clip0)">
<path d="M79.0062 423.263C77.6948 428.211 80.5046 433.298 85.365 434.857L212.684 475.86C215.197 476.673 217.941 476.405 220.252 475.128L220.426 475.028C222.651 473.743 224.246 471.645 224.944 469.175C243.675 398.258 280.364 335.264 331.086 285.057C355.608 260.772 383.387 239.446 414.079 221.726C443.099 204.971 473.694 192.041 505.188 182.992C573.191 163.476 645.482 162.107 715.741 179.82C720.855 181.117 726.026 178.074 727.38 173.02L760.237 50.3691C760.913 47.9002 760.535 45.2662 759.232 43.0282C757.962 40.8285 755.848 39.208 753.346 38.5742C612.844 2.61788 466.424 22.71 340.989 95.13C207.759 172.05 114.712 288.587 79.0062 423.263Z" fill="#D8E4F2" fill-opacity="0.3"/>
<path d="M441.813 274.603C420.898 286.678 401.446 301.685 383.659 318.997C339.078 362.38 305.347 420.676 287.812 486.826C286.475 491.87 289.458 497.076 294.473 498.522L399.095 528.174C401.579 528.876 404.221 528.551 406.47 527.287C408.428 526.099 410.342 523.874 411.017 521.383C426.85 461.366 448.101 417.573 504.903 384.778C559.593 353.203 611.541 357.02 672.786 372.479C675.254 373.075 677.804 372.711 679.952 371.471L680.236 371.284C682.457 369.91 684.037 367.646 684.561 365.115L707.25 256.014C708.282 250.961 705.213 246.024 700.231 244.755C636.136 228.32 568.53 229.444 508.795 246.6C484.976 253.424 462.372 262.733 441.813 274.603Z" fill="#D8E4F2" fill-opacity="0.3"/>
<path d="M497.93 555.68C523.26 599.553 579.563 614.632 623.427 589.307C667.291 563.982 682.361 507.684 657.036 463.82C631.711 419.956 575.435 404.862 531.562 430.192C487.693 455.508 472.605 511.816 497.93 555.68Z" fill="#D8E4F2" fill-opacity="0.3"/>
<path d="M576.423 496.348L562.897 509.874L576.331 523.309L589.857 509.783L576.423 496.348Z" fill="white"/>
<path d="M627.245 509.87L576.619 560.496L526.335 510.213L576.961 459.586L627.245 509.87ZM576.636 555.374L622.108 509.903L576.944 464.739L531.472 510.211L576.636 555.374Z" fill="white"/>
<path d="M575.943 506.64L573.374 509.21L604.002 539.839L606.572 537.269L575.943 506.64Z" fill="white"/>
<path d="M535.533 493.281L532.963 495.851L568.376 531.264L570.945 528.694L535.533 493.281Z" fill="white"/>
<path d="M562.6 466.214L560.03 468.784L595.443 504.197L598.013 501.627L562.6 466.214Z" fill="white"/>
<path d="M531.36 484.892L524.589 491.663L531.314 498.387L538.084 491.617L531.36 484.892Z" fill="white"/>
<path d="M544.885 471.366L538.115 478.137L544.84 484.862L551.61 478.091L544.885 471.366Z" fill="white"/>
<path d="M558.411 457.84L551.641 464.611L558.366 471.336L565.136 464.565L558.411 457.84Z" fill="white"/>
<path d="M595.154 548.686L588.383 555.457L595.108 562.182L601.879 555.411L595.154 548.686Z" fill="white"/>
<path d="M608.68 535.161L601.91 541.931L608.635 548.656L615.405 541.885L608.68 535.161Z" fill="white"/>
<path d="M622.206 521.635L615.436 528.405L622.16 535.13L628.931 528.359L622.206 521.635Z" fill="white"/>
<path d="M595.463 457.714L588.692 464.485L595.417 471.21L602.188 464.439L595.463 457.714Z" fill="white"/>
<path d="M608.897 471.149L602.126 477.919L608.851 484.644L615.622 477.873L608.897 471.149Z" fill="white"/>
<path d="M622.332 484.583L615.561 491.354L622.286 498.079L629.057 491.308L622.332 484.583Z" fill="white"/>
<path d="M531.234 521.944L524.463 528.714L531.188 535.439L537.959 528.669L531.234 521.944Z" fill="white"/>
<path d="M544.668 535.378L537.897 542.148L544.622 548.873L551.393 542.103L544.668 535.378Z" fill="white"/>
<path d="M558.103 548.812L551.332 555.583L558.057 562.308L564.828 555.537L558.103 548.812Z" fill="white"/>
</g>
<path opacity="0.14" d="M497.109 670.801L565.5 675.996C565.558 676 565.617 676 565.675 676L639.125 669.693C651.217 667.598 657.76 666.677 664.748 665.581L677.5 664.432C685.129 663.387 682.217 659 675.031 659L497.194 661.853C496.934 661.858 496.674 661.932 496.427 662.082C484.808 662.564 480.15 667.226 497.109 670.801Z" fill="#DDDDDD"/>
<defs>
<clipPath id="clip0">
<rect width="782" height="569.05" fill="white" transform="translate(0 292) rotate(-30)"/>
</clipPath>
</defs>
</svg>
