<svg width="218" height="320" viewBox="0 0 218 320" fill="none" xmlns="http://www.w3.org/2000/svg">
<path opacity="0.08" d="M80 297.507C80 300.538 62.201 303 40 303C17.799 303 0 300.538 0 297.507C0 294.476 17.799 292.013 40 292.013C62.201 292.013 80 294.476 80 297.507Z" fill="#9DAFBD"/>
<path d="M8.99564 126.26C8.99564 126.26 -3.44455 180.438 16.2684 217.377C35.9813 254.316 35.7899 254.127 35.7899 254.127C35.7899 254.127 40.9574 162.063 8.99564 126.26Z" fill="#5BB59B"/>
<path d="M9.76106 267.955C10.9094 274.586 12.4405 281.405 15.8855 287.277C19.1391 293.15 24.4979 298.264 31.1965 299.78C34.2587 300.538 37.3209 300.538 40.3831 300.348C43.8281 300.348 47.273 299.969 50.3352 298.264C54.163 295.991 56.0769 291.824 57.608 287.656C60.2874 280.647 62.2013 273.449 63.541 266.251C64.3065 262.083 64.8807 257.537 62.7754 253.748C60.096 248.633 53.7802 246.55 48.0386 245.602C38.4692 244.087 25.2635 243.329 16.0769 247.118C8.03858 250.528 8.42135 260.568 9.76106 267.955Z" fill="#D8E4F2"/>
<path d="M31.5788 254.316C39.2343 254.695 47.464 253.558 52.2487 251.095C53.2056 250.527 53.9712 249.959 53.5884 249.391C53.0142 248.633 51.1004 248.254 49.1865 248.254C39.9999 247.307 29.8563 246.928 20.8611 248.443C7.84677 250.527 24.4975 253.937 31.5788 254.316Z" fill="#524F63"/>
<path d="M27.5601 113C27.5601 113 21.4357 216.24 35.7897 254.127C35.7897 254.127 45.1677 162.063 27.5601 113Z" fill="#63A590"/>
<path d="M34.0672 253.369H37.5121C42.4882 232.91 57.225 166.609 49.3782 135.732C49.3782 135.732 24.4978 222.681 30.8136 242.193C32.1533 247.307 33.3016 250.906 34.0672 253.369Z" fill="#5BB59B"/>
<path d="M180.15 84.1281C180.15 85.5898 180.485 87.3439 181.489 88.5134C182.493 89.6828 184.836 90.2675 185.84 89.0981C186.509 88.5134 186.509 87.3439 186.509 86.4669C186.509 79.7428 186.509 73.311 185.505 66.5869C185.17 63.9557 184.836 61.3245 186.844 59.2781C187.848 58.1087 189.521 57.524 190.86 56.6469C192.199 55.7698 193.203 54.0157 192.199 52.8463C191.864 52.2616 191.195 51.9693 191.195 51.0922C190.86 50.2151 191.864 49.3381 192.533 48.7534C193.203 47.8763 193.203 46.7069 192.199 46.4146C191.195 48.1687 189.856 49.6304 188.182 51.0922C187.848 51.3845 187.178 51.6769 186.844 51.9693C185.84 51.9693 185.17 51.3845 184.501 50.7998C183.832 50.2151 182.158 50.5075 182.158 51.0922C184.501 55.4775 182.493 61.6169 181.824 66.0022C180.485 72.1416 179.816 78.281 180.15 84.1281Z" fill="#EAC5B0"/>
<path d="M190.526 77.112C189.522 76.5273 188.518 76.5273 187.514 76.5273C184.502 76.5273 181.824 76.5273 178.812 76.235C177.808 76.235 176.804 76.2349 176.135 77.112C175.8 77.9891 176.804 78.8661 177.473 79.7432C180.151 82.3744 179.481 86.4673 178.812 89.9755C178.477 90.8526 178.143 92.022 177.139 92.3143C175.465 92.8991 174.127 91.1449 173.792 89.6832C171.784 85.0055 169.776 80.3279 168.102 75.6502C167.433 73.6038 166.429 71.5573 165.09 69.8032C159.066 63.0791 147.687 68.6338 152.373 76.235C157.727 84.7132 165.76 92.3143 172.119 100.208C174.796 103.424 178.143 106.932 182.494 106.64C182.828 106.64 183.498 106.64 183.832 106.347C184.167 106.055 187.179 104.593 187.179 104.008C187.514 97.869 187.848 92.899 188.183 86.7596C188.183 85.0055 187.514 82.9591 188.518 81.2049C189.522 79.7432 189.522 78.8661 191.53 79.1585C191.864 78.5738 191.53 77.4044 190.526 77.112Z" fill="#587BC9"/>
<path d="M107.191 129.444C108.864 118.043 113.55 107.225 116.562 96.1161C118.905 87.9302 118.053 70.4844 119.726 62.2985C121.433 61.9923 128.601 60.1554 128.601 60.1554C128.601 60.1554 129.632 56.1615 129.967 55.8691C130.301 55.5768 131.339 55.563 131.673 55.563C137.698 55.8553 138.651 57.2331 144.675 58.1102C149.36 58.9873 147.114 60.252 151.13 62.2985C152.134 62.8832 150.789 64.4416 157.957 65.9724C159.664 66.5847 161.074 66.2961 161.409 67.4655C162.747 77.4055 166.764 87.3455 168.437 97.2855C169.776 103.717 169.776 110.441 170.11 117.165C170.445 124.182 170.78 131.198 171.114 138.215C170.11 143.43 168.437 145.231 161.712 146.186C156.023 145.016 154.046 145.524 148.356 145.231C135.304 144.354 121.206 143.77 109.827 138.215C108.823 137.63 108.195 134.707 107.526 133.83C106.856 132.368 107.191 130.906 107.191 129.444Z" fill="#D8E4F2"/>
<path d="M157.874 81.3447L156.798 81.418L156.915 82.7991L157.991 82.7258L157.874 81.3447Z" fill="#587BC9"/>
<path d="M159.638 84.5518L155.611 84.8262L155.173 79.6567L159.2 79.3824L159.638 84.5518ZM155.793 84.5498L159.41 84.3034L159.017 79.6604L155.4 79.9068L155.793 84.5498Z" fill="#587BC9"/>
<path d="M157.489 81.8791L157.284 81.8931L157.551 85.0419L157.755 85.0279L157.489 81.8791Z" fill="#587BC9"/>
<path d="M156.179 79.1882L155.974 79.2021L156.282 82.8427L156.487 82.8288L156.179 79.1882Z" fill="#587BC9"/>
<path d="M158.332 79.0412L158.127 79.0552L158.436 82.6958L158.64 82.6818L158.332 79.0412Z" fill="#587BC9"/>
<path d="M156.293 78.5311L155.753 78.5679L155.812 79.2594L156.351 79.2226L156.293 78.5311Z" fill="#587BC9"/>
<path d="M157.369 78.4579L156.83 78.4946L156.888 79.1861L157.427 79.1494L157.369 78.4579Z" fill="#587BC9"/>
<path d="M158.444 78.3842L157.905 78.4209L157.964 79.1124L158.503 79.0757L158.444 78.3842Z" fill="#587BC9"/>
<path d="M156.848 85.0888L156.309 85.1255L156.367 85.817L156.906 85.7803L156.848 85.0888Z" fill="#587BC9"/>
<path d="M157.923 85.016L157.384 85.0527L157.443 85.7442L157.982 85.7075L157.923 85.016Z" fill="#587BC9"/>
<path d="M158.999 84.9428L158.46 84.9795L158.519 85.671L159.058 85.6343L158.999 84.9428Z" fill="#587BC9"/>
<path d="M160.084 80.1825L159.544 80.2192L159.603 80.9107L160.142 80.874L160.084 80.1825Z" fill="#587BC9"/>
<path d="M160.2 81.5624L159.661 81.5991L159.72 82.2906L160.259 82.2539L160.2 81.5624Z" fill="#587BC9"/>
<path d="M160.317 82.9442L159.778 82.981L159.836 83.6725L160.375 83.6357L160.317 82.9442Z" fill="#587BC9"/>
<path d="M154.975 80.5307L154.436 80.5674L154.494 81.2589L155.033 81.2222L154.975 80.5307Z" fill="#587BC9"/>
<path d="M155.091 81.911L154.552 81.9478L154.611 82.6393L155.15 82.6025L155.091 81.911Z" fill="#587BC9"/>
<path d="M155.209 83.2934L154.669 83.3301L154.728 84.0216L155.267 83.9849L155.209 83.2934Z" fill="#587BC9"/>
<path d="M136.308 16.5953C139.989 16.0106 144.006 16.0106 148.022 15.7183C152.373 19.5188 155.05 24.4888 156.389 29.4588C157.393 33.5518 158.062 37.9371 156.723 42.03C155.719 46.1229 153.042 50.2159 149.026 52.2623C143.002 55.7706 134.3 55.1859 128.276 51.3853C122.252 47.5847 118.905 41.1529 118.235 34.7212C117.901 29.1665 119.239 23.9041 121.582 18.9341C125.598 17.7647 131.623 17.18 136.308 16.5953Z" fill="#EAC5B0"/>
<rect x="130.991" y="52.1953" width="15.7021" height="8.57241" fill="#EAC5B0"/>
<path d="M143.621 64.7472C142.528 64.0124 139.752 59.3384 138.5 57.0933L146.01 58.9302L146.352 63.5226C145.896 64.2369 144.713 65.482 143.621 64.7472Z" fill="#EAC5B0"/>
<path d="M166.094 249.309C167.098 264.511 168.102 271.235 169.776 286.438C167.433 286.145 166.764 286.145 164.421 285.853C161.743 277.082 159.066 276.205 157.393 267.142C156.054 260.711 154.38 254.571 152.707 248.432C148.022 231.183 143.336 213.642 138.651 196.101C136.643 188.5 134.634 180.606 131.288 173.297C127.941 165.404 123.59 154.002 135.639 150.201C142.332 148.155 151.703 149.324 156.389 154.294C161.743 160.141 161.074 169.204 161.743 176.221C162.413 187.622 163.082 199.317 163.751 210.718C164.755 223.582 165.425 236.445 166.094 249.309Z" fill="#314F8F"/>
<path d="M137.647 158.971C136.977 157.509 135.973 155.755 134.3 154.878C132.292 153.708 129.614 153.708 126.937 154.001C123.255 154.293 119.239 154.586 115.558 155.17C112.546 155.755 109.199 156.34 107.191 158.386C105.518 160.433 105.518 163.064 105.518 165.695C106.187 184.405 106.856 203.116 108.195 221.827C109.199 239.075 113.55 250.77 115.223 268.018C115.893 274.742 116.227 273.573 117.901 285.852C117.901 286.729 117.901 286.144 118.235 286.729C118.57 286.729 118.905 286.437 119.239 286.437C120.578 286.437 120.243 287.314 121.582 287.314C121.917 287.314 123.255 287.017 123.255 287.017C123.14 285.487 123.255 284.39 123.255 282.928C125.933 249.308 128.945 226.212 136.308 193.176C139.32 182.067 142.332 169.788 137.647 158.971Z" fill="#314F8F"/>
<path d="M163.083 148.155C163.083 146.986 163.083 146.109 162.748 145.232C162.079 144.062 160.405 143.185 159.067 142.6C146.014 137.046 130.954 134.415 116.228 135.292C114.889 135.292 113.216 135.584 112.212 136.169C110.539 137.046 110.204 138.8 109.869 140.262C108.865 145.232 107.861 150.202 106.522 154.879C105.853 158.095 105.184 161.603 107.192 164.527C108.196 165.989 110.204 167.45 111.877 168.327C123.591 175.052 138.986 177.39 152.708 174.759C158.063 173.59 161.075 172.128 161.744 167.45C162.079 161.311 162.413 154.587 163.083 148.155Z" fill="#314F8F"/>
<path d="M109.199 160.726C110.203 160.726 111.541 160.434 112.545 160.141C114.553 159.557 116.227 158.68 117.566 157.803C119.574 156.341 120.243 154.002 120.912 151.955C122.251 148.447 123.924 144.647 123.59 140.554H122.92C123.255 144.354 121.916 148.155 120.243 151.663C119.239 153.71 118.235 156.341 116.896 157.218C115.557 158.095 114.219 158.972 112.211 159.264C109.868 159.849 108.195 159.849 106.521 159.264L106.187 159.849C107.191 160.434 108.195 160.726 109.199 160.726Z" fill="#A1BDEB"/>
<path d="M160.739 163.94L161.074 163.356C158.396 161.309 156.388 158.386 155.719 154.878C155.05 151.662 155.05 148.153 155.384 144.938H154.715C154.38 148.153 154.38 151.662 155.05 155.17C156.054 158.678 158.062 161.894 160.739 163.94Z" fill="#A1BDEB"/>
<path d="M113.885 18.0572C114.889 16.3031 116.228 14.549 117.566 13.0872C121.917 9.2866 127.941 7.24013 134.3 6.94778C140.324 6.65543 146.683 8.40955 152.038 11.0407C154.381 12.2101 156.389 13.6719 158.062 15.7184C160.74 19.2266 161.409 23.6119 161.074 27.9972C160.74 32.0901 160.405 39.1066 157.058 42.6148C157.058 38.2295 158.062 35.306 157.058 32.3825C156.054 28.8742 155.05 25.366 152.707 22.4425C151.703 21.2731 147.687 20.6884 146.014 20.9807C146.349 23.0272 146.014 25.0737 145.01 26.8278C142.667 23.0272 136.978 21.5654 131.957 22.1501C129.615 22.4425 126.937 23.0272 124.929 24.489C121.582 26.8278 120.244 30.9207 120.578 34.429C120.578 38.2295 121.582 41.7378 121.582 45.5384C118.236 44.3689 116.897 41.1531 115.893 38.2295C115.224 36.1831 114.554 34.1366 113.885 32.0901C112.546 27.1201 111.542 22.1501 113.885 18.0572Z" fill="#524F63"/>
<path d="M103.175 10.4564C103.51 8.40993 104.179 6.07111 105.518 4.317C107.526 1.97818 110.872 0.808766 114.219 0.224061C117.566 -0.360644 121.247 0.224061 124.26 1.68582C132.292 6.36347 126.937 18.6423 119.239 21.5658C113.885 23.6123 107.191 21.8582 104.514 17.4729C102.84 15.7188 102.84 13.0876 103.175 10.4564Z" fill="#524F63"/>
<path d="M142.667 59.8639C142.667 59.2792 142.667 58.9869 142.332 58.6945C141.997 58.4022 141.662 58.4022 141.662 58.4022C137.981 57.2328 133.965 56.3557 129.949 55.771C129.614 56.6481 128.945 57.2328 128.61 58.1098C128.61 58.4022 128.275 58.6945 128.275 58.9869C128.275 59.2792 128.61 59.5716 128.61 59.8639C129.614 61.0333 130.953 61.9104 132.626 63.0798C135.638 65.1263 139.32 68.3422 143.001 69.2192C143.671 68.0498 143.962 66.2233 143.962 65.0539C143.962 63.0074 142.667 61.3257 142.667 59.8639Z" fill="#587BC9"/>
<path d="M144.675 59.5716C144.675 58.9869 145.01 58.4022 145.344 58.1099C146.014 57.5252 146.683 57.5252 147.687 57.8175C148.356 58.1099 149.026 58.4022 149.695 58.9869C151.034 60.1563 152.373 61.0334 154.046 62.2028L154.381 62.4952C154.381 62.7875 154.381 62.7875 154.046 63.0799C153.042 63.9569 152.038 64.834 151.034 65.711C150.364 66.2958 149.36 67.1728 148.356 67.4652C146.348 68.3422 144.34 68.3422 144.34 66.2957C144.006 63.9569 144.34 61.6181 144.675 59.5716Z" fill="#587BC9"/>
<path d="M145.253 70.835C145.633 79.1537 144.494 87.4724 143.356 95.7911C143.356 96.1377 142.976 96.4843 142.597 96.1377C142.976 91.2852 143.356 86.4326 143.735 81.58C143.735 77.4206 143.735 72.9147 143.735 68.7553C143.735 68.0621 142.976 63.5561 144.494 64.5959C145.633 65.2892 145.253 69.7951 145.253 70.835Z" fill="#333333"/>
<path d="M145.954 70.7912C147.15 76.618 147.218 82.5861 147.285 88.5542C147.324 88.7985 147.08 89.0781 146.76 88.8691C146.509 85.4142 146.258 81.9593 146.007 78.5044C145.55 75.5734 145.055 72.3981 144.599 69.467C144.523 68.9785 143.464 65.8739 144.706 66.4653C145.627 66.8478 145.84 70.0585 145.954 70.7912Z" fill="#333333"/>
<path d="M169.428 284.098C169.762 284.098 170.432 284.391 170.766 284.683C171.101 284.975 171.101 285.268 171.101 285.56C171.77 288.484 172.44 291.115 172.774 294.038C173.109 295.5 173.109 296.962 173.778 298.131C175.117 300.762 177.795 302.809 180.807 303.978C183.149 304.855 185.827 305.44 188.504 305.732C189.174 305.732 190.178 305.732 190.847 306.609C191.182 307.487 190.512 308.656 190.178 309.241C189.174 310.118 187.166 310.118 185.827 309.825C181.476 308.948 177.46 307.779 173.109 306.609C172.105 306.317 171.101 306.025 170.432 305.44C170.097 305.148 169.762 304.563 169.428 304.271C168.424 302.809 167.754 301.055 166.75 299.593C166.416 301.639 166.081 303.394 165.412 305.148C165.077 305.148 164.407 305.148 164.073 305.148C164.407 297.839 163.754 291.992 163.419 284.683C165.092 284.683 167.754 283.514 169.428 284.098Z" fill="#424051"/>
<path d="M159.735 131.49C151.368 125.643 142.667 120.088 134.3 114.241C133.965 113.949 133.296 113.656 132.961 113.656C132.292 113.656 131.623 114.241 130.953 114.826C130.284 115.703 129.28 116.58 129.28 117.749C129.28 119.796 131.288 121.257 132.961 122.134C141.663 127.104 150.364 131.782 160.07 134.998C164.756 136.46 170.11 137.629 174.461 139.968C175.465 140.553 176.469 141.137 177.473 141.43C178.477 141.722 179.816 141.43 180.82 140.553C181.489 139.676 181.489 138.214 181.155 137.337C180.485 134.998 179.147 132.367 176.804 132.367C175.465 132.367 174.127 132.952 172.788 133.244C171.114 133.829 170.78 133.244 169.106 133.244C167.768 133.244 166.764 133.829 165.425 133.829C163.082 133.536 161.409 132.367 159.735 131.49Z" fill="#EAC5B0"/>
<path d="M108.865 86.468C108.195 89.3915 107.526 92.315 107.526 95.5309C107.526 97.8697 108.195 100.209 108.53 102.547C109.199 105.763 109.869 108.687 112.211 111.318C115.893 115.411 122.252 116.288 127.272 118.919C126.602 120.089 125.933 121.258 126.268 122.427C126.602 123.597 128.276 124.474 129.28 123.597C129.615 123.304 129.949 123.012 129.949 122.427C131.288 119.796 132.961 117.165 134.969 114.826C135.973 113.657 136.977 112.487 137.312 111.318C137.647 109.856 136.977 108.102 135.639 107.81C134.3 108.979 135.639 108.394 134.3 109.564C133.965 109.856 133.631 110.149 133.296 110.149C132.627 110.441 131.957 109.856 131.288 109.564C130.284 108.687 129.28 108.102 128.276 107.225C127.607 106.64 126.602 106.056 126.268 105.179C125.933 104.594 125.933 103.717 125.933 102.84C126.602 94.3615 129.949 88.8068 131.957 80.6209C132.627 78.2821 132.961 75.9433 132.292 73.6044C131.288 69.5115 127.607 66.2956 124.26 63.3721C123.59 62.7874 122.921 62.2027 121.917 62.2027C121.248 61.9103 120.578 62.2027 119.909 62.2027C114.219 63.6645 112.211 66.588 111.877 71.2656C110.873 76.2356 109.869 81.498 108.865 86.468Z" fill="#587BC9"/>
<path d="M139.32 35.8899C136.643 35.0128 133.965 33.5511 132.292 31.7969C131.288 32.3816 130.953 33.5511 130.619 34.7205C129.949 39.9828 132.627 45.2452 136.978 48.461C134.97 48.461 132.961 48.1687 131.288 48.1687C130.953 48.1687 130.619 48.1687 130.284 48.461C129.949 48.7534 129.949 49.0457 130.284 49.3381C130.953 51.0922 131.957 52.8463 132.961 54.3081C129.28 54.0157 125.599 52.2616 122.921 49.9228C120.244 47.584 118.236 44.6605 116.228 41.7369C114.554 38.8134 112.881 35.5975 112.211 32.3816C111.542 29.1658 112.211 25.3652 114.22 22.734C116.897 19.5181 121.248 17.764 125.933 16.8869C128.611 16.3022 131.623 16.0099 134.3 16.5946C135.974 16.8869 138.986 17.764 139.99 19.2258C140.994 20.6875 138.986 22.4416 138.316 23.9034C136.643 27.704 136.978 32.3816 139.32 35.8899Z" fill="#524F63"/>
<path d="M126.254 291.992C126.589 294.038 126.924 296.377 127.928 298.423C129.601 301.639 133.617 303.101 137.299 304.27C137.633 304.27 138.303 304.563 138.303 304.855C138.637 305.147 138.637 305.44 138.637 305.732C138.637 306.609 138.637 307.779 138.972 308.656C138.972 308.948 138.972 308.948 138.972 308.948C138.972 309.24 138.637 309.24 138.303 309.24C134.286 308.948 129.936 309.24 125.92 309.533C125.25 309.533 124.581 309.533 123.911 309.24C122.907 308.948 122.907 307.779 122.907 306.902C122.907 306.025 123.242 305.147 123.242 304.27C122.907 303.393 122.238 302.516 121.234 302.809C120.899 304.563 120.899 306.609 121.569 308.363C120.899 308.656 119.895 308.656 118.891 308.656C119.226 303.686 119.561 298.716 118.557 293.746C118.222 291.992 116.155 287.899 117.159 286.145C118.557 286.145 120.899 286.145 122.573 286.145C124.581 286.145 124.916 286.729 125.585 288.483C125.585 289.653 125.92 290.822 126.254 291.992Z" fill="#424051"/>
<path opacity="0.08" d="M159 320C191.585 320 218 316.418 218 312C218 307.582 191.585 304 159 304C126.415 304 100 307.582 100 312C100 316.418 126.415 320 159 320Z" fill="#9DAFBD"/>
</svg>
