<svg width="320" height="337" viewBox="0 0 320 337" fill="none" xmlns="http://www.w3.org/2000/svg">
<path d="M82.3245 283.348C76.529 284.014 70.7336 284.68 65.5481 287.345C63.1079 288.677 60.0577 291.341 61.2778 294.005C61.5828 295.004 62.8029 295.67 63.718 296.337C66.1582 297.669 69.2084 297.669 71.9537 297.669C88.12 298.002 103.981 298.002 120.148 298.335C161.936 299.001 203.42 299.334 245.208 300C253.444 300 262.899 300 269 294.005C268.39 292.34 266.56 291.674 264.73 291.341C240.023 286.013 214.095 292.673 189.388 286.346C184 285.5 181 285.5 180.5 284.5C179 282 180 279.5 178.933 277.353C166.427 276.354 154.921 277.354 142.415 277.021C137.229 277.021 131.739 276.688 126.858 278.686C123.198 280.018 120.453 281.017 116.487 281.35C104.896 281.35 93.6105 282.016 82.3245 283.348Z" fill="#F7F9FA"/>
<path d="M154.992 267.442L299.241 145.737L3.41797 143.411L144 267L154.992 267.442Z" fill="#F4F4F4"/>
<path d="M173.074 273.214C174.605 273.214 176.136 273.519 177.361 274.432C179.198 275.954 179.198 278.998 178.892 281.737C178.892 282.346 178.892 282.955 178.586 283.259C178.28 283.868 177.667 284.172 177.055 284.477C174.605 285.694 171.543 285.694 168.787 285.694C161.438 285.39 154.396 285.39 147.047 285.086C141.535 285.086 132.961 286.303 128.062 283.564C124.081 281.129 123.775 274.736 128.368 272.606C131.124 271.388 135.717 271.997 138.779 271.997C142.454 271.997 146.128 271.692 149.496 271.692C157.458 271.997 165.113 273.214 173.074 273.214Z" fill="#979797"/>
<path d="M142.306 269.865C142.919 268.648 144.143 268.648 145.368 268.343C148.43 268.039 151.799 268.039 154.861 268.039C155.473 268.039 155.779 268.039 156.392 268.343C157.004 268.648 157.616 269.257 157.616 270.17C157.923 270.779 157.923 271.692 157.616 272.301C157.616 272.909 157.616 273.518 157.004 273.823C156.698 273.823 156.392 273.823 156.085 274.127C152.717 274.127 149.349 274.127 145.981 274.127C144.756 274.127 142.612 274.431 142 273.518C142 272.605 142 270.474 142.306 269.865Z" fill="#B2B2B2"/>
<path d="M144 267C146.973 267 150.243 266.903 153.216 267.078C153.811 267.078 154.703 267.078 155 267.427C154.405 267.777 153.811 268.126 153.216 268.651C152.919 268.825 152.919 268.825 152.622 269C152.324 269 152.027 269 151.73 269C150.243 268.825 148.162 269 146.676 268.825C145.189 268.126 144.892 267.699 144 267Z" fill="#DADADA"/>
<path d="M294.398 5.39122C294.398 5.39122 295.648 8.64644 295.648 12.9981C295.035 42.1799 295.954 71.1056 297.793 100.287C298.406 108.735 299.018 117.182 299.937 125.629C300.244 129.981 299.325 145.852 299.325 145.852C293.197 148.924 268.992 146.108 261.026 146.108C248.157 146.108 234.982 146.108 222.42 145.852C160.223 145.596 100.477 145.34 43.1814 145.084C33.6833 145.084 24.4916 145.084 15.2998 144.828C11.9295 144.828 5.48308 145.596 3.03195 143.548C-0.0319645 140.988 0.593036 125.117 0.593036 121.79C0.593036 87.4884 3.35056 58.0506 1.51221 23.7493C0.899427 16.5818 -0.63253 8.13448 0.286644 0.455076C7.02726 -0.568845 15.2998 0.455076 22.0404 0.455076C72.595 0.967037 124.988 1.73498 178.913 2.24694C202.199 2.50292 225.791 2.7589 249.996 3.01488C261.639 3.27086 273.894 2.7589 285.537 3.52684C289.214 3.78282 292.866 4.62328 294.398 5.39122Z" fill="#DDDDDD"/>
<path d="M288.495 8.82609C288.495 8.82609 289.12 10.7427 289.12 14.8293C289.12 42.4142 290.06 69.9992 292.882 97.8395C293.353 106.013 294.293 114.186 295.234 122.104C295.704 126.446 295.234 141.771 295.234 141.771C289.12 144.581 265.132 142.026 257.136 141.771C244.436 141.771 231.737 141.516 219.037 141.516C158.362 141.005 100.038 140.494 45.0073 139.983C36.0707 139.983 27.134 139.728 18.1973 139.728C14.9049 139.728 9.26064 140.238 7.37924 138.451C4.55713 135.896 4.55713 121.082 4.55713 118.017C5.02748 85.8349 7.84959 58.25 6.90888 26.5785C6.90888 19.4268 5.02748 11.7643 6.43853 4.6127C12.5531 3.84646 20.0787 4.35729 26.6636 4.6127C74.1691 4.86812 124.026 5.12354 175.765 5.37895C198.342 5.37895 220.919 6.70673 244.436 6.70673C255.725 6.70673 267.954 6.19589 279.242 6.96214C283.005 6.96214 287.084 8.05985 288.495 8.82609Z" fill="#B2B2B2"/>
<path d="M149.62 141.676V4.55859C147.456 3.97412 140.758 2.94545 131.284 3.50654C119.442 4.20791 90.0282 7.01337 63.2882 6.312C41.8962 5.75091 17.4482 3.74033 7.89817 2.80518C8.0255 3.38965 8.35657 5.11968 8.66217 7.36405C9.04417 10.1695 9.04419 52.6021 6.75219 75.3965C4.91859 93.632 5.22419 124.141 5.60619 137.117C9.55352 138.052 21.1918 140.062 36.1662 140.624C54.8842 141.325 101.394 139.043 116.004 138.169C133.576 137.117 146.946 139.571 149.62 141.676Z" fill="url(#paint0_linear)"/>
<path d="M149.62 141.676V4.55859C151.785 3.97412 158.482 2.94545 167.956 3.50654C179.798 4.20791 209.212 7.01337 235.952 6.312C257.344 5.75091 281.792 3.74033 291.342 2.80518C291.215 3.38965 290.884 5.11968 290.578 7.36405C290.196 10.1695 290.196 52.6021 292.488 75.3965C294.322 93.632 294.016 124.141 293.634 137.117C289.687 138.052 278.048 140.062 263.074 140.624C244.356 141.325 197.846 139.043 183.236 138.169C165.664 137.117 152.294 139.571 149.62 141.676Z" fill="url(#paint1_linear)"/>
<path d="M31.7637 22.4805C41.6371 23.0641 64.8016 24.1876 78.4725 24.0125C92.1434 23.8374 107.207 23.3559 113.029 23.1371" stroke="#587BC9" stroke-width="11"/>
<g opacity="0.6">
<path d="M31.6465 38.1953C41.5151 38.6245 64.67 39.5085 78.3408 39.6112C92.0116 39.7139 107.077 39.6828 112.9 39.6544" stroke="#B1B1B1" stroke-width="2"/>
<path d="M31.5845 42.8467C41.0264 43.2699 63.1801 44.14 76.2601 44.2345C89.34 44.329 103.754 44.2888 109.326 44.2569" stroke="#B1B1B1" stroke-width="2"/>
<path d="M31.5225 47.4971C41.1998 47.9236 63.906 48.8014 77.312 48.9004C90.7179 48.9994 105.491 48.9642 111.202 48.9342" stroke="#B1B1B1" stroke-width="2"/>
<path d="M31.2739 66.0996C41.1425 66.5288 64.2974 67.4128 77.9682 67.5155C91.639 67.6182 106.704 67.5871 112.528 67.5587" stroke="#B1B1B1" stroke-width="2"/>
<path d="M31.2119 70.751C40.6205 71.1738 62.696 72.0428 75.7298 72.1366C88.7636 72.2304 103.127 72.1895 108.679 72.1574" stroke="#B1B1B1" stroke-width="2"/>
<path d="M31.1499 75.4014C38.1643 75.7908 54.6228 76.5817 64.3417 76.6294C74.0605 76.6771 84.7711 76.5853 88.9116 76.5335" stroke="#B1B1B1" stroke-width="2"/>
<path d="M31.46 52.1479C40.7095 52.5685 62.4121 53.4323 75.2258 53.5231C88.0394 53.6139 102.16 53.5696 107.619 53.5361" stroke="#B1B1B1" stroke-width="2"/>
<path d="M31.3979 56.7988C40.9939 57.2242 63.5092 58.0994 76.8025 58.1968C90.0958 58.2942 104.745 58.2573 110.408 58.2267" stroke="#B1B1B1" stroke-width="2"/>
<path d="M31.3359 61.4497C40.5855 61.8703 62.2881 62.7341 75.1018 62.8249C87.9154 62.9156 102.036 62.8714 107.495 62.8379" stroke="#B1B1B1" stroke-width="2"/>
</g>
<path d="M181.384 66.666C191.257 67.2497 214.422 68.3732 228.093 68.1981C241.764 68.023 256.827 67.5415 262.65 67.3226" stroke="#587BC9" stroke-width="11"/>
<g opacity="0.6">
<path d="M181.267 82.3818C191.135 82.811 214.29 83.6951 227.961 83.7978C241.632 83.9004 256.697 83.8693 262.52 83.8409" stroke="#B1B1B1" stroke-width="2"/>
<path d="M181.205 87.0327C190.646 87.456 212.8 88.3261 225.88 88.4205C238.96 88.515 253.374 88.4748 258.946 88.4429" stroke="#B1B1B1" stroke-width="2"/>
<path d="M181.143 91.6831C190.82 92.1096 213.526 92.9874 226.932 93.0864C240.338 93.1854 255.111 93.1502 260.822 93.1203" stroke="#B1B1B1" stroke-width="2"/>
<path d="M180.894 110.286C190.763 110.715 213.918 111.599 227.588 111.702C241.259 111.805 256.324 111.774 262.148 111.745" stroke="#B1B1B1" stroke-width="2"/>
<path d="M180.832 114.937C190.241 115.359 212.316 116.228 225.35 116.322C238.384 116.416 252.747 116.375 258.299 116.343" stroke="#B1B1B1" stroke-width="2"/>
<path d="M180.77 119.587C187.784 119.976 204.243 120.767 213.962 120.815C223.681 120.863 234.391 120.771 238.532 120.719" stroke="#B1B1B1" stroke-width="2"/>
<path d="M181.08 96.334C190.33 96.7546 212.032 97.6184 224.846 97.7091C237.66 97.7999 251.78 97.7556 257.239 97.7222" stroke="#B1B1B1" stroke-width="2"/>
<path d="M181.018 100.985C190.614 101.41 213.129 102.285 226.423 102.383C239.716 102.48 254.365 102.443 260.028 102.413" stroke="#B1B1B1" stroke-width="2"/>
<path d="M180.956 105.635C190.206 106.056 211.908 106.92 224.722 107.01C237.536 107.101 251.656 107.057 257.115 107.023" stroke="#B1B1B1" stroke-width="2"/>
</g>
<path d="M31.8987 85.271C31.8987 85.271 48.6075 85.9854 70.2531 85.9854C91.8987 85.9854 112.405 85.271 112.405 85.271L113.164 120.276C98.5933 120.276 84.6828 121.705 73.2911 121.705C59.8715 121.705 48.3042 120.991 31.1392 120.991L31.8987 85.271Z" fill="#F0F0F0"/>
<path d="M180 16.2783C180 16.2783 198.228 17.7679 219.873 17.7679C241.519 17.7679 262.025 17.0535 262.025 17.0535L262.785 52.0588C248.214 52.0588 234.303 53.4876 222.911 53.4876C209.492 53.4876 197.925 52.7732 180.759 52.7732L180 16.2783Z" fill="#F0F0F0"/>
<path opacity="0.08" d="M320 314.507C320 317.538 302.201 320 280 320C257.799 320 240 317.538 240 314.507C240 311.476 257.799 309.013 280 309.013C302.201 309.013 320 311.476 320 314.507Z" fill="#9DAFBD"/>
<path d="M248.996 143.26C248.996 143.26 236.555 197.438 256.268 234.377C275.981 271.316 275.79 271.127 275.79 271.127C275.79 271.127 280.957 179.063 248.996 143.26Z" fill="#5BB59B"/>
<path d="M249.761 284.955C250.909 291.586 252.44 298.405 255.885 304.277C259.139 310.15 264.498 315.264 271.196 316.78C274.259 317.538 277.321 317.538 280.383 317.348C283.828 317.348 287.273 316.969 290.335 315.264C294.163 312.991 296.077 308.824 297.608 304.656C300.287 297.647 302.201 290.449 303.541 283.251C304.307 279.083 304.881 274.537 302.775 270.748C300.096 265.633 293.78 263.55 288.039 262.602C278.469 261.087 265.263 260.329 256.077 264.118C248.039 267.528 248.421 277.568 249.761 284.955Z" fill="#D8E4F2"/>
<path d="M271.579 271.316C279.234 271.695 287.464 270.558 292.249 268.095C293.206 267.527 293.971 266.959 293.588 266.391C293.014 265.633 291.1 265.254 289.186 265.254C280 264.307 269.856 263.928 260.861 265.443C247.847 267.527 264.497 270.937 271.579 271.316Z" fill="#524F63"/>
<path d="M267.56 130C267.56 130 261.436 233.24 275.79 271.127C275.79 271.127 285.168 179.063 267.56 130Z" fill="#63A590"/>
<path d="M274.067 270.369H277.512C282.488 249.91 297.225 183.609 289.378 152.732C289.378 152.732 264.498 239.681 270.814 259.193C272.153 264.307 273.302 267.906 274.067 270.369Z" fill="#5BB59B"/>
<path d="M146.476 318.447C149.653 318.172 153.094 318.447 156.271 318.997C158.654 320.923 161.566 322.573 164.478 323.674C165.272 323.949 166.066 324.499 166.86 325.049C167.389 325.599 167.654 326.975 167.125 327.525C166.595 328.075 165.801 328.35 165.007 328.35C158.918 328.35 152.83 327.8 147.006 326.7C146.741 326.7 146.212 326.424 145.947 326.424C145.682 326.149 145.682 325.874 145.682 325.599C144.888 323.124 145.153 320.373 146.476 318.447Z" fill="#424051"/>
<path d="M135.623 320.097C132.446 319.822 129.005 320.097 125.828 320.647C123.445 322.572 120.533 324.223 117.621 325.323C116.827 325.598 116.033 326.148 115.239 326.699C114.709 327.249 114.445 328.624 114.974 329.174C115.504 329.724 116.298 329.999 117.092 329.999C123.181 329.999 129.005 329.449 135.093 328.349C135.358 328.349 135.887 328.074 136.152 328.074C136.417 327.799 136.417 327.524 136.417 327.249C137.211 324.773 136.682 322.022 135.623 320.097Z" fill="#424051"/>
<path d="M124.402 258.205C123.607 239.5 120.798 221.07 121.063 202.365C120.534 196.038 121.328 189.436 123.446 183.384C123.71 183.109 123.71 182.559 123.975 182.284C124.769 181.459 126.358 181.734 127.417 182.284C138.005 186.96 150.712 185.86 160.242 179.258C162.095 182.284 162.625 186.135 163.154 189.711C163.948 195.488 164.743 201.264 165.007 207.041C165.007 208.416 165.007 209.517 165.007 210.892C164.743 218.044 163.419 225.196 162.36 232.623C161.566 237.3 161.036 241.976 161.036 246.652C161.036 250.503 160.046 253.317 159.252 257.168C157.134 266.521 156.34 285.565 156.34 285.565L153.693 316.373V318.997C153.693 318.997 147.006 320.923 147.006 318.997C146.477 299.192 145.682 279.111 145.153 259.306C144.888 251.053 144.624 242.526 142.506 234.549C135.888 235.374 136.947 258.48 136.682 264.257C135.888 282.962 135.094 301.668 134.299 320.373C131.652 320.373 131.549 320.373 128.902 320.373C127.314 315.972 127.049 311.295 126.784 306.894C125.99 290.389 124.931 274.435 124.402 258.205Z" fill="#EAC5B0"/>
<path d="M153.095 96.1842C144.094 97.0094 135.358 98.6599 127.152 93.7085C108.621 115.99 117.622 114.339 115.768 136.07C115.239 140.747 121.328 151.2 121.063 155.601C119.21 177.882 110.739 214.192 111.533 236.473C111.798 242.8 112.062 249.127 113.651 254.904C114.18 256.554 114.71 258.204 115.768 259.305C116.827 260.405 118.416 260.405 120.004 260.405C136.152 259.305 148.594 251.328 167.919 262.881C171.89 223.27 163.154 182.833 161.036 155.876C159.713 137.171 166.596 130.294 163.154 110.763C162.36 106.362 161.301 101.686 159.183 98.1097C158.654 97.0094 156.007 95.9091 157.065 95.9091C158.389 95.359 156.271 95.9091 153.095 96.1842Z" fill="#A1BDEB"/>
<path d="M164.478 24.3903C164.478 23.8401 164.213 23.5651 164.213 23.0149C163.683 21.9146 163.948 21.0894 163.154 20.5392C162.095 19.9891 161.301 19.1638 161.036 18.3386C161.036 18.0635 161.83 16.9632 161.566 16.6881C161.301 15.8629 159.977 16.138 159.712 15.5878C158.918 13.9374 159.448 12.0118 160.771 10.9115C162.095 9.81122 164.213 9.81122 165.536 10.3614C166.595 10.9115 167.39 12.0118 168.184 13.1121C168.713 13.9374 169.243 14.7626 169.507 15.5878C170.566 18.8888 168.713 23.0149 169.772 26.3158C170.037 26.866 170.037 27.4161 169.772 27.6912C169.772 27.6912 169.507 27.9663 169.243 27.9663C168.448 28.2414 165.536 29.0666 165.007 28.5164C164.742 27.9663 164.742 27.1411 164.742 26.5909C164.742 25.4906 164.478 24.9404 164.478 24.3903Z" fill="#EAC5B0"/>
<path d="M160.242 16.9625C160.242 16.6874 160.242 16.6874 160.242 16.4123V16.1372C160.242 15.8622 160.772 15.5871 161.036 15.5871C161.301 15.5871 161.566 15.312 161.831 15.312C162.095 15.312 162.095 15.312 162.36 15.312L162.625 15.5871C162.889 15.8622 163.154 16.1372 163.154 16.1372C163.419 16.4123 163.419 16.4123 163.419 16.6874C163.684 17.2376 163.419 18.0628 162.889 18.6129C162.625 18.888 161.566 19.4382 161.036 19.1631C160.772 18.888 160.507 18.6129 160.507 18.3379C160.507 17.7877 160.242 17.5126 160.242 16.9625Z" fill="#DDD2C5"/>
<path d="M122.916 59.0494C123.445 57.399 124.239 55.4734 125.298 54.0981C128.475 48.5965 137.211 41.7196 143.564 46.671C144.888 47.7713 145.947 49.4217 147.006 51.0722C148.065 52.7227 148.859 54.3731 149.653 56.2987C150.977 59.5996 151.241 63.7257 150.447 67.3017C149.653 70.6027 147.8 73.6285 145.947 76.6544C143.564 80.2304 140.652 84.0814 136.417 85.1817C130.858 86.5571 125.034 82.431 122.916 76.9294C120.269 70.8777 121.063 64.551 122.916 59.0494Z" fill="#EAC5B0"/>
<path d="M164.213 71.9774C162.889 79.9546 160.772 88.2069 161.301 96.1842C161.301 98.1097 162.095 100.31 163.684 100.585C165.272 101.136 166.86 99.4851 167.654 98.1097C168.713 96.4592 169.507 94.5337 170.302 92.6082C171.096 90.4075 171.361 87.9319 171.625 85.4562C174.008 67.3011 176.126 48.8709 173.214 30.7159C172.949 28.5153 172.419 26.3147 170.831 24.9393C169.507 23.839 167.39 23.5639 165.537 23.839C162.625 24.114 163.154 24.9393 163.684 27.69C164.478 32.6414 165.272 37.5928 165.537 42.5442C166.331 52.4469 165.801 62.3497 164.213 71.9774Z" fill="#587BC9"/>
<path d="M162.095 148.45C154.153 150.375 145.947 150.1 137.74 150.65C131.917 151.2 126.093 152.026 120.269 152.301H120.004V152.576C120.004 154.501 120.533 154.226 122.122 154.226C123.71 154.226 125.298 153.951 126.887 153.951C130.063 153.676 133.24 153.401 136.152 153.126C138.535 152.851 140.917 152.851 143.3 152.576C148.859 152.301 154.418 152.576 159.713 152.576C160.242 152.576 160.771 152.576 161.301 152.301C161.83 152.026 161.83 151.2 161.83 150.65C161.83 149.825 161.83 149.275 162.095 148.45Z" fill="#314F8F"/>
<path d="M150.712 147.9C151.241 149.825 151.241 152.026 151.241 153.951C150.712 154.226 149.918 154.226 149.388 154.501H149.124C148.859 154.501 148.859 154.226 148.859 153.951C148.594 152.301 148.329 150.65 148.329 149C148.329 148.175 148.065 148.175 148.594 147.625C148.859 147.9 150.712 147.9 150.712 147.9Z" fill="#587BC9"/>
<path d="M135.888 153.952C135.623 152.576 135.623 151.201 135.358 149.826C135.093 148.45 134.035 149 132.976 149.275C132.976 149.275 132.976 149.275 132.711 149.275C132.711 149.275 132.711 149.275 132.711 149.551C132.711 150.376 132.976 151.201 132.976 152.026C133.24 153.127 133.24 154.227 133.24 155.327C134.035 155.602 135.093 155.327 135.888 154.777C135.888 154.777 136.152 154.777 136.152 154.502C136.152 153.952 136.152 153.952 135.888 153.952Z" fill="#587BC9"/>
<path d="M93.7961 140.472C93.0019 139.647 92.2077 138.821 91.943 137.996C91.6783 137.171 91.4136 136.071 91.4136 135.245C91.4136 134.97 91.4136 134.42 91.4136 134.145C91.4136 133.87 91.6783 133.595 91.943 133.595C92.7372 133.045 93.7961 132.495 94.5903 133.045C95.6492 133.595 96.1786 134.97 97.2375 135.245C98.0317 135.52 99.0906 135.245 99.3553 135.796C99.62 136.071 99.62 136.346 99.62 136.621C99.62 138.821 99.0906 141.572 100.149 143.498C100.414 144.048 100.679 144.323 100.414 144.873C100.414 145.148 100.149 145.148 99.8847 145.148C98.0317 145.973 97.767 145.698 96.7081 144.048C95.9139 142.672 94.855 141.572 93.7961 140.472Z" fill="#EAC5B0"/>
<path d="M97.2377 149.55C98.2966 151.2 99.3555 152.851 100.414 154.501C101.738 156.427 103.062 158.627 105.444 159.177C108.356 159.727 110.739 157.527 112.856 155.326C115.504 152.3 117.886 149.275 119.21 145.423C119.739 144.048 120.004 142.398 120.269 140.747C121.857 132.22 125.298 123.967 129.005 116.265C130.063 114.065 131.387 111.039 130.063 108.838C129.005 106.913 126.357 106.363 124.24 107.188C122.122 108.013 120.798 109.939 119.739 111.864C114.18 121.217 114.974 133.32 108.886 142.398C107.827 143.773 107.297 147.349 105.709 147.899C104.12 148.449 102.003 143.498 100.944 142.123C100.679 141.572 100.414 141.022 99.8849 140.472C99.6202 139.922 97.2377 141.847 96.7082 142.123C94.061 143.773 95.914 147.624 97.2377 149.55Z" fill="#587BC9"/>
<path d="M112.856 93.1589C113.915 91.7835 115.503 90.4082 116.033 88.4826C116.562 87.1072 116.033 85.4568 116.298 84.0814C116.298 82.4309 116.827 80.7805 118.415 80.2303C119.739 79.6802 121.063 80.5054 122.122 81.6057C122.651 81.3306 123.445 81.0555 123.975 80.7805C127.416 79.4051 129.799 75.8291 130.858 71.978C131.916 68.1269 131.652 64.2759 131.387 60.1497C131.122 57.674 130.857 54.9232 130.328 52.4475C127.151 49.9719 125.034 45.5706 128.21 41.7196C131.652 37.5934 138.005 35.9429 143.035 37.3183C148.859 38.9688 160.771 45.8457 161.036 52.1725C161.301 56.8488 160.507 61.5251 162.095 65.9263C163.683 69.7774 159.183 70.6026 162.624 73.0783C163.419 73.6285 163.948 74.1786 164.213 75.0039C164.742 76.1042 164.477 77.2045 165.272 78.0297C165.536 78.3048 166.066 78.5798 166.595 78.8549C169.243 79.6802 172.684 81.0555 172.684 84.0814C172.684 85.1817 172.154 86.282 172.949 87.3823C173.213 87.9325 173.743 88.2075 174.272 88.4826C175.331 89.5829 175.066 91.2334 174.537 92.6088C174.008 93.9842 173.213 95.0845 173.213 96.7349C173.213 97.8352 173.743 98.6605 173.743 99.7608C173.743 101.686 172.684 103.612 170.831 104.162C169.243 104.712 166.86 104.437 166.331 106.088C166.066 106.638 166.066 107.188 165.801 107.738C165.536 108.013 165.007 108.288 164.477 108.563C161.036 109.388 157.065 106.363 154.418 108.838C152.565 110.489 152.83 113.515 150.977 115.165C148.859 117.091 145.153 115.44 143.035 117.366C142.505 117.916 141.976 118.741 141.182 119.016C139.593 120.116 137.211 118.741 136.152 116.816C135.093 115.165 134.564 112.964 132.975 111.589C130.063 109.388 126.092 111.039 122.651 111.039C120.269 111.039 117.886 110.489 115.768 108.838C114.974 108.288 114.445 107.738 114.18 106.913C113.121 104.987 114.445 102.236 113.386 100.311C113.121 99.7608 112.327 99.2106 112.062 98.6605C110.738 96.7349 111.533 94.5343 112.856 93.1589Z" fill="#4A4549"/>
<path opacity="0.08" d="M141 337C173.585 337 200 333.418 200 329C200 324.582 173.585 321 141 321C108.415 321 82 324.582 82 329C82 333.418 108.415 337 141 337Z" fill="#9DAFBD"/>
<defs>
<linearGradient id="paint0_linear" x1="9.53806" y1="51.9008" x2="149.62" y2="51.9008" gradientUnits="userSpaceOnUse">
<stop stop-color="#FEFEFE"/>
<stop offset="0.906077" stop-color="white"/>
<stop offset="1" stop-color="#F9F9F9"/>
</linearGradient>
<linearGradient id="paint1_linear" x1="289.702" y1="51.9008" x2="149.62" y2="51.9008" gradientUnits="userSpaceOnUse">
<stop stop-color="#FEFEFE"/>
<stop offset="0.888173" stop-color="white"/>
<stop offset="0.946309" stop-color="#F7F7F7" stop-opacity="0.974239"/>
<stop offset="1" stop-color="#F1F1F1"/>
</linearGradient>
</defs>
</svg>
