<svg width="130" height="405" viewBox="0 0 130 405" fill="none" xmlns="http://www.w3.org/2000/svg">
<path d="M65 80C87.0914 80 105 62.0914 105 40C105 17.9086 87.0914 0 65 0C42.9086 0 25 17.9086 25 40C25 62.0914 42.9086 80 65 80Z" fill="#F3F7FB"/>
<path opacity="0.3" d="M80.9532 3.29248C85.7474 8.8918 89.0777 15.8818 90.1756 23.7501C93.2498 45.6351 78.0255 65.8365 56.1405 68.9107C48.5284 69.972 41.1358 68.8375 34.585 65.9829C43.1852 75.9739 56.5065 81.5366 70.5231 79.5604C92.408 76.4862 107.632 56.2482 104.558 34.3998C102.582 20.0904 93.2864 8.67222 80.9532 3.29248Z" fill="#D8E4F2"/>
<path d="M31.3644 48.9649C28.5098 28.6537 42.6728 9.87948 62.9475 7.02492C74.8049 5.34147 86.1499 9.51351 94.128 17.272C86.2231 7.13471 73.3044 1.389 59.6538 3.32864C39.3425 6.18319 25.2161 24.9574 28.0707 45.2687C29.2418 53.7225 33.1942 61.0785 38.8302 66.6046C34.9509 61.6641 32.3159 55.6622 31.3644 48.9649Z" fill="white"/>
<path d="M51.361 52.1537C53.8089 60.3807 62.086 65.6578 70.7486 64.1469C79.4112 62.6359 85.3998 54.81 84.8449 46.2605L51.361 52.1537Z" fill="#292949"/>
<path d="M58.3548 61.5772C61.8784 63.9076 66.2351 64.9273 70.712 64.1485C75.0061 63.376 78.6248 61.0891 81.1143 57.9261L80.8834 57.6046C68.7502 54.1101 58.4973 61.4624 58.3548 61.5772Z" fill="#A1BDEB"/>
<path d="M73.9266 32.0942C74.6585 29.1298 77.0739 26.934 80.0749 26.5315C83.0392 26.1289 85.9304 27.483 87.4674 30.0448C87.7602 30.5205 87.687 31.1427 87.2479 31.5452C86.8087 31.9478 86.2231 31.9844 85.7474 31.6184C83.2588 29.7886 79.5259 28.5809 76.0126 33.1189C75.8296 33.3751 75.5369 33.5215 75.2441 33.5581C75.0245 33.5947 74.7683 33.5581 74.5487 33.4483C74.0364 33.1921 73.7802 32.6431 73.9266 32.0942Z" fill="#292949"/>
<path d="M39.8914 36.852C40.6233 33.8877 43.0387 31.6918 46.0397 31.2893C49.004 30.8867 51.8952 32.2408 53.4322 34.8026C53.725 35.2783 53.6518 35.9005 53.2127 36.303C52.7735 36.7056 52.188 36.7422 51.7122 36.3762C49.2236 34.5464 45.4907 33.3387 41.9774 37.8767C41.7944 38.1329 41.5017 38.2793 41.2089 38.3159C40.9893 38.3525 40.7331 38.3159 40.5135 38.2061C40.0378 37.9865 39.745 37.401 39.8914 36.852Z" fill="#292949"/>
<path d="M46.0955 56.0705C49.7761 54.9061 51.8159 50.9786 50.6516 47.298C49.4873 43.6174 45.5597 41.5776 41.8791 42.7419C38.1985 43.9062 36.1587 47.8338 37.323 51.5144C38.4873 55.1949 42.4149 57.2348 46.0955 56.0705Z" fill="#A1BDEB"/>
<path d="M93.0264 49.2049C96.8614 48.7624 99.6117 45.2949 99.1693 41.4599C98.7269 37.6249 95.2593 34.8747 91.4243 35.3171C87.5893 35.7595 84.8391 39.227 85.2815 43.062C85.7239 46.897 89.1914 49.6473 93.0264 49.2049Z" fill="#A1BDEB"/>
<path d="M79.0771 327.462L79.4786 351.439C79.3065 358.1 79.88 364.7 80.2814 371.36C80.6254 377.536 79.4786 383.833 82.231 389.585C83.0912 391.402 84.9262 392.613 86.3598 390.554C87.4493 388.98 86.9332 386.195 87.22 384.378C89.227 370.512 92.9543 356.949 94.8466 343.023C96.739 328.37 91.406 328.733 79.0771 327.462Z" fill="#EAC5B0"/>
<path d="M80.3962 385.408L78.9053 389.404L86.1306 396.064L92.6677 396.367L94.7894 392.674L85.9585 384.56L80.3962 385.408Z" fill="#292949"/>
<path d="M63.0216 327.644L58.8928 351.197C57.4592 361.733 54.1907 372.026 52.7571 382.562C52.413 384.984 52.585 387.648 51.6102 389.949C50.6927 392.189 48.8577 392.25 47.1947 390.736C45.0157 388.677 46.0478 385.044 46.0478 382.32C46.3346 363.852 44.9583 345.566 44.6143 327.038C44.6143 326.796 44.6143 326.493 44.7863 326.372C44.9583 326.251 45.1304 326.251 45.3024 326.251C47.08 326.372 62.9642 328.189 63.0216 327.644Z" fill="#EAC5B0"/>
<path d="M46.0477 386.376L43.7539 389.949L49.3736 398.123L55.6814 400L58.5486 396.912L51.6673 386.921L46.0477 386.376Z" fill="#292949"/>
<path d="M102.474 342.66L99.3773 308.449L97.8864 286.167L92.8975 268.003L65.774 263.583L32.2853 269.637L30.6797 276.479L37.1022 340.117L69.444 342.66L68.9852 303.061L73.9741 327.644L73.7448 342.66H102.474Z" fill="#292949"/>
<path d="M39.3964 201.096C39.339 202.247 39.339 203.397 39.2817 204.547C38.8803 228.041 40.1419 251.836 40.2565 275.511C51.7253 273.634 63.366 272.544 75.0068 272.363C77.7019 272.302 89.9161 274.3 91.6364 272.605C93.9302 270.304 91.4071 270.728 91.5791 267.761C91.8085 263.886 90.0308 260.677 90.7189 256.075C91.5217 250.686 93.07 245.297 93.9875 239.908C95.7652 229.07 96.8547 218.11 97.1988 207.09C97.4855 197.342 97.1988 187.23 93.1847 178.39C83.3789 156.653 51.7826 157.077 43.1237 179.722C40.5433 186.504 39.6831 193.83 39.3964 201.096Z" fill="white"/>
<path d="M74.9493 132.13C76.3256 134.613 76.9563 137.519 77.071 140.365C77.1284 141.152 77.1284 142 77.7591 142.484C78.3899 142.969 77.8165 143.998 78.3326 143.392C78.7913 142.726 80.4543 140.486 80.5116 139.699C80.6837 137.761 80.6837 135.884 80.5116 133.947C80.3396 132.312 80.0529 130.556 79.0207 129.284C78.3899 128.558 77.5871 128.013 76.7843 127.468C75.6374 126.741 74.4332 125.954 73.1143 125.712C70.8206 125.288 69.387 126.136 71.4513 127.831C72.8276 129.042 74.0318 130.435 74.9493 132.13Z" fill="#292949"/>
<path d="M60.6135 164.767C60.6135 165.917 60.3841 167.188 61.3589 168.097C61.8177 168.521 62.4484 168.702 63.0792 168.823C64.6848 169.066 66.3478 168.944 67.8961 168.46C68.5269 168.278 69.1576 167.976 69.6737 167.491C70.2472 166.886 70.2472 166.341 70.3045 165.614C70.3619 164.706 70.5339 163.798 70.5912 162.95C70.8206 161.012 70.9353 159.014 70.9926 157.016C73.7451 156.532 77.0137 155.563 77.9312 152.536C78.2179 151.567 78.2179 150.537 78.2179 149.508C78.2753 145.27 78.2753 141.031 78.3326 136.793C78.3326 135.34 78.3326 133.826 77.8739 132.494C77.0137 130.132 74.9494 128.679 72.8276 127.771C67.552 125.47 61.3589 125.591 56.4847 128.8C55.1658 129.648 53.9616 130.798 53.2161 132.252C52.0692 134.552 52.1839 137.459 52.4133 140.123C52.5853 142.606 52.7574 145.088 52.9294 147.571C53.1014 150.416 53.5028 153.686 55.6246 155.2C56.7141 155.987 58.1477 156.169 59.1225 157.198C60.7855 159.014 59.9827 161.679 60.4988 163.858C60.5561 164.1 60.5561 164.464 60.6135 164.767Z" fill="#EAC5B0"/>
<path d="M79.2497 147.752C79.1924 146.965 78.9057 144.664 77.7588 146.118C77.4721 146.481 77.4147 147.026 77.3574 147.51C77.3574 147.995 77.3574 148.539 77.1854 149.024C76.8413 150.114 75.6944 150.598 74.6623 150.598C74.2609 150.598 73.8594 150.538 73.5154 150.295C73.1713 150.114 72.8846 149.75 72.5979 149.448C71.9671 148.661 71.279 147.873 70.6482 147.086C69.5013 145.754 67.3223 146.299 65.774 146.541C64.0537 146.784 62.276 147.328 60.8998 148.539C60.7851 148.661 60.6131 148.782 60.4984 148.903C60.1543 149.206 59.8103 149.508 59.4088 149.75C58.0899 150.417 56.427 149.75 55.4521 148.418C54.9934 147.813 54.592 147.086 53.9612 146.965C53.4451 146.905 52.929 147.268 52.6423 147.813C52.3556 148.358 52.2982 148.963 52.2409 149.569C52.1262 151.749 52.4129 153.989 53.2731 155.926C55.2228 160.104 58.9501 160.649 62.7348 160.528C64.2257 160.468 65.7167 160.468 67.2076 160.407C69.9601 160.347 72.8273 160.225 75.121 158.53C77.128 157.077 78.3322 154.534 78.8483 151.93C79.2497 150.538 79.3071 149.145 79.2497 147.752ZM69.2719 153.686C67.8384 154.715 66.2327 154.776 64.6271 154.231C63.939 153.989 64.2257 152.778 64.9138 153.02C66.2327 153.444 67.4943 153.444 68.6985 152.596C69.3293 152.172 69.8454 153.262 69.2719 153.686Z" fill="#292949"/>
<path d="M79.8232 124.804C80.1099 123.775 80.282 122.745 80.3967 121.655C79.4792 122.019 78.447 122.079 77.5295 121.898C77.5295 121.292 77.5295 120.687 77.5295 120.081C77.5295 119.597 71.0496 119.233 70.5336 119.173C65.602 118.749 61.0718 118.325 56.6564 121.11C52.8717 123.472 50.4059 127.044 49.8325 131.706C49.2591 136.127 50.6353 141.939 53.1011 145.572C53.1011 144.422 52.4703 141.637 52.6997 140.486C52.8717 139.336 53.2158 138.306 53.7319 137.277C54.7641 135.279 56.3123 133.584 58.1473 132.373C61.0145 130.435 64.3978 129.466 67.7237 128.982C70.8203 128.558 74.5476 128.134 77.5868 128.982C79.0204 129.406 79.3071 129.769 80.1673 128.255C80.3393 127.952 81.5435 124.804 81.4288 124.804C80.8554 124.804 80.3393 124.804 79.8232 124.804Z" fill="#292949"/>
<path d="M20.8741 95.7403C20.9888 95.9219 21.0461 96.043 21.1035 96.2247C21.5049 97.8595 20.8168 99.0099 20.7594 100.705C20.7594 101.432 22.2503 102.522 20.9888 103.369C20.53 103.672 19.2685 104.278 18.2363 104.883C16.7453 105.852 15.4264 107.971 14.681 109.848C13.3047 113.239 12.3872 116.811 11.6991 120.444C11.0683 123.653 9.63474 128.618 10.1508 131.888C10.6669 134.855 14.3369 138.549 15.9999 141.031C18.1216 144.18 20.1286 147.389 22.1357 150.598C23.5692 152.838 24.9455 155.2 25.5189 157.864C25.863 159.438 25.863 161.315 24.8881 162.587C24.2574 163.434 23.3399 163.919 22.4797 164.464C20.8741 165.311 19.2111 166.22 17.4335 165.977C15.2544 165.675 13.6488 163.798 12.2725 162.042C9.17598 157.985 6.30881 153.686 4.01506 149.084C2.40944 145.814 -0.629767 140.002 0.115701 136.248C1.72132 127.71 4.0724 119.415 6.53818 111.059C7.2263 108.758 8.94662 107.184 9.5774 105.065C9.97881 103.733 9.34802 102.34 9.46271 101.008C9.57739 99.676 10.0361 97.92 10.6096 96.709C11.6991 94.2871 14.2796 93.8632 16.516 93.1972C17.0894 93.0155 17.4335 92.8944 17.9496 93.0155C18.8097 93.1972 19.3258 93.8632 19.8993 94.5293C20.358 94.8926 20.6447 95.3164 20.8741 95.7403Z" fill="#EAC5B0"/>
<path d="M109.126 92.7735C109.011 92.9551 108.954 93.0762 108.897 93.2579C108.495 94.8927 109.183 96.0431 109.241 97.7385C109.241 98.4651 107.75 99.555 109.011 100.403C109.47 100.705 110.732 101.311 111.764 101.916C113.255 102.885 114.574 105.004 115.319 106.881C116.695 110.272 117.613 113.845 118.301 117.478C118.932 120.687 120.365 125.652 119.849 128.921C119.333 131.888 115.663 135.582 114 138.064C111.878 141.213 109.871 144.422 107.864 147.631C106.431 149.871 105.055 152.233 104.481 154.897C104.137 156.471 104.137 158.348 105.112 159.62C105.743 160.467 106.66 160.952 107.52 161.497C109.126 162.344 110.789 163.253 112.567 163.011C114.746 162.708 116.351 160.831 117.727 159.075C120.824 155.018 123.691 150.719 125.985 146.117C127.591 142.848 130.63 137.035 129.884 133.281C128.279 124.743 125.928 116.448 123.462 108.092C122.774 105.792 121.053 104.217 120.423 102.098C120.021 100.766 120.652 99.3733 120.537 98.0412C120.423 96.7092 119.964 94.9532 119.39 93.7422C118.301 91.3203 115.72 90.8964 113.484 90.2304C112.911 90.0487 112.567 89.9276 112.05 90.0487C111.19 90.2304 110.674 90.8964 110.101 91.5625C109.699 91.9258 109.413 92.3496 109.126 92.7735Z" fill="#EAC5B0"/>
<path d="M61.9325 165.13L61.7031 162.163C58.4346 162.95 54.4205 163.374 50.9225 164.282C46.4497 162.647 41.4035 162.526 37.3321 160.044C34.4076 158.288 32.2859 155.502 30.1642 152.717C27.469 149.205 26.2648 145.572 22.3081 146.965C19.3835 147.994 15.4842 153.504 13.1331 155.745C11.9862 156.835 10.8394 157.924 9.74982 159.014C9.4631 159.256 9.17639 159.559 9.17639 159.923C9.11904 160.225 9.23372 160.467 9.34841 160.71C12.445 168.46 17.0325 176.331 23.2256 181.781C27.0676 185.172 29.9921 189.047 32.802 193.164C31.3684 203.821 32.802 215.264 32.802 225.861C32.802 230.22 29.9921 277.146 32.1138 277.267C39.5112 277.691 47.2526 276.359 54.5925 275.632C57.9758 275.329 61.9325 276.116 62.678 272.12C63.1941 269.274 62.85 265.884 62.9074 263.038C63.1941 252.623 63.4808 242.269 63.7675 231.855C63.8249 229.13 64.7424 188.683 64.9144 188.683L56.3129 172.153L61.9325 165.13Z" fill="#587BC9"/>
<path d="M120.824 156.895C120.767 156.532 120.48 156.229 120.251 155.987C119.104 154.897 117.957 153.807 116.868 152.717C114.517 150.477 110.675 144.967 107.693 143.938C103.793 142.545 102.532 146.238 99.8366 149.69C97.7149 152.415 95.5358 155.26 92.6687 157.016C88.2532 159.68 82.8056 159.62 78.1034 161.679C77.8167 161.8 77.5299 161.921 77.3006 162.102C76.4404 161.921 75.5229 161.679 74.4907 161.436C72.541 160.952 68.2976 159.317 69.3298 163.434C69.9606 165.796 73.5159 168.702 75.0068 170.64L66.4053 187.17C66.864 203.821 67.3228 220.532 67.7242 237.183C67.9536 244.873 68.1256 252.563 68.355 260.253C68.4123 262.917 68.4697 265.581 68.5843 268.245C68.6417 269.456 68.2976 271.454 68.9284 272.423C70.3047 274.542 75.4656 273.876 77.702 274.058C81.1999 274.361 84.7552 274.663 88.0238 275.935C90.2029 276.783 92.2673 278.054 94.6183 278.417C95.1344 278.478 95.7079 278.478 96.1093 278.175C96.568 277.812 96.6254 277.085 96.6827 276.48C97.4855 265.036 97.4855 253.229 98.1163 241.664C98.6324 232.218 99.8366 222.167 99.0911 212.721C99.0911 212.54 99.0912 212.419 99.0338 212.237C97.5429 203.7 98.5177 196.252 98.0016 188.986C100.582 185.293 103.277 181.902 106.718 178.814C112.854 173.365 117.498 165.493 120.595 157.743C120.767 157.44 120.882 157.137 120.824 156.895Z" fill="#587BC9"/>
<path opacity="0.08" d="M120 395C120 400.41 90.8811 405 55 405C19.1189 405 -10 400.574 -10 395C-10 389.59 19.1189 385 55 385C90.8811 385.164 120 389.59 120 395Z" fill="#9DAFBD"/>
</svg>
