<svg width="110" height="374" viewBox="0 0 110 374" fill="none" xmlns="http://www.w3.org/2000/svg">
<path opacity="0.08" d="M130 364C130 369.41 100.881 374 65 374C29.1189 374 0 369.574 0 364C0 358.59 29.1189 354 65 354C100.881 354.164 130 358.59 130 364Z" fill="#9DAFBD"/>
<path d="M30 60C46.5685 60 60 46.5685 60 30C60 13.4315 46.5685 0 30 0C13.4315 0 0 13.4315 0 30C0 46.5685 13.4315 60 30 60Z" fill="#F3F7FB"/>
<path opacity="0.3" d="M45.6951 4.41016C48.6823 9.07523 50.4155 14.6254 50.4155 20.5627C50.4155 37.121 36.9919 50.563 20.4152 50.563C14.6623 50.563 9.27807 48.9404 4.72363 46.1377C10.0525 54.4537 19.3827 59.9669 30.0035 59.9669C46.5618 59.9669 60.0038 46.5433 60.0038 29.9666C59.9854 19.1614 54.2693 9.68372 45.6951 4.41016Z" fill="#D8E4F2"/>
<path d="M4.07775 33.1751C4.07775 17.7969 16.5425 5.33213 31.9207 5.33213C40.9189 5.33213 48.903 9.59155 53.9922 16.2112C49.1796 7.85828 40.1629 2.23438 29.8371 2.23438C14.4589 2.23438 1.99414 14.6992 1.99414 30.0773C1.99414 36.4756 4.1515 42.3577 7.76555 47.0596C5.4238 42.9662 4.07775 38.2273 4.07775 33.1751Z" fill="white"/>
<path d="M17.7044 33.1012C16.93 32.3452 15.6946 33.175 16.1002 34.1892C18.3129 39.7209 23.734 43.6484 30.0586 43.6484C36.291 43.6484 41.6199 39.8684 43.9063 34.4657C44.3304 33.4885 43.0765 32.6218 42.3021 33.3778C37.9136 37.6188 28.5835 43.6668 17.7044 33.1012Z" fill="#587BC9"/>
<path d="M18.9402 26.2238C20.1623 26.2238 21.1529 24.5562 21.1529 22.4991C21.1529 20.442 20.1623 18.7744 18.9402 18.7744C17.7182 18.7744 16.7275 20.442 16.7275 22.4991C16.7275 24.5562 17.7182 26.2238 18.9402 26.2238Z" fill="#3F60B2"/>
<path d="M41.0486 26.2238C42.2707 26.2238 43.2613 24.5562 43.2613 22.4991C43.2613 20.442 42.2707 18.7744 41.0486 18.7744C39.8266 18.7744 38.8359 20.442 38.8359 22.4991C38.8359 24.5562 39.8266 26.2238 41.0486 26.2238Z" fill="#3F60B2"/>
<path d="M3.65676 90.2811C2.55161 89.167 1.51144 88.0528 0.536303 87.0698C0.341276 85.5624 0.211267 84.1205 0.0162403 82.6131C0.0162403 82.351 -0.0487447 82.1544 0.0812729 81.9577C0.211291 81.7611 0.341276 81.6956 0.536303 81.5645C1.31641 81.1057 2.09654 80.7125 2.87664 80.2537C3.00666 80.1882 3.20168 80.0571 3.39671 80.0571C3.78676 80.0571 4.11182 80.3848 4.30685 80.647C5.15196 81.6956 8.07736 85.2347 8.20737 82.351C8.20737 81.8922 8.59742 81.5645 9.05248 81.4334C9.44253 81.3024 9.8976 81.3679 10.3527 81.4334C10.6777 81.499 11.0028 81.5645 11.1328 81.8922C11.1978 82.0233 11.1328 82.1544 11.1328 82.2854C10.9377 83.7928 10.6127 85.1036 10.9377 86.611C11.2628 88.315 11.5228 90.019 11.8479 91.6575C11.8479 91.723 9.63754 92.9027 9.44252 93.0338C8.27236 93.7547 8.72744 94.0824 7.42726 93.2959C6.06208 92.7061 4.82692 91.5264 3.65676 90.2811Z" fill="#EAC5B0"/>
<path d="M59.1089 120.363L30.115 124.033L15.423 91.395L7.75195 95.9827L15.618 143.957L25.7594 154.705L45.7171 153.067L59.1089 120.363Z" fill="#A6C6FF"/>
<path d="M80.6925 221.227L70.096 290.37L73.8666 340.311L66.0655 342.736L59.1745 296.597L44.3525 212.314L80.6925 221.227Z" fill="#EAC5B0"/>
<path d="M66.1308 344.178L65.2207 349.355L67.171 359.186L73.6069 358.662L74.777 344.047L73.8669 341.753L66.1308 344.178Z" fill="#292949"/>
<path d="M17.959 219.196L21.4044 277.853L35.9014 359.776L43.7025 359.71L40.257 283.686L50.3984 213.625L17.959 219.196Z" fill="#EAC5B0"/>
<path d="M35.9664 358.399L25.9551 365.019L27.1902 370L45.5877 366.067L44.0925 358.858L35.9664 358.399Z" fill="#292949"/>
<path d="M16.2031 227.978L16.5932 296.072L25.7594 341.949L46.8223 338.869L46.1722 285.848L50.5928 227.585L48.3825 218.737L18.0234 221.883L16.2031 227.978Z" fill="#292949"/>
<path d="M53.5183 286.831L60.0191 335.067L78.3516 332.511L74.1261 286.569L80.952 227.846L76.9214 211.92L46.2373 216.574L53.5183 286.831Z" fill="#292949"/>
<path d="M89.7284 142.384C87.7131 135.568 84.1376 123.902 78.1568 120.626C78.0268 120.56 77.8968 120.494 77.7668 120.429C76.5966 119.774 75.2964 119.249 73.9962 118.79C71.5909 117.283 68.2104 116.628 64.83 116.824C61.7096 116.628 58.6542 116.89 55.8588 117.676C54.5586 118.07 53.3234 118.725 52.0883 119.38C48.5128 121.281 45.7824 122.067 43.5071 125.738C41.5568 128.949 40.4517 132.685 38.9565 136.158C26.7348 165.061 16.7885 203.728 8.85742 234.269C12.6279 233.876 16.3984 233.286 20.1039 232.697C37.3313 234.663 57.0289 239.906 72.241 245.083C76.7916 247.836 81.2772 250.72 85.6978 253.603C84.5276 252.882 89.9884 228.633 90.4435 225.946C92.0037 216.05 93.3689 206.153 94.279 196.192C95.9692 177.841 94.9291 160.014 89.7284 142.384Z" fill="#B3CEFF"/>
<path d="M82.4481 94.9997C79.2626 82.8751 62.5554 77.6975 57.8748 91.3295C56.4446 95.3929 55.4694 99.784 56.0545 104.11C56.6396 108.435 58.9149 112.63 62.6854 114.596H62.7504C63.4005 114.923 59.76 121.871 59.5 122.46C59.1099 123.312 58.7199 124.23 58.5248 125.147C58.0698 127.245 58.7199 129.407 59.435 131.439C60.0851 133.274 60.8652 135.044 61.7753 136.813C61.8403 136.944 61.9053 137.141 62.1003 137.207C62.4254 137.469 62.8804 137.207 63.2055 137.01C65.8708 135.175 68.2762 132.881 70.2264 130.194C70.6815 129.604 71.0716 128.949 71.3316 128.228C71.5916 127.441 71.6566 126.524 71.6566 125.672C71.6566 123.312 69.6414 117.414 70.8115 115.513C71.2666 114.792 73.4769 114.268 74.257 113.809C75.5572 113.023 76.6623 112.04 77.7024 110.926C81.473 106.862 83.9433 100.636 82.4481 94.9997Z" fill="#EAC5B0"/>
<path d="M58.0694 95.0654C56.1842 98.1457 56.3142 101.881 56.7692 105.355C57.2243 108.763 56.8993 112.04 57.6794 115.448C57.2893 115.972 56.5092 115.645 56.0542 115.251C53.1288 113.023 50.2684 110.664 47.408 108.37C47.148 108.108 46.8229 107.911 46.6279 107.583C46.4329 107.19 46.4329 106.666 46.4979 106.207C47.148 96.7694 50.8535 89.8879 56.0542 82.482C58.5895 78.8774 65.4154 74.8795 69.2509 79.2051C70.1611 80.1881 70.4211 81.5645 70.6811 82.8752C70.8112 83.6617 70.9412 84.4482 70.7461 85.2346C70.031 88.3149 67.1707 88.1183 64.9604 89.1669C62.1 90.2155 59.6296 92.4439 58.0694 95.0654Z" fill="#292949"/>
<path d="M79.3924 101.292C79.3924 103.979 78.7423 107.125 77.9622 109.681C77.7021 110.598 76.0119 112.63 75.9469 113.22C75.8169 114.989 79.3273 119.053 80.3025 120.56C85.8932 117.414 91.419 114.334 97.0097 111.188C97.4648 110.926 97.8549 110.664 98.1149 110.27C98.3099 109.877 98.3749 109.418 98.3749 108.96C98.7 100.112 96.4247 92.1162 93.0442 84.0549C89.6638 75.9937 82.1877 69.5054 73.2815 70.0297C66.1306 70.4885 61.1249 75.7971 63.7252 83.2685C65.6755 88.9048 72.6314 90.0845 76.4019 93.8857C78.7423 96.3762 79.4574 98.7356 79.3924 101.292Z" fill="#292949"/>
<path d="M71.2661 221.621C70.941 222.604 70.486 223.521 69.9659 224.373C69.7059 224.832 69.3808 225.225 68.9908 225.553C68.7307 225.75 68.3407 225.946 68.0156 226.077C67.2355 226.405 66.4554 226.798 65.6753 227.126C65.4153 227.257 65.1552 227.388 64.8302 227.323C64.6352 227.257 64.4401 227.126 64.2451 226.995C63.335 226.34 62.4899 225.619 61.6447 224.898C61.5147 224.767 61.3847 224.636 61.3197 224.504C61.1897 224.177 61.3847 223.784 61.6447 223.521C62.8149 222.08 62.3599 221.555 62.7499 219.917C63.0099 218.868 63.725 218.344 64.5701 217.623C65.8703 216.443 67.2355 215.264 68.5357 214.084C68.6657 213.953 71.7861 216.116 72.1762 216.378C71.6561 217.557 71.9162 219.065 71.5911 220.31C71.5911 220.703 71.4611 221.162 71.2661 221.621Z" fill="#EAC5B0"/>
<path d="M73.0211 129.604C72.436 130.129 71.981 130.784 71.5259 131.57C69.6406 134.782 69.3806 138.78 70.0307 142.45C71.0708 148.283 73.8662 153.788 75.4915 159.49C77.3767 165.978 79.2619 172.466 81.1472 178.889L65.8701 215.198L73.2811 219.392L99.9997 179.086C97.0743 170.631 94.214 162.374 91.8086 153.722C89.6634 145.989 88.9483 137.272 83.5525 131.046C80.5621 127.507 76.1415 126.721 73.0211 129.604Z" fill="#BFD6FF"/>
<path d="M73.0211 129.604C72.436 130.129 71.981 130.784 71.5259 131.57C69.6406 134.782 69.3806 138.78 70.0307 142.45C71.0708 148.283 73.8662 153.788 75.4915 159.49C77.3767 165.978 79.2619 172.466 81.1472 178.889L65.8701 215.198L73.2811 219.392L99.9997 179.086C97.0743 170.631 94.214 162.374 91.8086 153.722C89.6634 145.989 88.9483 137.272 83.5525 131.046C80.5621 127.507 76.1415 126.721 73.0211 129.604Z" fill="url(#paint0_linear)"/>
<defs>
<linearGradient id="paint0_linear" x1="82.9349" y1="127.845" x2="82.9349" y2="219.392" gradientUnits="userSpaceOnUse">
<stop stop-color="#B3CEFF" stop-opacity="0.6"/>
<stop offset="0.723757" stop-color="#B3CEFF" stop-opacity="0"/>
</linearGradient>
</defs>
</svg>
