<svg width="170" height="430" viewBox="0 0 170 430" fill="none" xmlns="http://www.w3.org/2000/svg">
<path opacity="0.08" d="M84 380C130.392 380 168 375.075 168 369C168 362.925 130.392 358 84 358C37.6081 358 0 362.925 0 369C0 375.075 37.6081 380 84 380Z" fill="#9DAFBD"/>
<path d="M167.927 142.397C167.782 142.228 167.623 142.052 167.443 141.939C165.734 140.855 164.212 141.334 162.282 140.771C161.424 140.517 160.76 138.278 159.349 139.524C158.83 139.982 157.71 141.299 156.61 142.284C155.005 143.728 152.12 144.58 149.699 144.819C140.207 145.77 130.723 144.066 121.391 142.073C120.858 141.961 120.305 141.834 119.883 141.482C119.129 140.855 119.032 139.743 118.976 138.75C118.72 134.166 118.036 129.603 116.949 125.146C115.981 121.168 114.632 117.175 112.072 114.014C109.513 110.852 105.528 108.634 101.536 109.141C98.548 109.521 95.7877 111.465 94.3834 114.176C90.9037 120.914 97.8423 129.497 100.914 135.222C103.819 140.644 107.092 145.854 110.71 150.804C111.159 151.417 111.623 152.037 112.273 152.424C112.965 152.832 113.781 152.924 114.577 153.008C124.794 154.086 135.054 154.24 145.361 154.184C148.198 154.17 150.66 152.642 153.282 152.649C154.956 152.656 156.264 153.881 157.841 154.248C159.398 154.607 161.535 154.67 163.112 154.417C166.225 153.917 167.72 150.973 169.276 148.537C169.664 147.932 169.927 147.523 169.989 146.847C170.086 145.749 169.525 144.84 169 143.925C168.688 143.383 168.335 142.862 167.927 142.397Z" fill="#EAC5B0"/>
<path d="M97.1022 136.673C100.112 139.743 103.411 142.468 105.77 146.305C107.41 148.974 108.78 152.015 111.367 153.741C113.38 155.085 115.863 155.445 118.257 155.705C120.146 155.909 122.041 156.078 123.937 156.205C124.898 151.677 125.86 147.15 126.821 142.622C125.03 141.89 123.1 141.51 121.163 141.496C118.97 127.505 117.51 113.458 115.462 99.4525C114.542 93.1576 113.539 86.6374 110.115 81.3142C102.809 69.9355 85.5356 73.2872 83.9929 87.2641C82.7822 98.178 84.3803 109.423 87.9568 119.752C89.5202 124.273 91.4365 129.885 94.3974 133.638C95.2413 134.708 96.1545 135.708 97.1022 136.673Z" fill="#3F60B2"/>
<path d="M36.3844 350.206C34.226 350.354 32.2475 349.579 30.1514 349.34C30.2482 341.806 31.0507 334.589 32.6487 327.153C35.907 330.836 38.6465 328.695 38.5358 335.61C38.5012 337.849 35.9624 346.798 36.3844 350.206Z" fill="#E5D1BD"/>
<path d="M29.6808 345.594C27.2249 344.7 26.6715 350.671 26.6507 352.079C26.6369 352.924 26.7407 353.783 26.5262 354.6C26.291 355.501 25.7099 356.254 25.1426 356.98C23.9528 358.501 22.7629 360.022 21.573 361.549C21.0403 362.232 20.4938 362.937 20.2102 363.76C19.4977 365.802 20.6737 368.225 22.5761 369.203C29.1758 372.597 35.2012 364.38 36.6263 358.958C36.8477 358.127 37.0068 357.282 37.1659 356.438C37.498 354.691 38.7985 350.875 38.1136 349.171C37.3181 347.178 34.9107 348.622 33.3334 347.868C31.8599 347.171 30.67 345.953 29.6808 345.594Z" fill="#212940"/>
<path d="M76.5423 226.118C70.3923 243.158 63.2946 259.824 59.2476 277.667C54.246 299.706 46.1867 321.196 42.0498 343.277C39.3795 343.369 36.6954 343.249 34.0389 342.932C30.9951 342.566 26.1595 341.728 25.0595 338.348C24.4992 336.616 25.0941 333.807 25.1771 332.011C25.4538 326.259 25.8551 320.506 26.2701 314.76C27.4462 298.502 28.2556 282.047 31.1888 266.021C34.281 249.164 37.2419 232.244 39.9606 215.387C41.3649 206.677 43.0944 198.016 45.2251 189.454C45.7716 187.25 51.4858 164.514 52.6065 164.697C65.9165 166.852 78.3686 171.337 89.963 178.336C91.0906 179.019 92.1767 179.829 92.571 181.04C92.9653 182.251 92.6056 183.293 92.2459 184.391C88.78 194.869 84.1658 204.698 80.4717 215.133C79.1918 218.76 77.8844 222.386 76.5423 226.118Z" fill="#D8E4F2"/>
<path d="M77.6978 348.981C79.7178 349.776 81.8346 349.636 83.9031 350.037C86.0061 342.82 87.3551 335.68 88.0054 328.096C83.8201 330.624 81.8277 327.751 79.9115 334.384C79.2889 336.539 79.1021 345.855 77.6978 348.981Z" fill="#E5D1BD"/>
<path d="M86.0197 347.868C86.0267 351.952 89.1812 356.346 90.9314 360.021C91.139 360.451 91.3465 360.902 91.3534 361.38C91.3672 362.092 90.9383 362.725 90.5302 363.303C89.9629 364.105 89.3403 364.95 88.4341 365.309C87.5417 365.662 86.5455 365.486 85.6116 365.274C84.0481 364.922 82.5055 364.507 80.9766 364.014C80.5961 363.894 80.2087 363.76 79.8974 363.507C79.5308 363.204 79.3094 362.761 79.1019 362.331C78.0227 360.12 77.1095 358.557 77.1649 356.099C77.2271 353.558 77.5384 350.924 77.0818 348.41C76.8536 347.192 76.5561 345.629 77.5868 344.96C78.3824 344.439 79.8352 345.157 80.6999 345.298C82.2287 345.552 83.64 345.453 85.0443 346.27C85.3279 346.439 85.6116 346.636 85.7845 346.918C85.9713 347.199 86.0197 347.53 86.0197 347.868Z" fill="#212940"/>
<path d="M75.6223 218.351C76.5147 236.482 78.4171 254.543 77.0681 272.801C75.4009 295.354 76.8191 318.309 74.3148 340.651C76.8398 341.545 79.434 342.242 82.0628 342.742C85.079 343.312 89.9353 343.981 91.9761 341.08C93.0207 339.602 93.2698 336.736 93.7125 334.99C95.1307 329.413 96.4243 323.801 97.711 318.189C101.336 302.311 105.376 286.356 107.258 270.168C109.236 253.135 111.353 236.088 113.677 219.168C114.881 210.423 115.76 201.635 116.23 192.819C116.348 190.545 117.538 167.112 116.417 166.95C103.079 164.978 89.88 165.492 76.7706 168.661C75.4978 168.971 74.2179 169.414 73.4916 170.449C72.7652 171.484 72.7998 172.59 72.8205 173.752C73.0696 184.807 74.6053 195.587 75.0827 206.67C75.2418 210.521 75.4217 214.387 75.6223 218.351Z" fill="#D8E4F2"/>
<path d="M68.1305 72.8507C67.916 72.9282 67.6946 73.0056 67.4802 73.0901C63.8967 74.4702 60.8529 76.9628 57.8713 79.4132C53.3954 83.0957 51.1886 84.7082 49.4661 90.1581C47.8542 95.2419 46.8442 100.607 45.8549 105.846C40.7841 132.73 39.8087 159.507 36.1699 186.595C35.1807 193.967 34.4128 202.635 39.7741 207.698C49.2793 200.171 61.2264 199.734 72.7585 199.72C80.8524 199.713 88.7734 197.044 96.888 197.967C104.643 198.847 111.416 196.875 119.288 197.397C121.184 197.523 123.605 197.502 124.352 195.721C121.626 187.412 121.675 178.47 121.059 169.731C119.461 147.129 112.107 125.435 109.14 102.987C108.13 95.3546 107.59 82.6874 101.786 76.9135C95.4768 70.6398 81.0807 70.506 72.973 71.7382C71.3334 71.9776 69.7008 72.3085 68.1305 72.8507Z" fill="#3F60B2"/>
<path d="M88.8631 98.0443C87.8115 97.319 86.76 96.5938 85.7085 95.8685C87.8323 93.7069 89.9561 91.5452 92.0799 89.3765C92.9653 88.4752 93.8716 87.5387 94.3628 86.3699C94.8954 85.0954 94.8954 83.666 94.8678 82.2789C94.8332 80.3707 94.764 78.4132 94.0238 76.667C92.6679 73.4632 87.9084 71.6677 84.6639 71.8226C81.115 71.9916 77.6423 73.4984 74.4739 75.0193C73.457 75.5052 72.4262 76.0333 71.6237 76.836C69.8735 78.5893 69.5276 81.4269 70.1917 83.835C70.8558 86.2431 72.3708 88.3062 73.955 90.2214C75.5392 92.1366 77.241 93.9815 78.3963 96.1924C75.5462 97.8542 72.696 99.5159 69.8458 101.178C69.4584 101.403 69.0364 101.678 68.9465 102.121C68.8566 102.537 69.0987 102.945 69.3201 103.304C72.3017 108.078 75.7537 114.528 75.7883 120.274C75.8229 127.28 76.4455 134.335 76.7222 141.355C77.3033 155.966 77.4762 170.59 77.2549 185.208C77.2064 188.574 77.1303 191.932 77.0335 195.291C80.7207 195.531 84.4287 195.488 88.109 195.164C88.9046 195.094 89.7624 194.988 90.3435 194.432C91.0491 193.763 91.1252 192.672 91.1529 191.686C91.2151 189.243 91.229 186.792 91.2082 184.342C91.0837 169.914 89.7001 155.543 89.0014 141.144C88.4065 128.899 86.7669 114.436 94.6602 104.107C94.9023 103.797 95.1583 103.459 95.1652 103.058C95.1791 102.459 94.6326 102.016 94.1483 101.678C92.3842 100.466 90.6202 99.2554 88.8631 98.0443Z" fill="white"/>
<path d="M76.9158 73.1744C77.0472 73.4419 77.2271 73.6884 77.4692 73.9278C78.41 74.8713 79.7175 75.4135 81.0111 75.5965C82.7198 75.843 84.4562 75.5543 86.1511 75.2304C88.4409 74.7868 88.3579 73.4208 88.69 71.3084C88.8698 70.1536 88.9874 68.9848 89.0704 67.823C89.1189 67.1822 88.8768 64.8938 89.278 64.4432C89.5478 64.1404 90.6546 64.239 91.1389 63.9855C91.9068 63.5771 92.5501 62.8237 93.0136 62.0914C93.7608 60.9155 94.1689 59.5495 94.5702 58.2117C95.2689 55.881 95.9676 53.5504 96.6663 51.2127C97.3788 48.8327 98.0983 46.4246 98.3266 43.9461C98.6725 40.2072 98.0775 34.9333 95.3035 32.1942C92.7715 29.7016 89.0843 28.8285 85.7015 28.3849C81.2187 27.8005 76.5768 28.6384 72.7097 31.0606C71.1463 32.0393 69.6658 33.3067 68.7458 35.0459C67.3207 37.7357 67.4314 41.0873 67.5835 44.2207C67.7219 47.1147 67.8672 50.0086 68.0055 52.9026C68.1646 56.2331 68.5728 60.0706 71.0286 61.8731C72.3292 62.8307 74.031 63.0349 75.1448 64.2672C76.5422 65.8092 76.4523 68.1187 76.5076 70.0692C76.5353 71.2028 76.4523 72.259 76.9158 73.1744Z" fill="#EAC5B0"/>
<path d="M91.0976 35.7572C91.2498 36.0319 91.3812 36.3135 91.4781 36.6022C91.9969 38.1372 91.6441 39.8693 92.156 41.4114C92.9654 43.8547 95.7602 45.3193 96.1822 47.8541C96.5281 49.9313 95.1307 51.9029 95.0131 54.0082C94.8817 56.3036 96.3275 58.4794 96.1061 60.7467C95.9124 62.7182 94.681 65.4854 93.5258 67.0627C93.8855 66.5768 97.1231 66.7458 97.9601 66.2248C99.2468 65.4221 99.3921 64.9221 99.7795 63.5561C100.16 62.1972 99.8625 60.8664 100.457 59.4722C101.184 57.7682 102.678 56.5149 103.204 54.6982C103.916 52.2197 102.623 49.6004 102.72 47.0233C102.872 43.1154 106.192 39.4328 104.989 35.722C104.283 33.5463 102.201 32.1521 101.032 30.1876C100.146 28.6949 99.8141 26.9416 99.1984 25.3151C98.5827 23.6885 97.5243 22.062 95.8848 21.5691C94.9716 21.2945 93.9893 21.4072 93.0554 21.2311C91.4366 20.9284 90.0945 19.7877 88.538 19.2525C86.3104 18.485 82.3811 20.7805 81.0805 22.7027C79.7869 24.6109 80.4441 26.2304 81.7585 27.9203C83.9722 30.7298 89.2851 32.5676 91.0976 35.7572Z" fill="#212940"/>
<path d="M61.1015 24.2166C59.7664 25.2165 58.1199 25.9347 56.9024 27.0965C54.5226 29.3708 54.073 32.9971 53.9899 36.3135C53.9138 39.2638 52.6409 41.8902 52.9592 44.9672C53.1736 47.0373 54.0314 49.1216 55.6848 50.3467C57.7463 51.8676 60.977 52.1141 61.8901 54.5292C62.8863 57.1486 60.216 60.4509 61.8417 62.7323C62.7341 63.9857 64.4843 64.1758 65.7641 65.0137C67.1892 65.9572 67.9225 67.6401 68.7942 69.1258C69.6658 70.6115 70.9733 72.0972 72.6751 72.1394C72.7443 69.506 72.8204 67.4218 71.7135 65.0137C71.0702 63.6125 69.1747 61.0283 70.6343 59.5074C71.5544 58.247 73.7197 57.8386 73.775 56.2684C73.8027 55.5291 73.2977 54.9024 72.8965 54.2898C71.3538 51.9099 71.1947 48.7343 72.2462 46.0868C73.2908 43.4393 75.4492 41.3269 77.9673 40.0806C80.9212 38.623 80.4508 37.8907 81.3086 35.0038C82.0972 32.3493 83.5777 31.7296 85.9228 30.765C88.0259 29.8989 88.7038 29.3567 89.4855 27.35C90.0528 25.8854 90.7515 24.1251 89.9283 22.4845C89.2711 21.1818 88.095 20.2524 86.9467 19.3652C84.56 17.5133 81.8759 15.5629 78.8804 15.7812C77.2201 15.9009 75.6498 16.6965 73.9895 16.7951C72.8757 16.8585 71.7758 16.6121 70.662 16.5698C68.7665 16.5064 66.7672 17.0909 65.2315 18.2386C63.6819 19.4004 63.7303 20.6115 62.8656 22.2521C62.4436 23.0689 61.821 23.6815 61.1015 24.2166Z" fill="#212940"/>
<path d="M67.8051 13.3943C68.0956 11.5635 67.9088 9.16953 66.1863 8.5499C65.2455 8.21192 64.187 8.5851 63.2047 8.3809C61.1155 7.95139 60.4029 5.37429 59.3099 3.5154C59.1439 3.23375 58.9502 2.95209 58.6596 2.82535C58.2446 2.63524 57.7672 2.80423 57.3107 2.86056C55.2353 3.12109 53.6511 1.02983 51.7003 0.27642C49.279 -0.660068 46.2282 0.881966 45.5019 3.40978C45.2044 4.45188 45.2528 5.5644 44.9761 6.61355C43.8347 10.8453 37.7469 12.6479 37.5878 17.0346C37.484 19.999 40.3342 22.8366 39.2273 25.5827C38.5217 27.336 36.3011 28.533 36.5571 30.413C36.7231 31.6241 37.9821 32.4479 39.1858 32.4268C40.3826 32.4127 41.4895 31.7368 42.3888 30.9411C43.8208 29.6666 44.9 28.0331 46.2697 26.6811C47.6326 25.3292 49.4589 24.2378 51.3475 24.4772C53.1738 24.7096 54.8341 26.1601 56.6465 25.8503C58.0993 25.6038 59.1785 24.2801 60.6105 23.9069C61.9456 23.5619 63.3361 24.09 64.7128 24.1745C66.0894 24.2589 67.7774 23.5267 67.8189 22.1254C67.8258 21.7875 67.7359 21.4354 67.8397 21.1115C68.1302 20.2032 69.6521 20.2595 69.9427 19.3512C69.2232 18.2246 68.2132 18.6259 67.6944 17.1543C67.2931 16.0207 67.6252 14.549 67.8051 13.3943Z" fill="#212940"/>
<path d="M79.2131 173.949C79.1992 173.724 79.1854 173.491 79.1162 173.28C78.4452 171.351 76.9579 170.759 75.7956 169.098C75.2768 168.358 76.1277 166.183 74.2599 166.267C73.575 166.295 71.894 166.612 70.4274 166.697C68.2898 166.816 65.5088 165.647 63.468 164.303C55.4571 159.029 49.0788 151.685 42.998 144.214C42.6521 143.791 42.2924 143.341 42.1817 142.799C41.9742 141.834 42.583 140.897 43.1433 140.088C45.7444 136.335 48.0066 132.335 49.8813 128.16C51.5554 124.435 52.9459 120.457 52.8767 116.359C52.8076 112.261 51.0504 108.001 47.6122 105.867C45.0388 104.269 41.0679 103.107 38.9303 105.276C35.1255 109.134 32.2684 119.457 31.1615 125.885C30.117 131.962 29.4943 138.116 29.2937 144.284C29.2661 145.045 29.2522 145.833 29.5289 146.545C29.8195 147.298 30.4006 147.896 30.9748 148.467C38.3146 155.79 46.2425 162.408 54.3433 168.9C56.5709 170.682 59.4349 171.048 61.4826 172.717C62.7901 173.78 63.0599 175.569 64.0699 176.85C65.073 178.117 66.7056 179.526 68.0961 180.321C70.8355 181.906 73.8033 180.547 76.5151 179.624C77.1861 179.392 77.6427 179.244 78.1062 178.751C78.8533 177.956 78.971 176.885 79.1162 175.836C79.1992 175.202 79.2407 174.569 79.2131 173.949Z" fill="#EAC5B0"/>
<path d="M29.1206 125.048C29.1137 125.076 29.1067 125.104 29.1067 125.132C27.8408 131.948 27.2528 138.975 27.5364 145.911C27.6678 149.129 29.5426 149.938 31.8877 151.952C34.5719 154.262 37.256 156.571 39.9401 158.874C42.818 155.339 46.0348 152.086 49.5352 149.178C48.1378 147.361 44.7757 144.031 45.2323 141.862C45.765 139.306 48.4284 136.159 49.5698 133.737C52.247 128.04 54.3985 122.104 56.5223 116.176C59.5315 107.74 62.4785 99.2836 65.3633 90.7989C66.0689 88.7217 66.7815 86.5953 66.8022 84.3914C66.823 82.1874 66.0412 79.8638 64.2772 78.5823C62.4301 77.2374 59.8567 77.3219 57.7744 78.2443C55.6921 79.1667 54.0111 80.8144 52.4546 82.4973C49.6805 85.5039 47.1485 88.7429 44.8933 92.1719C42.7903 95.3757 40.9294 98.7414 39.0754 102.107C37.4912 104.98 35.9001 107.86 34.3159 110.733C33.4027 112.394 32.4827 114.056 31.7355 115.795C30.4626 118.746 29.7086 121.893 29.1206 125.048Z" fill="#3F60B2"/>
<path opacity="0.08" d="M80 424.217C80 427.408 62.201 430 40 430C17.799 430 0 427.408 0 424.217C0 421.027 17.799 418.435 40 418.435C62.201 418.435 80 421.027 80 424.217Z" fill="#9DAFBD"/>
<path d="M8.99564 243.958C8.99564 243.958 -3.44455 300.987 16.2684 339.87C35.9813 378.754 35.7899 378.554 35.7899 378.554C35.7899 378.554 40.9574 281.645 8.99564 243.958Z" fill="#5BB59B"/>
<path d="M9.76106 393.111C10.9094 400.09 12.4405 407.268 15.8855 413.45C19.1391 419.631 24.4979 425.015 31.1965 426.61C34.2587 427.408 37.3209 427.408 40.3831 427.208C43.8281 427.208 47.273 426.81 50.3352 425.015C54.163 422.622 56.0769 418.235 57.608 413.849C60.2874 406.471 62.2013 398.893 63.541 391.316C64.3065 386.929 64.8807 382.144 62.7754 378.156C60.096 372.772 53.7802 370.578 48.0386 369.581C38.4692 367.986 25.2635 367.189 16.0769 371.177C8.03858 374.766 8.42135 385.334 9.76106 393.111Z" fill="#D8E4F2"/>
<path d="M31.5793 378.754C39.2348 379.153 47.4645 377.956 52.2492 375.364C53.2061 374.766 53.9717 374.167 53.5889 373.569C53.0147 372.772 51.1009 372.373 49.187 372.373C40.0004 371.376 29.8568 370.977 20.8616 372.572C7.84726 374.766 24.498 378.355 31.5793 378.754Z" fill="#524F63"/>
<path d="M27.5601 230C27.5601 230 21.4357 338.674 35.7897 378.554C35.7897 378.554 45.1677 281.645 27.5601 230Z" fill="#63A590"/>
<path d="M34.0672 377.756H37.5121C42.4882 356.221 57.225 286.43 49.3782 253.928C49.3782 253.928 24.4978 345.453 30.8136 365.992C32.1533 371.376 33.3016 375.164 34.0672 377.756Z" fill="#5BB59B"/>
</svg>
