<svg width="180" height="420" viewBox="0 0 180 420" fill="none" xmlns="http://www.w3.org/2000/svg">
<path opacity="0.08" d="M96 370C142.392 370 180 365.075 180 359C180 352.925 142.392 348 96 348C49.6081 348 12 352.925 12 359C12 365.075 49.6081 370 96 370Z" fill="#9DAFBD"/>
<path d="M7.79159 52.8189C8.03593 52.8328 8.28705 52.8537 8.51102 52.9374C10.5811 53.725 11.2055 55.4117 12.9837 56.75C13.7778 57.3494 16.1398 56.4224 16.0176 58.5273C15.9769 59.301 15.6036 61.1899 15.5018 62.8487C15.3457 65.2603 16.5674 68.4177 17.9859 70.7387C23.5649 79.8625 31.4041 87.174 39.3857 94.1579C39.8405 94.5552 40.3224 94.9664 40.9061 95.0989C41.9513 95.3428 42.9626 94.6737 43.8449 94.0534C47.9375 91.1678 52.2881 88.6795 56.8287 86.6234C60.8806 84.7902 65.1972 83.2778 69.6225 83.4172C74.0477 83.5566 78.6222 85.6057 80.8755 89.5159C82.5655 92.4433 82.7624 96.228 81.3846 99.3296C77.9706 107.011 65.9642 106.641 59.0074 107.791C52.4238 108.879 45.7656 109.492 39.1007 109.624C38.2794 109.638 37.431 109.645 36.6641 109.325C35.8496 108.983 35.2184 108.321 34.6144 107.666C26.8159 99.2739 19.7777 90.2129 12.8887 80.9707C10.9951 78.4266 10.6422 75.1856 8.87074 72.8576C7.73729 71.366 5.80974 71.0385 4.43874 69.8745C3.08131 68.7244 1.58814 66.8565 0.746532 65.2812C-0.923105 62.1656 0.583646 58.827 1.62208 55.7881C1.87999 55.0284 2.04966 54.5196 2.59264 54.0038C3.46818 53.1744 4.61521 53.0559 5.75545 52.9025C6.43416 52.8049 7.11287 52.7701 7.79159 52.8189Z" fill="#EAC5B0"/>
<path d="M62.0886 113.374C56.3332 114.071 50.5641 114.197 44.9444 113.73C42.9422 113.562 40.9196 113.311 39.0599 112.531C36.1618 111.311 33.9152 108.913 31.7501 106.585C23.9856 98.2074 16.1737 89.7598 10.1738 79.9739C12.9769 78.2523 15.78 76.5238 18.5763 74.8022C19.1125 74.4746 19.6826 74.1331 20.307 74.154C21.1079 74.1819 21.7527 74.7952 22.3296 75.3668C27.2503 80.3085 32.1709 85.2432 37.0916 90.185C37.8654 90.9586 38.6934 91.7672 39.7522 91.9763C40.5463 92.1296 41.3607 91.9275 42.1345 91.6975C55.6273 87.7037 67.6609 77.5135 79.8031 70.5226C85.8029 67.0725 92.0471 63.5387 98.9021 62.9811C113.542 61.7823 122.297 79.486 111.404 90.3523C98.4813 103.247 80.3461 111.165 62.0886 113.374Z" fill="#F0F0FA"/>
<path d="M79.2124 331.082L79.4431 348.221L69.5543 348.353L69.2964 329.353L79.2124 331.082Z" fill="#EAC5B0"/>
<path d="M70.4366 345.67L79.0359 348.59L81.6015 351.427L81.1671 358.146L57.9144 360C55.9529 357.066 57.2289 353.079 60.5071 351.922L61.5862 351.538L70.4366 345.67Z" fill="#212940"/>
<path d="M150.484 314.653L157.034 330.419L147.932 334.392L140.67 316.918L150.484 314.653Z" fill="#EAC5B0"/>
<path d="M148.102 334.692C148.427 334.323 148.808 333.967 149.249 333.639C150.341 332.817 159.158 328.022 159.918 330.182C160.04 330.531 160 330.921 159.959 331.291C159.233 337.515 157.814 343.648 155.73 349.538C154.841 352.061 153.491 354.849 150.952 355.476C149.839 355.755 148.672 355.546 147.559 355.288C145.909 354.905 144.294 354.403 142.713 353.783C142.136 353.553 141.525 353.274 141.226 352.723C140.629 351.615 141.674 350.298 142.76 349.698C143.853 349.099 145.183 348.674 145.713 347.524C145.95 347.008 145.984 346.422 146.018 345.858C146.242 341.641 145.543 337.591 148.102 334.692Z" fill="#212940"/>
<path d="M88.3479 251.652C91.5922 266.888 100.87 277.838 110.779 289.039C122.121 301.863 132.783 315.308 142.713 329.311C147.002 327.471 151.299 325.631 155.588 323.798C151.998 302.386 142.109 282.738 134.446 262.49C129.118 248.417 124.808 233.537 124.571 218.328C124.456 210.766 126.241 203.851 127.198 196.491C128.379 187.381 128.446 178.041 129.519 168.883C129.878 165.816 130.082 162.185 127.781 160.184C126.756 159.292 125.413 158.923 124.096 158.658C75.2827 148.949 82.1784 222.677 88.3479 251.652Z" fill="#314F8F"/>
<path d="M128.114 171.748C128.141 162.505 127.041 153.591 125.358 146.795C111.472 146.028 95.7799 147.61 82.0495 150.468C68.6245 153.263 60.2559 156.267 60.1609 171.211C59.9845 198.714 49.5119 222.141 44.9984 248.578C42.3718 263.94 46.9124 277.684 51.9417 291.91C57.6972 308.192 62.5975 324.788 66.6155 341.613C71.2647 341.585 75.9207 341.557 80.5699 341.53C85.158 320.32 83.2644 298.288 83.658 276.569C83.9295 261.472 85.4363 246.027 90.8388 231.864C96.7776 216.293 105.329 222.489 115.144 213.463C124.666 204.681 128.066 187.716 128.114 171.748Z" fill="#314F8F"/>
<path d="M112.347 65.9083C113.881 67.128 115.225 68.5987 116.562 70.0624C117.757 71.3658 118.944 72.6761 120.139 73.9795C124.272 78.503 126.315 85.2082 128.087 90.9863C137.405 121.417 140.758 163.161 134.711 194.958C111.757 196.993 85.1852 191.047 62.2786 187.834C60.0524 187.521 57.5275 187.012 56.3737 185.032C55.6747 183.834 55.6543 182.356 55.6543 180.955C55.6543 160.77 59.808 139.079 63.7038 119.18C65.3463 110.781 67.3757 102.459 69.9684 94.318C72.7172 85.6961 75.8189 76.3911 82.2531 69.8742C89.1353 62.8972 102.323 59.4541 110.936 64.8976C111.417 65.2043 111.893 65.5458 112.347 65.9083Z" fill="#F0F0FA"/>
<path d="M110.264 70.2365C110.847 67.4903 110.732 64.2772 111.085 61.9143C111.641 61.6425 112.171 61.3358 112.666 61.0152C122.243 54.7353 138.301 21.0284 112.782 13.4799C89.6104 6.62837 90.8118 39.3664 95.332 53.0206C96.1057 55.3556 97.1374 57.5651 98.6713 59.4748C99.7165 60.7852 99.954 60.5343 99.8047 62.0607C99.5672 64.3538 97.8364 66.2915 97.531 68.6543C97.0627 72.3136 98.3523 77.0322 99.16 80.573C101.983 78.6563 104.8 76.7465 107.624 74.8297C109.11 73.8191 109.856 72.1463 110.264 70.2365Z" fill="#EAC5B0"/>
<path d="M89.8885 40.6489C91.307 45.0052 93.2956 49.1663 95.7797 52.9789C95.644 44.9216 96.5942 36.8433 98.5964 29.0509C98.7457 28.4584 98.895 27.7823 98.5828 27.2596C98.291 26.7717 97.6937 26.5905 97.144 26.465C87.384 24.3113 87.4112 33.0586 89.8885 40.6489Z" fill="#212940"/>
<path d="M115.53 52.7905C117.098 55.0488 120.526 54.4424 122.942 53.1948C132.858 48.0718 138.702 35.7489 136.496 24.576C134.656 15.2223 123.179 8.21046 120.858 19.8016C120.037 23.9069 122.474 29.6014 121.917 34.1597C121.116 40.6697 118.157 46.8939 115.53 52.7905Z" fill="#212940"/>
<path d="M89.9903 4.89293C88.8773 5.34598 87.7506 5.81994 86.5561 6.30087C84.0923 7.29061 82.3005 7.62517 79.7621 6.14057C79.0359 5.7154 74.1627 0.982769 75.3369 0C67.5656 6.50997 73.9591 16.017 76.8708 22.7501C78.8391 27.2875 79.2395 33.686 83.6579 36.6552C88.5175 39.9171 91.85 35.7909 96.2617 33.9439C100.151 32.3129 104.359 31.4347 108.316 29.9849C114.886 27.5803 124.659 23.3495 122.487 14.3861C119.949 3.91714 109.619 1.31036 100.341 2.11191C96.3703 2.44647 93.2685 3.56166 89.9903 4.89293Z" fill="#212940"/>
<path d="M95.6917 92.1502C94.6261 99.0366 94.6329 106.111 93.6759 113.039C93.1533 116.838 92.3321 120.588 91.6737 124.366C89.7937 135.078 89.1625 145.965 88.5245 156.832C88.4023 158.971 88.2733 161.118 88.1512 163.265C88.0697 164.624 87.5335 166.862 88.1783 168.165C88.8367 169.489 90.4656 169.622 91.6873 170.137C93.452 170.876 95.1012 171.908 96.5469 173.183C99.2346 172.368 101.04 169.643 101.664 166.834C102.289 164.025 101.943 161.097 101.637 158.233C98.9563 133.127 99.4314 107.658 103.049 82.678C104.135 83.1798 105.452 82.3574 105.954 81.2491C106.456 80.1409 106.368 78.8584 106.266 77.6387C106.286 77.8478 100.619 77.6178 100.192 77.5969C96.8252 77.4226 95.8206 78.2311 95.8139 82.0716C97.4564 82.8801 97.151 85.3266 96.6962 87.1388C96.2754 88.7907 95.9496 90.4635 95.6917 92.1502Z" fill="#314F8F"/>
<path opacity="0.1" fill-rule="evenodd" clip-rule="evenodd" d="M125.127 81.3687C124.813 80.8273 124.539 80.355 124.275 79.9785C123.23 78.4939 122.334 78.473 119.68 81.5049C117.685 83.7981 117.372 88.1055 117.169 90.9981C116.994 93.4375 116.272 95.8592 115.566 98.2271C114.875 100.548 114.198 102.817 114.067 105.001C113.891 107.956 114.718 111.352 115.526 114.672C116.059 116.865 116.585 119.025 116.809 121.004C118.004 131.535 117.882 142.22 116.429 152.717C116.212 154.32 116.056 156.223 117.244 157.29C117.474 157.495 117.736 157.649 118.016 157.77C117.82 159.195 117.668 160.632 117.523 161.995C117.244 164.636 116.994 166.999 116.51 168.463C115.655 171.062 114.04 174.025 112.119 175.426C111.357 175.978 110.48 176.514 109.757 176.956C109.231 177.277 108.786 177.549 108.529 177.74C107.428 178.561 108.017 179.404 108.554 180.173C108.829 180.566 109.09 180.939 109.106 181.28C109.151 182.173 109.041 182.956 108.935 183.71C108.773 184.864 108.62 185.948 109.051 187.247C109.133 187.477 109.275 187.693 109.418 187.895C109.812 188.46 110.273 188.982 110.762 189.463C110.804 189.504 110.846 189.545 110.888 189.586C111.68 190.355 112.471 191.124 113.592 191.289C114.308 191.393 114.808 191.208 115.535 190.938L115.547 190.934C115.858 190.819 116.174 190.705 116.494 190.591C119.206 189.622 122.105 188.586 123.27 185.637C123.936 183.971 124.397 181.601 124.411 179.796C124.416 179.035 124.252 178.287 124.088 177.54C123.859 176.495 123.63 175.453 123.868 174.38C123.966 173.937 124.396 172.839 124.989 171.322C126.083 168.529 127.732 164.314 128.895 160.145L130.512 160.482C131.103 160.607 131.761 160.719 132.27 160.391C132.786 160.057 132.976 159.395 133.125 158.788C137.137 142.234 137.395 124.768 134.089 108.061C134.05 107.861 134.01 107.661 133.97 107.458C132.441 99.6972 130.476 89.7251 126.196 83.1359C125.782 82.4973 125.435 81.8998 125.127 81.3687Z" fill="#2D4984"/>
<path d="M108.418 185.039C108.275 184.837 108.133 184.621 108.051 184.391C107.339 182.244 108.221 180.683 108.106 178.425C108.058 177.414 105.866 176.125 107.529 174.884C108.14 174.431 109.802 173.525 111.119 172.57C113.04 171.169 114.655 168.207 115.51 165.607C117.133 160.693 116.128 145.645 122.427 143.972C137.223 140.041 123.485 168.737 122.868 171.525C122.46 173.365 123.424 175.114 123.411 176.94C123.397 178.746 122.936 181.115 122.27 182.781C120.967 186.078 117.499 186.984 114.547 188.078C113.814 188.35 113.311 188.538 112.592 188.434C111.411 188.26 110.597 187.416 109.762 186.608C109.273 186.127 108.812 185.604 108.418 185.039Z" fill="#EAC5B0"/>
<path d="M123.275 77.123C123.798 77.8688 124.361 78.991 125.196 80.2804C129.587 87.0413 131.542 97.3639 133.089 105.205C136.395 121.912 136.137 139.379 132.126 155.933C131.976 156.539 131.786 157.201 131.27 157.536C130.761 157.863 130.103 157.752 129.513 157.626C125.834 156.86 122.155 156.093 118.477 155.326C117.683 155.159 116.855 154.978 116.244 154.434C115.056 153.368 115.212 151.465 115.429 149.862C116.882 139.365 117.004 128.68 115.809 118.148C115.246 113.172 112.775 107.052 113.067 102.145C113.332 97.7333 115.823 92.9728 116.169 88.1426C116.373 85.25 116.685 80.9426 118.68 78.6495C121.334 75.6175 122.23 75.6384 123.275 77.123Z" fill="#F0F0FA"/>
<path opacity="0.08" d="M180 414.217C180 417.408 162.201 420 140 420C117.799 420 100 417.408 100 414.217C100 411.027 117.799 408.435 140 408.435C162.201 408.435 180 411.027 180 414.217Z" fill="#9DAFBD"/>
<path d="M108.996 233.958C108.996 233.958 96.5554 290.987 116.268 329.87C135.981 368.754 135.79 368.554 135.79 368.554C135.79 368.554 140.957 271.645 108.996 233.958Z" fill="#5BB59B"/>
<path d="M109.761 383.111C110.909 390.09 112.44 397.268 115.885 403.45C119.139 409.631 124.498 415.015 131.196 416.61C134.259 417.408 137.321 417.408 140.383 417.208C143.828 417.208 147.273 416.81 150.335 415.015C154.163 412.622 156.077 408.235 157.608 403.849C160.287 396.471 162.201 388.893 163.541 381.316C164.307 376.929 164.881 372.144 162.775 368.156C160.096 362.772 153.78 360.578 148.039 359.581C138.469 357.986 125.263 357.189 116.077 361.177C108.039 364.766 108.421 375.334 109.761 383.111Z" fill="#D8E4F2"/>
<path d="M131.579 368.754C139.235 369.153 147.464 367.956 152.249 365.364C153.206 364.766 153.972 364.167 153.589 363.569C153.015 362.772 151.101 362.373 149.187 362.373C140 361.376 129.857 360.977 120.862 362.572C107.847 364.766 124.498 368.355 131.579 368.754Z" fill="#524F63"/>
<path d="M127.56 220C127.56 220 121.436 328.674 135.79 368.554C135.79 368.554 145.168 271.645 127.56 220Z" fill="#63A590"/>
<path d="M134.067 367.756H137.512C142.488 346.221 157.225 276.43 149.378 243.928C149.378 243.928 124.498 335.453 130.814 355.992C132.153 361.376 133.302 365.164 134.067 367.756Z" fill="#5BB59B"/>
</svg>
