<svg width="120" height="332" viewBox="0 0 120 332" fill="none" xmlns="http://www.w3.org/2000/svg">
<path d="M79.8654 320.938L70.9546 311.737C68.3883 310.309 65.6082 309.278 63.3983 309.278C61.7587 309.278 60.4756 309.913 59.6202 311.261C58.836 312.53 58.6935 314.275 59.1925 315.703C59.4063 316.179 59.6915 316.655 59.9766 317.131C60.2617 317.527 60.5469 317.845 60.832 318.162C61.0459 318.4 61.1885 318.638 61.4023 318.876C63.2558 321.097 66.3211 324.745 67.6042 325.538C69.3864 326.728 73.3784 329.98 78.0832 326.332C78.0832 326.332 78.012 326.332 78.012 326.252C79.7228 325.062 80.2218 322.921 79.8654 320.938Z" fill="#2B2B2B"/>
<path d="M72.8078 241.065L72.095 252.566L68.5307 308.644L72.095 315.148C72.095 315.148 72.8078 320.383 67.3901 319.986C65.7505 319.827 60.1189 311.816 60.1189 311.816L60.9744 308.088L56.9823 265.971L57.0536 253.756L55.1289 240.193L72.8078 241.065Z" fill="#EACFC1"/>
<path d="M16.2072 306.74C14.5677 306.185 12.9994 306.264 11.7875 307.374C10.5757 308.406 9.93408 310.151 10.0054 311.737C10.0767 312.847 10.5044 313.878 10.9321 314.91C13.0707 320.144 19.13 331.883 26.0447 329.742C28.9674 328.869 30.0367 325.538 29.4664 322.603C28.611 318.162 21.7676 308.643 16.2072 306.74Z" fill="#2B2B2B"/>
<path d="M51.2093 234.323L49.9974 250.9L20.7701 309.516C20.7701 309.516 24.976 317.685 22.3384 318.399C19.7008 319.113 11.8594 316.654 11.8594 307.374C14.9247 296.19 27.0433 258.277 27.0433 258.277L32.6749 248.521L32.6036 230.119L51.2093 234.323Z" fill="#EACFC1"/>
<path d="M18.1317 178.801C17.9179 173.883 19.2723 161.193 20.7693 156.592C26.0445 139.935 27.0425 131.686 27.0425 118.123C27.0425 104.56 21.6247 61.57 21.6247 61.57L43.367 49.1172L62.9706 49.6724L75.9447 56.4144C75.9447 56.4144 78.0833 108.288 78.8674 125.738C79.4377 138.19 80.1506 148.978 81.2198 163.413C81.2198 163.413 84.0713 196.33 79.6516 231.547C79.6516 231.547 78.6535 243.286 78.2258 244.317C78.1545 244.634 78.1545 244.872 78.1545 244.872C78.1545 244.872 78.012 244.872 77.9407 244.872H27.8266V224.805C26.187 218.38 24.5475 211.876 23.0505 205.372C21.1257 197.203 18.5594 187.922 18.1317 178.801Z" fill="#F0F0FA"/>
<path d="M28.7534 52.8451L20.1991 59.9837C20.1991 59.9837 26.6861 109.478 27.0426 118.123C27.399 126.769 17.3477 161.272 17.3477 161.272L58.8361 167.3C58.8361 167.3 64.9667 130.417 66.6776 112.095C68.4597 93.7728 43.3671 49.1172 43.3671 49.1172L28.7534 52.8451Z" fill="#587BC9"/>
<path d="M70.3133 51.9727L77.7983 56.8111C77.7983 56.8111 77.5845 111.54 79.723 125.5C81.0775 133.987 86.2101 161.589 86.2101 161.589L72.8083 166.745C72.8083 166.745 64.5391 132.242 62.8995 113.92C61.26 95.5972 63.0421 50.0691 63.0421 50.0691L70.3133 51.9727Z" fill="#587BC9"/>
<path d="M70.028 28.3363C69.8142 13.742 52.4204 12.9488 45.7195 23.4187C41.2998 30.24 43.7948 42.0582 50.3531 46.8173C50.2818 47.1345 50.2105 47.4518 50.1393 47.6898C49.7828 48.8795 49.569 50.1486 49.3551 51.4177C49.2838 51.8936 55.9847 52.8454 56.7689 52.9247C57.054 52.9247 57.3391 53.004 57.553 52.8454C57.9094 52.5281 57.9094 51.1004 57.9807 50.6245C58.1233 50.0693 58.1946 49.4347 58.3371 48.8795C62.4717 48.245 65.9647 45.0723 67.8182 41.1857C69.6003 37.2199 70.0993 32.6988 70.028 28.3363Z" fill="#EACFC1"/>
<path d="M68.6733 31.8262C69.7426 36.5852 67.2475 41.265 65.0377 45.2308C64.111 46.8965 62.7565 49.1174 63.8971 51.021C65.1803 53.0832 68.4594 52.6867 69.8851 51.1003C70.8831 49.9899 71.3821 48.4828 71.8099 47.0551C73.7346 40.5511 76.4434 31.4296 75.8732 24.529C75.4454 19.0561 69.3861 9.3001 63.1842 12.7901C62.0437 13.4246 61.3308 14.6144 60.6892 15.8041C60.3328 16.518 59.9764 17.2318 59.9051 18.025C59.6199 21.1977 62.4001 21.9909 64.1822 23.7358C66.3921 25.7981 67.9604 28.8121 68.6733 31.8262Z" fill="#1D2B56"/>
<path d="M46.4328 30.3191C46.2902 32.0641 45.506 33.9677 45.2922 35.792C44.8645 39.1233 45.5773 43.4857 44.4368 46.4998C41.3715 46.0239 37.6646 43.8823 35.4547 41.5821C33.1736 39.2026 33.6013 35.7127 33.031 32.2227C32.532 28.9707 31.9617 25.7187 32.1043 22.4667C33.031 4.54097 49.0703 -5.21507 63.185 2.8753C68.5314 5.96867 70.8839 13.6625 66.9631 18.8181C62.7573 24.291 54.1317 21.9115 49.0703 26.036C47.9298 26.7498 47.0743 28.4155 46.4328 30.3191Z" fill="#1D2B56"/>
<path d="M75.1609 55.0659L83.2875 60.5388L91.9131 108.209L115.646 113.82L112.652 122.545L82.0757 119.63L70.0283 78.7025L75.1609 55.0659Z" fill="#587BC9"/>
<path d="M112.728 122.803L104.459 117.568L109.52 108.605L116.15 108.367L119.999 113.206L112.728 122.803Z" fill="#EACFC1"/>
<path d="M20.1286 59.9043L27.6849 66.4083L37.0234 128.593L63.5418 149.533L59.6924 160.796L24.1206 142.077L13.5703 104.084L20.1286 59.9043Z" fill="#587BC9"/>
<path d="M63.4705 160.796L57.5537 159.051L61.8309 149.533L69.1733 148.581L73.0228 154.134L63.4705 160.796Z" fill="#EACFC1"/>
<path opacity="0.08" d="M120 322C120 327.41 84.1614 332 40 332C-4.16135 332 -40 327.574 -40 322C-40 316.59 -4.16135 312 40 312C84.1614 312.164 120 316.59 120 322Z" fill="#9DAFBD"/>
</svg>
