<svg width="130" height="326" viewBox="0 0 130 326" fill="none" xmlns="http://www.w3.org/2000/svg">
<path opacity="0.08" d="M110 316C110 321.41 87.6008 326 60 326C32.3992 326 10 321.574 10 316C10 310.59 32.3992 306 60 306C87.6008 306.164 110 310.59 110 316Z" fill="#9DAFBD"/>
<path d="M109.772 6.65437C109.64 6.78947 109.573 6.99211 109.507 7.19476C108.978 8.88351 109.706 10.0994 109.64 11.9232C109.64 12.7338 107.919 13.7471 109.243 14.6928C109.706 15.0305 111.03 15.706 112.089 16.4491C113.611 17.5299 114.935 19.8266 115.663 21.8531C118.444 29.8239 119.039 38.4027 119.37 46.8464C119.37 47.3193 119.37 47.8597 119.172 48.265C118.841 49.0756 117.914 49.3458 117.12 49.616C113.347 50.8319 109.706 52.3855 106.264 54.2769C103.153 55.9657 100.108 57.9921 98.0556 60.8292C96.0036 63.7339 94.9445 67.5842 96.2684 70.9617C97.1951 73.461 99.4457 75.42 101.961 76.0955C108.316 77.6491 113.942 69.8809 118.046 65.963C121.952 62.3153 125.593 58.3974 128.902 54.2094C129.299 53.669 129.763 53.1286 129.895 52.5206C130.094 51.8451 129.961 51.1021 129.895 50.4266C128.637 41.3749 126.585 32.5259 124.335 23.6093C123.739 21.1776 121.952 19.3537 121.356 17.1246C121.025 15.706 121.753 14.2875 121.687 12.8689C121.621 11.4504 121.224 9.55901 120.694 8.27556C119.635 5.70867 116.855 5.03318 114.538 4.22258C113.942 4.01993 113.545 3.88484 113.016 3.95239C112.089 4.08749 111.427 4.76298 110.831 5.43848C110.434 5.77623 110.103 6.18153 109.772 6.65437Z" fill="#EAC5B0"/>
<path d="M115.531 66.1656C113.28 61.302 111.096 56.4385 108.845 51.5073C108.978 51.8451 86.5376 60.4239 85.2137 60.9643C80.183 63.1259 74.9536 65.355 71.3129 69.408C63.4358 78.1219 69.8566 92.3073 81.7716 90.6861C94.7458 88.9299 108.117 81.9722 117.318 72.5828C117.517 72.3802 117.715 72.1775 117.781 71.9073C117.914 71.502 117.715 71.0967 117.583 70.759C116.921 69.2729 116.193 67.7193 115.531 66.1656Z" fill="#F3F7FB"/>
<path d="M2.13968 206.129C1.8749 207.953 1.67632 209.844 1.47774 211.533C1.21296 214.437 1.67632 217.747 0.94818 220.584C0.683402 221.733 0.286235 222.814 0.0876512 223.962C-0.110932 225.11 0.0214567 226.394 0.551013 227.339C1.27915 228.488 2.53685 228.893 3.66215 229.163C4.72127 229.433 5.84657 229.636 6.90568 229.298C9.0901 228.758 10.6788 226.394 11.3407 223.827C12.135 220.787 11.7379 217.747 11.6055 214.64C11.6055 209.709 10.3478 205.521 10.5464 200.59C10.6126 199.779 10.6126 198.833 10.1492 198.158C9.68585 197.415 8.75913 197.077 7.8986 197.145C6.17754 197.212 4.52268 197.685 3.86074 199.374C3.0664 201.4 2.47065 203.765 2.13968 206.129Z" fill="#292949"/>
<path d="M6.57413 202.278C5.64741 203.022 4.98546 204.035 4.32352 205.048C3.86016 205.724 3.46299 206.602 3.86016 207.277C4.05874 207.547 4.32352 207.682 4.5883 207.885C5.64741 208.561 6.77271 209.236 7.83183 209.912C8.03041 210.047 8.29519 210.182 8.55996 210.182C8.75855 210.182 8.95713 209.979 9.08952 209.844C10.1486 208.966 11.1416 207.953 12.0683 206.939C16.4371 202.346 10.4134 199.239 6.57413 202.278Z" fill="#EAC5B0"/>
<path d="M81.8375 161.006C81.5727 159.925 80.646 159.182 79.7192 158.506C69.9886 151.751 59.3975 147.226 47.9459 144.591C46.953 144.389 40.7969 163.91 40.2673 165.802C37.9505 173.165 36.0309 180.595 34.3098 188.161C32.4564 196.402 30.5367 204.643 28.6171 212.816C24.844 209.101 20.8723 205.589 16.6359 202.481C15.9077 201.941 15.1134 201.4 14.1867 201.333C13.0614 201.265 12.0685 201.941 11.2079 202.616C9.68546 203.832 8.29538 205.116 6.97149 206.534C6.50813 207.007 6.11096 207.547 5.97857 208.223C5.84618 208.831 6.11096 209.506 6.37574 210.114C10.6122 220.382 17.2978 236.864 22.6596 246.591C25.2412 251.32 30.2058 252.873 35.2365 252.468C36.5604 252.333 37.421 251.995 38.5463 251.59C39.8702 251.117 41.3264 251.117 42.6503 250.644C43.5108 250.306 44.239 249.631 44.8347 248.955C50.2627 242.808 53.9034 234.23 57.1469 226.732C60.6552 218.626 63.5678 210.249 66.1494 201.738C66.3479 201.13 66.5465 200.522 66.7451 199.847C70.8492 187.215 76.3433 176.272 81.3079 163.843C81.7051 163.032 82.1022 162.087 81.8375 161.006Z" fill="#353A85"/>
<path d="M66.5469 305.495C68.3341 306.17 70.1214 306.035 71.9748 306.44C73.8283 300.158 74.9536 293.876 75.5493 287.256C71.9086 289.485 70.1876 286.986 68.4665 292.728C67.937 294.619 67.7384 302.793 66.5469 305.495Z" fill="#EAC5B0"/>
<path d="M73.7619 304.549C73.7619 308.129 76.5421 311.979 78.0646 315.154C78.2631 315.56 78.3955 315.897 78.4617 316.37C78.4617 316.978 78.1308 317.519 77.7336 318.059C77.2702 318.734 76.6745 319.477 75.8801 319.815C75.0858 320.153 74.2253 319.95 73.4309 319.815C72.0409 319.477 70.717 319.14 69.3931 318.734C69.0621 318.599 68.7311 318.532 68.4664 318.262C68.1354 317.991 67.9368 317.586 67.8044 317.248C66.8777 315.289 66.0834 313.938 66.1496 311.777C66.2157 309.548 66.4805 307.251 66.0834 305.089C65.8848 304.009 65.62 302.658 66.5467 302.05C67.2087 301.577 68.5326 302.252 69.2607 302.32C70.5846 302.522 71.8423 302.455 73.0338 303.198C73.2986 303.333 73.4971 303.536 73.6957 303.738C73.6957 303.941 73.7619 304.211 73.7619 304.549Z" fill="#292949"/>
<path d="M64.6935 191.403C65.4879 207.21 67.1427 223.016 65.9512 238.958C64.495 258.683 65.7527 278.745 63.5682 298.199C65.7527 299.01 68.0033 299.618 70.3201 300.023C72.9679 300.496 77.2043 301.104 78.9254 298.604C79.8521 297.321 80.0507 294.822 80.4478 293.268C81.7055 288.404 82.8308 283.473 83.9561 278.61C87.1335 264.762 90.6418 250.779 92.2966 236.661C94.0177 221.8 95.8711 206.872 97.9232 192.079C98.9823 184.445 99.7104 176.745 100.174 169.044C100.306 167.085 101.299 146.618 100.306 146.415C88.656 144.726 77.2043 145.132 65.7527 147.901C64.6274 148.171 63.502 148.577 62.9063 149.455C62.3105 150.333 62.3105 151.346 62.3105 152.359C62.5091 162.019 63.833 171.408 64.2964 181.136C64.3626 184.513 64.5612 187.891 64.6935 191.403Z" fill="#353A85"/>
<path d="M58.2063 64.2744C58.0077 64.3419 57.8091 64.4095 57.6105 64.477C54.4994 65.6929 51.8516 67.8545 49.27 70.0161C45.3646 73.2585 43.4449 74.6095 41.9224 79.4055C40.5324 83.8638 39.6056 88.5247 38.8113 93.1181C34.3763 116.625 33.5157 139.998 30.4046 163.64C29.5441 170.057 28.8821 177.623 33.5157 182.081C41.7901 175.461 52.1826 175.123 62.2442 175.123C69.327 175.123 76.2112 172.759 83.294 173.57C90.0458 174.313 95.9371 172.624 102.821 173.097C104.476 173.232 106.594 173.164 107.256 171.611C104.873 164.383 104.94 156.547 104.41 148.914C103.02 129.19 96.5991 110.208 94.0175 90.6188C93.157 83.9313 92.6936 72.8532 87.5966 67.8545C82.1025 62.383 69.5255 62.2479 62.5089 63.3287C60.9865 63.5313 59.5302 63.8015 58.2063 64.2744Z" fill="#F3F7FB"/>
<path d="M80.7871 98.8145L77.5889 99.321L78.3125 103.449L81.5108 102.942L80.7871 98.8145Z" fill="#587BC9"/>
<path d="M86.9292 108.002L74.9585 109.898L72.25 94.4487L84.2208 92.5527L86.9292 108.002ZM75.4286 109.018L86.1805 107.315L83.7478 93.4385L72.9959 95.1414L75.4286 109.018Z" fill="#587BC9"/>
<path d="M79.7782 100.527L79.1699 100.623L80.8197 110.034L81.428 109.938L79.7782 100.527Z" fill="#587BC9"/>
<path d="M75.1317 92.7713L74.5234 92.8677L76.4309 103.748L77.0391 103.652L75.1317 92.7713Z" fill="#587BC9"/>
<path d="M81.5331 91.7574L80.9248 91.8538L82.8323 102.734L83.4405 102.638L81.5331 91.7574Z" fill="#587BC9"/>
<path d="M75.294 90.7633L73.6914 91.0171L74.0537 93.0838L75.6563 92.8299L75.294 90.7633Z" fill="#587BC9"/>
<path d="M78.4932 90.2569L76.8906 90.5107L77.2529 92.5774L78.8555 92.3236L78.4932 90.2569Z" fill="#587BC9"/>
<path d="M81.6905 89.7476L80.0879 90.0015L80.4502 92.0681L82.0528 91.8143L81.6905 89.7476Z" fill="#587BC9"/>
<path d="M78.7295 110.361L77.127 110.615L77.4893 112.682L79.0918 112.428L78.7295 110.361Z" fill="#587BC9"/>
<path d="M81.9268 109.856L80.3242 110.11L80.6865 112.177L82.2891 111.923L81.9268 109.856Z" fill="#587BC9"/>
<path d="M85.125 109.351L83.5225 109.605L83.8848 111.671L85.4873 111.418L85.125 109.351Z" fill="#587BC9"/>
<path d="M87.0811 94.7271L85.4785 94.981L85.8408 97.0476L87.4434 96.7938L87.0811 94.7271Z" fill="#587BC9"/>
<path d="M87.8037 98.8521L86.2012 99.106L86.5635 101.173L88.166 100.919L87.8037 98.8521Z" fill="#587BC9"/>
<path d="M88.5264 102.982L86.9238 103.236L87.2861 105.303L88.8887 105.049L88.5264 102.982Z" fill="#587BC9"/>
<path d="M71.8936 97.1334L70.291 97.3872L70.6533 99.4539L72.2559 99.2001L71.8936 97.1334Z" fill="#587BC9"/>
<path d="M72.6153 101.259L71.0127 101.513L71.375 103.579L72.9776 103.326L72.6153 101.259Z" fill="#587BC9"/>
<path d="M73.3408 105.39L71.7383 105.644L72.1006 107.711L73.7032 107.457L73.3408 105.39Z" fill="#587BC9"/>
<path d="M63.436 63.9365C63.5684 64.1392 63.7008 64.4094 63.8993 64.612C64.6937 65.4226 65.8852 65.8955 67.0105 66.0981C68.4668 66.3008 69.9892 66.0306 71.5117 65.7604C73.4975 65.3551 73.4313 64.2067 73.6961 62.3153C73.8285 61.3021 73.9609 60.2888 74.0271 59.2756C74.0933 58.7352 73.8285 56.7087 74.2257 56.3034C74.4905 56.0332 75.4172 56.1008 75.8805 55.8981C76.5425 55.5604 77.1382 54.8849 77.5354 54.2769C78.1973 53.2637 78.5283 52.0478 78.8593 50.8994C79.455 48.8729 80.0508 46.8465 80.7127 44.82C81.3085 42.7259 81.9704 40.6319 82.169 38.4703C82.5 35.2279 81.9704 30.567 79.5212 28.2027C77.3368 26.0411 74.0933 25.2305 71.1807 24.8928C67.2753 24.3524 63.2374 25.0954 59.8615 27.257C58.4714 28.1352 57.2137 29.216 56.4194 30.7696C55.1617 33.1339 55.294 36.0385 55.4264 38.808C55.5588 41.3074 55.6912 43.8743 55.8236 46.3736C55.956 49.2782 56.287 52.6557 58.4714 54.2094C59.5967 55.02 61.1192 55.2226 62.0459 56.3034C63.2374 57.6544 63.1712 59.6809 63.2374 61.3696C63.105 62.2478 63.0388 63.1259 63.436 63.9365Z" fill="#EAC5B0"/>
<path d="M75.8142 31.2425C75.9466 31.5127 76.079 31.7154 76.1452 31.9856C76.6086 33.3366 76.2776 34.8227 76.741 36.1737C77.4691 38.3352 79.8521 39.6187 80.2493 41.7803C80.5803 43.6041 79.3226 45.2929 79.2564 47.1843C79.124 49.2107 80.3817 51.1021 80.1831 53.0611C79.9845 54.7498 78.9254 57.1816 77.9325 58.6001C78.2634 58.1949 81.0436 58.3299 81.7718 57.8571C82.8971 57.1816 83.0295 56.7088 83.3604 55.4929C83.6914 54.277 83.4266 53.1286 83.9562 51.9127C84.6181 50.4266 85.8758 49.3458 86.3392 47.7246C86.9349 45.5631 85.8096 43.2664 85.942 41.0372C86.0744 37.5922 88.987 34.4174 87.9278 31.175C87.3321 29.2836 85.4786 28.0677 84.4857 26.3114C83.6914 25.0279 83.4266 23.4743 82.8971 22.0558C82.3675 20.6372 81.4408 19.2187 79.9845 18.8134C79.1902 18.5432 78.3296 18.6783 77.5353 18.5432C76.1452 18.273 74.9537 17.2597 73.6298 16.7869C71.7102 16.1114 68.2681 18.1379 67.1428 19.8266C66.0175 21.5154 66.6132 22.9339 67.7385 24.3525C69.592 26.8518 74.2256 28.473 75.8142 31.2425Z" fill="#292949"/>
<path d="M49.668 21.1776C48.4765 22.0558 47.0864 22.6637 46.0273 23.677C43.9753 25.6359 43.5781 28.8107 43.5119 31.7154C43.4457 34.2823 42.3204 36.5789 42.5852 39.2809C42.7838 41.1048 43.5119 42.9286 44.9682 44.0094C46.7554 45.3604 49.6018 45.563 50.3961 47.6571C51.2567 49.9538 48.9399 52.8584 50.3299 54.8174C51.1243 55.8982 52.6467 56.1008 53.772 56.8439C55.0297 57.6544 55.6255 59.1406 56.4198 60.424C57.148 61.7074 58.3395 62.9909 59.7958 63.0584C59.8619 60.7617 59.9281 58.9379 58.9352 56.8439C58.4057 55.628 56.7508 53.3313 58.0085 52.0478C58.8028 50.967 60.7225 50.5617 60.7225 49.2107C60.7225 48.5352 60.3253 47.9948 59.9281 47.4544C58.6042 45.3604 58.4719 42.5909 59.3324 40.2942C60.2591 37.9975 62.1126 36.1061 64.297 35.0253C66.8786 33.7419 66.4814 33.1339 67.2095 30.567C67.8715 28.2703 69.1954 27.7299 71.2474 26.8518C73.1008 26.1087 73.6966 25.6359 74.3585 23.8796C74.8219 22.5962 75.4838 21.0425 74.7557 19.624C74.16 18.4756 73.167 17.665 72.1741 16.922C70.1221 15.3008 67.7391 13.612 65.1575 13.8147C63.7012 13.9498 62.3773 14.6253 60.9211 14.6928C59.9281 14.7604 59.0014 14.5577 58.0085 14.4902C56.3536 14.4226 54.6326 14.963 53.3087 15.9763C51.9848 16.9895 51.9848 18.0703 51.2567 19.4889C50.7933 20.1644 50.2637 20.7048 49.668 21.1776Z" fill="#292949"/>
<path d="M55.4928 11.7207C55.7576 10.0995 55.559 8.00545 54.1027 7.46505C53.3084 7.19485 52.3817 7.46506 51.5211 7.32996C49.7339 6.92466 49.0719 4.69552 48.1452 3.07432C48.0128 2.80412 47.8142 2.60147 47.5495 2.46637C47.2185 2.33127 46.7551 2.46637 46.358 2.46637C44.5707 2.66902 43.1806 0.845185 41.4596 0.237238C39.3413 -0.573358 36.6936 0.77763 36.0316 3.00677C35.7668 3.88492 35.833 4.89817 35.5683 5.77631C34.5753 9.49154 29.2798 11.0452 29.1474 14.8955C29.0812 17.4624 31.5304 19.9617 30.6037 22.3935C30.0079 23.9472 28.0221 24.9604 28.2869 26.5816C28.4192 27.6624 29.5446 28.3379 30.6037 28.3379C31.6628 28.3379 32.5895 27.73 33.3838 27.0545C34.6415 25.9737 35.5683 24.4876 36.7598 23.3392C37.9513 22.1909 39.5399 21.1776 41.1948 21.4478C42.7835 21.6505 44.2397 22.9339 45.8284 22.6637C47.0861 22.4611 48.0128 21.3127 49.2705 20.975C50.462 20.6372 51.6535 21.1101 52.845 21.1776C54.0365 21.2452 55.4928 20.6372 55.559 19.4213C55.559 19.1511 55.4928 18.8134 55.559 18.5432C55.8238 17.7326 57.1477 17.8002 57.4124 16.9896C56.8167 15.9763 55.89 16.3816 55.4266 15.0982C55.0294 14.0174 55.3604 12.7339 55.4928 11.7207Z" fill="#292949"/>
<path d="M56.0881 156.75C56.1543 156.548 56.1543 156.345 56.1543 156.142C56.0219 154.386 54.8966 153.508 54.3008 151.819C54.0361 151.076 55.2276 149.455 53.6389 149.05C53.0431 148.914 51.5869 148.779 50.3292 148.509C48.4757 148.104 46.4237 146.483 45.0336 144.861C39.4733 138.579 35.7664 130.879 32.2581 123.178C32.0595 122.705 31.8609 122.3 31.8609 121.827C31.9271 120.949 32.6552 120.341 33.251 119.733C36.2959 117.166 39.0761 114.329 41.5915 111.222C43.8421 108.452 45.8941 105.412 46.7547 101.967C47.6152 98.5224 47.0856 94.4694 44.6364 91.9025C42.8492 89.9435 40.069 88.9979 37.4874 89.4032C31.0666 90.4164 28.7498 99.8058 26.3668 105.007C24.1161 109.871 22.2627 114.937 20.674 120.071C20.4755 120.679 20.2769 121.354 20.3431 122.03C20.4093 122.705 20.8064 123.381 21.1374 123.989C25.7048 131.892 30.868 139.255 36.2297 146.618C37.686 148.644 40.0028 149.59 41.3929 151.481C42.2534 152.697 42.0549 154.251 42.6506 155.602C43.1802 156.885 44.2393 158.439 45.2322 159.452C47.218 161.411 49.9982 160.938 52.4474 160.803C53.0431 160.736 53.5065 160.736 53.9699 160.465C54.7642 159.993 55.0952 159.114 55.4923 158.236C55.7571 157.763 55.9557 157.291 56.0881 156.75Z" fill="#EAC5B0"/>
<path d="M28.6171 103.859C32.4564 107.506 36.3618 111.154 40.2011 114.802C39.9364 114.599 57.4779 97.9144 58.537 96.9011C62.3763 92.9832 66.3479 88.8627 68.2676 83.6614C72.3055 72.5157 61.1186 61.9104 50.6599 68.0574C39.3406 74.7448 29.5438 86.3634 24.513 98.5899C24.3806 98.8601 24.3145 99.1302 24.3145 99.4004C24.3806 99.8057 24.6454 100.076 24.9764 100.346C26.1679 101.562 27.3594 102.71 28.6171 103.859Z" fill="#F3F7FB"/>
</svg>
